<mxfile host="app.diagrams.net" agent="Mozilla/5.0 (Macintosh; Intel Mac OS X 10_15_7) AppleWebKit/537.36 (KHTML, like Gecko) Chrome/138.0.0.0 Safari/537.36" version="28.0.6">
  <diagram name="Page-1" id="5aRcWmAgRCtQ8XxTBRXs">
    <mxGraphModel dx="3395" dy="1505" grid="1" gridSize="10" guides="1" tooltips="1" connect="1" arrows="1" fold="1" page="1" pageScale="1" pageWidth="850" pageHeight="1100" math="0" shadow="0">
      <root>
        <mxCell id="0" />
        <mxCell id="1" parent="0" />
        <mxCell id="LWCK1zUq5cx6b3XLf9eT-1" value="" style="rounded=0;whiteSpace=wrap;html=1;fillColor=light-dark(#FFFFFF,#FFFFFF);" parent="1" vertex="1">
          <mxGeometry x="-60" y="110" width="2560" height="1620" as="geometry" />
        </mxCell>
        <mxCell id="LWCK1zUq5cx6b3XLf9eT-4" value="" style="shape=image;verticalLabelPosition=bottom;labelBackgroundColor=default;verticalAlign=top;aspect=fixed;imageAspect=0;image=data:image/png,iVBORw0KGgoAAAANSUhEUgAAB9AAAAfQCAYAAACaOMR5AACAAElEQVR4nOzdP2tkW3ro4bVLqsr8AcapYSs0BgcC05kFhqYzgxI5dFS0gskmKAXSN5DpDzDQcOlgIlFRhZVUcOFyBxyoPoDn4tRZqdXroppT56i79ack7dpr7b2eJ+luz3D8njOg06pfv+8aBAAAAAAAAAAg7KceAAAAgDTG82n93H9nbzg6eej/fnuz+vzYf/ajGMJxFcKXx35+9+Pdr+///KWqGOpYheVbfnzN/9/v/j7v/fXuz/Sqv58H/rls/rk95+5/m6f+80/v3r9qJgAAAChBlXoAAACA0j0WsrcN1OGXGB2eidBNRGL646G4/1yk/zHOi/EAAAD0jYAOAADwAg/F7m1C90NRW9CmL36M8U+F+PsRXoAHAAAgNwI6AABQnPsR/Kn4/WP0Fryheffj+0PhXXAHAACgTQI6AADQST9ugj8Uwu8HcPEb+mHb4C62AwAA8BoCOgAAkIVttsIFceAlnortQjsAAAAPEdABAICdeSqKb2K4EA6ktgntIjsAAAACOgAA8GLbhPEgjgM98lhkvzw8Orv7miiyAwAA9IOADgAA/MrGOMDrPBTYbbADAAB0j4AOAAAF2QRycRygXQI7AABANwjoAADQM+P5tH4okIvjAPn6MbCL6wAAAGkI6AAA0DEPbZHbIAfop8c214V1AACA3RDQAQAgQ49FcoEcgA1xHQAAoHkCOgAAJCKSA7ArsQpLYR0AAODlBHQAANgxoRyAXDz01rqwDgAA8BsBHQAAGvJjKPcuOQBd8ePG+uXh0VnaiQAAANIQ0AEA4IWEcgBKcT+s396sPt/9aGMdAADoMwEdAACeMJ5Pa6EcAH5jWx0AAOgzAR0AAB7ZKhfKAWA73lYHAAD6QkAHAKA4YjkAtOPHE/CiOgAAkDsBHQCAXhPLASAfNtUBAIDcCegAAPTKj2+Wi+UAkDdvqgMAADkR0AEA6LTTxew8iOUA0Cs21QEAgFQEdAAAOsN2OQCUy3vqAABAGwR0AACyZbscAHiKqA4AADRNQAcAIAu2ywGAtxLUAQCAtxLQAQBIxoY5ALBrm6h+e7P6fPdrUR0AAHiKgA4AQCvub5iHGCap5wEAymRLHQAAeIqADgDAztgwBwByJ6gDAAD3CegAADTCG+YAQB8I6gAAUDYBHQCAV7NhDgAUoQoXQVAHAIAiCOgAAGxts2UeQzi++7VoDgCUxoY6AAD0m4AOAMCjxvPpOpBvorlgDgDwPUEdAAD6RUAHAOA797fMBXMAgJfZBPXbm9Xnu18L6gAA0C0COgBA4WyZAwDsRqzCOp5vgrqYDgAA+RPQAQAKtNkyv/u5aA4A0A7n3gEAIH8COgBAIe5H8xDDJPU8AAClE9QBACA/AjoAQI95zxwAoBucewcAgDwI6AAAPSOaAwB0n+10AABIQ0AHAOgB0RwAoL9spwMAQHsEdACAjhLNAQDKtNlOF9MBAKB5AjoAQIeI5gAA/KQKF8GpdwAAaISADgCQOdEcAIBt2U4HAIC3EdABADIkmgMA8FZiOgAAvJyADgCQkdPF7Fw0BwBgJ3459X55eHSWehQAAMiVgA4AkNhm2zzEMEk9CwAAhfBuOgAAPEhABwBIwIl2AABy4dQ7AAD8RkAHAGiJaA4AQO7EdAAASiegAwDs2Olidr7+iRPtAAB0iJgOAECJBHQAgB2wbQ4AQJ+I6QAAlEJABwBo0Cac2zYHAKCvxHQAAPpMQAcAeCPb5gAAlEpMBwCgbwR0AIBXsm0OAAC/EdMBAOgDAR0A4AVsmwMAwPPEdAAAukpABwDYgnAOAACvI6YDANAlAjoAwBNOF7Nz0RwAABpShYu7Hy4Pj85SjwIAAA8R0AEAfmDbHAAAWiCmAwCQIQEdAOAXwjkAALTPiXcAAHIioAMAxduE8xDDJPUsAABQMjEdAIDUBHQAoFjeNwcAgHxtYroT7wAAtElABwCKI5wDAEDHVOHCVjoAAG0Q0AGAIjjTDgAA3efEOwAAuyagAwC9JpwDAEA/iekAAOyCgA4A9NJ4Pq0Hw9GVM+0AANBvQjoAAE0S0AGAXhHOAQCgXGI6AABvJaADAL1wupidxxCOhXMAACDci+mXh0dnqWcBAKA7BHQAoNOEcwAA4Cm20gEAeAkBHQDoJOEcAAB4KVvpAAA8R0AHADpFOAcAAN7KVjoAAI8R0AGAThDOAQCAXbCVDgDAfQI6AJA14RwAAGiDrXQAAIKADgDkSjgHAABSiVVYfrtZfRDSAQDKI6ADAFkRzgEAgFzYSgcAKI+ADgBkQTgHAAByJaQDAJRDQAcAkhrPp/VgOLoSzgEAgC7YxPTLw6Oz1LMAANA8AR0ASGI8n9Z7w9FJiGGSehYAAICXspUOANBPAjoA0CrhHAAA6J0qXAjpAAD9IKADAK0QzgEAgL6zlQ4A0H0COgCwc6eL2XkM4dg75wAAQAmEdACA7hLQAYCdEc4BAIDiOe8OANApAjoA0LjxfFoPhqMr4RwAAOCvNlvpl4dHZ6lnAQDgcQI6ANAY4RwAAGALttIBALIloAMAbzaeT+u94egkxDBJPQsAAEBnCOkAANkR0AGAVxPOAQAA3s55dwCAfAjoAMCrnC5m5zGEY+faAQAAmrEJ6bbSAQDSEdABgBfxzjkAAMBuCekAAOkI6ADAVpxrBwAASMA76QAArRLQAYBnnS5m58I5AABAOt5JBwBoh4AOADzKuXYAAIC8OO8OALBbAjoA8BPhHAAAIG9COgDAbgjoAMCvvHMOAADQQd5JBwBojIAOAKydLmbnMYRjW+cAAADdFKuw/Haz+iCkAwC8noAOAIVzrh0AAKBfNufdLw+PzlLPAgDQNQI6ABTKuXYAAIB+E9IBAF5OQAeAAjnXDgAAUI5NSPdOOgDA8wR0ACiIc+0AAADlEtIBAJ4noANAIU4Xs3Pn2gEAAFirwoWQDgDwMwEdAHrOuXYAAAAeJaQDAHxHQAeAnhrPp/XecHRi6xwAAIDnxCosv92sPgjpAEDpBHQA6CHn2gEAAHiNzTvpl4dHZ6lnAQBIQUAHgB4Zz6f1YDi6cq4dAACAtxDSAYBSCegA0BO2zgEAAGjaJqR7Jx0AKIWADgAdZ+scAACAXRPSAYBSCOgA0FHj+bTeG45ObJ0DAADQFiEdAOg7AR0AOuh0MTuPIRzbOgcAACCZKlwI6QBA3wjoANAhts4BAADIjpAOAPSIgA4AHWHrHAAAgKwJ6QBADwjoAJA5W+cAAAB0ipAOAHSYgA4AGbN1DgAAQGcJ6QBABwnoAJCh8XxaD4ajK+EcAACAzhPSAYAOEdABIDO2zgEAAOglIR0A6AABHQAyYescAACAIgjpAEDGBHQAyMDpYnYeYpikngMAAABaI6QDABkS0AEgIVvnAAAAFE9IBwAyIqADQCLeOgcAAIB7hHQAIAMCOgC0bDyf1nvD0YmT7QAAAPAAIR0ASEhAB4AWOdkOAAAAWxLSAYAEBHQAaIGtcwAAAHglIR0AaJGADgA7ZuscAAAA3iZWYVmF8OXy8Ogs9SwAQL8J6ACwQ6eL2bmtcwAAAGiGkA4A7JqADgA7YOscAAAAdkdIBwB2RUAHgIbZOgcAAIB2COkAQNMEdABoyHg+rfeGoxPxHAAAANolpAMATRHQAaABTrYDAABAerEKy283qw+f3r1fpp4FAOgmAR0A3sjJdgAAAMiLkA4AvJaADgCvZOscAAAAMleFi9ub1WchHQDYloAOAK9g6xwAAAA6REgHALYkoAPAC9g6BwAAgG6KVVhWIXwR0gGApwjoALAl8RwAAAC6bxPSLw+PzlLPAgDkR0AHgC042Q4AAAD9IqQDAA8R0AHgGR8Xs2tb5wAAANBPsQrLbzerD866AwBBQAeAx50uZucxhGPxHAAAAApQhQvvowMAAjoAPMDJdgAAACiUkA4ARRPQAeCe8XxaD4ajK1vnAAAAUC7vowNAuQR0APiFrXMAAADgPiEdAMojoANQvPF8Wu8NRyfiOQAAAPAQIR0AyiGgA1A0J9sBAACArXkfHQB6T0AHoFhOtgMAAACvIqQDQG8J6AAUx8l2AAAA4K2cdQeAfhLQASiKk+0AAABAk4R0AOgXAR2AYpwuZucxhGPxHAAAAGharMLy283qg7PuANBtAjoARfDeOQAAANAK76MDQKcJ6AD0mpPtAAAAQNucdQeA7hLQAegtJ9sBAACAlJx1B4DuEdAB6CUn2wEAAIBcCOkA0B0COgC94mQ7AAAAkC3vowNA9gR0AHpDPAcAAABy5310AMibgA5AL3jvHAAAAOgSZ90BIE8COgCdNp5P673h6MR75wAAAEAnOesOAFkR0AHoLCfbAQAAgN6owoWz7gCQnoAOQCedLmbnts4BAACAPnHWHQDSE9AB6BzvnQMAAAC95qw7ACQjoAPQGd47BwAAAEoRq7CsQvjirDsAtEtAB6ATvHcOAAAAlMhZdwBol4AOQPa8dw4AAAAUz1l3AGiFgA5A1sRzAAAAgL9y1h0Adk9AByBbHxezayfbAQAAAL7nrDsA7I6ADkB2vHcOAAAA8LTNNrqz7gDQLAEdgKyM59N6b390nXoOAAAAgC5w1h0AmiWgA5AN750DAAAAvI6z7gDQjEHqAQAgiOcAAAAAb1LFsL7qt/6MBQB4NRvoACTlvXMAAACAZtlGB4DXE9ABSEY8BwAAANihKlzc3qw+C+kAsD0BHYAkThez8xjCsXgOAAAAsDuxCssqhC+Xh0dnqWcBgC4Q0AFonffOAQAAANrlrDsAbEdAB6A14/m03huOTsRzAAAAgPbZRgeA5wnoALTCe+cAAAAAebCNDgCPG6QeAID+E88BAAAA8lHFUO/tj67Xz+wBAN+xgQ7ATnnvHAAAACBfzroDwPcEdAB2RjwHAAAA6IgqXNzerD476w5A6QR0AHbi42J27WQ7AAAAQHfYRgcAAR2AhnnvHAAAAKDjbKMDUDABHYDGiOcAAAAA/WAbHYBSCegANMJ75wAAAAD9E6uw/Haz+mAbHYBSDFIPAED3iecAAAAA/VTFUO/tj67Xn/8AQAFsoAPwauP5tN4bjk7EcwAAAID+s40OQAlsoAPwaoPh6Eo8BwAAAChDFUM9GI6ubKMD0Gc20AF4sfF8uv5m6e6bptSzAAAAANA+2+gA9JUNdABe5HQxOxfPAQAAAMrmbXQA+soGOgBbW39D5GQ7AAAAAPfYRgegTwR0ALYingMAAADwmFiFZRXCl8vDo7PUswDAWwjoADxpPJ/We8PRiXgOAAAAwHNsowPQdd5AB+BJg+HoSjwHAAAAYBtVDPVgOLryNjoAXWUDHYAHjefT9Tc7d9/0pJ4FAAAAgA6qwsXtzeqzbXQAukRAB+Anp4vZeQzhWDwHAAAA4M2qcOFtdAC6QkAH4Dvr81pOtgMAAADQJNvoAHSEgA7Ar8RzAAAAAHYlVmFZhfDFNjoAORPQAVi/d743HJ2I5wAAAADsnG10ADI2SD0AAOkNhqMr8RwAAACAVsQwGQxHV+P5tE49CgD8yAY6QMHuvkm5+2alisE3KwAAAAC0rwoXTroDkBMBHaBQ4jkAAAAAOYhVWH67WX1w0h2AHAjoAAU6XczOYwjH4jkAAAAAOYhVWFYhfLGNDkBqAjpAYU4Xs3PvnQMAAACQpSpc3N6sPttGByAVAR2gIOI5AAAAALlz0h2AlAR0gEKI5wAAAAB0im10ABIQ0AF6bjyf1oPh6Mp75wAAAAB0jW10ANo2SD0AALslngMAAADQVVUM9d7+6Hp9XREAWmADHaCnbJ4DAAAA0CtOugPQAgEdoIfEcwAAAAD6yEl3AHZNQAfomdPF7DyGcCyeAwAAANBbttEB2BEBHaBH1m9BxTBJPQcAAAAA7JptdAB2QUAH6AnxHAAAAIDSxCosqxC+XB4enaWeBYB+ENABekA8BwAAAKBoVbgQ0QFogoAO0GHj+bTeG45OxHMAAAAASuekOwBNGKQeAIDXGwxHV+I5AAAAAIRQxVDv7Y+u19caAeCVbKADdNB4Pq0Hw9HV3TcFqWcBAAAAgOw46Q7AKwnoAB0jngMAAADA85x0B+A1nHAH6BDxHAAAAAC246Q7AK9hAx2gI8RzAAAAAHilKlzc3qw+20YH4DkCOkAHrP+UbAyT1HMAAAAAQFc56Q7ANpxwB8iceA4AAAAAb+ekOwDbENABMiaeAwAAAEDDYpiI6AA8xgl3gEyJ5wAAAACwO066A/AQAR0gQ+I5AAAAAOxerMKyCuHL5eHRWepZAMiDgA6QmY+L2XUVQ516DgAAAAAoRhUuRHQAgoAOkI/xfFoPhqMr8RwAAAAA2uekOwB3BqkHAOCvxHMAAAAASKeKYb3gMp5PfUYHUDAb6ACJ2TwHAAAAgMw46Q5QLBvoAAmJ5wAAAACQoRgmp4vZeeoxAGifDXSARMRzAAAAAMibd9EByiOgAySw/tOrMUxSzwEAAAAAPO/26+pARAcogxPuAC0TzwEAAACgW/b2R9dOugOUwQY6QIvEcwAAAADosCpc3N6sPttGB+gvAR2gJeI5AAAAAHSfd9EB+k1AB2iBeA4AAAAA/RGrsKxC+HJ5eHSWehYAmiWgA+yYeA4AAAAAPVWFCxEdoF8GqQcA6DPxHAAAAAB6LIbJ+jNAAHrDBjrAjojnAAAAAFAG76ID9IeADrADHxez6yqGOvUcAAAAAEB7br+uDkR0gG4T0AEaNJ5P68FwdCWeAwAAAEChvIsO0GneQAdokHgOAAAAAIXzLjpAp9lAB2iAzXMAAAAA4D7vogN0kw10gDcSzwEAAACAH1UxrD83HM+nPjcE6BAb6ABvIJ4DAAAAAE+JVVhWIXzxLjpAN9hAB3gl8RwAAAAAeE4VQx1DOPYuOkA32EAHeAXxHAAAAAB4sSpc2EQHyJuADvBC6z8pGsMk9RwAAAAAQPfEKiy/3aw+fHr3fpl6FgB+5oQ7wAucLmbnMYTj1HMAAAAAAN1UxbC+bjmeT123BMiQDXSALdk8BwAAAACadPt1dWATHSAvNtABtiCeAwAAAABN29sfXa8/ewQgGwI6wDPEcwAAAABgZ2KYiOgA+XDCHeAJ4jkAAAAA0IoqXNzerD476Q6QloAO8AjxHAAAAABoU6zC8tvN6oOIDpCOE+4ADxDPAQAAAIC2VTHUg+Hoajyf1qlnASiVgA7wA/EcAAAAAEhFRAdIS0AHuEc8BwAAAABSq2Ko9/ZH1+vPKwFolYAO8AvxHAAAAADISgwTER2gXQI6gHgOAAAAAORKRAdoVZV6AICUxvNpvTccnYjnAAAAAEDWqnBxe7P6/Ond+2XqUQD6zAY6ULTBcHQlngMAAAAA2YthMhiOrsbzaZ16FIA+E9CBYn1czK6rGPxmEwAAAADohCqGWkQH2C0n3IHi3P3m8u43meI5AAAAANBFsQrLbzerD865AzTPBjpQHPEcAAAAAOiyKoZ6b390bRMdoHk20IFi2DwHAAAAAHqnCheXh0dnqccA6Asb6EAxxHMAAAAAoHdimJwuZuepxwDoCxvoQO/ZPAcAAAAAes8mOkAjbKADvSeeAwAAAAC9ZxMdoBE20IHesnkOAAAAAJQmVmH5H4dHB6nnAOgqAR3oJfEcAAAAAChVrMLy283qw6d375epZwHoGifcgd4RzwEAAACAklUxrD8jHc+nPiMFeCEBHegV8RwAAAAAQEQHeC0n3IHeEM8BAAAAAH52+3V14Jw7wHZsoAO9IJ4DAAAAADxsb390bRMdYDsCOtB54jkAAAAAwNP29kfXp4vZeeo5AHInoAOdJp4DAAAAAGwnhnAsogM8zRvoQGeJ5wAAAAAAr1CFi8vDo7PUYwDkyAY60EniOQAAAADAK8UwsYkO8DABHegc8RwAAAAA4I1EdIAHCehAp4jnAAAAAAANEdEBfuINdKAzxvNpvbc/uk49BwAAAABAr3gTHeBXNtCBTthsnqeeAwAAAACgd2yiA/zKBjqQPZvnAAAAAAAtsIkOIKADeRPPAQAAAADaE6uw/I/Do4PUcwCk4oQ7kK3TxexcPAcAAAAAaE8VQ/1xMfO5LFAsG+hAljZvnt/9Zi31LAAAAAAApYlVWH67WX349O79MvUsAG2ygQ5kZ7N5Lp4DAAAAAKRRxbBecko9B0DbbKADWbF5DgAAAACQXqzCsoqhtokOlMYGOpANm+cAAAAAAHnYfE5rEx0ojQ10IAs2zwEAAAAA8mMTHSiNgA4kd7qYnYcYJqnnAAAAAADgcSI6UAIn3IGkxvNpHUM4Tj0HAAAAAABP25xzH8+nLokCvSWgA8l48xwAAAAAoFtEdKDvnHAHkrj7zdXe/ug69RwAAAAAALxMrML6hLtz7kAf2UAHWrfZPE89BwAAAAAAL1fFUG820VPPAtA0G+hAq04Xs/MQwyT1HAAAAAAAvF2swtImOtAnNtCB1pwuZucxhOPUcwAAAAAA0Ayb6EDfCOhAKzab53e/mUo9CwAAAAAAzYhVWFYx1B8XM892Ar0goAM7Z/McAAAAAKCfNktTIjrQFwI6sFM2zwEAAAAAylDFUK8/EwboMAEd2Bmb5wAAAAAAhYlhIqIDXValHgDop83meeo5AAAAAABIoAoXl4dHZ6nHAHgpG+hA48RzAAAAAIDC2UQHOkpABxolngMAAAAAsCaiAx0koAONEc8BAAAAAPiOiA50jIAONEI8BwAAAADgQSI60CECOvBm4jkAAAAAAE8S0YGOENCBNxHPAQAAAADYiogOdICADryaeA4AAAAAwIuI6EDmBHTgVcRzAAAAAABeRUQHMiagAy8mngMAAAAA8CYiOpApAR14EfEcAAAAAIBGiOhAhgR0YGviOQAAAAAAjRLRgcxUqQcAukE8BwAAAABgV26/rg4+vXu/TD0HgA104FniOQAAAAAAu7S3P7oez6d16jkABHTgSeI5AAAAAABtENGBHAjowKPEcwAAAAAA2jQYjq5EdCAlAR14kHgOAAAAAEDbqhhqER1ISUAHfiKeAwAAAACQiogOpCSgA98RzwEAAAAASE1EB1IR0IFfiecAAAAAAORiE9FTzwGURUAH1sRzAAAAAAByU8VQrz+/BmiJgA6I5wAAAAAA5CuGiYgOtEVAh8KJ5wAAAAAAZE9EB1oioEPBxHMAAAAAADpDRAdaIKBDocRzAAAAAAA6R0QHdkxAhwKJ5wAAAAAAdJaIDuyQgA6FEc8BAAAAAOi6GMKxiA7sgoAOBRHPAQAAAADogyqGOoZwPJ5P69SzAP1SpR4AaId4DgAAAABAH91+XR18evd+mXoOoB9soEMBxHMAAAAAAPpqMBxd2UQHmiKgQ8+J5wAAAAAA9FkVQy2iA00R0KHHxHMAAAAAAEqwieip5wC6T0CHnhLPAQAAAAAoSRVDvf5sHOANBHToIfEcAAAAAIAixTAR0YG3ENChZ8RzAAAAAACKJqIDbyCgQ4+I5wAAAAAAIKIDr1elHgB4u/F8Wu8NRyfiOQAAAAAA/Ob26+rg07v3y9RzAN1hAx16QDwHAAAAAICf7e2PrsfzaZ16DqA7bKBDh9k8BwAAAACAp8UqLL/drD7YRAe2YQMdOkw8BwAAAACAp1Ux1IPh6MomOrCN/dQDAC9n8xwAAAAAALa3ieghhIPUswB5s4EOHSSeAwAAAADAy1Qx1KeL2XnqOYC8eQMdOubjYnZ99y/51HMAAAAAAEAnVeHi8vDoLPUYQJ4EdOiI8Xy6Pi8jngMAAAAAwBuJ6MAjnHCHDti8eS6eAwAAAABAA2KYOOcOPERAhw4YDEdX3jwHAAAAAIAGxTAZz6cW14DvCOiQOW+eAwAAAADAbuztj65FdOA+b6BDprx5DgAAAAAAuxersPx2s/rw6d37ZepZgPRsoEOmxHMAAAAAANi9Kob1QlvqOYA82ECHzNg8BwAAAACABKpwcXl4dJZ6DCAtG+iQGfEcAAAAAAASiGFyupidpx4DSMsGOmTC5jkAAAAAAGTAJjoUzQY6ZEI8BwAAAACADMQwGc+nPq+HQtlAh8RsngMAAAAAQF5iFZbfblYfPr17v0w9C9AuG+iQmHgOAAAAAAB5qWJYL7/ZRIfy7KceAEpl8xwAAAAAAPK1ieghhIPUswDtsYEOiYjnAAAAAACQtyqG+nQxO089B9Aeb6BDy2yeAwAAAABAx1Th4vLw6Cz1GMDu2UCHlonnAAAAAADQMTFMbKJDGWygQ0tsngMAAAAAQHfFKiy/3aw+fHr3fpl6FmB3bKBDS8RzAAAAAADoriqG9aLceD71WT/0mA102DGb5wAAAAAA0B820aHfbKDDjonnAAAAAADQH1UM9d5wdJJ6DmA3bKDDjtg8BwAAAACAHqvCxeXh0VnqMYBm2UCHHRHPAQAAAACgx2KYnC5m56nHAJplAx0aZvMcAAAAAADKcft1deA9dOgPG+jQMPEcAAAAAADKMRiOrsbzqS4APbGfegDoC5vnAAAAAABQniqGdR8IIRykngV4Oxvo0BDxHAAAAAAAylTFUHsPHfpBQIcGfFzMrsVzAAAAAAAoWAwTER26T0CHNxLPAQAAAACANREdOk9AhzcQzwEAAAAAgPtiCMfj+VQ7gI6qUg8AXXT3L7694egkxDBJPQsAAAAAAJCXWIXlt5vVh0/v3i9TzwK8jA10eAXxHAAAAAAAeEwVw18X8YDOEdDhhdZvl4jnAAAAAADAU7yHDp0koMMLiOcAAAAAAMDWRHToHAEdtiSeAwAAAAAALxVDOB7Pp3XqOYDtCOiwBfEcAAAAAAB4jSqGejAcXYno0A0COjxDPAcAAAAAAN5iE9FTzwE8T0CHJ4jnAAAAAABAE6oYau+hQ/4EdHiEeA4AAAAAADQqhomIDnmrUg8AORLPAQAAAACAXbn9ujr49O79MvUcwM9soMMPxHMAAAAAAGCXBsPR1Xg+rVPPAfxMQId7xHMAAAAAAGDXqhjqwXB0lXoO4GcCOvxCPAcAAAAAANpSxVB7Dx3yI6CDeA4AAAAAAKQQw0REh7xUqQeA1MRzAAAAAAAgpduvq4NP794vU88B2ECncOI5AAAAAACQmvfQIR8COsUSzwEAAAAAgBx4Dx3yIaBTJPEcAAAAAADIivfQIQveQKc44/m03tsfXaeeAwAAAAAA4EfeQ4e0bKBTFPEcAAAAAADI2WA4uhrPp3XqOaBUAjrFEM8BAAAAAIDcVTHUg+HoKvUcUCoBnSKI5wAAAAAAQFdUMdTeQ4c0BHR6bzyf+pNaAAAAAABAt8QwEdGhfQI6vbaJ51UM3goBAAAAAAA6JYZw7D10aJeATm+J5wAAAAAAQJd5Dx3aJ6DTS+I5AAAAAADQB95Dh3YJ6PSSeA4AAAAAAPSG99ChNVXqAaBJNs8BAAAAAIC+uv26Ovj07v0y9RzQZzbQ6RXxHAAAAAAA6KvBcHQ1nk91ENih/dQDQBNsngMAAAAAAH1XxVDvDUcnIYSz1LNAX9lApxfEcwAAAAAAoAjeQ4edEtDpvLt/SYjnAAAAAABAMWKYOOUOuyGg02nrP2EVwyT1HAAAAAAAAG3yHjrshoBOZ4nnAAAAAABAqe69hw40SECnk8RzAAAAAACgeN5Dh8ZVqQeAlxLPAQAAAAAAfnP7dXXw6d37Zeo5oA9soNMp4jkAAAAAAMD3vIcOzRHQ6QzxHAAAAAAA4GfeQ4fmOOFOJ4zn03pvf3Sdeg4AAAAAAIBsVeHi8vDoLPUY0GUCOtkTzwEAAAAAALbjPXR4Gyfcydp4Pq0Hw9FV6jkAAAAAAAC6wHvo8DYCOtnaxPMqBl/kAQAAAAAAtuA9dHgbAZ1siecAAAAAAACvEMPkdDE7Tz0GdJE30MmOzXMAAAAAAIC3iVVYfrtZffAeOryMDXSyI54DAAAAAAC8TRXDemEx9RzQNQI6Wfm4mF2L5wAAAAAAAG9XxVA75Q4vI6CTjbsv4OI5AAAAAABAc2IIxyI6bE9AJwvrL9wxTFLPAQAAAAAA0CdVDHUM4Xg8n1pihC0I6CQnngMAAAAAAOyO99BhewI6SYnnAAAAAAAAu+c9dNhOlXoAyiWeAwAAAAAAtOv26+rg07v3y9RzQK5soJPE6WJ2HkM4Tj0HAAAAAABASfb2R9feQ4fHCei07u6LcgzhuIrBF2cAAAAAAICW7Q1HJ6lngFwJ6LRqPJ/Wg+HoSjwHAAAAAABIJIaJ99DhYQI6rRHPAQAAAAAA8hBDOHbKHX4moNMa8RwAAAAAACAPVQzrxcfUc0BuqtQDUIaPi9m1eA4AAADwsP/5r7+E//7zf65//v/+z5/DP/3h96lHAgBKUYWLy8Ojs9RjQC4EdHZu/YZGDJPUcwAAAACk9D//9Zf1j//95/9cR/KNv/zv//vTf/df//THVmcDAMp2+3V18Ond+2XqOSAH+6kHoN/EcwAAAKAkm0h+589//F+//vyhSP7cX+dv/vZ3jc4GAPCYX065H6SeA3JgA52dEc8BAACAPrq/SR5+ObkeXhHJn/IP//5v4e/+5Z8b++sBADzLKXdYs4HOTojnAAAAQNe95OQ6AEDnxTAZz6efnXKndDbQadx4Pq0Hw9FVFUOdehYAAACAp+QayX/3j38f/ukPv086AwBQJu+hUzob6DRKPAcAAABy09S75AAAJdgbjk5CCE65Uywb6DRGPAcAAABSaeNd8rb965/+mHoEAKBU3kOnYDbQaYx4DgAAAOxarifXd+Hu7/Vv/vZ3qccAAErkPXQKJqDTiNPF7DyI5wAAAEADSorkAAC5GgxHVyGEg9RzQNuccOfNfonnk9RzAAAAAN3hXfLn/cO//1v4u3/559RjAAAlc8qdAgnovIl4DgAAADymj++St+l3//j34Z/+8PvUYwAAhbv9ujpwyp2SOOHOq4nnAAAAQHByHQCg1wbD0dV4Pv0golMKAZ1XEc8BAACgLCI5AECZqhjqveHoJITglDtFcMKdFxvPp/VgOLq6+4KZehYAAACgOd4lz8+//umPqUcAAFhzyp1SCOi8iHgOAPD/2bt70MjSdV/sb3Vv6WKDbHAgVMI48JhyICghENhmcDbmTHIjHxADvT3RjoQUTKQJlLSDOdEEPmE7EX1BGHyiRriFGhyIARmECxUo2Bc6rSUrLUf3wl2Xqtk1u2f6Q19V61nrXb8fNOccOIz+rS6tKvR/3+cBgGazl7xZ/uGf/ymtrHejYwAATCnRaQMj3HkQ5TkAAAA0g5HrAADMm1HutIECnXvbuzj7q/IcAAAA6kNJnr/Jv60b6ABAbZTpcP/iLP1v//3/pEQnW0a4cy/7F2cvJw/F6BwAAADQNvaSt1t3ezN9/eMP0TEAAH5TdtK//Q///t/9a6PcyZUb6NxJeQ4AAACLZS85AABN0SlTzyh3cqZA54uU5wAAADA/Rq4DAJAFo9zJmBHufNbu+Unv+Z+W/xqdAwAAAJpESc68/cM//5M96ABA7RjlTq7cQOeTds9Pes+Wlt+kMjoJAAAA1I+95AAAtJ1R7uRKgc5HZuX55MEXnQUAAACi2EsOAAB3MMqdDCnQ+YjyHAAAgDYxcp26m7w2jXAHAGqrTIe75yf/xih3cqFA53f2L85eJuU5AAAAmflUSa4gpykmr9mvvv0mOgYAwGdN1wKn9N9G54B5UKDzm7+V54fROQAAAOAx7CUHAIAYnTL19i/OXhrlTg460QGoh93zk97zPy3/NToHAAAAfIm95LTVP/7LUXQEAIAvKjvp3/6Hf//v/rVR7jSdG+gozwEAAKgde8nh9yY/E/agAwB11ilT7/nS8ouUklvoNJoCveV2z096070UZXQSAAAA2sZecgAAyEyZDvcvzpJR7jSZAr3lni0tv+mUqRedAwAAgDzZSw7zcTu8dgMdAGiEMqWd3fOTf2OUO02lQG+x/Yuzl0l5DgAAwJy8f/tu+j/dJgcAgPYyyp2m60QHIMbfyvPD6BwAAADk4//8n7+PjgDZ6m5vpq9//CE6BgDA/XXS/2qUO030LDoA1ds9P+kpzwEAAJi37vZmdAQAAKAm/jbK3SRkGkeB3jKTB9WzpeU30TkAAAAAuD8rEQCApvlglDs0igK9RWblecfecwAAABZgbasfHQEAAKiTMh1O1wpDgyjQW+T50vIL5TkAAABAM41HRXQEAIAHK1Paic4AD6FAb4np6R57zwEAAFig1f5GdATI2u3wOjoCAMCDdcrUcwudJlGgt4DyHAAAgCqsrHejI0DWbgbD6AgAAI9TpsPd8xNTkmkEBXrmJg8jozEAAAAAAACI9Gxp+Y0SnSZQoGds8hCaPIzsPQcAAKAq3e3N6AgAAEANdcrUe760/CI6B9xFgZ4x5TkAAABAPorLq+gIAABPY5Q7DaBAz9T+xdlL5TkAAABVW9vqR0eArI1HRXQEAIAneba0/CY6A3yJAj1D+xdnL1OZDqNzAAAA0D6r/Y3oCJA9JToA0GSdMvWmXRbUlAI9M9OxF8pzAAAAgCzdDq/Tyno3OgYAwNMY5U6NKdAzMnnQGHsBAABAJMUeLNbNYBgdAQBgLnRa1JUCPSOTB4295wAAAETrbm9GRwAAAGrOKHfqSoGeickDRnkOAAAAkLfi8io6AgDA3JQp7URngD9SoGdgejrH3nMAAAAAAAAaxC106kiB3nC75yc9p3MAAACok7WtfnQEyNp4VERHAACYnzId7p6fmLJMbSjQG2zyMLH3HAAAgLpZ7W9ERwAAABrk2dLym+gMMKNAbzDlOQAAAED73A6voyMAAMyVUe7UiQK9oSYPEeU5AAAAdbSy3o2OAFm7GQyjIwAAzF2Z0o5R7tSBAr2Bpg+PMh1G5wAAAIDP6W5vRkcAAAAapFOmnlHu1IECvWFme8+jcwAAAAAQo7i8io4AALAQRrlTBwr0hrH3HAAAAAAAgFyVKe1EZ6DdFOgNYu85AAAATbG21Y+OAFkbj4roCAAAC+EWOtEU6A0xfVDYew4AAEBDrPY3oiNA1m6H19ERAAAWp0yHu+cnLpUSQoHeAJMHhHEVAAAAAAAAtMWzpeU30RloJwV6ze2en/TsPQcAAKBpVta70REgazeDYXQEAICFMsqdKAr0mnu+tPxCeQ4AAEATdbc3oyMAAAANVqa0Y5Q7VVOg15i95wAAAAB8SnF5FR0BAGDhOmXqPV9afhGdg3ZRoNfU9DSN8hwAAIAGW9vqR0eArI1HRXQEAIDFK9OhW+hUSYFeU8+Wlt9EZwAAAAAAAIBoejOqpECvof2Ls5f2ngMAANB0q/2N6AiQtdvhdXQEAIBKdMrUm64+hgoo0GvG3nMAAABysbLejY4AAADkQn9GRRToNbJ7ftIrU9qJzgEAAABA/d0MhtERAAAq5RY6VVCg18izpeU3RrcDAACQk+72ZnQEAAAgF2U63D0/0aWxUAr0mrD3HAAAAICHKC6voiMAAFTu2dLym+gM5E2BXgP2ngMAAJCrta1+dATI2nhUREcAAKhUp0w9o9xZJAV6MHvPAQAAAAAA4P7KlHaMcmdRFOjB7D0HAAAgZ6v9jegIkLXb4XV0BACAynXK1Hu+tPwiOgd5UqAHsvccAACA3K2sd6MjQNZuBsPoCAAAMcp06BY6i6BADzL9gbb3HAAAgBbobm9GRwAAADL0bGn5TXQG8qNAD7B7ftLzAw0AAADAUxWXV9ERAADCdMrU2784exmdg7wo0AM8X1p+YXQ7AAAAAAAAPE2Z0k50BvKiQK/Y9BSM0e0AAAC0yNpWPzoCZG08KqIjAACEcQudeVOgV8jecwAAANpotb8RHQEAAMhZmQ6nPRzMgQK9QvaeAwAAADBvt8Pr6AgAAOH0cMyLAr0i+xdnL+09BwAAoI1W1rvRESBrN4NhdAQAgHCdMvXcQmceFOgVMLodAACAtutub0ZHAAAAMucWOvOgQF+w3fOTnh9WAAAAAAAAWKxOmXr7F2cvo3PQbAr0BXu+tPzC6HYAAAAAFqW4vErjUREdAwCgFsqUdoxy5ykU6As0PeFidDsAAACkta1+dAQAAKAFOmXqPV9afhGdg+ZSoC/I7vlJr0xpJzoHAAAA1MFqfyM6AgAA0BZlOnQLncdSoC+I0e0AAAAAVGV4dBwdAQCgVtxC57EU6AtgdDsAAAD83sp6NzoCAADQJm6h80gK9Dkzuh0AAAA+rbu9GR0BAABoked/Wv5rdAaaR4E+Z8+Wlt8Y3Q4AAABAlYrLq+gIAAC1NJ0cDQ+gQJ+jyQ+g8hwAAAAAAADqoUxpxyh3HkKBPk/2ngMAAMBnrW31oyNA1sajIjoCAEDtdMrUe760/CI6B82hQJ+TvYszOxQAAADgC1b7G9ERIGu3w+voCAAA9VSmQ7fQuS8F+hwY3Q4AAAAAAAD15RY696VAf6LpaRWj2wEAAOBOK+vd6AiQtZvBMDoCAEB9uYXOPSnQn+jZ0vKb6AwAAADQFN3tzegIAABAS+n1uA8F+hMY3Q4AAABAXRSXV9ERAABqrVOm3v7F2cvoHNSbAv0pjG4HAACAB1nb6kdHgKyNR0V0BACAWitT2onOQL0p0B9p7+Lsr9EZAAAAAAAAgPtzC527KNAfweh2AAAAeJzV/kZ0BMja7fA6OgIAQO2VKe3snp/o+vgkBfoDTX6YjHYAAACAx1lZ70ZHgKzdDIbREQAAaq9Tpt7zpeUX0TmoJwX6A01+mNw+BwD4svGoSO/fvouOAQAAAACfVqZDt9D5FAX6A0z3IZTpMDoHAECdjUdFOt07SINXr9MvP/0cHQeAGupub0ZHgGwVl1fREQAAGsMtdD5FgX5PRrcDANzP8Oj4t/+9uLyalujjURGaCQAAAAA+4hY6n6BAvyej2wEA7vbLTz9/dOtp8n+f7h0o0QH4zdpWPzoCZM9nLwCA+3ELnT9SoN/D9OSJ0e0AAJ81HhXTP18aGXq6d2AvOgDT94vV/kZ0DMja5OdsZb0bHQMAoBncQucPFOj38PxPy3+NzgAAUGcr691pQX6X2V50N6IA2kupB4t3O7yOjgAA0CjPlpbfRGegPhTod9i/OHsZnQEAoM7Go2Jait9XcXk13ZOuRAdoLyU6LNbNYBgdAQCgUTpl6ukEmVGgf4HR7QAAdxseHX9xdPunzPaiG+kO0F7d7c3oCAAAAL8pU9qJzkA9KNC/wLgGAIAve//23YPL8w8Z6Q4AAABAHbiFzowC/TMmPyCTH5ToHAAAdTUeFdMC/KmMdAcAmK/J5yufrQAAHs4tdJIC/dN2z096fkAAAD5vPCqmpfe8zEa6+0UvQHusbfWjIwAAAPyOW+gkBfqnPV9afuH2OQDA5z1m7/l9nO4dTEe6A5C/1f5GdAQAAICPuGSLAv0Pds9PeqlMh9E5AADq6ql7z+8y+W/biw4A8DS3w+voCAAAjeQWOgr0P3j+p+W/RmcAAKiree09v4uR7gD5W1nvRkeArN0Mhj5LAQA8UpnSzvTSLa2kQP+A0yQAAJ83HhXTUrtKk6/3/u27Sr8mANXpbm9GR4CsOagCAPA4nTL1ni8tv4jOQQwF+t/snp/07DQAAPi84dFxyNcdvHptpDsAwAMtcuUOAEArlOnQLfR2UqD/zfOl5RedMvkhAAD4g/GoWPje87tMvvbw6FiJDgDwAD47AQA8jVvo7aRA/9vt81Smw+gcAAB1VcXe87vM9qIb6Q6Qj7WtfnQEAACAz3MLvZUU6JNvwtLym+gMAAB1VfXe87sY6Q6Qj9X+RnQEyNrt8Do6AgBA47mF3j6tL9D3L85eGt0OAPCx8aiYFtV1ZKQ7AAAAAJVwC711Wl2gT17sZUo70TkAAOpoeHQcuvf8LrOR7kp0gOZaWe9GR4Cs3QyG0REAALLgFnq7tLpAn7zY3T4HAPjYeFTUujz/0OneQW1vygNwt+72ZnQEAACAL3MLvVVaW6BPX+RlOozOAQBQN+NRUbu953cpLq/sRQcA+IOmHIgEAGgCt9Dbo7UF+rOl5TfRGQAA6mh4dBwd4VGMdAcAAABgYdxCb41WFuj7F2cvjW4HAPjYLz/93PibSqd7B+n923fRMQC4p7WtfnQEyJrDhQAA8+MWeju0skAvU9qJzgAAUDfv375rfHk+M3j12kh3gIZY7W9ER4Cs3Q6voyMAAOTDLfRWaF2B7vY5AMDHxqNiWjrnpLi8mo6jV6IDAG12MxhGRwAAyIpb6PlrVYE+PRFSpsPoHAAAdTIeFY3de36X2V50I90B6mtlvRsdAQAA4P7cQs9eqwp0J0IAAD42PDrOZnT75xjpDlBv3e3N6AgAAAD3pnPMW2sKdLfPAQA+ltPe87sY6Q4AtFFbPusBAFTKLfSstaZAf7a0/CY6AwBAneS49/wus5HuSnSAelnb6kdHgKz57AMAMH+6x3y1okDfvzh7GZ0BAKBOxqNiWiS31eTv/stPP0fHAACojBIdAGC+OmXquYWep1YU6GVKO5MXcXQOAIC6GB4dR0cIV1xe2YsOUBOr/Y3oCJC12+F1WlnvRscAAMiOXeh5yr5A3784e6k8BwD4u19++tkuzL8x0h2gHhR7sFg3g2F0BACAPNmFnqWsC/TJC7ZMaSc6BwBAHYxHxfSP8vxjp3sH6f3bd9ExAAAAAGgYt9Dzk3WBPnnBun0OAPCrlfVuq/ee32Xw6rWR7gCButub0REAAAAezi307GRboLt9DgDwd+NRMS2H+bLi8mq6H16JDgDkZPIZx+cbAIDFcQs9L9kW6G6fAwD83fDo2Oj2e5rtRTfSHaBaa1v96AiQtZX1bnQEAIB8uYWelSwL9OkLtEyH0TkAAOrg/dt3yvNHMNIdoFqr/Y3oCJA1hwMBABbLLfR8ZFmge4ECAPxqPCqmRTCPY6Q7AAAAAPfiFno2sivQ3T4HAPjVeFRMy1+eZjbSXYkOsFjGS8Ni3QyG0REAALLnkm8esivQvTABAH5l7/l8ne4dTEe6A7A43e3N6AgAAACP5xZ6FrIq0N0+BwD4lb3nizH5ntqLDgA0kc+GAADVcNm3+bIq0J8tLb+JzgAAEM3e88Uy0h0AAACAz3ILvfGyKdAnL8ROmbwYAYBWG4+KabnL4k2+z+/fvouOAZCVta1+dATImgOAAADVcAu92bIp0N0+BwD4de851Rm8em2kO8AcrfY3oiNA1m6H19ERAADawS30RsuiQN+/OHvp9jkA0GbjUWHveZDJ93x4dKxEBwAAAOA3bqE3VxYFepnSTnQGAIBo9p7Hme1FN9Id4GlW1rvRESBrN4NhdAQAgNYoU9pxC72ZGl+gu30OAJDsPa8JI90Bnq67vRkdAQAA4Mk6Zeq5hd5MjS/Q3T4HANpsPCqmhS31YaQ7AFBX1v0AAFRLj9lMjS7Qd89Pem6fAwBtNjw69ovQGpqNdFeiAwB14/MJAEB1OmXq7V+cvYzOwcM0ukB/trT8JjoDAECU8ahQntfc6d6BCQEAD7S21Y+OAAAAMDduoTdPYwt0u88BgDYbjwp7zxuiuLyyFx3gAVb7G9ERIGu3w+voCAAAreIWevM0tkB3WgMAaLPh0XF0BB7AXnQAAACA9tJrNksjC3S7zwGANvvlp5+Nbm+g2V7092/fRUcBqLWV9W50BMjazWAYHQEAoHU6Zertnp/oNhuikQW63ecAQFu9f/tOed5wg1evjXQHuEN3ezM6AgAAwFzpN5ujcQW62+cAQFuNR8W0fKX5jHQHAKI4jAkAEMMt9OZoXIHudAYA0EbjUWHveWaMdAf4vLWtfnQEyJpDfAAAMZ4vLb+IzsDdGlWgu30OALTV8OjYbaFMzUa6AwAAAJC5Mh26hV5/jSrQncoAANrI3vP8Tf597UUH+LvV/kZ0BMja7fA6OgIAQGvpO+uvMQX69DRGmQ6jcwAAVMne8/aYjXRXogMAi3YzGEZHAABoL7fQa68xBbrTGABA24xHxbRQpV0m/+ZGugNtt7LejY4AAACwMHrPemtEge72OQDQRsOj4+gIBDHSHSCl7vZmdATIlvVAAACxypR2ojPweY0o0J3CAADa5peffvaLzZYz0h0AAAAgT50y9fYvzl5G5+DTal+g756f9JzCAADaYjwqpn+U58yc7h2k92/fRccAqNzaVj86AmTNIT0AgFj6z/qqfYH+fGn5RadMFukDAK2wst6195yPDF69NtIdAAAAICOdMvWma6ypndoX6E5fAABtMR4V05IUPqW4vJruxVeiA23x1bffREeArN0Or6MjAAC03rOl5TfRGfhYrQv0/Yuzl26fAwBtMTw6NrqdL5rtRTfSHWgDB4ZgsW4Gw+gIAACt5xZ6PdW6QHf7HABoi/dv3ynPubfZSHeAnK2sd1N3ezM6BgAAwEI9X1p+EZ2B36ttgb57ftJz+xwAaIPxqJgWovAQxeWVvegAwKM5vAkAUBNlOnQLvV5qW6A7bQEAtMF4VExHt8NjzEa6K9EBgMfwGQIAoB70ovVSywJ9esqiTIfROQAAFs3ec+bhdO/ASHcgS2tb/egIAAAAC2etdb3UskB3ygIAaAN7z5knI92BHK32N6IjAAAALFynTL39i7OX0Tn4Ve0K9N3zk55TFgBA7uw9ZxGMdAcAHsIqIQCA+tCP1kftCvTnS8svOmWyKB8AyNZ4VExLTliUyevr/dt30TEAnmxlvRsdAQAAoBKdMvWma64JV7sC3ekKACB3bvpQhcGr10a6A1nobm9GRwAAAKiENdf1UKsCfff8pOf2OQCQq/GosPecSk1ea8OjYyU6APBJPpcCANRMmQ7dQo9XqwLdqQoAIHf2nlO1D/eiK9KBJlrb6kdHAAAAqIy+NF5tCvTpaYoyHUbnAABYFHvPiTR5/VkfAAD8kQN2AAD1Yt11vNoU6E5TAAC5Go+K6S5qiFZcXtmLDjTOan8jOgJk7XZ4HR0BAIAPdMrU2784exmdo81qU6A7TQEA5Gp4dGy/JLXx4Uh3AAAAAOpHbxqrFgX6/sXZy06ZLMQHALIzHhXKc2rpdO/AZASgEVbWu9ERIGs3g6GDdQAANdMpU2+6/poQtSjQAQByNB4V9p5Ta0a6A03R3d6MjgBZc1AFAKB+rL+OE16gT09PlOkwOgcAwLwNj46jI8CdjHQHgHYzLQkAoKbKdOgWeozwAt3pCQAgR7/89LNfRtIop3sH6f3bd9ExAIAADtIBANSTHjVGeIFuCT4AkJv3b98pz2mkwavXRroDtbS21Y+OAAAAUDk9aozQAn33/KTXKZPRAwBANsajYlpCQlMVl1fT9QNKdKBOVvsb0REga7fD6+gIAAB8QqdMvf2Ls5fROdomtEA3dgAAyMl4VNh7ThZme9GNdAeAdrgZDKMjAADwGW6hVy+sQJ8uvS/TYdTXBwCYt+HRsdHtZGU20h0g2sp6NzoCAABAmGmvSmXCCnS3zwGAnNh7Tq4mr2t70YE66G5vRkeAbPkcCwBQX50y9fSq1Qor0I0bAAByYe85uZuNdFeiAwAAAAQw1btSIQX67vlJr1MmowYAgMYbj4ppsQhtMNuLrkgHIqxt9aMjAAAAhNm/OHsZnaEtQgp0YwYAgFwMj46jI0ClBq9eT1/3SnQAyMv7t++iIwAA8AWme1cnpED3DwwA5OCXn362L5JWMtIdiLDa34iOAAAAEKZTpt7u+YkJ3xWovEA3vh0AaLrxqJj+UZ7TdrOR7gBVWFnvRkeArN0MhtERAAC4gynf1ai8QPcPCwA03cp6195z+JvBq9fTaQxuowMAAAAsWJkO3UJfvOpHuJfpsPKvCQAwJ+NRMS0Lgb8rLq/sRQcq0d3ejI4AAAAQymXlxau0QN+/OHtZ5dcDAJi34dGx0e3wCbO96Ea6A0AzTd7LHYYDAKi/MqWd6Ay5q/4GOgBAQ71/+055DneYjXQHWIS1rX50BAAAgFCdMvWMcV+sygr0yT+kExEAQFONR8W0GATuVlxe2YsOLMRqfyM6AgAAQDhj3BersgJ98g/ZKZPTEABA44xHxXR0O3B/s5HuSnQAaA6feQEAGqJMh26hL44R7gAAd7D3HB5vthddkQ7Mw8p6NzoCAABALbiFvjiVFOjTExBlOqziawEAzJO95/B0g1evpwdRlOjAPHS3N6MjAAAAhLM6e3EqKdCdgAAAmsjec5gfI90BoP4cHAUAaI5OmXrGuC+GEe4AAJ8wHhXTsg+Yr9lIdwCgnhx2AwBoDpeYF6OaAt34dgCgYYZHx9ERIFuDV6/TLz/97Bf0wKOsbfWjIwAAANRDmQ7dQp+/hRfo+xdnLxf9NQAA5mU8Kuw9hwpMfsbsRQceY7W/ER0BsnY7vI6OAADAA7iFPn9GuAMA/IG951CN2V50I90BAAAAHqdMaSc6Q24WX6Ab3w4ANIi951C92Uh3gPtYWe9GR4Cs3QyG0REAAHiATpl6JoLP10ILdDP3AYCmGI8KBR4EKi6v7EUH7q27vRkdAQAAgEwttEA3cx8AaIrh0bG95xBsNtJdiQ4AcXwmBgBooDIdutg8P4sd4W58OwDQAONR4ReFUCP2ogNALIfZAACax8Xm+VlYge6UAwDQBONRYe851NBsL7pf4AOfsrbVj44AAABQK2VKO9EZcrGwAt0pBwCgCYZHx9ERgM8oLq+mP6NKdOCPVvsb0REga7fD6+gIAAA8UKdMPRec52NhBbpTDgBA3f3y089Gt0PNzfaiG+kOANW5GQyjIwAA8AguOM/HQgr03fOTXqdMTjgAALX1/u075Tk0yGykO8DEyno3OgIAAED9lOnQLfSnW0iB7nQDAFBn41ExLeOAZikur+xFB37T3d6MjgAAAFA7etqnW9gIdwCAOhqPCnvPocFmI92V6ACwOCY1AQA0lzXbT7eYAr1Mhwv57wIAPNHw6NgvBCEDp3sHbqMDwAJ5jwUAaKZOmXrGuD/N3At0/yAAQF3Zew55mfw8D4+O/YIfWqr//XfREQAAAGrJGPenmXuB7h8EAKgje88hT0a6A8Bi3A6voyMAAPBYZTp06fnx5l6gm6sPANTNeFRMCzYgX5Of8fdv30XHAIBs3AyG0REAAHgCl54fb64F+u75Sa9TJqcZAIBaGR4dR0cAKjB49dpedGiRlfVudAQAAIDacun58eZaoDvJAADUzS8//WzvObSIvejQLt3tzegIAAAAtdQpU88Y98eZ+wh3AIA6GI+K6R/lObTPbC+6ke4A8HiT91MH0gAAms3l58eZb4FepsO5/vcAAB5pZb1r7zm03GykO5Cvta1+dAQAAID6KtOhW+gPN7cC3TcfAKgTpRmQ/nZ7zl50AAAAoK3cQn+4uRXovvkAQF3Yew58aDbSXYkO+Vntb0RHgKzdDq+jIwAA8ERlSjvRGZrGDnQAICvv375TngOfdLp3YDoFZGZlvRsdAbJ2MxhGRwAA4Ik6ZeqZJP4w8yvQ7T8HAIKNR8V05zHA5xjpDgAAALSNSeIPM5cC3akFACDaeFSk4dFxdAygAYx0h7x0tzejI0C2THYCAMiEi9APMpcC3akFACDa8OjYL/iABzndO5iufQAAAADI3f7F2cvoDE1hBzoA0Hj2ngOPNXj12kh3aLi1rX50BMia90gAgDyUKe1EZ2iK+RTorv0DAEHsPQeeqri8mk6xUBBAM632N6IjQNZuh9fREQAAmINOmXrWct/Pkwt032gAIIq958C8zPaiG+kOAAAA5Mpa7vt5coHuGw0ARLH3HJi32Uh3oDlW1rvRESBrN4NhdAQAAObEGPf7sQMdAGic8aiw9xxYmMmzxV50aJbu9mZ0BAAAgNozxv1+nl6g238OAASw9xxYpNlI9/GoUKQD0GoOrQIA5MV08bs9qUB3QgEAiHC6dxAdAWiJyfNmeHQcHQMAQjlMBgCQkTId6ni/7EkFuhMKAECVxqPCbmKgcka6Q/2tbfWjIwAAADSGjvfL7EAHABpjeHRshCQQ4sOR7kD9rPY3oiNA1m6H19ERAACYozKlnegMdfakAt03FwCoynhUKM+BcKd7B+n923fRMQCgUjeDYXQEAADmqFOmnjHun/foAn3yTZ18c+cbBwDgY+NRYe85UBuDV6+NdIeaWVnvRkcAAABoFGPcP+/RBbpvKgBQleHRcXQEgN8pLq+mzyYlOtRHd3szOgIAAEBjmDT+eXagAwC19stPPxvdDtTSbC+6ke4A5M7ncQCA/HTK1Nu/OHsZnaOOHl2gO5UAACza+7fv/LIOqL3ZSHcAyJmpKwAAtMWjC3T7zwGARRqPimkpBdAExeWVvegQbG2rHx0BAACgWcp0uHt+ovP9g0cV6L6RAMAijUeFvedA48xGuk+eYYp0qN5qfyM6AmTtdngdHQEAgAV4vrT8IjpD3TyqQPeNBAAWaXh0bHQ70FinewdKBgCyczMYRkcAAGABrO3+2KNHuAMALIK950AOZnvR3USH6qysd6MjAAAANE6nTD3Tx3/vUQW6kwgAwCLYew7k5MOR7kA1utub0REAAAAax/Tx33tUgd4pk1MIAMBcjUfFtGgCyM3k2fb+7bvoGADwJKZEAQBkrEyH0RHq5MEFuiv8AMAiDI+OoyMALIyR7lCNta1+dATImvcxAIB87V+cvYzOUBcPLtBd4QcA5u2Xn352owXI3uQ5Nzw6Vj4AAAAA1NijRrgDAMzDeFRM/yjPgbaY7UU30h0WY7W/ER0BsnY7vI6OAADAopTp0CTyXz24QC9T2llMFACgbVbWu/aeA600G+kOzNfkswWwODeDYXQEAAAWyCTyXz2oQN89P+l1yuTkAQAwF8ojoM2Kyyt70QEAAIDacJH6V0a4AwAh7D0H+PtI99lKC+Dputub0REgWz6/AwDkrVOmnjHuDyzQXdsHAObh/dt3fvkG8IHTvQN7ZQFoBAe+AADypg92Ax0AqNh4VEx3/wLwe7O96IoJeJq1rX50BAAAgMYyxv2BBbpvGADwFONRkYZHx9ExAGrrw5HuAFBHJqYAAOTNGPcHFuiTb9jiogAAuRseHRvdDnAPp3sH03UXwMOt9jeiIwAAADRa28e437tAb/tJAwDgaew9B3gYI93hcVbWu9ERIGs3g2F0BAAAFq1Mh9ERIt27QG/7SQMA4PHsPQd4nOLyajq9Q4kOAAAAVGn/4uxldIYoDxrhDgDwUONRMR1FDMDjzEp0I93h/rrbm9ERIFumSgEAkDsFOgCwUMOj4+gIAI1XXF79NtIdAAAAYOHKdNjWFd/3L9BbPuseAHiY8aiw9xxgzibPVHvR4W5rW/3oCJA170MAAO3Q1hXfbqADAAtj7znA/BWXV9PVGMoL+LzV/kZ0BMja7fA6OgIAABUoU9qJzhDhXgV6W6/nAwCPZ+85wGJNnrNGugMAAACL0ilTr4098b0K9LZezwcAHm48KhQ6ABUx0h0+bWW9Gx0BsnYzGEZHAACgIm3siY1wBwDm6nZ4be85QIUmz9zh0bESHf6gu70ZHQEAAKDx2jjG/V4Fehu/MQDA43z17Tdp6y9/jo4B0Cqzvejv376LjgJACzgwCwDQHm0c4+4GOgAwd199+036h3/+p+gYAK0zePXaSHcAKuG9BgCgPdo2xv1eBXqnTK06VQAAPN3KendaohufClAtI93hV2tb/egIAAAAeSjTYXSEKj2/6/9h9/yk9+zZ871q4gAAOflXKyvpv/of/4f0r/7zlXTz/w6j4wC0xv8/+v/S+//r3fT5+1/8N/91dBwIsfSf/ifTnwNgMf6z/7LrPQYAoEX+u7/8L8//n//99f8dnaMKd95Ab9uVfABg/ox0B4gxG+kOAPN2M3BAFgCAPNmBDgBUwkh3gBjF5ZW96LTS5LMHAAAAc1Kmw93zk1as/VagAwCVWVnvpq9//EGJDlCx4vIqne4dKNFpHZ85YHEm7y0AALRLWyaX31mglyntVBMFAGiLr3/8IW395c/RMQBa53TvwEh3AAAA4FHa0hvfWaB3ytSKq/gAQLVme9HdDAOolpHuAMyL9xIAgHZpS2/8xQK9LXPsAYAYK+vd1P/+OyU6QMWKy6s0PDpWfJC9ta1+dAQAAICs7F+cvYzOsGh2oAMAoWZ70Y10B6jWbC/6+7fvoqPAwqz2N6IjQNZuh9fREQAAqFgbxrh/sUBvyyJ4ACDebKQ7ANUavHptpDsAj3IzGEZHAACgYp0y9XKfYu4GOgBQGyvrXXvRAQIY6U6uJp8tAAAAmK/cL2Er0AGAWpmNdFeiA1TLSHdy5TMFAADAfOU+xv2LBXruf3kAoL6+/vEHI90BAsxGugPAXYrLK9NLAABaKPcx7l8s0Cd/+eqiAAD8npHuADGKyyt70cnG2lY/OgIAAEB2ch7j/tkCPedTAwBAcxjpDhBjNtJdiQ4AAAD8Uc6TzO1ABwAa4esff0hbf/lzdAyA1rEXnaZb7W9ER4CsDY+OoyMAABAg5zHuny3Qc752DwA001fffmOkO0CA2V50t9FpopX1bnQEAACALOXaJ7uBDgA0ysp6N/W//06JDlCx4vJqestQiQ4AAACkjMe4K9ABgMaZ7UU30h2gWrO96Ea60zQO3sHiTN4bAABop1zHuH+2QM/1xAAAkI/ZSHcAqmWkOwAf8n4AANBeOY5xdwMdAGi0lfWuvegAAYx0p0nWtvrREQAAALKU46XszxbonTJld90eAMjTbKS7Eh2gWrOR7kp06m61vxEdAbJ2O7yOjgAAQJAcx7h/skDP7S8JALTD1z/+YKQ7QIDTvYPpSHcAAACgfXIb426EOwCQFSPdAWIUl1f2olNbk88HwOLcDIbREQAAiFSmw+gI8/TJAj23UwIAQLsY6Q4Qw0h36sznAlgsz34AgHbLacK5G+gAQLa+/vGHtPWXP0fHAGid072D9P7tu+gYAFSkuLwy6QEAoOVyuqCtQAcAsvbVt98Y6Q4QYPDqtZHuAAAA0BYZjXFXoAMA2VtZ76b+998p0QEqVlxepeHRsRKdWljb6kdHgKx51gMAsH9x9jI6wzx8skAvU9qpPgoAwOLM9qIb6Q5QrdledCPdibba34iOAFm7HV5HRwAAgLn4ZIHeKVM2S94BAD40G+kOQLWMdAfI281gGB0BAIBomYxx/6hA3z0/UZ4DAFlbWe/aiw4QwEh3Ik3e/wEAAFisHLpmO9ABgFaajXRXogNUazbSXYlOBO/7sDiT5zsAADxfWn4RneGpFOgAQKvZiw4Q43TvYDrSHQAAAMhIBmPcPyrQczgVAADwELO96G6lAVSruLyyFx0gI57nAACkDMa4u4EOAGCkO0AYI92p0tpWPzoCAABA9pp+YVuBDgDwASPdAWKc7h2k92/fRccgc6v9jegIkLXb4XV0BAAAaqBMaSc6w1Mo0AEA/sBId4AYg1evjXQHaLCbwTA6AgAANdApU6/JY9w/KtCbfiIAAGAeVta7qf/9d0p0gIoVl1dpeHSsRGchJu/vAAAALF6Tx7i7gQ4A8BmzvehGugNUa7YX3Uh3FsHhOAAAgMVr8qVtBToAwB1W+xvTke4AVMtId4BmKS6vPLMBAJhq8hj33xXok7/E5C8TFwcAoH5W1rvTP/aiA1TPSHfmbW2rHx0BAACgFZo6xt0NdACAe5qNdFeiA1RrNtJdiQ4AAADN0dQx7gp0AIAHshcdIMbp3sF0pDs8xWp/IzoCZO12eO3AEwAAU00d4/67Ar2p1+gBAKr21bffGOkOEKC4vLIXHaDGbgbD6eQmAABIDe2f3UAHAHiklfVu6n//nRIdoGJGuvMUij0AAIDqNHGMuwIdAOAJZnvRjXQHqN7p3kF6//ZddAwayOE3WJzi8io6AgAANdLEMe4KdACAOZiNdAegWoNXr410BwAAgBpr2hh3BToAwJysrHftRQcIUFxepeHRsRKde1vb6kdHgKx5HgMA8KGmjXH/XYHetPAAAHVjpDtAjNledCPdAeLdDq+jIwAAUCOdMhnhDgDQdqv9DSPdAQIY6c59TN6nAQAAqM7+xdnL6Az3pUAHAFiAlfWuke4AQYx05y6T92hgcW4Gw+gIAADUTJMmof+uQG/a9XkAgLqbjXRXogNUazbSXYkOAAAA9bB7ftKILvq3Ar0pgQEAmshedIAYp3sH05Hu8EcOt8HiFJdX0REAAKiZTpl6z5eWX0TnuA8j3AEAKvLVt98Y6Q4QoLi8shcdoGKeuQAANJUCHQCgQivr3dT//jslOkDFjHTnj9a2+tERAAAA2qVMh9ER7uO3Ar0pV+YBAJputhfdSHeA6p3uHaT3b99Fx6AGVvsb0REga7fD6+gIAADUUBPWiruBDgAQZDbSHYBqDV69NtIdYMFuBsPoCAAA1FATLnUr0AEAAq2sd+1FBwhQXF6l4dGxEr3FJu/BAAAAVKtMaSc6w10U6AAAwWYj3ZXoANWa7UU30r29vPcCAABUq1OmXt3HuCvQAQBq4usffzDSHSCAke4A81dcXkVHAACgpuo+xl2BDgBQI0a6A8Qw0h1g/jxTAQD4lLqPcf+tQK97UACAtjDSHSDGbKS7wqc91rb60REAAABap+5j3N1ABwCoqa9//CFt/eXP0TEAWud072A60p38rfY3oiNA1m6H1w4lAQDwSXUe465ABwCosa++/cZedIAAxeWVvegAT3QzGE6nKwEAQJMo0AEAam5lvZv+8V+OjHQHqJiR7vlT7AEAAAQp02F0hM/5rUDvlKm2c+YBADDSHSDK6d5Bev/2XXQMFsQBNVic4vIqOgIAADVW1z3o0wK9ruEAAPg9I90BYgxevTbSHQAAAOaornvQjXAHAGiYlfXutER3Yw6gWsXlVRoeHSvRAR7AMxMAgM8pU9qJzvApCnQAgAZaWe9OR7or0QGqNduLbqR7Pta2+tERAAAAWqlTpl4dJ6Ur0AEAGuzrH38w0h0gwGykO8232t+IjgBZux1eR0cAAKDG6jjGfVqg1zEYAAD3Y6Q7QIzi8spedIA73AyG0REAAKixOo5xdwMdACADK+vd1P/+OyU6QMVmI92V6M01eQ8FAAAgRh3HuCvQAQAyMduLvvWXP0dHAWid070DI90bzAE0WJzi8io6AgAANVe3aekKdACAzHz17Tf2ogMEMNId4NM8FwEAaBIFOgBAhuxFB4hhpHszrW31oyMAAAC0V5kOoyN8SIEOAJApI90B4pzuHaT3b99FxwCohdvhdXQEAABqrk570BXoAACZM9IdIMbg1Wsj3Rtitb8RHQEAAKDV6rQHXYEOANACRroDxCgur9Lw6FiJXnOT90lgcW4Gw+gIAADUXJnSTnSGmWmBXqdAAAAsxmykuxIdoFqzvehGugMAAMCndcrUq8sYdzfQAQBaxl50gBizke7UkwNmsDjF5VV0BAAAGqAuY9wV6AAALfTVt9+kf/yXo+gYAK1TXF7Ziw4AAAA1pkAHAGixf/yXIzfuACo2G+muRK+Xta1+dATImmceAAB3KtNhdISkQAcAwEh3gBinewdGutfIan8jOgJk7XZ4HR0BAIAGqMMe9GmB3ilTeBAAAOJ89e036R/++Z+iYwC0jpHuQFvcDIbREQAAaIA67EF3Ax0AgKmV9e60RDfSHaBaRrrXw+R9EAAAgFhlSjvRGRToAAD8ZmW9a6Q7QJDTvYP0/u276Bit5hAZAABArDpMTn9WhznyAADUi5HuADEGr14b6Q5kqbi8io4AAEBD7F+cvYz8+m6gAwDwWUa6A1SvuLxKw6NjJTqQHc81AACaQIEOAMAnrax3fxvprkQHqNZsL7qR7tVa2+pHR4DsKdEBALhL9B50BToAAHeyFx0gxmykO9VY7W9ER4Cs3Q6vpwc0AQDgSzpl6kWuIVegAwBwL7O96G6jA1SruLyyFx3Iws1gGB0BAICGeL60/CLqayvQAQC4t5X1bup//50SHaBis5HuSvTFcjMWAACAZ5HtPQAAzTPbi26kO0D1TvcOjHRfMIfEYHGKy6voCAAANEWZDqO+tBvoAAA8ymykOwDVMtIdAACANojag65ABwDg0VbWu/aiAwQw0h1oKs8tAADuK2qSugIdAIAnmY10V6IDVO907yC9f/suOkZW1rb60REAAACYTnFPOxFfV4EOAMBcfP3jD0a6AwQYvHptpPscrfY3oiNA1m6H19ERAABoiE6ZehFj3BXoAADMjZHuADGKy6s0PDpWogO1dzMYRkcAAKBBIsa4K9ABAJgrI90BYsz2ohvp/jST9zEAAADaS4EOAMBCfP3jD2nrL3+OjgHQOrOR7jyeQ2CwOMXlVXQEAACapEyHVX9JBToAAAvz1bffGOkOEKC4vLIXHQAAgCxUvQddgQ4AwEKtrHdT//vvlOgAFZuNdFeiA3XjuQQAwENUvQddgQ4AwMLN9qIb6Q5QvdledIXV/a1t9aMjQPY8kwAAqCsFOgAAlZmNdAegWoNXr9Pw6FhhdU+r/Y3oCJC12+H19IAlAADcS8V70BXoAABUamW9ay86QAAj3e9PsQeLdTMYRkcAAKBhqtyDrkAHAKBys5HuSnSA6s1GugMAAEBTVLkHXYEOAECYr3/8wUh3gACDV6/TLz/97Db6FzjkBYtTXF5FRwAAgM9SoAMAEMpId4AYxeWVvehAGM8eAAAepMI96Ap0AADCGekOEGO2F91I94+tbfWjIwAAAPCBqvagK9ABAKiNr3/8IW395c/RMQBaZzbSHaAqt8Pr6AgAADRMVXvQn5Up7VTxhQAA4D6++vYbI90BAhSXV/aif2C1vxEdAQAAgADPOin9H9EhAADgQyvr3dT//jslOkDFZiPdlei/vhcBi3MzGEZHAACgaSrag+4GOgAAtTTbi26kO0D1ZnvRFenAInnGAADwUFXsQbcDHQCAWpuNdAegWoNXr9Pw6LjVBZdJKLA4xeWVSQ8AADxYFXvQFegAANTeynrXXnSAAEa6A/xH9u4fNMq0Xx/4PXG1mzZkphXSBCYMpFgQuywbsDwLIihWVuIprLRwm7dwK4tdrKxEQYSzpRB504mcXxEYMpAmkHYmpJ1OkfmRHMc3q4kmk3me7/Pn84FFTWYm13sgkwNX7usGAKBuFOgAAJTCZNJdiQ6Qv8mke90sdDvREaDS/HIOAABnlsM96Ap0AABKxb3oADF6z16k94+f1Krwmu8sRUeAStvvb0dHAACghLK+B12BDgBA6UzuRXcaHSBfw82t2t+LDszOXq8fHQEAgBLK+h50BToAAKVk0h0gxtF70atepB/8rAEAAKBe5hrjlOkRdwAAyJJJd4AYb+89ODyNXnV+UQuyM9zcio4AAEAZZXwP+ty4kXay/AIAAJA1k+4AMYabW7W7Fx0AAIB4Wd6DbsIdAIBKaLZbqXP7hhIdIGdHJ90Bzsp7BwAA08jyHnQT7gAAVMbkXnST7gD5e3vvQdpd34iOMXML3U50BAAAAHJkwh0AgMqZ7ywdTroDkK/esxeVm3Q/+JkCZGe/vx0dAQCAMsrwHnQn0AEAqJxmu3X4n3vRAfI33NxK/eevKlWiA9nZ6/WjIwAAUFJZ3YPuBDoAAJU1mXRXogPka3IvehUm3Q9+lgAAAFA8Wd2DPpfFiwIAQJG4Fx0gxmTSvez8IhYAAEB9mHAHAKAWLq+tmnQHCDDc3KrcvejA7By8R3h/AABgGuOUrmfxuibcAQCojWa7lTq3byjRAXI2mXRXkgEAADArjXFazOIedCfQAQColcm96CbdAfL39t6DUp5GX+h2oiMAAABwjCzuQXcCHQCAWppMugOQr+HmVuo/f1WqEn2+sxQdASptv79dqvcEAACqzQl0AABqq9luuRcdIIBJd+CovV7/8P8vAwCAs8riHnQn0AEAqDWT7gBx3t57kHbXN6Jj/JBiDwAAoJiyOCzuBDoAAHye5zXpDpC/3rMXpbgX3VoJZGe4uRUdAQCAErv77s1M+24n0AEA4PPpQpPuADFMugMAADCtCxcv3Zzl6zmBDgAAR0wm3ZXoAPkr8qT7QrcTHQEqzS/QAABQFE6gAwDAMdyLDhBjMukO1Mt+fzs6AgAAZTVOj2b5ck6gAwDACS6vrZp0Bwgw3Nwq3L3o852l6AgAAACcYJb3oM/N6oUAAKCKmu1W6ty+oUQHyNnRe9GLUKQf/DwAsrPX60dHAACgxGZ5D7oCHQAAfmByL7pJd4D8vb33IPWfv4qOAQAAQE0o0AEA4JQmk+4A5Ksok+7WSCA7B9/nAAAwrXFK12f1Wgp0AAA4g2a75V50gABHJ92BavL9DQDAtBrj5A50AACIMpl0V6ID5O/tvQdpd30j5GsvdDshXxcAAIAfu/vuzUxKdAU6AABM6crD+ybdAQL0nr0oxKQ7MFv7/e3oCAAAlNiFi5duzuJ1FOgAAHAOJt0BYgw3t1L/+atcS/T5zlJuXwvqaK/Xj44AAAAKdAAAOC+T7gAxJvei5zXpfvB+DwAAQEGN06NZvIwCHQAAZuTKw/upe+dWdAyA2plMugMAAFBvs7gHXYEOAAAzdHlt1b3oAAGGm1u53ItubQSyc/B9DAAA5zGLe9Dnxo20M5s4AABA+jzx+9vfz5UsADmbTLqPBsNc70YHZsf3LgAA0eYa43TuY+wAAMC3TLoDxHh770HqP3+VyWsvdDuZvC4AAADF4AQ6AABkyKQ7QIysJt3nO0szfT3gn/b729ERAAAos3F6dN6XcAIdAAAy1my3Dkt0k+4A+To66Q6Uw16vHx0BAICSu/vuzbn6byfQAQAgB81263DSXYkOkL+39x6k3fWNmbzWwfs5AAAAxXXh4qWb53m+E+gAAJAj96IDxOg9ezGzSXe/DAUAAFBdTqADAEDOLq+tpt/+fq6AAcjZcHMr9Z+/MukOBXbwfQoAAOcxTun6eZ4/N7soAADAWXRu31CiA+Rsci/6rCbdgdnzSy4AAEQy4Q4AAEEm96KbdAfI32TSfRoL3c7M8wAAADAbjXFavPvuzdQduAl3AAAIdnltNf361x/RMQBqZ7i5NdW96POdpcwyASnt97ejIwAAUHIXLl66Oe1zTbgDAEABNNutwxLdpDtAviaT7qPB0Gw0FMRerx8dAQCAGlOgAwBAQZh0B4jz9t6DU596PXi/BgAAoLjGKV2f9rkKdAAAKBiT7gAxJvein+YkusUQyM5wcys6AgAANaZABwCAAjLpDhDj6KQ7EMf3IAAA59EYp8W7794sTvNcBToAABTUZNJdiQ6Qv7f3HqTd9Y3oGAAAAEzpwsVLN6d5ngIdAAAKzr3oADG+N+m+0O2EZIK62O9vR0cAAKCmFOgAAFACl9dW029/P4+OAVA7w82t1H/+6psSfb6zFJYJAACA7CjQAQCgRH77+7lJd4CcuRcd8rfX60dHAACg7Mbp0TRPU6ADAEDJmHQHiPH23oPDSfcDzXYrOg4AAAA/cPfdm8WzPkeBDgAAJXR5bTX9+tcf0TEAame4ufXlXnSLIJCdg+81AACIoEAHAICSarZbhyW6AgcgX5NJdwAAAIrtwsVLN8/6HAU6AACUWLPdMukOEMQJWcjWaDCMjgAAQA3NNVJ6HR0CAAA4H5PuAEDV7Pe3oyMAAFBy45Sun/U5c9M8CQAAKCaT7gBAVez1+tERAAAoucY4LZ71OU6gAwBARTTbrS+T7kp0AAAAAEjp7rs3ZyrR3YEOAAAV5F50AAAAAEjpwsVLN8/yeAU6AABU1ORedKfRAYAyGm5uRUcAAKCGFOgAAFBhzXYrdW7fUKIDAKU0GgyjIwAAUHLjlK6f5fEKdAAAqLjJvegm3QGAMlKiAwCQJwU6AADUxGTSHQCgLPb724e/DAgAANNqjNPi3XdvFk/7eAU6AADUSLPdci86AFAae71+dAQAAGpGgQ4AADUzmXRXogMAAABQBxcuXrp52scq0AEAoKauPLxv0h0AKLTh5lZ0BAAAakaBDgAANWbSHQAAAICqG6d0/bSPVaADAEDNmXQHAIpsNBhGRwAAoEYU6AAAwKErD++n7p1b0TEAAAAAYKYa47R4992bxdM8VoEOAAB8cXlt1aQ7AFAo+/3t6AgAANSIAh0AAPiHZruVOrdvKNEBgELY6/WjIwAAUAEXLl66eZrHKdABAIBvTO5FN+kOAAAAQJ0o0AEAgBNNJt0BAKIMN7eiIwAAUAHjlK6f5nEKdAAA4Lua7ZZ70QEAAACoBQU6AADwQ5NJdyU6ABBhNBhGRwAAoOQa47R4992bxR89ToEOAACc2pWH9026AwC52+9vR0cAAKAmFOgAAMCZmHQHAAAAoIwuXLx080ePUaADAABnZtIdAMjTXq8fHQEAgJqY+/Txw8voEAAAQDldeXg/de/cio4BAAAAADMxd5pj6gAAACe5vLZq0h0AyNRwcys6AgAAFTBO6fqPHuMEOgAAcG7Ndit1bt9QogMAmRkNhtERAAAoucY4Lf7oMe5ABwAAZmJyL7pJdwAAAACK6u67N98t0RXoAADATE0m3QEAZmm/vx0dAQCAGlCgAwAAM9dst9yLDgAAAEDhXLh46eb3Pq9ABwAAMjGZdFeiAwCzsNfrR0cAAKAGFOgAAECm3IsOAAAAQFGMU7r+vc8r0AEAgMxN7kV3Gh0AmNZwcys6AgAANaBABwAAcmHSHQA4r9FgGB0BAICSa4zT4vc+r0AHAAByZdIdAAAAgEh33705sURXoAMAALkz6Q4ATGO/vx0dAQCAipt7evXaTnQIAACgfprtVurcvqFEBwBOba/Xj44AAEAFXLh46eZJn3MCHQAACDO5F92kOwAAAABFoEAHAADCzXeWDifdAQC+Z7i5FR0BAIAKGKd0/aTPKdABAIBwzXbr8D/3ogMAAAAQSYEOAAAUxmTSXYkOAJxkNBhGRwAAoOQa47R40ucOC/RxI+3kmggAAOA73IsOAAAAQJbuvntzbInuBDoAAFBIl9dWTboDAN/Y729HRwAAoMIU6AAAQGE1263UuX1DiQ4AfLHX60dHAACgAi5cvHTzuI8r0AEAgEKb3Itu0h0AAACArCnQAQCAUphMugMAAABAVhToAABAaTTbLfeiA0DNDTe30mgwjI4BAEBFKdABAIBSMekOAAAAwLmN06PjPqxABwAASmm+s2TSHQAAAICZUqADAACl1Gy3TLoDQE31n7+KjgAAQAXcffdm8euPKdABAIBSm0y6K9EBAAAAOK/DAr2R0uvoIAAAAOfhXnQAAAAAzuLCxUs3v/6YE+gAAEBlXF5bNekOADUw3NyKjgAAQEUp0AEAgEpptlupc/uGEh0AAACAM1OgAwAAlTO5F92kOwBU12gwjI4AAEDJjVO6/vXHFOgAAEBlTSbdAYDq2e9vR0cAAKCCFOgAAEClNdst96IDAAAAcCoKdAAAoPImk+5KdACojr1ePzoCAAAl1xinxa8/pkAHAABq48rD+ybdAQAAAPji7rs3/yjRFegAAECtmHQHgGoYbm5FRwAAoIIU6AAAQO2YdAeAahgNhtERAAAouQsXL908+m8FOgAAUFtXHt5P3Tu3omMAAAAAUBAKdAAAoNYur626Fx0ASmq/vx0dAQCAilGgAwAAtddst9Jvfz836Q4AJbPX60dHAACgYhToAAAAn5l0BwAAAKiXcUrXj/5bgQ4AAHCESXcAAACA+lKgAwAAfKXZbh2W6CbdAaDYhptb0REAACi5xjgtHv23Ah0AAOAYzXbrcNJdiQ4AxTYaDKMjAABQcnffvflSoivQAQAAvsO96AAAAAD1oUAHAAD4gctrq+m3v587jQ4ABbTf346OAABAhRwW6J8+fngZHQQAAKDoOrdvKNEBoGD2ev3oCAAAlNyFi5duTv4+9/UHAAAAON7kXnST7gAAAADV5AQ6AADAGV1eW02//vVHdAwAAAAAZswd6AAAAFNotluHJbpJdwCINdzcSqPBMDoGAAAVoUAHAACYkkl3AAAAgGpRoAMAAJyTSXcAAACA8hqndH3ydwU6AADADJh0B4A4+/3t6AgAAFSEAh0AAGBGJpPuSnQAyNder+8edAAAZkKBDgAAMGPuRQeA/DXbregIAACUVGOcFid/V6ADAABk4PLaavrt7+fRMQCgFoabW9ERAAAoubvv3hyW6Ap0AACADP3293OT7gCQAxPuAADMggIdAAAgYybdAQAAAMpBgQ4AAJCDy2ur6de//oiOAQCVtd/fjo4AAEAFHBboT69e24kOAgAAUHXNduuwRDfpDgAAAFAsFy5eupmcQAcAAMhXs90y6Q4AGdjr9aMjAABQAQp0AACAACbdAQAAAIpHgQ4AABDIpDsAzMZwcys6AgAAFaBABwAACNJstw7/69y+oUQHgBkYDYbREQAAKDkFOgAAQDD3ogMAAAAUw5cCfdxIO7FRAAAA6m1yL7rT6AAwnf3+dnQEAABKapzS9eQEOgAAQLGYdAeA6e31+tERAAAoOQU6AABAwZh0BwAAAIihQAcAACioyaQ7AAAAAPlQoAMAABRYs91yLzoAnNJwcys6AgAAJdUYp8WkQAcAACi+yaS7Eh0Afmw0GEZHAACgxBToAAAAJXHl4X2T7gBwCkp0AACmcffdm0UFOgAAQImYdAeA79vvbx/+vAQAgGko0AEAAErGpDsAnGyv14+OAABAiSnQAQAASurKw/upe+dWdAwAAACAylCgAwAAlNjltVWT7gAAAAAzokAHAAAouWa7lTq3byjRASClNNzcio4AAEBJXbh46aYCHQAAoAIm96KbdAeAlEaDYXQEAABKSoEOAABQIZNJdwAAAADO7kuB3kjpdWwUAAAAZqHZbrkXHYBa2+9vO4UOAMBUvhTo45Sux0YBAABgViaT7kp0AOpor9c//FkIAABn5QQ6AABAhV15eN+kOwAAAMApuQMdAACg4ky6A1A3w82t6AgAAJSUCXcAAIAaMOkOAAAA8GMm3AEAAGrkysP7qXvnVnQMAMjcaDCMjgAAQAmZcAcAAKiZy2urJt0BqLz9/nZ0BAAASmac0nUFOgAAQA01263UuX1DiQ4AAADwWSOl1wp0AACAmprci27SHYAq2uv1oyMAAFAyTqADAADwZdIdAAAAoO4U6AAAAByeRncvOgBVMtzcio4AAEAJKdABAAA4NJl0V6IDUBWjwTA6AgAAJaNABwAA4B/ciw4AAADUlQIdAACAb0zuRXcaHYAy2+9vR0cAAKBkFOgAAAAcy6Q7AAAAUDcKdAAAAL7LpDsAZbXX60dHAACgZBToAAAA/JBJdwAAAKDqGuO0qEAHAADgVJrtVurcvqFEB6A0hptb0REAACiRcSPtKNABAAA4tcm96CbdASiL0WAYHQEAgJJwAh0AAICpzHeWDifdAQAAAKrCCXQAAACm0my3Dv9zLzoARbff346OAABASTiBDgAAwLlMJt2V6AAU1V6vHx0BAIASUaADAABwbu5FBwAAAKpAgQ4AAMBMXF5bNekOQOEMN7eiIwAAUCIKdAAAAGam2W6lzu0bSnQAAACglBToAAAAzNTkXnQAKIrRYBgdAQCAkvgpOgAAAADVMhoMU//5q+gYAPBFs92KjgAAQEko0AEAAJiZ0WCY3t57EB0DAL5wrQgAAGehQAcAAGAm3j9+koabW9ExAOAbo8HQKXQAAH5o3Eg7CnQAAADOZTLZrjwHoKiU5wAAnEZjnBYV6AAAAEzNZDsARbfQ7URHAACgJJxABwAAYGq76xup9+xFdAwA+K75zlJ0BAAASkSBDgAAwJmYbAcAAACqyIQ7AAAAZ2KyHYCycf85AACnZcIdAACAUzPZDkDZtFaWoyMAAFAyCnQAAAB+6P3jJybbAQAAgMqbiw4AAABAcY0GQ+U5AKW10O0c/iwDAIDTcgIdAACAb0zKBvedA1B27kAHAOAsFOgAAAB8o//8lVPnAJTefGcpOgIAACWjQAcAAOCL0WCoPAcAAABqS4EOAADAodFgaLIdgEox3w4AwFkp0AEAAEi76xup9+xFdAwAmJnWynJ0BAAASqaR0msFOgAAQI2ZbAcAAAD4DwU6AABATZlsB6DKFrqd6AgAAJSQAh0AAKCGTLYDAAAAfEuBDgAAUDPvHz8x2Q5A5c13lqIjAABQQgp0AACAmnDfOQB10my3oiMAAFBCCnQAAICKGw2Gh3+67xyAumitLEdHAACgpBToAAAAFefUOQAAAMDpKNABAAAqymQ7AAAAwNko0AEAACpoNBiabAegtha6negIAACUlAIdAACgYnbXN1Lv2YvoGAAQZr6zFB0BAIAS+vTxw0sFOgAAQEWYbAcAAAA4HwU6AABABZhsB4D/aLZb0REAACgpBToAAEDJmWwHgP9orSxHRwAAoMQU6AAAACX2/vETk+0AAAAAM/D06rUdBToAAEAJue8cAAAAYPYU6AAAACUyGgwP/3TfOQAcb6HbiY4AAEAJjRtpJynQAQAAymW/v+2+cwD4jvnOUnQEAABKTIEOAABQAibbAQAAALI3N/nLp48fXsZGAQAA4DijwfBwsl15DgA/1my3oiMAAFBiX06gX7h46WYax4YBAADgn3bXN0y2A8AptVaWoyMAAFBSjZRep6MF+qePH15e+OnSo9BUAAAAHDLZDgAAAJA/d6ADAAAUyGgwPJyefXvvQXQUAAAAgNqZiw4AAADAf+z3t9P//Nft6BgAUEoL3U50BAAASs4JdAAAgIJ4//iJyXYAOIf5zlJ0BAAASk6BDgAAEMx95wAAAACxPn388DIp0AEAAGLtrm+k3rMX0TEAoBKa7VZ0BAAASs4d6AAAAEGU5wAwO62V5egIAABUgBPoAAAAOTPZDgAAAFAsT69e20kKdAAAgHyNBsP09t6D6BgAUDkL3U50BAAASmrcSDuTvyvQAQAAcmKyHQAAAKDYFOgAAAAZM9kOANmb7yxFRwAAoALmogMAAABUmfIcAPLRbLeiIwAAUFKNlF5P/u4EOgAAQEZMtgMAAACUiwIdAAAgA+8fP3HqHABy0lpZjo4AAEBFKNABAABmyGQ7AAAAQHkp0AEAAGZgNBge/vn23oPoKABQOwvdTnQEAABK7NPHDy8nf5+b/OXp1Ws7YYkAAABKbr+/rTwHgCDznaXoCAAAVIQT6AAAAOdgsh0AAACgOhToAAAAUxoNhk6dA0ABNNut6AgAAJTY0bX2fxTo40baaYzTYkgqAACAEtld30i9Zy+iYwBA7bVWlqMjAABQYuNG+sdV506gAwAAnIHJdgAAAIDqmosOAAAAUBbKcwAAAIBqaaT0+ui//3EC3Xw7AADA8Uy2A0AxLXQ70REAAKgQd6ADAAD8wPvHT5w6B4CCmu8sRUcAAKBC3IEOAABwApPtAAAAAPWiQAcAADjGaDBMb+89iI4BAPxAs92KjgAAQIl9+vjh5dF/K9ABAAC+4r5zACiH1spydAQAACpGgQ4AAPCZyXYAAACA+hg30s7Tq9d2jn5s7ug/Gim9zj0VAABAASjPAQAAAPjHCfRxStcbcVkAAABCmGwHgHJa6HaiIwAAUGLHHTD/6ZgHPMo1FQAAQBCnzgGg3OY7S9ERAAComLnoAAAAABGU5wAAAAB8zYQ7AABQO6PBML299yA6BgBwTs12KzoCAAAl9unjh5dff8yEOwAAUCvvHz9x6hwAKqC1shwdAQCACvopOgAAAEAeTLYDAAAAcNTTq9d2vv6YAh0AAKg8k+0AUD0L3U50BAAASmzcSN+U50mBDgAAVN3u+kbqPXsRHQMAAACAElCgAwAAlWSyHQCqbb6zFB0BAIASa6T0+riPz+UfBQAAIFvKcwCovma7FR0BAIAKcgIdAACoFJPtAAAAAExLgQ4AAFSCU+cAUB+tleXoCAAAlNynjx9eHvdxE+4AAEDpKc8BAAAAmIV/FOgntewAAABFNRoM09t7D5TnAFAjC91OdAQAAEps3Eg7T69e2znucybcAQCA0nr/+IniHABqaL6zFB0BAICKUqADAAClY7IdAAAAgGk1Unp90ucU6AAAQKlMJtsBgPpqtlvREQAAqCgFOgAAUBq76xup9+xFdAwAIFBrZTk6AgAAFaZABwAACs9kOwAAAACz8ufPv/x+0ufm8o0CAABwNspzAAAAAPLyjwL96dVrO3FRAAAA/ml3fePwvnPlOQAwsdDtREcAAKDExo303U7chDsAAFA4Tp0DACeZ7yxFRwAAoMQaKb3+3ue/mXD/UeMOAACQJeU5AAAAAFGcQAcAAApjNBgeTrYDAJyk2W5FRwAAoMIU6AAAQCG8f/zEqXMA4LtaK8vREQAAKLlPHz+8/N7nFegAAEAok+0AAAAA5OXp1WvfvdJcgQ4AAIQx2Q4AAABAXsaN9N3yPCnQAQCAKLvrG6n37EV0DACgRBa6negIAACUWCOl1z96zNw0TwIAADiP94+fKM8BgDOb7yxFRwAAoOKcQAcAAHJjsh0AAACAIlOgAwAAuTDZDgCcV7Pdio4AAECJ/fnzL7//6DHfFOjjlK43MosEAADUzWgwTP3nr9Jwcys6CgBQYq2V5egIAADUgDvQAQCAzCjPAQAAACiCcSPtnOZxJtwBAIBMuO8cAJilhW4nOgIAACV22oPkCnQAAGDm3j9+4tQ5AAAAAKWjQAcAAGbGZDsAkJX5zlJ0BAAASuzTxw8vT/M4BToAADATJtsBgCw1263oCAAA1MDc1x84bfMOAAAwsbu+oTwHAAAAoJDGjbTz9Oq1ndM81gl0AADgXNx3DgBkrbWyHB0BAIASa6T0+rSPVaADAABTMdkOAAAAQNUo0AEAgDPbXd9IvWcvomMAADWx0O1ERwAAoCYU6AAAwKmNBsPUf/7KZDsAkKv5zlJ0BAAASuzPn3/5/bSPnfv6A6e9PB0AAKgX5TkAAAAAZTNupDP138eeQD94kcY4Lc4sFQAAUGruOwcAIjXbregIAADUhAl3AADgu94/fuLUOQAQprWyHB0BAIASa6T0+iyPV6ADAADHMtkOAAAAQN0o0AEAgG+YbAcAAACgCv78+Zffz/J4BToAAPAPu+sbqffsRXQMAIBDC91OdAQAAEpq3Eg7Z33O3HEfPOsOPAAAUA3vHz9RngMAhTLfWYqOAABAjTiBDgAAuO8cAAAAgMqZ5uC4Ah0AAGrOZDsAUGTNdis6AgAANaJABwCAmnLqHAAoutbKcnQEAABK7M+ff/n9rM859g50AACg2pTnAAAAAFTZuJF2pnmeE+gAAFAzo8Ewvb33IDoGAAAAAGRmmvvPkwIdAADq5f3jJ06dAwClsdDtREcAAKBmjp1w//Txw8v8owAAAFkZDYbKcwCgdOY7S9ERAAAoqWk7byfQAQCg4ky2AwAAAMDpKNABAKDCdtc3Uu/Zi+gYAABTabZb0REAACihcSPtPL16bWea5yrQAQCgoky2AwBl1lpZjo4AAEBJNVJ6Pe1zj70Dfdo2HgAAiOe+cwAAAACYzokn0MeNtNMYp8V84wAAAOdhsh0AqIqFbic6AgAAJfXp44eX0z7XhDsAAFTAaDBM/eevnDoHAAAAoNbOc/95OmnCHQAAKA/lOQBQRfOdpegIAADUkBPoAABQYqPBML299yA6BkDttFaWD//0y0sAAADF0kjp9Xmef+IJ9PO+MAAAkJ3RYHh437nyHCB/3Tu30pWH96NjQOU1263oCAAAlNB57j9PTqADAEA5mWwHyF9rZTl1bt/4Uup5H4bsTFYeAAAgbwp0AAAoEfedA8T4ujw/eD8GAACgWMaNtPP06rWd87yGAh0AAEpid30j9Z69iI4BUDvdO7fS5bXV6BhQKwvdTnQEAABKaBbXlCvQAQCgBN4/fuLUOUCAX//649h7mPf72yF5AAAAyNbcSZ847+XqAADA+Y0GQ+U5QIDWyvKJ5fmBvV4/90xQJ1YfAACYxp8///L7eV/DCXQAACgok+0AMVory+nKw/vRMaDWRoPhib/AAgAAxxk30rnuPp9QoAMAQAE5dQ4Q43unzoF8tFaWfR8CAHBms7j/PCnQAQCgWEaDYeo/f6U8B8hZa2U5dW7fOHVp530aAACgmk68A/3p1WszOeIOAACczmgwTG/vPVDKAORsMtl+2vL84P0aAACAYvn08cPLWbzOd0+gjxtppzFOi7P4QgAAwPFGg2Ha72+77xwgQPfOrXR5bTU6BnDEQrcTHQEAgJIZN9LOrA6Im3AHAIBgJtsB8nfWyfaj9vvbmWQC/s98Zyk6AgAAJTOr+8+TAh0AAOJMJtsByNd5yvMDe73+zDMBAABQDN8t0D839Y/yiwMAAPWwu75hsh0gQPfOrcPTrdOW50D2fH8CAHBWs7r/PDmBDgAA+Xv/+InJdoAAv/71x0yKOe/hkJ3WynJ0BAAASmaW958nBToAAORnNBi67xwgwHkn2486eC8HAACgOGZ5/3lSoAMAQPYmZYv7zgHy11pZTlce3o+OAZzSQrcTHQEAgJpToAMAQMacOgeIMavJ9qP2+9szfT0AAADOZ5b3nycFOgAAZMdkO0CMWU62A/ma7yxFRwAAoERmff95+lGB/unjh5cXfrr0aJZfEAAA6mA0GJpsBwiQ9WT7Xq+f2WsDAABwNrO+/zw5gQ4AALM1GgwP5317z15ERwGone6dW+ny2mp0DOAcLEcAABDtuwX606vXdv77f/+dXxoAACg5k+0A+ctzst17PGTn4HsZAADOYtb3n6fTnEAfN9JOY5wWZ/2FAQCgStx3DhAjz/L84L0eAACAYsji/vNkwh0AAM5vd33DZDtAgO6dW2m+s2TyGQAAoIayuP88KdABAOB83j9+4tQ5QIBf//oj9+J8v7+d69eDulnodqIjAADAjwv0z839o3ziAABAOZhsB4iR52T71/Z6/dy/JtTJfGcpOgIAACXy58+//J7F6zqBDgAAZzC5//btvQfRUQBqp7WynK48vB8dA8iI6xgAADitcSPN/O7zCQU6AACcgVPnADG6d26ly2ur0TEAAAAogKzuP08KdAAAOB2T7QAxIifbv+ZnAGTn4HsdAACKYO5HD/j08cPLfKIAAEAxjQbDw8l2xQlAvopUnk+u8AAAACBeVvefJyfQAQDgZKPBMO33t1Pv2YvoKAC1Y7Id6mWh24mOAABASWR5/3lSoAMAwMlMtgPE+PWvPwpx6vyo/f52dAQAAAAyvv88nWbC/enVa5k2+AAAUDSjwTD9z3/dVp4D5Ky1slzI8vzAXq8fHQEqbb6zFB0BAAAOneoE+riRdhrjtJh9HAAAiLW7vmGyHSBAa2U5XXl4PzoGEKSIvzgDAEAxZXn/eTLhDgAA//H+8ROnzgECFPXU+VF+PkB2WivL0REAACiLRvpX1l/iVAX65x35R1mHAQCACKPB0H3nAAFaK8upc/tG4ctzAAAA6sMJdAAAas1kO0CMMk22jwbD6AgAAACklD59/PAy66+hQAcAoLZMtgPE6N65lS6vrUbHAApioduJjgAAQAmMG2nn6dVrO1l/HQU6AAC1Y7IdIM5vfz+PjnBm+/3t6AhQafOdpegIAACUwOdrxzOnQAcAoFZGg2F6e+9BdAyA2inTZPvX9nr96AgAAADk5FQF+qePH15e+OnSo+zjAABAdtx3DhDDZDvwPc12KzoCAAAl8OfPv/yex9dxAh0AgMoz2Q4Q59e//ih9OebnB2SntbIcHQEAgBIYN1Lmd59PzJ3mQXlcxg4AAFmYTLYrPwDy1VpZrkR5DgAAQLy87j9PZzmBPm6kncY4LWYbBwAAZsdkO0CMMt93/rXRYBgdASptoduJjgAAQAl8+vjhZV5fy4Q7AACV9P7xE6fOAQI4dQ4AAMAsjRtpJ8/F9FMX6J+PxT/KNg4AAJyP+84BYrRWllPn9o3KlecHP1OA7Mx3lqIjAABQcHnOtycn0AEAqIrJxO7bew+iowDUTk8RhtMAAHyUSURBVJUm2wEAAKg3BToAAJWw39923zlAgO6dW+ny2mp0DKCkqrZaAQDA7P358y+/5/n1Tl2gf/r44eWFny6ZcAcAoFBMtgPE+e3v59ERMufnC2SntbIcHQEAgIIbN1Jud59POIEOAEBpjQZDk+0AASb3nVfd5HoQAAAAYuR9/3lSoAMAUFa76xsm2wECmGwHAAAgL58+fniZ99c8dYH+9Oq1nXv/7987jXFazDYSAACczGQ7QJxf//qjVvcV7/e3oyNApS10O9ERAAAosHEj7Ty9es2EOwAAnMRkO0CMyWR7ncpzIHvznaXoCAAAFFjEfHtSoAMAUBYm2wFitFaW05WH96NjhNjr9aMjAAAA1FbEfHs6a4H+ueV/lF0cAAD41vvHT0y2AwSo22Q7kC/vLwAAFJET6AAAFJb7zgFimGz/P37+QHYO3mcAAOBEjfSviPvPkwIdAIAiGg2Gh3+67xwgf3WebD9q8rMIAACAejlTgf7p44eXF366ZMIdAIBM7fe33XcOEKB751a6vLYaHQOogYVuJzoCAAAF9ufPv/we9bWdQAcAoDBMtgPEMNn+rf3+dnQEAACAWho3Ush0+8TcWR4ctTMPAED1jQbDw8l25TlAvpTnx9vr9aMjQKXNd5aiIwAAUFCNlF5Hfv0zn0AfN9JOY5wWs4kDAEAd7a5vmGwHCGCyHYjil3YAADjJp48fXkZ+fRPuAACEMdkOEOfXv/5QYAEAAFAo40baiV5FP3OB/vnI/KNs4gAAUBeTyXYA8mWy/XT8chdk5+B9CAAAjhM9356cQAcAIILJdoAYrZXldOXh/egYhTcaDKMjAAAA1FL0fHtSoAMAkLf3j5841QcQwGT76SjPIXsL3U50BAAACmjcSKHT7RMKdAAAcuG+c4AYJtvP5uD/TrvrG9ExoNLmO0vREQAAKKBGSq+j7z9P0xTonz5+eHnhp0vuQAcA4FQmJ/ncdw6QP+X5dPZ6/egIAAAABDlzgf706rWd//7ff2eTBgCAytnvb7vvHCBA986tdHltNToGwDf8Ug8AAMf58+dffo/OkKadcB830k5jnBZnHwcAgKow2Q4Qw6lzoMgO3qMAAOAbjfSv6AgT7kAHAGDmRoOhyXaAAMrz2fDLXwAAAPU1VYHeSOl1Ssk96AAAfGN3fcNkO0AAk+2zMRoMoyMAAADUTlHm25MT6AAAzIrJdoA4v/71h1PnQCksdDvREQAAKJhxI+1EZzhKgQ4AwLkpzwFimGyfvf3+dnQEqLT5zlJ0BAAACubz+nlhTFWgf/r44eWFny6ZcAcAwGQ7QJDWynK68vB+dIzK2ev1oyMAAADUSpHm25MT6AAAnMf7x0+cOgcIYLIdKCvvXQAAHFW0+fYDc9M86enVaztF/B8DAEA+RoOh8hwgQGtlWXmeMT/bIDsH72EAAHBU0ebbkxPoAACcxWgwPPzz7b0H0VEAasd959mb/JwDAAAgH0Wbb0/nKdA//zaAe9ABAGpkv7/tvnOAAN07t9LltdXoGAAAADAzRV08dwIdAIAfGg2Gqf/8lVlbgJw5dZ6v/f52dASotIVuJzoCAAAFUsT59qRABwDgR0aDocl2gADKc6Bq5jtL0REAACiQTx8/vIzOcJypC/SD/0EXfrpkwh0AoMJ21zdMtgMEMNkeY6/Xj44AAABQC+NG2nl69ZoJdwAAysFkO0CcX//6w6lzoJK8twEAMFHU+fYDc9M+8enVaztFvdgdAIDpKc8BYrRWlpXnwfzsg+wcvMcBAMBEUefbkxPoAAAcZbIdIEZrZTldeXg/OkatjQbD6AgAAAC1UOT59nTeAv3z0Xr3oAMAVMD7x0+cvAMI4NQ5UAcL3U50BAAACqLI8+3JCXQAAEy2A8RorSynzu0byvOC2O9vR0cAAAD4/+zdPWhc+fk3/N/Z9X87tUKj1uAtBCMGVAiMOgsZhKtn4cGFcKUqbApXcREVt4qoSiGhKpWJIBierf4EEjZdCPcWBuEBFRlIqxFq1c1EnoeZWJtdr1/0Mmeuc37n84GQ+9X6/m1pZtD3XNfVCFVe354U6AAAzXW1qvav3/4mOgpA4yjPgaaZby9FRwAAoAKqvr597Iu7/H/eX13fmV4UAABm6bx7ojwHCNDZ3prcO1eeV8vZcTc6AmTNax4AAKkG69vTXSfQf/X3Pz+YXhQAAGbBynaAOO6dAwAA0GRVX9+e7jqBfri22RsVqdIj9gAA/JfyHCBGa2VZeV5x3huhPOPXQAAAqMP69jSNG+jvxux/O504AACU5V9/+Vs6/sMfo2MANE5rZXmysp3qujjtR0cAAADIXh3Wt6dpFOgAAFSbqXOAOKbOAVJa6LSjIwAAUAF1WN+eFOgAAHlTngPEaK0sp/azp8rzmjjvnkRHgKzNt5eiIwAAEKwu69vTNAr0y+Hg6Mt7X1nhDgBQMVa2A8Swsr1+zo670REAAACyVpf17ckEOgBAnv7xu9+bOgcI0NneSvcfP4qOAVAptnEAAFCX9e1jX9z1Dzhc2+yNilSLcXsAgNxdnPaV5wABWivLk3vnyvN68r4J5Rm/PgIA0Gx1Wt+eTKADAOTj4rSf/vrtb6JjADSOle0AAADwcXVa356mVaC/+x/aHXQAgCDunQPEsLK9/i5O+9ERAAAAslan9e3JBDoAQL1dnPZT9+WfrJ4FCLBxsOeuL8BnLHTa0REAAAhUt/XtaRo30FMNnxoAAMiB8hwgxtW9c+V5Hs67J9ERIGvz7aXoCAAABKrb+vZkAh0AoJ6sbAeI4d55fs6Ou9ERAAAAsrW/ur4TneGmplKgH65t9r794fteMUoPpvHnAQDwYabOAeKYOge4Oa+bAAANVqTd6Ai3YQIdAKAmlOcAMVory6n97KkSCOCGxq+fAABQN1Mr0N/tr//ttP48AAD+6+K0n/767W+iYwA0jpXteRu/v3owDQAAoBx1XN+eTKADAFTfP373e7/cBwjQ2d5K9x8/io4BAAAA9VPT9e1pmgX65XBw9OW9r0ygAwBMiZXtADGsbAeYjoVOOzoCAADc2BfT+oMO1zZ70/qzAACa7mplu/IcYLaU580xfq89755Ex4CszbeXoiMAABBgVKReXde3p2mvcB//ZRSj9GCafyYAQNP86y9/S8d/+GN0DIDG6WxvTcoe5XkzjP+duy//FB0DAAAgO0VKr6Iz3MVUC/R3fxnWuAMA3IKV7QBxNg72FOcAU+Z1FQCgmS6Hg6PoDHcx1QIdAIDbUZ4DxLCyvdm870J5xq+vAAA0z6hIvbqf/p5qgX45HBx9ee8rE+gAADdgZTtAjNbKcnr44nl0DIJcnPajIwAAAGSn7uvbkwl0AIA4ps4B4ljZDlCuhU47OgIAAAHqvr597Itp/mGHa5u9UZFqPZIPADALynOAGK2VZeU5E+fdk+gIAAAAWclhfXsygQ4AMHsXp/30129/Ex0DoHGsbAeYnfn2UnQEAABmLIf17amMAv3dX4w76AAAH/CP3/3e1DlAgM72Vrr/+FF0DCrk7LgbHQGyZtMHAEDz5LC+PZlABwCYDSvbAWK0VpZT+9lTRQ4AAACUKJf17WnaN9BTRk8WAABMy9XKduU5wGwpz/kU78tQnvHrLwAAzZLL+vZURoGey5MFAADT8K+//M29c4AAne0t5TkfdXHaj44AAACQlZyGrEtZ4T4qUq8YpQdl/NkAAHVgZTtAnI2DPcU5QKCFTjs6AgAAs1Sk3ZyGrKc+gZ4yG9EHALgp5TlAjNbKsvKcaznvnkRHAAAAoKJKmUAHAGiqf/3lb+n4D3+MjgHQOK2V5fTwxfPoGNTE2XE3OgJkbb69FB0BAIAZ2l9d34nOME2lFOiXw8HRl/e++m0ZfzYAQBWZOgeIY+ocoFq8JgMANEiRdqMjTFspK9xz2nEPAPA5ynOAGFa2A1TP+LUZAIDmuBwOjqIzTFtpK9xHReoVo/SgrD8fAKAKLk776a/f/iY6BkDjtFaWU/vZU+U5t+KhNwAAgLsbFamX42B1aQV6kdKrlJI17gBAtv7xu9/7BTxAgM72Vrr/+FF0DGrq4rQfHQEAACAL7/rg7JRWoAMA5MrKdoA4VrYDVNtCpx0dAQCAGclxfXsqs0Af/4V9ee8rE+gAQFasbAeIYWU703LePYmOAFmbby9FRwAAYAZyXd+eTKADAFzfv/7yt3T8hz9GxwBonM721qSQUZ4zDWfH3egIAAAAtZfr+vZUZoF+uLbZ+/aH73vFKD0o62sAAMyKe+cAMaxsB6gXr9kAAM2wv7q+E52hLKVOoL978sAadwCgtqxsB4hhZTtl8UAclGf82g0AQAMUaTc6QpmscAcA+Agr2wFitFaW08MXz6NjAAAAAB9wORwcRWcoU6kF+vgv78t7X5lABwBq5eK0n7ov/2RCDSBAZ3sr3X/8KDoGmRq/xwMAAHB7oyL1Dtc2e9E5yvRFmX/4+C9v/JdY5tcAAJgm5TlAnG++e6k8B6ixhU47OgIAACV7d8I7a1a4AwC8Y2U7QAwr25mV8+5JdATI2nx7KToCAAAly319e5pFgf7uKQRr3AGAyro47U9+oa48B5g9K9uZpbPjbnQEAACA2mrC+vZkAh0AIFnZDhBk42AvzS22omMAMCVe0wEA8taE9e2p7BvoY/ur6ztlfw0AgNu4OO2n/+//eaY8B5ix1sqy8pwQ3vOhPOPXdgAA8taE9e1pVhPooyL1ilF6MIuvBQBwHe6dA8Rw75woF6f96AgAAAD1VaTdJqxvT7Mq0N1BBwCq5B+/+70JNIAAps4BAACAqnMDHQBojIvTvnvnAAFaK8up/eyp8hwgYwuddnQEAABKMipS76BBZ7tnUqBfDgdHX977ygQ6ABDGynaAGFa2UxXdl3+KjgBZm28vRUcAAKAk77aNN8ZMCvTDtc3er//v97P4UgAAP2PqHCBOZ3sr3X/8KDoGAAAAcAeXw8FRdIZZmtkK91GResUoPZjV1wMAUJ4DxPnmu5fREQCYIWc6AADyNCpS73BtsxedY5ZmVqC/G+23xh0AmImL037667e/iY4B0DhX986hajxQB+UZv/YDAJCnpq1vT7Ms0AEAZuUfv/u9X5IDBLCynaq6OO1HRwAAAKil/dX1negMs/bFrL5QE/9yAYDZujjtK88Bgmwc7CnPARpqodOOjgAAQBmKtBsdIcJMJ9DdQQcAymJlO0CMq5Xtbt9SZefdk+gIAAAAtXM5HBxFZ4gwswn01NAd+QBA+f71l78pzwECtFaW08MXz5XnAA03316KjgAAwJSNitQ7XNvsReeI4AY6AFBrVrYDxNg42FOcUxtnx93oCJA17wcAAPlp8mD0TCfQmzrmDwBMn3vnADFaK8vKcwB+NH5fAAAgP03udWdaoB+ubfZGRWrkqD8AMD1XK9uV5wCzZWU7deUzAwAAwA0Uabep69tTxAr3d+P+v5311wUA6u/itJ+6L//kl+AAATrbW+n+40fRMeDGxp8fAAAA4LrcQAcAakF5DhCjtbKc2s+emjoH4IMWOu3oCAAATNGoSL2D1fWd6ByRZrrCPTV8Xz4AcDsXp30r2wECKM/JwXn3JDoCZG2+vRQdAQCAKXq3TbzRZj6Bfri22fv2h+97xSg9mPXXBgDq5eK0P/ml9/Ef/hgdBaBxrGwnF2fH3egIAAAAtWEY2gp3AKDCrGwHiLFxsGfqHIBr8X4BAJCPUZF6h2ubvegc0UIK9Hej/7+N+NoAQPW5dw4Qw8p2AG5i/L4BAEA+rG//j5AC/XI4OPry3lcKdADgF/71l79Z2Q4QoLWynB6+eB4dA6bOA3kAAADXs7+6vhOdoQpCCvTDtc3er//v9xFfGgCosH/87vd+yQ0QwMp2cnVx2o+OAFlb6LSjIwAAMC1F2o2OUBVhN9BHReoVo/Qg6usDANVhZTtADCvbAQAAgPRug3h0hqoIK9DdQQcAkpXtAGGU5+Tu4rSfzrsn0TEga/PtpegIAABMwahIvcO1zV50jqoIK9DdQQeAZjN1DhCns72V7j9+FB0DSjW32Jp81gAAAODT3g0+884XUV/4cG2zNyqSJxkAoIGU5wAxWivLk3vnynMApsEWEwCAPFjf/nNhE+gAQDNdnPbTX7/9TXQMgMaxsh2AaRq/rwAAkIEi7Vrf/nOhBbo76ADQHFd3SN07B5g9K9tpKttuAAAAPs30+S+FFujuoANAc1jZDhBj42DP1DmNdHHaj44AAABQaaMi9Uyf/1LYDfTkDjoANMLFaT/943e/V54DzNjVvXPlOQBlWOi0oyMAAHBH77aF857wG+jWuANAvv71l79Z2Q4QoLWynB6+eB4dA0Kdd0+iI0DW5ttL0REAALgj69s/LLxABwDyZOocIIapc/iPs+NudAQAAIDqKtKu9e0fFrrCPXmyAQCyY2U7QAwr2wGYJe83AAD1pqP9uPAC3R10AMiP8hxgtlory6n97KkyA37C5xEoz/h9BwCA+hoVqWf6/OPCC/TkQD0AZGVusZU621vRMQAaY/ya+/DFc+U5/MTFaT86AgAAQGXpZj/NDXQAYOruP340uTtq8gugPKbOAYiy0GlHRwAA4A6sb/+0Skyg76+u70RnAACm6+GL51Y7ApREeQ6fdt49iY4AAABQTUXatb790yozgT4qUq8YpQfROQCA6Wk/e2oKHWDKOttbk00fABBlvr0UHQEAAEpTiQn0ZNc+AGTJPXSA6do42FOewzWcHXejI0DWbEABAKinUZF6NoN/XmUKdLv2ASBP9x8/ssod4I7Gr6MbB3sKCwAAAODWDDRfT2UK9MO1zd6oSPbtA0CG3EMHuL3x6+f4dVR5DtfnhAyUx+d6AID6MtB8PZUp0JOnHgAga+1nT6MjANTOxsHepDwHru/itB8dAQAAoHqKtHu4tmmY+RoqVaADAPlyDx3g+qxsB6CqFjrt6AgAAFCqShXojtYDQN7cQwf4vPHrZPvZU+U53NJ59yQ6AmRtvr0UHQEAgBsaFamnh72+ShXo6d0/YHQGAKA87qEDfFxne8u9cwAAAGCqnNG+mcoV6P4BASB/7qED/NLGwd5kUwdwN2fH3egIkDUPeQEA1M/lcHAUnaFOKleg+wcEgPzNLbYmRREA7p0DUB82SQEA1FCRdg/XNm0Av4HKFejJGncAaIS5xdZkVTFAk7VWlq1shynrv34THQEAAIAaq1yBfri22bPGHQCa4f7jR6ZYgMbaONiblOfA9Fyc9qMjAAAAVMaoSL391fWd6Bx1cy86AADQbFf30E2LAU3RWlmevPaZOgegbhY67egIAADcgKHl26ncBPqYJyEAoDnmFls/lugAubOyHcp13j2JjgBZm28vRUcAAOAGLoeDo+gMdVTJAj25gw4AjeIeOtAE49c5K9uhXGfH3egIAAAA1VCk3cO1TX3rLVS2QLdSAACaxT10IFfj17aNg73J6xwA1JkNKgAA9WH6/PYqW6D7RwWA5mk/e6pEB7JiZTvMVv/1m+gIkC2f0wEA6mNUpJ7p89urbIE+/ke1xh0AmsU9dCAnVrYDAAAAEWz6vpvKFujJPy4ANJJ76EAOrGyH2bs47UdHAAAAqIT91fWd6Ax1VukCHQBoJvfQgbq6unduZTsAuVnotKMjAABwHUXajY5Qd5Uu0PdX13escQeAZnr44rkSHagV984h1nn3JDoCZG2+vRQdAQCAa7gcDo6iM9RdpQv0ZI07ADSae+hAXWwc7Ll3DsHOjrvREQAAAEKNitQ7XNs0nHxHlS/QAYBm2zjYi44A8FFWtgPQFN7rAACqz2DydFS+QHfkHgCaa26xNfmPVe5AFVnZDkBT+DwOAFB9oyL1rG+fjsoX6BOO3QNAo7mHDlRNZ3vLynaokIvTfuq/fhMdAwAAIEyR0ivr26fjXnQAAIDraD976hfjQLjWyvLk9cjUOQBNstBpR0cAAOAzTJ9PTy0m0P2DAwBziy330IFQynMAAACgikZF6pk+n55aFOjjf/DxP3x0DgAg1txia7I2GWDWxq89ynOoru7LP0VHgKzNt5eiIwAA8AlFSq+iM+SkFgV68g8PALxz//Ej99CBmdo42Ju89ijPAWgq74EAANU1KlJvf3V9JzpHTmpToFvjDgBcaT97Gh0BaIDWyvKkPFcaAAAAAFVlCHn6alOgW+MOAFxxDx0oW2tlOT188Vx5DjXRf/0mOgJky/YnAIBqM4Q8fbUp0JMnKACAn3APHSjLxsHepDwH6uHitB8dAQAAIMSoSL3DtU0DyFNWqwLdExQAwE+5hw5Mk5XtAPBLC512dAQAAD7C8HE5alWgW+MOALzv4YvnSnTgzqxsh/o6755ER4CszbeXoiMAAPABoyL19lfXd6Jz5KhWBXryJAUA8AHtZ0+jIwA11tnesrIdAAAAqBWdaXlqV6Bb4w4AvM89dOA2rla233/8KDoKcAdnx93oCJA121kAAKpJZ1qe2hXo1rgDAB/iHjpwE+PXi/azp0oBAPgEn68BACqqSLuHa5v60pLUrkBPVhIAAB/hHjpwHZ3tLeU5ZKT/+k10BAAAgJkyfV6uWhbovikAgI9xDx34lKuV7cpzyMPFaT86AgAAwEyNitQzfV6uWhbo1rgDAB8zt9iaFGQAP3V171xxDgDXt9BpR0cAAOA9NnWXr5YFevLNAQB8wtxiyyp34Efj14OHL54rzyFD592T6AiQtfn2UnQEAADes7+6vhOdIXe1LdCtcQcAPsU9dCC9W9k+fj0A8nR23I2OAAAAMDtF2o2O0AS1LdCtcQcAPkdpBs1lZTsA3J33UQCAajFgPBu1LdCTNe4AwDW4hw7N01pZTu1nT/3SHwDuwDYnAIBqGRWpd7i2abh4BmpdoHvKAgD4nLnFVupsb0XHAGZk/PPu3jk0R//1m+gIAAAAM2GweHZqXaBb4w4AXMf9x49M0EADbBzsTX7egWa4OO1HRwAAAJiJUZF6+6vrO9E5mqLWBXrytAUAcE3uoUO+3DuH5lGeQ/kWOu3oCAAAvKMPna3aF+j7q+s7ptABgOtwDx3y09necu8cGmj8M3/ePYmOAVmbby9FRwAA4B1nrWer9gV68tQFAHBN7qFDXq5WtivPoZnOjrvREQAAAMpXpN3DtU3DxDOURYEOAHBd7qFD/VnZDgDl8z4LAFANps9nL4sC3Rp3AOAm2s+eKtGhpsY/uw9fPPdLfQAokc/KAADVoP+MkUWBnqxxBwBuYG6xNSnRgXrpbG9NynOAsf7rN9ERAAAASlWk9Mr69tnLpkC3vgAAuAn30KFevvnu5eQEA8DYxWk/OgJkbaHTjo4AANB4oyL19J8xsinQD9c2e9YYAAA34R46VN/4Z/Sb715GxwAAAACYKdPncbIp0JM17gDALTx88VyJDhVlZTvwMefdk+gIkLX59lJ0BACAxjN9HierAt03EgBwG+6hQ/VsHOxZ2Q581NlxNzoCZG1usRUdAQCg0UZF6pk+j5NVgW6NOwBwG3OLrUlZB8RrrSxPfh794h4AAABoKlu3Y2VVoCffUADALc0ttqxyh2Djn8GHL54rz4HP6r9+Ex0BsuUzMQBArFGRevur6zvROZosuwL9cjg4MoUOANyGe+gQZ+Ngz71zAAAAoPEMC8fLrkA/XNvs+cYCAG7LPXSYLSvbgZu6OO1HR4CsLXTa0REAABrtcjg4is7QdNkV6Mk3FgBwB+6hw+xY2Q7clPIcAADIWpF2D9c2bdoOlmWBPv7GssYdALitucVW6mxvRceArI1/xqxsB25q/B593j2JjgFZu//4UXQEAAAIlWWBntwHAADu6P7jR+6hQ0m++e6lX84Dt3Z23I2OAFmz6QEAIMaoSL391fWd6BxkXKBb4w4A3JXpWJiuq3vnAEA1jd+rnVYBAIhhOLg6si3QJ/cBirQbnQMAqDdlH0zH1cp2v5QH7qr/+k10BAAAgKkzHFwd2RboAADT4B463N3GwZ6V7cBUWC0NAABkqUi7k+FgKiHrAn1/dX1nVCTfbADAnbiHDrdztbLd1DkA1MNCpx0dAQCgkUyfV0vWBXpyLwAAmJKHL54r0eEGxj8vVrYD03bePYmOAFmbby9FRwAAaJxRkXqmz6sl+wLdExsAwLS0nz2NjgC1sHGwNynPAQAAAPg0w8DVk32Bfri22bPGHQCYhrnF1qQYBD7MynagbGfH3egIkDXv4QAAszUqUs8wcPVkX6AnT24AAFM0t9iyyh0+wMp2oGwXp/3oCJA1n3EBAGavSOmV9e3V04gCfX91fccUOgAwLe6hw891tresbAdKN7fYSv3Xb6JjQNY8qAIAMFumz6upEQV6MoUOAEyZe+jw35Xt9x8/io4CAEyBTTIAALMzKlLP9Hk1NaZA9wQHADBN7qHTdK2V5cmDJH7RDsyKyVgo10KnHR0BAKBRDP9WV2MK9MkTHEXajc4BAOSls70VHQFm7mplu/IcmKXz7kl0BMjafHspOgIAQGOMitTbX13fic7Bh92LDgAAUFdzi63Jf86Ou26y0hgbB3uKcyDE+P0WAAAgB6bPq60xE+hj+6vrO6MiuSUAAEyVe+g0wdW9c+U5AOTJezwAwOw4PV1tjSrQkyc6AIASuIdO7lory1a2A+Fse4HyjN/rAQCYkSLtTk5PU1mNK9A90QEAlGFuseUeOlnaONiblOcAAAAA3J2usvoaV6BPnugo0m50DgAgP/cfPzK9QzasbAeq5OK0Hx0BsrbQafs5AwCYgVGReqbPq69xBXryZAcAUKL2s6dKdGpv/D08/l5WngNAc3jfBwAon1PT9dDIAv1wbbM3KpKnOwCAqZtbbE2KR6irzvaWe+dA5Zx3T6IjQNbm20vREQAAsjcqUm9/dX0nOgef18gCPXnCAwAokXvo1NHVyvb7jx9FRwH4hbPjbnQEAACAO9FN1kdjC/T91fUdU+gAQFncQ6dOrGwHgGbzGQAAoHxOTNdHYwv05EkPAKBkD188V6JTeVa2A0Cz+bwKADADRdo9XNs02FsTjS7QPekBAJTNPXSqzMp2oA4uTvup//pNdAwAAIBb00nWS6ML9MmTHkXajc4BAORt42AvOgL8zNW9c1PnAMBCpx0dAQAga6Mi9Uyf10ujC/TkiQ8AoGRzi63Jf6zGpCrG34tWtgMAAADMhpPS9dP4Av1wbbM3KpKnPgCAUrmHThVsHOxNvhcB6uS8exIdAbI2316KjgAAkK1RkXr7q+s70Tm4mcYX6GNvh4Mn0RkAgPy5h04UK9uBOjs77kZHgKz5fAAAUB7T5/WkQH/HFDoAULa5xZZ76Mxca2V58vCGX44DAO+zIQkAoFxOSdeTAv3dGndPgAAAszC32Eqd7a3oGDTE+HvNvXOg7vqv30RHAAAAuLki7R6ubRrgrSEF+jv7q+s7ptABgFm4//iRaR9KdbWyffy9BlBnF6f96AgAAAC3Yvq8vhToP2EKHQCYlfazp0p0SmFlOwBwXQuddnQEAIAsjYrUM31eXwr0n7gcDo5MoQMAszC32JqUnDBNVrYDuTnvnkRHgKzNt5eiIwAAZOntcPAkOgO3p0D/CbfQAYBZcg+dabKyHQAAACCe6fP6U6C/xz0CAGCW3EPnrq7unZs6B3J0dtyNjgBZ8/kBAGD6DOvWnwL9PZMnQoq0G50DAGiOhy+eK9G5lfH3jZXtAMBt+PwJADB9oyL1DOvWnwL9A3xjAwCz5h46N7VxsDcpzwFy1n/9JjoCAADAtRUpvbK+vf4U6B9gCh0AmDX30LkuK9uBprg47UdHAAAAuBFDunlQoH+Eb3AAYNbcQ+dzrGwHAKZlodOOjgAAkJci7Zo+z4MC/SNMoQMAEdxD52M621tWtgONct49iY4AWZtvL0VHAADIiuHcfCjQP8E3OgAQwT103rdxsDfZUADQJGfH3egIAAAA1zIqUs/0eT4U6J9gCh0AiDC32JoUpuDeOQBQFp8vAACm5+1w8CQ6A9OjQP8MU+gAQIS5xZZV7g3n3jkAUBafMwEApsf0eX4U6J9hCh0AiOIeenNtHOy5dw40Xv/1m+gIAAAAn1Wk9Co6A9OlQL8GU+gAQBT30JvFynaA/7g47UdHAAAA+KxRkXr7q+s70TmYLgX6NZhCBwCiuIfeHFa2AwCzstBpR0cAAMiC6fM8KdCvyRQ6ABBlbrGVOttb0TEo0fjf18p2gP86755ER4CszbeXoiMAANTeqEg9/WGeFOjXZAodAIh0//Ej99AzdLWyffzvC8B/nR13oyMAAAB8UpHSq0l/SHYU6DfgKRIAIJIJ5bxY2Q4ARPH5AwDg7vSG+VKg34ApdAAgmnvoebCyHeDT+q/fREeAbNlqBAAwBUXaNX2eLwX6DXmaBACI5B56/VnZDgAAAFBv+sK8KdBvyBQ6ABDNPfR6urp3bmUqwKddnPajI0DWFjrt6AgAAPVm+jx7CvRbuBwOjkZF8oMBAIRpP3uqRK8R984BAAAA8mD6PH8K9Fs4XNvsFSm9is4BADTX3GJrUqJTfRsHe+6dA9zAefckOgJkbb69FB0BAKC2RkXqmT7PnwL9lvZX13dMoQMAkdxDrzYr2wFu5+y4Gx0BsuazCQDA7b0dDp5EZ6B8CvQ7MIUOAERzD72arGwHAAAAyIvB2uZQoN+BKXQAoAoevniuRK+QzvaWle0Ad9B//SY6AmTLZ0YAgNsrUnplfXszKNDvyBQ6AFAF7qHHu1rZfv/xo+goAAAAAEzRqEi9/dX1negczIYC/Y5MoQMAVbFxsBcdobFaK8uThxisbAe4m4vTfnQEyNpCpx0dAQCglgzUNsu96AA5eDscPPny3lf/jM4BADTXVXHbWlm2+nbGOttbab69pDwHACpv/JkFAICbGRWp93Y4OIrOweyYQJ+WIu1GRwAAcA99tq5WtivPAaaj+/JP0REAAAB+xu3z5lGgT8H4h+bSkycAQEW4h16+q3vninMAoE58dgEAuBm3z5tJgT4lkydPTKEDABUwt9hyD71ErZXlyaS/X0ADAHViSxEAwM25fd5MCvQpuhwOjkZFssIBAAg3t9ia3OZmujYO9iblOQDl6L9+Ex0BAABgYlQkG6gbSoE+RYdrmz1PogAAVXH/8SOTRlNiZTtA+S5O+9ERAAAAfuT2eXMp0Kdsf3V9xxQ6AFAV7qHfnZXtAEAOFjrt6AgAALVh+rzZFOglMIUOAFSFe+h309nesrIdYEbOuyfRESBr8+2l6AgAALVh+rzZFOgl2F9d30lF2o3OAQCQ3EO/lauV7fcfP4qOAgAAAMAMmT5HgV4SP1gAQJW4h35947+n9rOnVrYDzNjZcTc6AmTNZxsAgOsxfY4CvSSTHyxT6ABAhTx88VyJ/hmd7S3lOQCQHZ8BAQCuz5AsCvQSjX/ARkXyhAoAUBntZ0+jI1TW1cp25TlAjP7rN9ERAACApivSrulzFOglGv+AFSm9is4BAHBlbrE1KYr5r6t754pzgDgXp/3oCAAAAKbPmVCgl2x/dX3HFDoAUCVziy1rPN8Z/z08fPFceQ4AZG2h046OAABQfabPeUeBPgNvh4Mn0RkAAH7KPfT/rGwf/z0AEO+8exIdAbI2316KjgAAUHmmz7miQJ+BydMqRdqNzgEA8FNNvYduZTtA9Zwdd6MjAAAATWb6nJ9QoM/I5XBwZJU7AFAlTbyH3lpZnjw4oDwHAJrEZx8AgE8zfc5PKdBn5HBts1ek9Co6BwDATzXpHnpne8u9cwCgcZryWQ8A4NZMn/MeBfoM7a+u75hCBwCqpgn30DcO9tL9x4+iYwDwEf3Xb6IjAAAADWX6nPcp0Gfs7XDwJDoDAMD7Hr54Hh2hFO6dA1TfxWk/OgJkbaHTjo4AAFBdps/5AAX6jE1+CIu0G50DAOB9ud1D72xvuXcOAAAAwEeZPudDFOgBrHIHAKpobrE1KZ1zcLWyXXkOUH3n3ZPoCJC1+fZSdAQAgGoyfc5HKNCDFCm9is4AAPC++48f1foeupXtAPVzdtyNjgBZ87kIAODDTJ/zMQr0IPur6ztWuQMAVVTXe+itleVJdr8kBgAAAOCTTJ/zCQr0QJ5sAQCqqm730DvbW7Ut/gEAylLnzUIAAGXS0fEpCvRAkydbTKEDABVUp3vo33z3crJ6HoB66r9+Ex0BAABoEtPnfIYCPdj+6vrOqEh+SAGAyqn6PfRxtm++exkdA4A7uDjtR0eArC102tERAAAqZVSknulzPudedABSejscPPny3lf/jM4BAPC+9rOnk/+u2nRgZ3vL1DkAwGfMt5eiIwAAVEqR0ivT53yOCfQKsModAKiqucXWjyV6VWwc7CnPATJx3j2JjgAAADSE6XOuS4FeEVa5AwBVVZV76K2V5Ul5Ps4DQB7OjrvRESBrPjcBAPyX6XOuS4FeIW+HgyfRGQAAPiT6Hvr4az988dwvgQEArinysxsAQNWYPucmFOgVYpU7AFBlD188D/lF7MbB3uRrA5Cf/us30REAAIAGMH3OTSjQK+ZyODiyyh0AqKpZ3kO3sh0gbxen/egIAABAA4yK1NtfXd+JzkF9KNAr5nBts2eVOwBQVXOLrUmpXTYr2wEA7mah046OAABQCUVKr6IzUC8K9Aqyyh0AqLK5xVapq9w721tWtgM0wHn3JDoCZG2+vRQdAQAgnOlzbkOBXlFWuQMAVVbWPfRvvnuZ7j9+NPU/FwAAAIDmMX3ObSjQK8oqdwCg6qZ5D/3q3jkAzXF23I2OAFlzCgcAaDrT59yWAr3CrHIHAKpsWvfQr1a2+yUvAMB0lHluBwCgLkyfc1sK9Iqzyh0AqLK5xdakAL+tjYM9K9sBGqr/+k10BAAAIFOmz7kLBXrFWeUOAFTd/cePbjzldLWy3dQ5QDNdnPajIwAAABkzfc5dKNBrwCp3AKDq2s+eXrtEH/+/s7IdAKA8C512dAQAgDCmz7mre9EBuJ7L4eDoi//56v8tRulBdBYAgPfNLbYmJfrn1vGaOgdg7Lx7Eh0BsjbfXoqOAAAQxmZn7soEek1Y5Q4AVN2n7qFb2Q4AAABA2UZF6k02O8MdKNBrxCp3AKDqPnQP3cp2AN53dtyNjgBZ87kLAGgqw6hMgwK9Zi6Hg6NRkTw5AwBU1sMXz38s0TvbW5P/PQAAs/H+w4wAAI1RpF3T50yDAr1mrHIHAOqg/ezpZGX7/cePoqMAUEH912+iIwAAAJm5HA6OojOQBwV6DVnlDgBU3dxiy+pQAD7o4rQfHQGyttBpR0cAAJg90+dMkQK9pvZX13escgcAAAAAAKDJRkXqmT5nmhToNfZ2OHiiRAcAAKBOzrsn0REga/PtpegIAAAzVaT0yvQ506RAr7Hxi8H4RSE6BwAAAFzX2XE3OgJkzRkdAKBJTJ9TBgV6ze2vru+4hw4AAAAAAEDTmD6nDAr0DFwOB0dWuQMAAFAH/ddvoiNAtlory9ERAABmZlSk3mTQFKZMgZ6Bw7XN3tvh4El0DgAAAAAAAJgF3RhlUaBnYrKewip3AAAAKuzitB8dAbK20GlHRwAAmI0i7VrdTlkU6BnZX13fscodAACAqjrvnkRHgKzNt5eiIwAAzMTlcHAUnYF8KdAz83Y4eKJEBwAAAAAAIEumzymZAj0z4xeMIqVX0TkAAADgfWfH3egIkLW5xVZ0BACAUo2K1DN9TtkU6BnaX13fcQ8dAAAAoDlaK8vREQAASlek9Mr0OWVToGfKPXQAAAAAAAByYfqcWVGgZ+ztcPAkOgMAAABc6b9+Ex0BAACoKdPnzIoCPWOTFxGr3AEAAKiAi9N+dATI2kKnHR0BAKA0oyL1JieMYQYU6JlzDx0AAAAgf/PtpegIAAClKVJ6FZ2B5lCgN4AncgAAAIh23j2JjgAAANSQ6XNmTYHeEJf/Hnw9foGJzgEAAEAznR13oyNA1uYWW9ERAABK8XY4eBKdgWZRoDfE4dpmz3oLAAAAgPy0VpajIwAAlKNIu4drmwZEmSkFeoO4hw4AAECU/us30REAAIAaGRWpdzkcHEXnoHkU6A2zv7q+Y5U7AAAAs3Rx2o+OAAAA1EyR0ivT50RQoDfQ2+HgiRIdAAAAIA8LnXZ0BACAqTJ9TiQFegO5hw4AAMAsnXdPoiNA1ubbS9ERAACmyvQ5kRToDeUeOgAAAAAAAJVTpN1JjwVBFOgN5h46AAAAs3B23I2OAFmbW2xFRwAAmBqr24mmQG8499ABAAAA6qu1shwdAQBgeoq0a3U70RToDTd+EXo7HDyJzgEAAEC++q/fREcAAAAqblSknulzqkCBzqREdw8dAACAMlyc9qMjQNYWOu3oCAAAU1Gk9Mr0OVWgQGdif3V9R4kOAAAAAADArI2K1Jt0VVABCnR+dDkcHLmHDgAAwDSdd0+iI0DW5ttL0REAAO7MuWGqRIHOjw7XNnsHq+tfR+cAAAAgH2fH3egIAABAlRVp1+p2qkSBzs/86u9/fnD574ESHQAAAKAG5hZb0REAAO7kcjg4is4AP6VA52cO1zZ7k6d83EMHAAAAqLTWynJ0BACAuzF9TgUp0PmgydM+SnQAAADuqP/6TXQEAACggkZF6u2vru9E54D3KdD5oMO1zd7lcHA0fvGKzgIAAEA9XZz2oyNA1hY67egIAAC3VqT0KjoDfIgCnY86XNvsvR0OnijRAQAAuCnlOQAA8DGmz6kyBTqfdFWiR+cAAACgXuYWW+m8exIdA7J2//Gj6AgAALeie6LKFOh81uHaZs89dAAAAG7q7LgbHQGyZtMDAFBLRdqddE9QUQp0rmWyRkOJDgAAAFAJrZXlyaYHAIA6GRWpdzkcHEXngE9RoHNt+6vrO+6hAwAAcF3912+iIwAAABVSpPTK9DlVp0DnRt4OB0+U6AAAAAAAANzEqEi9ycZjqDgFOjdyuLbZezscPInOAQAAQLW5zQzlWui0oyMAANyIfom6UKBzY5PVGu6hAwAAAISZby9FRwAAuL4i7VrdTl0o0LmVyYoNJToAAAAfcd49iY4AAABUwKhIvcvh4Cg6B1yXAp1bm7zYKdEBAAD4gLPjbnQEyNrcYis6AgDAtRQpvTJ9Tp0o0Lm18Yvd5XBwNCqSFz0AAACAGWmtLEdHAAC4niLtTrYaQ40o0LmTw7XN3sHq+tdKdAAAAH6q//pNdAQAACCY1e3UkQKdqXg7HDyJzgAAAADQBAuddnQEAIDPK9Ku1e3UkQKdqZi8ALqHDgAAQErp4rQfHQEAAAg0KlLP6nbqSoHO1ExeCJXoAAAAjXfePYmOAFmbby9FRwAA+CSbi6kzBTpTpUQHAAAAAABoMKvbqTkFOlO3v7q+MyqSF0YAAICGOjvuRkeArM0ttqIjAAB81OVwcBSdAe5CgU4p3g4HT5ToAAAAANPVWlmOjgAA8HGmz8mAAp1SjF8clegAAADN1H/9JjoCAAAwY6Mi9SanfqHmFOiU5qpEj84BAADA7Fyc9qMjAAAAAXRC5EKBTqkmazqKtBudAwAAACAHC512dAQAgF+yup2MKNAp3WRdhxIdAACgEc67J9ERIGvz7aXoCAAAv3A5HBxFZ4BpUaAzE0p0AAAAgLubW2xFRwAA+DnT52RGgc7M7K+u74yK5AUUAAAgY2fH3egIAADAjIyK1JsMUUJGFOjM1MHq+tdKdAAAgDxdnPajI0DWWivL0REAAH7m7XDwJDoDTJsCnZkbv5gq0QEAAPIzt9hK/ddvomMAAACzYHU7mVKgM3PjF1NPJAEAAADczEKnHR0BAGDC6nZypkAnxOHaZu/y34Ovo3MAAAAwPVa4AwBAMxiUJGcKdMJM1noUaTc6BwAAANNx3j2JjgBZm28vRUcAALC6newp0Ak1We+hRAcAAMjC2XE3OgJkbW6xFR0BAGg4q9tpAgU64ZToAAAAAAAA1Vek9Co6A5RNgU4lKNEBAADqr//6TXQEyFZrZTk6AgDQdEXaNX1OEyjQqYzL4eBoVCQ3MwAAAGpKwQcAAHkaFal3ORwcReeAWSiiA8D7vv3h+38Wo/QgOgcAAAC3c3Han/z3effkx7voptPhbjrbW+n+40fRMQCApjJ9ToPciw4A73s7HDz54n+++l8lOgAAQD3NLbYmJfr9x49+VvhdFetj3Zd/+vF/rVyHz5tvL0VHAAAaalSk3oHynAYxgU4l/ervf36gRAcAAGiOD02tJ+U6/GjjYG/ycAoAwCyNitR7Oxw8OVzbdIKXxlCgU1m/+vufH3x576t/RucAAAAglnIdUvrmu5fREQCAJrK6nQZSoFNpv/7h+/+TRum30TkAAACoJvfWaYLWynJ6+OJ5dAwAoGHerW7/OjoHzJob6FTa/ur6zq9/+D4p0QEAAPgQ99YBAKAcb4eDJ9EZIIIJdGrBJDoAAADTYiU8dWMCHQCYOavbaTAFOrWhRAcAAKBsynWqqLO99bMNCwAAZbK6naZToFMrSnQAAACiuLdOlI2Dvcm5AgCAWbj89+Drw7XNXnQOiKJAp3aU6AAAAES5OO3/osh0b52yKdABgJmxuh0U6NTTtz98/89ilB5E5wAAAIBPsRKeafjmu5fREQCABrC6Hf5DgU5tKdEBAACoM+U619FaWU4PXzyPjgEANIDV7fAfCnRqTYkOAABAjtxb54oCHQCYCavb4Uf3ogPAXbwdDp588T9f/a8SHQAAgJzMLbYmJfr9x48m/7ni3joAANM2KlLv7XBwFJ0DqsIEOrX3q7//+YESHQAAgKazEj5Pne2tnz1EAQAwbVa3w88p0MmCEh0AAAA+TrleXxsHe5ONBAAApbC6HX5BgU42fvX3Pz/48t5X/4zOAQAAAHXi3nq1KdABgLKMitQ7WF3/OjoHVI0Cnaz8+ofv/08apd9G5wAAAIA6uTjt/6KkdW+9Gr757mV0BAAgU1a3w4cp0MmOEh0AAADKZSX8bLRWltPDF8+jYwAAObK6HT7qXnQAmLbxC/6vf/g+KdEBAACgHFfT6uP/vv/40c/+75TrAADVNipS7+1wcBSdA6rKBDrZMokOAAAA1eLe+s10trd+8YACAMBdWd0On6ZAJ2tKdAAAAKgW99avT4EOAEyd1e3wWQp0sqdEBwAAgPpq8kr4jYO9XzxsAABwW6Mi9Q5W17+OzgFVp0CnEZToAAAAkJ/cy/VvvnsZHQEAyIjV7XA9CnQaQ4kOAAAAzZHDvXUFOgAwNVa3w7Up0GkUJToAAAA0R53vrbdWltPDF8+jYwAAGbC6HW7mXnQAmKXL4eDoy//5KinRAQAAIH8fuh/+0/+z9wvq3FfCAwDN9HY4eBKdAerEBDqN86u///nBF//z1f8Wo/QgOgsAAABQD7Mu1zvbW+n+40el/NkAQINY3Q43pkCnsb794ft/KtEBAACAuyrj3vrGwd4HJ+gBAK7L6na4HQU6jaZEBwAAAKZh2vfWFegAwF1d/nvw9eHaZi86B9SNG+g02tvh4Il17gAAAMBdTfveuvIcALiTIu0qz+F2TKDTeG6iAwAAAFXyoWl2AIDrsrod7uaL6AAQ7XBts/d2OHgyfkOJzgIAAACgPAcAbmtUpEnnEZ0D6kyBDkp0AAAAAAAgA0VKr6xuh7tRoMM7SnQAAAAAAKC2irS7v7q+Ex0D6s4NdHiPm+gAAAAAAECduHsO02MCHd5jEh0AAAAAAKgTd89hehTo8AFXJXp0DgAAAAAAgE8q0q675zA9VrjDJ1jnDgAAAAAAVJXV7TB9JtDhE6xzBwAAAAAAqmhUJNt0oQQKdPgM69wBAAAAAICqKVJ6ZXU7TJ8CHa5h/AZ0+e+BFSgAAAAAAEC8Iu3ur67vRMeAHCnQ4ZqU6AAAAAAAwP/P3r3AWH7Wh93/PXsZ+0VgboGgvLwQBzST6KW0ClQMidbrEKYK2Y6a1CGoKkJNG0qq6U5UtapSVbu0c1AvUlWknW6bOAqpmlWbVRMpqj1KywRjPCKalEBSIQXvEQFsk9ZxWmODweacOfNUZzxjxrM7u3M55zz/y+cjoT0znpl9fIy0Z/Y7v99TWk7RHfR7V0qfA5oqlT4A1M3C2sr0yVNT10qfAwAAAAAAaJ/BRm/G6nYYHxPocEgm0QEAAAAAgCJSdMRzGC8BHY5IRAcAAAAAACYlp+i69xzGT0CHI7h85lx36ye8UnRKnwUAAAAAAGi2nKK72e/Nlz4HtIGADsdwaXbuokl0AAAAAABgnFLEVavbYTIEdDgmk+gAAAAAAMDYpOhY3Q6TI6DDCGz9wSWiAwAAAAAAI5RTdAf93pXS54A2SaUPAE2yuL66FDkulD4HAAAAAABQf4ON3ozV7TBZJtBhhEyiAwAAAAAAI5GiI57D5JlAhzEwiQ4AAAAAABxVTtFdnp2bKX0OaCMT6DAGJtEBAAAAAICjyCm6m/3efOlzQFuZQIcxMokOAAAAAAAchnvPoSwT6DBGJtEBAAAAAIADc+85FCegw5iJ6AAAAAAAwK3kFN1Bv3el9Dmg7QR0mAARHQAAAAAA2M/Oveemz6E8AR0mREQHAAAAAABuJEVcFc+hGgR0mCARHQAAAAAAeJEUna1+AFSCgA4TthPRcwo/SQYAAAAAAC3m3nOonlT6ANBWi+urS5HjQulzAAAAAAAAZVx655xWBxVjAh0KuTQ7d3Gw0ZspfQ4AAAAAAKAAV75CJQnoUNDlM+e6IjoAAAAAALSMe8+hsgR0KExEBwAAAACA9nDvOVSbexWgIhbWVqZPnpq6VvocAAAAAADA+Lj3HKrNBDpUhEl0AAAAAABoOPeeQ+UJ6FAhOxE9p+iWPgsAAAAAADBC7j2HWrAiAirIOncAAAAAAGiOnKK7PDtnCy3UgAl0qCCT6AAAAAAA0Aw5RXez35svfQ7gYEygQ4WZRAcAAAAAgHobbPRmLp85Z2AOasIEOlSYSXQAAAAAAKixFB3xHOrFBDrUwMLayvSJ01P3pRzTpc8CAAAAAADcmnvPoZ5MoENNbPZ78ybRAQAAAACg+tx7DvVlAh1qxCQ6AAAAAABUn3vPob5MoEONDP+wNYkOAAAAAAAV5t5zqDUBHWpGRAcAAAAAgIpK0bk0O3ex9DGAo7PCHWrKOncAAAAAAKiOnKK7PDs3U/ocwPGYQIeaMokOAAAAAADVkFNs/Z196XMAxyegQ42J6AAAAAAAUF6KuOrec2gGK9yhIc6vr16zzh0AAAAAACbMvefQKCbQoSGWZ+dmTKIDAAAAAMAEiefQOAI6NIh17gAAAAAAMBk5RXfQ710pfQ5gtKxwhwayzh0AAAAAAMZrsNGbce85NI8JdGggk+gAAAAAADBGKTriOTSTCXRoMJPoAAAAAAAwYu49h0YT0KHhRHQAAAAAABiNnKK7PDs3U/ocwPhY4Q4Nt/UHeYpO6XMAAAAAAECd5RTdzX5vvvQ5gPES0KEFBv3eFREdAAAAAACOZieeu/ccmk9AhxYY/oEuogMAAAAAwNGkiKviObSDO9ChZRbXV5cix4XS5wAAAAAAgFpI0bk0O3ex9DGAyRDQoYVEdAAAAAAAuLWcors8OzdT+hzA5FjhDi209ZNy1rkDAAAAAMC+du49L30OYLJMoEOLmUQHAAAAAIAbu/TOOR0NWsgEOrSYSXQAAAAAALjeYKNnbTu0lIAOLSeiAwAAAADALik6l8+c65Y+BlCGgA6I6AAAAAAAEM/H862/Mwday90NwAvciQ4AAAAAQFvlFN3l2Tmr26HlTKADLzCJDgAAAABAG+UU3c1+b770OYDyTKAD1zGJDgAAAABAmww2ejPuPQfCBDpwIybRAQAAAABojRQd8RzYIaADNySiAwAAAADQeCk6W38fDrBNQAf2JaIDAAAAANBY4jlwA+5AB27JnegAAAAAADRJTtFdnp2bKX0OoHpMoAO3dGl27uJgo+eFBAAAAAAAtZdTdDf7vfnS5wCqSUAHDkxEBwAAAACg7jb7vfnLZ851S58DqCYr3IFDWVhbmT55aupa6XMAAAAAAMBhDTZ6M+I5cDMm0IFDGb6wGL7AyCm8wAAAAAAAoD5SdMRz4FZMoANHYhIdAAAAAIDaSNG5NDt3sfQxgOoT0IEjW1hbmT5xeuq+lGO69FkAAAAAAOBGcoru8uzcTOlzAPVghTtwZJfPnOtu9nvz1rkDAAAAAFBFOcXW32OXPgdQHwI6cGwiOgAAAAAAVbMTz917DhyGFe7ASFjnDgAAAABAlQw2ejPiOXBYJtCBkbDOHQAAAACAykjREc+BoxDQgZER0QEAAAAAKC5F59Ls3MXSxwDqSUAHRkpEBwAAAACgGPEcOCYBHRg5ER0AAAAAgIkTz4ERENCBsRDRAQAAAACYlJyiO+j3rpQ+B1B/qfQBgOY7v756LeWYLn0OAAAAAACaJ6fYGui6fOacgS7g2EygA2NnEh0AAAAAgHERz4FRMoEOTIxJdAAAAAAARmmw0ZsRz4FRMoEOTMzy7NyMSXQAAAAAAEYiRUc8B0ZNQAcmyjp3AAAAAACOLUXn0uzcxdLHAJrHCnegCOvcAQAAAAA4EvEcGCMT6EARJtEBAAAAADi0FJ1Bv3el9DGA5jKBDhRlEh0AAAAAgIPIKbrLs3Mzpc8BNJsJdKCo4Ysdk+gAAAAAANxMTtHd7PfmS58DaD4T6EAlmEQHAAAAAGA/g43ezOUz5wxjAWNnAh2oBJPoAAAAAADslVN0xXNgkkygA5ViEh0AAAAAgB3iOTBpJtCBSjGJDgAAAADAlhQd8RyYNAEdqBwRHQAAAACg5VJ0Ls3OXSx9DKB9BHSgkkR0AAAAAICWEs+BggR0oLI2+7354Qul0ucAAAAAAGBCxHOgsFT6AAC3cn599VrKMV36HAAAAAAAjFGKzqDfu+Lec6AkAR2ohcX11aXIcaH0OQAAAAAAGL2cors8OzdT+hwAVrgDtTDo965Y5w4AAAAA0Dw5RXfrSk+AChDQgVq4fOZcV0QHAAAAAGiWnXhubTtQFVa4A7VjnTsAAAAAQP2J50AVmUAHasckOgAAAABAvYnnQFWZQAdq6/z66rWUY7r0OQAAAAAAODjxHKgyE+hAbS3Pzs2YRAcAAAAAqBfxHKgyAR2otUG/dyWn8EILAAAAAKAGBhu9GfEcqDIr3IFGsM4dAAAAAKDiUnQuzc5dLH0MgJsxgQ40wvLs3IxJdAAAAACAihLPgZoQ0IHGENEBAAAAACpIPAdqREAHGkVEBwAAAACoEPEcqBkBHWgcER0AAAAAoALEc6CGBHSgkTb7vXkRHQAAAACgEPEcqKlU+gAA43R+ffVayjFd+hwAAAAAAK0hngM1ZgIdaDST6AAAAAAAEySeAzVnAh1oBZPoAAAAAABjJp4DDWACHWgFk+gAAAAAAOOTU3TFc6AJBHSgFS6fOdcV0QEAAAAARi+n6C7Pzs2UPgfAKFjhDrSOde4AAAAAAKMhngNNYwIdaB2T6AAAAAAAx5dTbG3+LH0OgFES0IHWsc4dAAAAAOB4duL55TPn/D0r0CgCOtBKIjoAAAAAwNGI50CTCehAa4noAAAAAACHI54DTSegA60mogMAAAAAHIx4DrRBKn0AgCpYWFuZPnlq6lrpcwAAAAAAVJF4DrSFCXSA7Un0wUZvpvQ5AAAAAACqRjwH2kRAB9i29eIvRcc6dwAAAACA54nnQNsI6AC7XJqdu5girpY+BwAAAABAaeI50EYCOsAel2bnLkaKTulzAAAAAACUIp4DbSWgA9yAiA4AAAAAtJV4DrSZgA6wDxEdAAAAAGgb8RxoOwEd4CZEdAAAAACgLcRzAAEd4JZEdAAAAACg6cRzgOcJ6AAHIKIDAAAAAE0lngN8Ryp9AIA6WVxfXYocF0qfAwAAAABgFHKK7vLs3EzpcwBUhQl0gEMwiQ4AAAAANIV4DnA9AR3gkER0AAAAAKD2UnQ2+7350scAqJpTpQ8AUEeDfu/KydNTYZ07AAAAAFA325PnF0ufA6CKTKADHMHlM+e6g37vyvCFZumzAAAAAAAcWIqOte0A+0ulDwBQd+fXV6+lHNOlzwEAAAAAcFMpOpdMngPclAl0gGPa7PfmTaIDAAAAAJUmngMciIAOcEyXz5zriugAAAAAQGWJ5wAHJqADjICIDgAAAABUkngOcCgCOsCIiOgAAAAAQKWI5wCHJqADjJCIDgAAAABUQorOoN+7UvoYAHWTSh8AoIkW1lamT5yeui/lmC59FgAAAACgZUyeAxyZgA4wJgtrK9MnT01dK30OAAAAAKBFxHOAY7HCHWBMLp851x2+WC19DgAAAACgJcRzgGMT0AHGaOvFqogOAAAAAIybeA4wEla4A0zA4vrqUuS4UPocAAAAAEDzDDZ6M1sbMQE4NhPoABNgEh0AAAAAGLWcoiueA4yWCXSACTKJDgAAAACMingOMHom0AEmyCQ6AAAAAHBcJs8BxkdAB5gwER0AAAAAOKqcorvZ782L5wDjIaADFCCiAwAAAACHJZ4DjJ870AEKOr++ei3lmC59DgAAAACg2sRzgMkwgQ5Q0PAF7/CFb+lzAAAAAAAVlqIjngNMhgl0gAowiQ4AAAAA3FCKztaVkABMhAl0gAowiQ4AAAAAXEc8B5g4AR2gAi6fOdcV0QEAAACAF4jnAEUI6AAVIaIDAAAAAFvEc4BiBHSAChHRAQAAAKDlxHOAolLpAwBwvYW1lemTp6aulT4HAAAAADAZOUU3RVwVzwHKEtABKkpEBwAAAID2GGz0Zi6fOWczJUBhVrgDVNTWi+UUHevcAQAAAKC5coqueA5QHQI6QIVdmp27mCKulj4HAAAAADB6OUV3s9+bF88BqkNAB6i4rTuPUnRKnwMAAAAAGB3xHKCa3IEOUBOL66tLkeNC6XMAAAAAAMeUorM1OANA5ZhAB6gJk+gAAAAA0ADiOUClCegANSKiAwAAAECNiecAlSegA9SMiA4AAAAANSSeA9SCO9ABasqd6AAAAABQD4ON3szlM+e6pc8BwK2ZQAeoqUG/dyWn8KIbAAAAACoqp+iK5wD1YgIdoObOr69eSzmmS58DAAAAAPiOnKK72e/Ni+cA9WICHaDmlmfnZkyiAwAAAEB1iOcA9SWgAzSAiA4AAAAAFZGiI54D1Nep0gcAYDSGL8pPnJ66zzp3AAAAACgkRefS7NzF0scA4OhMoAM0xOUz57bWQplEBwAAAIACxHOARhDQARpERAcAAACAAsRzgMZIpQ8AwOgtrK1MW+cOAAAAAOM32OjNuO8coDlMoAM00M4keulzAAAAAEBT5RRd8RygeQR0gIYavnAfvoAvfQ4AAAAAaJqcYmuARTwHaB4r3AEabnF9dSlyXCh9DgAAAABoBPedAzSaCXSAhtt6MZ+iU/ocAAAAAFB74jlA4wnoAC0gogMAAADAMYnnAK1ghTtAi1jnDgAAAACHN9jozbjvHKAdTKADtIhJdAAAAAA4uJyiK54DtIuADtAyIjoAAAAA3FpO0d3s9+bFc4B2scIdoKWscwcAAACAfbjvHKC1TKADtJRJdAAAAAC4AfEcoNUEdIAWE9EBAAAAYBfxHKD1BHSAlhv0e1dyCvc4AQAAANBqg43ejHgOgDvQAdhyfn31WsoxXfocAAAAADBJOUV3s9+bv3zmnCETAEygA/C85dm5GZPoAAAAALSJeA7AXqdKHwCA6hh+s3Di9NR9JtEBAAAAaLwUnWUr2wHYwwp3AK5jnTsAAAAAjZai475zAG7ECncArrPZ781b5w4AAABA0+QU3cFGb0Y8B2A/AjoA17l85lxXRAcAAACgSdx3DsBBCOgA3JCIDgAAAEBjpOiI5wAchDvQAbiphbWV6ROnp+5zJzoAAAAAteS+cwAOwQQ6ADdlEh0AAACA2hLPATgkAR2AAxHRAQAAAKiTwUZvRjwH4LCscAfgwBbWVqZPnpq6VvocAAAAALCfnKLrvnMAjkpAB+BQRHQAAAAAKsvKdgCOyQp3AA7l8plz3cFGb6b0OQAAAADgRcRzAEZAQAfg0LbWX6XolD4HAAAAAIT7zgEYIQEdgCPZ+oZERAcAAACgoJxia1ui+84BGBUBHYAjE9EBAAAAKCZFZ7PfmxfPARilVPoAANTf4vrqUuS4UPocAAAAALSE+84BGBMBHYCRENEBAAAAGLecopsirornAIyLgA7AyIjoAAAAAIxLTtG1sh2AcXMHOgAj4050AAAAAMbCfecATIgJdABGziQ6AAAAACPjvnMAJkhAB2AsRHQAAAAAjmuw0ZsxdQ7AJFnhDsBYWOcOAAAAwFHlFF3xHIASTKADMFYm0QEAAAA4FCvbAShIQAdg7ER0AAAAAG4lp+imiKviOQAlCegATISIDgAAAMB+coruZr83b2U7AKW5Ax2AiXAnOgAAAAA3lKIjngNQFSbQAZgok+gAAAAAvMB95wBUjIAOwMSJ6AAAAADtZmU7AFVlhTsAE2edOwAAAEB7iecAVJkJdACKMYkOAAAA0DJWtgNQcQI6AEWJ6AAAAADNl1N0U8RV8RyAqhPQAShORAcAAABoLivbAagTd6ADUJw70QEAAAAaKkVHPAegTkygA1AZJtEBAAAAmsHKdgDqSkAHoFJEdAAAAIB6s7IdgDoT0AGoHBEdAAAAoKZSdEydA1BnAjoAlSSiAwAAANSHle0ANIWADkBliegAAAAA1WdlOwBNcqL0AQBgP1s/sZyiU/ocAAAAAOwjRUc8B6BJTKADUHkm0QEAAACqxcp2AJpKQAegFkR0AAAAgGqwsh2AJrPCHYBasM4dAAAAoAKsbAeg4UygA1ArJtEBAAAAJs/KdgDaQkAHoHZEdAAAAIDJsbIdgDYR0AGoJREdAAAAYAJSdEydA9AmAjoAtSWiAwAAAIyHqXMA2kpAB6DWFtZWpk+emrpW+hwAAAAAjZGiM+j3rojnALSRgA5A7YnoAAAAACNiZTsALSegA9AIC2sr0ydOT92XckyXPgsAAABA3VjZDgDPE9ABaAyT6AAAAABHYOocAF4goAPQKCbRAQAAAA5usNGbMXUOAN9xovQBAGCUht/wbfZ78zmFb/wAAAAA9pOiI54DwPVMoAPQSCbRAQAAAPZhZTsA7EtAB6CxRHQAAACA78gptjb3mToHgP0J6AA0mogOAAAAYOocAA5KQAegFc6vr14T0QEAAIC2MXUOAIdzovQBAGASlmfnZobfMJY+BwAAAMDEpOiI5wBwOCbQAWiVxfXVpchxofQ5AAAAAMYlp+imiKtWtgPA4QnoALSOiA4AAAA0lZXtAHA8AjoArSSiAwAAAI2TomPqHACOR0AHoLVEdAAAAKAJTJ0DwOgI6AC0mogOAAAA1JqpcwAYKQEdgNYT0QEAAIC6MXUOAOMhoANARCysrUyfOD11X8oxXfosAAAAADdl6hwAxkZAB4BtIjoAAABQZabOAWD8BHQA2EVEBwAAACrJ1DkATISADgB7iOgAAABAVZg6B4DJEtABYB/n11eviegAAABAMabOAWDiTpQ+AABU1fLs3MzwG9XS5wAAAADaZ7DRmxHPAWDyTKADwC0srq8uRY4Lpc8BAAAAtICpcwAoSkAHgAMQ0QEAAIBxG2z0Ztx1DgBlCegAcEAiOgAAADAWps4BoDIEdAA4hIW1lekTp6fuSzmmS58FAAAAqD9T5wBQLQI6ABySiA4AAAAcm6lzAKgkAR0AjkBEBwAAAI4ip+hu9nvzps4BoJoEdAA4hvPrq9dEdAAAAOBATJ0DQOWdKH0AAKiz5dm5meE3v6XPAQAAAFRXTtEdbPRmxHMAqD4T6AAwAovrq0uR40LpcwAAAAAVY+ocAGpFQAeAERHRAQAAgB3uOgeAehLQAWCEFtZWpk+cnrrPvegAAADQTjlFN0VcNXUOAPUkoAPAiInoAAAA0FIpOoN+74qpcwCoLwEdAMbk/PrqNREdAAAAms/UOQA0h4AOAGPkXnQAAABouBQd4RwAmkNAB4AxE9EBAACgeXKK7ma/N29dOwA0y6nSBwCAphv0e1ci4op70QEAAKD+dta1L5s6B4BGMoEOABOysLYyLaIDAABAjaXoDPq9K6bOAaC5BHQAmCARHQAAAOpnZ+rcXecA0HwCOgAU4F50AAAAqAlT5wDQKgI6ABQiogMAAEB15RTdzX5vXjgHgHYR0AGgoIW1lemTp6aulT4HAAAA8Dzr2gGg3QR0ACjMvegAAABQEda1A0DrCegAUAFbk+inp95vpTsAAABMnnXtAMAOAR0AKsS96AAAADA51rUDAHsJ6ABQMYvrq0s54n1WugMAAMAYWdcOANyAgA4AFeRedAAAABgP69oBgJsR0AGgotyLDgAAAKNjXTsAcBACOgBUnHvRAQAA4JisawcADkhAB4Aa2JpGPzV1rfQ5AAAAoE6sawcADktAB4CacC86AAAAHIx17QDAUQnoAFAzVroDAADATVjXDgAcg4AOADUkogMAAMAewjkAMAICOgDUlJXuAAAAYF07ADBaAjoA1NjC2sr0ydNT7zeNDgAAQNsI5wDAOAjoANAAVroDAADQKta1AwBjIqADQENY6Q4AAEDT5RTdzX5vXjgHAMZFQAeABhHRAQAAaCLr2gGASRHQAaCBrHQHAACgCYRzAGDSBHQAaCjT6AAAANSae84BgAIEdABoONPoAAAA1IpwDgAUdKL0AQCA8dpac5eik1P4iwcAAAAqa/h962CjN2NdOwBQkgl0AGgJK90BAACoIvecAwBVIqADQMtY6Q4AAEAVCOcAQBUJ6ADQQovrq0s54n2m0QEAACjCPecAQEUJ6ADQUgtrK9MnT0+93zQ6AAAAEyOcAwAVJ6ADQMuZRgcAAGDshHMAoCYEdABgaxr9xOmp+0R0AAAARimn6G72e/PCOQBQFwI6APCCxfXVJSvdAQAAOK6copsirl6anbtY+iwAAIchoAMAL2IaHQAAgKMSzgGAuhPQAYDrLKytTJ88PfV+0+gAAAAchHAOADSFgA4A7GtxfXUpR7zPNDoAAAA3IpwDAE0joAMAt+RudAAAAK6TojPo965cPnOuW/ooAACjIqADAAfibnQAAAC2COcAQIMJ6ADAoZhGBwAAaCnhHABoAQEdADg00+gAAAAtIpwDAC0ioAMAR2YaHQAAoMGEcwCghQR0AOBYTKMDAAA0jHAOALSYgA4AHNvC2sr0ydNT7zeNDgAAUGPCOQCAgA4AjI5pdAAAgBoSzgEAXiCgAwAjt7i+upQj3iekAwAAVFdO0d3s9+aFcwCA7xDQAYCxsNYdAACgokycAwDsS0AHAMbKWncAAICKEM4BAG5JQAcAxs40OgAAQEHCOQDAgQnoAMBEnV9fvWYaHQAAYAKEcwCAQxPQAYCJs9YdAABgjIRzAIAjE9ABgGIW11eXrHUHAAAYEeEcAODYBHQAoCj3owMAABxdTtFNEVeFcwCA0RDQAYBKsNYdAADg4IRzAIDxENABgEpZXF9dyhHvE9IBAACuJ5wDAIyXgA4AVI617gAAAC+2E84vzc5dLH0WAIAmE9ABgMoS0gEAgLbLKbqb/d68aXMAgMkQ0AGAynM/OgAA0DopOta0AwBMnoAOANSG+9EBAIAmc785AEB5AjoAUDtCOgAA0CS7w/nwbfEcAKAcAR0AqCX3owMAAHW3E84vzc5dLH0WAACeJ6ADALUmpAMAAHWTU3Q3+715k+YAANUjoAMAjSCkAwAAlZei435zAIBqE9ABgEYR0gEAgCrZfb+5cA4AUH0COgDQSEI6AABQkvvNAQDqSUAHABpNSAcAACbKmnYAgFoT0AGAVhDSAQCAcbGmHQCgOQR0AKBVhHQAAGBUrGkHAGgeAR0AaCUhHQAAODJr2gEAGktABwBabSek54j3pRzTpc8DAABUkzXtAADtIKADAAjpAADAflJ0hr9Y0w4A0A4COgDAHovrq0tCOgAAtJw17QAArSSgAwDsQ0gHAIB22VnTbtocAKC9BHQAgFvYWe8eOS6UPgsAADAGps0BANgmoAMAHJB70gEAoDl2ps2FcwAAdhPQAQCOwHp3AACoKdPmAADchIAOAHAM1rsDAED1mTYHAOCgBHQAgGNaWFvZmkK33h0AACrGtDkAAIckoAMAjJipdAAAKMe0OQAAxyGgAwCMkbvSAQBgQkybAwAwAgI6AMAEmEoHAIDRM20OAMCoCegAABPirnQAABgR0+YAAIyJgA4AUMji+urS1gNT6QAAcEs70+aXZuculj4LAADNJaADABRkKh0AAPZnRTsAAJMmoAMAVIipdAAAeD6cb/Z788PHwjkAAJMkoAMAVNDC2sq0qXQAANrEtDkAAFUgoAMAVNxOTDeVDgBAI6XoiOYAAFSFgA4AUBOm0gEAaArT5gAAVJWADgBQQ2I6AAB1I5oDAFAHAjoAQM0trq8ubT2w4h0AgCqyoh0AgBoR0AEAGsJUOgAAVWHaHACAuhLQAQAaSEwHAGDSRHMAAJpAQAcAaDgr3gEAGCsr2gEAaBABHQCgJUylAwAwKjvT5pdm5y6WPgsAAIySgA4A0EJiOgAAh2VFOwAAbSCgAwC02MLaylY8F9MBANiXFe0AALSIgA4AwBZT6QAAvCBFZ/iLFe0AALSNgA4AwA0trq8uiekAAO3hXnMAABDQAQC4BZPpAADN5V5zAAB4MQEdAIADE9MBAOpPNAcAgP0J6AAAHImYDgBQH6I5AAAcjIAOAMCxLKytbMVzMR0AoIJSdERzAAA4OAEdAICR2ZlK33ojx4XS5wEAaJvdk+bDt4VzAAA4HAEdAICxWVxfXdp6IKYDAIyVFe0AADAaAjoAAGNnMh0AYAxSdIa/iOYAADA6AjoAABPlznQAgKMzaQ4AAOMloAMAUIyYDgBwa6I5AABMjoAOAEAliOkAALtYzw4AAEUI6AAAVI6YDgC0kmgOAADFCegAAFTe4vrq0vBXMR0AaBzRHAAAKkVABwCgVhbWVqZNpgMAtSaaAwBAZQnoAADUlpgOANTGdjS/NDt3sfRRAACA/QnoAAA0wk5M33ojx4XS5wEA2i2n6KaIq4N+78rwbZPmAABQDwI6AACNs7C2sjWNbjodAJik3dFcMAcAgHoS0AEAaDyr3gGAcRHNAQCgWQR0AABaxap3AOA4coqtSC6aAwBAMwnoAAC01u6YbjodANjPzpT58PGl2bmLpc8DAACMj4AOAADuTQcA9rCaHQAA2klABwCAGzCdDgDtI5oDAAACOgAAHMBOUBfTAaBhUnSGv4jmAABACOgAAHB4ptMBoL5MmQMAADcjoAMAwDHtDuqR40Lp8wAAe5gyBwAADkhABwCAETKdDgDlmTIHANpoMBh86MSJEzmldG/ps0CdCegAADBG7k4HgAkxZQ4AtNh2PP/g9pv3iuhwdAI6AABMkHXvADAau6fMh2+L5gBAW+2J51s2Nzd/+eTJk79U7lRQXwI6AAAUtLi+uhTWvQPAwZgyBwB4kRvF8x0i+njlnO+IiFdtv/lESulbhY/EiAjoAABQEQtrK1sB3cp3ANgmmAMA7Otm8XyHiH5zOee/FxH/MCIejoh7UkpPHvRzn3322V+4/fbb//n24596yUte8ptjPewt5Jy/JyKGZ3hDRFxIKX2s5Hlu5TjP/bgJ6AAAUGEm1AFok91r2QVzAID9HSSe7xhHRM85vz4ifiwivi8iXhMRJyPiiYj4g4j4bymlp27x+T8eEX97+82PppQ+NcrzHdTGxsazJ0+evH34+Jlnnvm5l73sZQd+ntbX1//NO97xjoXh4wcffPDv/siP/Mjl454n5/wfIuKOve+OiG9GxJ9ExO9FxEpK6dt7P/fpp5/+x3fcccdHho97vd6f3nbbba877nnG6TjP/bidKn0AAABgf5dm5y5uP7y4+/50QR2AJtgJ5vHiP/MAALiJ/eL5I4888vTw1ze+8Y0v3/3+4ccOBoMYRUTPOf9YRFzIOf9QSjee080593LOw9/rH6WUvnmjj/nCF77wjh/4gR/4K8PHn//85x+MiCIB/Stf+cr/fNOb3vR9g8Fg8xd/8RefLnGG3Xq93k9MTU297GYfk3N+Iuf8syml+3a//9d//def+uAHP5hTSunhhx/+0xt83lxELG+/+daUUm/U5z+Mqj33uwnoAABQE9uTeII6ALW1O5ibMgcAOLz94vlXv/rVr509e/Y/5pxPf/rTn37v61//+lfu/ufHjeg551dExK9FxF+O5+PnY5/4xCf+6DOf+czjjz766Ddf/epX33bnnXe+7OzZs3eeOXPmrbfddtv5nPO7c84/mVK6tvfrPfXUUy/Z9fj/OcqZRuFtb3vbP/vABz5w9rOf/eyf/e7v/u6Dpc6xYzAYnIznV8I/d//99//e8PGpU6dOvOIVr3jJW97ylje+5jWv+a6U0mtzzr+Vc357SukPdj73Qx/60MrVq1dnvv/7v//lH/vYx35779fe/qGFmeHjz372s6ciomhAr9pzv5uADgAANSWoA1B1gjkAwOg888wzP7pfPH/3u9/9q4888sjvRMRtd91118ZDDz30124Q0X/2iSee+PJrX/vajx/m980537m5ufnxEydOvPnxxx9/4sMf/vBv33vvvQ9FxB9FxOPb68Vvi4iXfeQjH7nzda973V+8//773/u2t73t/x8MBp/IOf+5lNLXRvEcjNrTTz/975eXlz8ZEU9GxE3Xzk/Ss88++62f/umf/ifbb56IiJdExPf+xm/8xnvvueeeu1JKJ77xjW/8g4j467s+7SsPPPDAP33ggQfuGD7e+zU3Nzdfv/P4ySefLH7Nd1Wf+xDQAQCgOW4U1IcPdqJ65LhQ8nwAtESKTgjmAAAj99KXvvTRT33qU1+866673rzzvscee+ypd73rXb/6xS9+cTUi/vfwfV/+8pc/ftddd8XeiP7QQw/98dmzZx/fDrKbB/k9c853DAaD/3ry5Mk3f+5zn/vCe97znnufeOKJ37pRoN32hccff/x33v72t//Rgw8++Atnz579wY2NjV+JiL960H/PnPPtEfGW7Tf/R0qpn3N+SUT8RMTWsMC3IuJ3Ukqfu8nX+H8j4scj4v/bnrT+fER8PKX07J6Pe2NEvGr7f3+YUtrY5+v9UETMDv8zbH+t+z/96U9fdw/5Pp87PPO7I+K12/fED8/xxZt9TkopR8R1U9kf/ehHH73nnnvuGj7+5je/+ef3/D7D5+3O7TcHKaVHt99/R0S87tFHH33Tzse+853v/MGc885z8dWU0uM3OPfw/zvviYjv3f7/zB9un/2Gk+s555MRMbf93+62iPji9n3tz+zz8fs+9znn79t+/5+llB7Zft9bI+IvRcTLt7/2b97kaw/P+6MR8fbtHz4YPu+rKaWH93vOdxPQAQCgoXZFi62ovrC2ciV2BXVT6gAclwlzAICJ+l9nz579tQcffPADZ8+efdNjjz321N133/0rX/rSl16I59v+ZG9E/+QnP/nld73rXcPXbX/yfF/ML0spfeNWv+HGxsbHTp06Nf3www9/6Yd/+IeXnnvuud+MiP4tPq0XEf/5Z37mZ+L3f//3f+lVr3rVT+acf/BmwXu3r33ta2965Stf+Znh436//9ac85tzzvemlL5r98flnDsppYt7Pz/n/Pdzzv8ypXRyz/v/T875wxHxb7cDdTz33HP/6vbbb//J4eNvfetb3zN8jvd8zusi4j9FxN173t/97u/+7j+42b9HzvnlEfHLOef37r4vPj/vYxHxd1JKt3ouX+Tnf/7n/3vOOYZf7+tf//pzu//Z7uft2Wef/dWI+Jvx/H/DXzl16tRPveENb3jhY1/60pc+tPP4mWeeGT4nS7vOd1tE/Iuc8/B8t+35d/pKzvlvpZQe2PP+cxHx77Z/YGH3+58ZPucppX+999/lZs/9zj/79re//V9yzn8jIu6NiJ/a87U7OeezKaUv73n/GyPityLiL+z9PXPOvx0R51NKf3yTp1lABwCAttgb1Hd+XVxf3fomSVAH4EBMmAMATMz2nednn3zyyZ979atf/fWIWLv77rvj/7J3J+BRVfffwH9nlmwkk8lCIKxSE5TFFGQLioJopC0B0oWAkMIfQWkrvuEp1fK3wCPyf6Wl4F+IAarQ4pKgpCIFakCIA9JAaNhMQdaQEEISEhKyZzIz9/7e507uzTsMkw1RQL+f5xnnzp1z7zn3TJwn4XvPOZs3b/7Z4sWLMy5evLiXiMrVsq/qdDoSQrzqGqIvW7bssYSEhO3KsURUwcwBRLSemfcJId5uqW5mHkFEP6+rq6ufPHnyn61W60dN/3zQPNp5JhE9oe57Sx11/DgRpQghzufl5W3bu3fvL+Pj4ydUVFQ8T0S/as81Z2ZmmmJjY7Xrf9NoNI6lpim/q319fX29vLyMahsWM/M/hBBHXdocR0QrhRBUW1tb++WXX17Q6/W6AQMG9AkICAiprq7+tclkekdb//vy5ctdIiMjncd+9tlnfm7Xb5ZlOUun0/VWXttsNvvVq1fL/P39OwUFBfWNiIho8d9QmLmTLMuZOp1ugNKW4uLiq8XFxeU9evToHBYW1pmIZqsjtme1p080EyZMmKuF8V988UVmS/128eLFcG1/Xl5eN+0aPTl9+nQ3l3Z7MbNFCDFSqUeWZVauWZZlKTw8vKtOp7vv1KlTQ4noc5djZjHzX7V2lZSUlNrtdkf37t2V8v5EtIqZ7xdCvOBab2t9r71ns9mijUbjYZ1OF2mz2WwNDQ1Wk8lkUuoSQvS02Wxr1VHyWlt0kiRt1+v1Ucrrs2fPXiwpKans1q1bcEREhPI5/jg/Pz+aiBCgAwAAAABAy9ZEx3ic9h2BOgAAYIQ5AAAAwJ2jhufONc+DgoL+Ul5ePlcL0Z955pkrRHRZXT+a1fDcmZ6qI5S1EH13QkLCGSI66xqeq1Oh95UkSej1+r94qr++vv7/+vn50ccff5xx8uTJd13C817MnC6E6K+VZeY4m8122dvbO3L79u3/UHfbLRbLB/Hx8RPcR3C3l4+Pz9hLly5d+dWvfrVt165duT4+Pp0sFkt8dHT0Q0IIqqioUPqnOUCvrKycbzabyWaz2aKjo1edOnXqBBHpAgICIt56662YTZs27bFYLFJ76nY4HG8YDAZneH7mzJncCRMmfHjhwoUCIvKbPXv2D1esWBEXHBxs9nSsJEkr9Xr9AOWzSEpK2pGYmJiu3ujQecuWLZMnT548WgjxX8z8lusNABovLy8jM8eqLw1E1JWIxqnT2NPx48dPz58/f0N7rmPgwIFvCiEycnJyEvr27euc4j0sLOz16upqSW3rHq0sM68QQoxUtouKikoSEhK2WCwW5edHfvLJJ/vPnj174LRp01zL3y/L8jqdTkeNjY2NL7zwwuaNGzdmK903YsSIB7dt25bQtWvXzkT0G2bOEEJsbU+bNQEBAWGSJIX89a9/3Z2YmJhZW1tbO3ny5AdTUlJmGY1Go8FgGMfMZiFEpfqZDTEYDM7wfMeOHZkTJ058m4iuE1HwxIkTR4wfP/6+uXPnHmmrXgToAAAAAADQzG2U+k3rqCNUBwD4bkNgDgAAAHB3cA3PqWlN7Ei3ED1HW8fcNTxXxbqE6EVEdFUp5haeOyl1SJJE7iE6MwfKsjzGbrfbly1btoqIGtT9PpIk7dbr9Q/m5+cX/ulPf/q8vr7e8cc//vEn4eHhkQ0NDQ2TJk1qXh99586de5OTk2U/P7/ut9IPSh1Dhw59vby8/O9EVGa1WnXJycmV0dHRSdQ0xftw1/KNjY3O0dRWq9VaWlq6koica2TX1NToZ86cmUlEJ5W+aKteZg6SJOmX1HQjQX1sbOyK3Nzc97V+2LhxY++nnnoqeOrUqRM9HBssy/IcZfvAgQPHEhMTlc+hefr655577kxMTMwgs9kceO3atVmuNwBoOnXqZCKiHZ7advz48dM/+tGPXq+rqzvZnj602WxK333s4+Pzc21fcnLy8vj4+Hr1pay2O1SW5d8IIZT+a4yLi3szOzv7HfUmDcrIyAjJyMjorzRBO09NTc2CgIAA5zTvH3300ecbN25UrtW5Zvnhw4cDFy1aZN+wYcPL1LRm+2Ii6lCArliyZMlHr7/+uvJ5ZyufXVpaWvjLL788cujQoQ/pdDpx9erVwURkUcoeO3YsYvjwph8JnU6nlH9PO8/27dt3bd++vbd6M0mrEKADAAAAAECLPE37/sKBf/Z1DdSVZ4TqAAD3Hhbk/I4XRB9JdtsHdOP3PgAAAADcOcZDhw71evTRR2/YWVpaak5KSgokomot9CQivzNnznTt37//DWX/85//hCvvEVE9ETmUfa+++qp/YmKif1BQ0A1lDx8+3F2dfr1R21ddXf0Tk8mk/+qrr85fuHCheapwh8PxW4PB8GBpaem1kSNHvl5SUrJL2f3YY495zZkzJ+Hy5ctX1BG/ToWFhddra2vr/Pz8fG+lI8rKynLLy8vf0a5Bue7z58+nMXOSOo33DReTm5tb0KVLl0iTyWQqLS1VjlsohLikhuaZ7a23pqZmQkBAgDNHzcrKOpGbm/uua/8Q0aU+ffpc9nRsVVXVLwIDA53HHjp06BPX8Fx933LlypUCs9n8kCRJIzydw+FwSCUlJaXaa4PBoA8JCQkyGo3GwYMH9yspKVkphLgihLC043JYmz1AYzab2eVnyKm6uvrnJpPJOT1+Zmbmsezs7GTtBgRVuboMALm0y7kuuSRJ8ptvvrlKC8+1S924cePqJUuWTO/Vq1f3Tp06DWLm7kq729HmZhUVFWuVj8FlV7HVaj1PRA8pLwoKCpoXd3/vvfcuDhkyRNLr9fpx48b9FzP/m4jShBAO9UaSq+2pEwE6AAAAAAB0iBqu3LCOunuojkAdAODug9HlAAAAAPeO0aNHZ7z77rvdpk+f7gwJCwsLr48dO/bdioqKSreiHBUVtTUjIyNo9OjR9ys7LBZL3tixY3cSkc614NKlS60pKSlbLBbLzB49ejiD5y1btpyYMmVKunuYWlpa+ojJZFLqPeESXpPD4fg/BoOBUlNTd5aUlGwgIruy/6mnnnLWVVxcfNq9fb6+vt4NDQ3WW+kHPz+/Btf6qSnwL7Pb7XYvLy+jEOKGrHPBggVvf/LJJ1HqtOFTmXkKM+8hor8Q0TYhhNyeegsLCwf369fPuV1ZWXnYLTxvVUlJydDAwEDn9vz58xN+//vfx7mXsVqt9ynPer0+1NM5qqurq3r27Pmqyy6Dj49PyIsvvthv0aJF400mUxdZlj9l5geEEAXtbVtriouLhyifuXoN+93C85sws4GZne2vqqqqPn78+AEPxYrKy8sLevXq5ZyB4Pz580qndihAHzduXMn69evdd5dpG42Njc3rpycnJ58cOHBg+ty5c2MNBoOZiFKZ+Q1m/hsRrW9vXyFABwAAAACAr809VMfU7wAAd5Z7WE4YXQ4AAABwL7FLkpQ9c+ZM52jgxx9/vGdMTMzfzp8/n6GFmsz8PBF9KISoliQpa8yYMcZ9+/bNYGbd2LFjU4noEBHVqdO2PyOEeJuIKi9cuLB/9OjRxv379087cOBA/rRp05TfFb/UgnCNJEk9qGka7Obp2Jm5FxF1YWbaunXrOtdjfH19ByrPV65cuWE6cmZWzuN15cqVDoWmbZBdzi9c38jKytrx8MMPd1u/fv3Px40bN9zb29uLiJ5WH18yc7wQos3fi2VZDtO2fX19O9R2WZabQ3Fvb+8HPJXx8fFxPjc2NnoM9IUQTERvu+6zWq26P//5zxFWq/X6mjVrfqPT6Xxqa2vnE9FvO9K+9rTbZDLlt1W+urraZDKZhNq2GiKyeSpnt9tLtO3KyspbmsrfndFodL2pw/VGkbpf//rXrx09erRs0aJFMb179+4hhOhKRP/NzC8x82tCiGVtnR8BOgAAAAAA3HYtTf1OCNUBAL4RGF0OAAAA8J1TYzabDyYkJMj9+/c3nz17dh8RXVN+9ZMk6VV1nfMnmHmuEKKaiA6MGTNGUrO/LCIqd13znJm7qWuiF168eHFvz549a4ioWF3Put69cr1eb6amIP2ati8nJyciKiqKbDab7cCBAydcywcGBjpHv+fn5//bdX9lZeUvzWYznT179stvtLf+v4bi4uLkSZMmnQwPDx+1cOHCIVOnTo0OCwsLJaIfSpJkYeYIIURDayepra1tXie9c+fO3h1pwPXr1+u07VdeeeVDi8XS4rThNputzaDahUxE5z799NP/XbNmzW+oaeS3xyngb4Vru7t16+bfVvkBAwY05OXlSQaDQW8ymVos37lz50Bt+9SpU1W3qbmtyd6wYUPphg0bDk6ePHnYvHnzhj366KM/1Ov1yv8brzFzhRAiubUTIEAHAAAAAIBvBUJ1AIDbA6PLAQAAAL4fysvLa4go86uvvtITkbJNkiS9qtPpYqlplHIkM//FJUT/Qp22vc41PFdPF8vMpIboV4hotzpi2OPU5HV1dc79wcHBRm1fRkZGbVRUFHl7e3sxc5AQwhkMM/NEIupETSODL2jlmbmn3W5f6HA4HKtXr373G+4uV3Yi2ltcXPxFYmLiQwsWLBhpsVhmjxo1apBer+/W0NAwnoj+3toJysrKCrXt0NDQgR2pvKioKFfbTkhIyFu+fPmKNtraISdPnmwe6V1TU9Pu41j5AVAZjUbh/n5xcfFFbTs8PHxkW+crLCxsuHbt2rWuXbt28fPzMzNzuBCi2K1OUV1d7RyFL8uyfPTo0TPtbvDXc4mINqSlpf0zLS1tWFxc3LgPP/xwjvKzW1dXN1/5E6q1g3XfUiMBAAAAAABukvzY+HPKY010zBLlkRQd88CakTFCctgeIEHLlAcLOqc87nRbAQDuGPX7UPluVB7O70r1e1P7Hr3TTQQAAACAb0y9Fp4XFRWN08JzjRai5+bmBqplaz2E55rx5eXlMepI5prW1vWura11rjEdHBx8v7Zv6dKl565du1ZBTUH+VmaOZ+blzLy1vr7eOaJ73rx5zzNzd2aOlWV5v9FoNG3atOmz9PT0Pbe7Yzxh5s7MrOWfNiI66nA4ki0WS5pW5syZMw+2dZ709PR9WuDcrVu38cwc6F4mPDz8B56OXbZs2fbGxkZn30ZERDyvtqeyhUfdLVxj8xTkeXl5F9p7XF1dXXPaPmDAgC7u769atWqnzWZzBvpdunSZyMw39RMzG11fHzp0KIuapvoX9fX1Cz1UG2symZzTtp88efLcW2+91ZER97eEmV2vrZiItm/btu21wsLCQvX9zm2dAwE6AAAAAADcddxDdeWBUB0Avuuc32tuYfmakTECYTkAAAAAKO6777781NTUE+77hRCRffr0WZ+bmxvYSnhOn3zyyZGQkJCLzls025CTk+Ncyzw0NHSUtq+qqqpy+fLlqQ6Hw6HX6x8hoo+YeeHu3bv/PW/evL/Jsiz7+vr+jogKiWiH0uSUlJSM55577rVbCYo7ipm9ZVn+nIj+xcyPu+z3evHFF4dorzMyMtoMndeuXZuVk5Pj/N3by8vLJMvyp8w8gJl1zNyPmbf06tXrx56OzcnJyfn444/3qceGyLK8h5mHubTHn5nnMHNiS/UbDAY9Mw9SH4OZ+SdKeWY+5uvrO4OabnKoW7Jkyfvt7Z+ysrICbdvPz2+hei0G7eaAQ4cOfblz584D1DSFv1GSpM+ZOVYtY2TmOGY+xcxPaudZsWLF+srKSue07L6+vi8y82+Z2Y+ZlfbHSZL0HjWtUy6tW7fuXSKytre9t4KZpzJzPjMvYeYgl/09e/fu7VzXv6CgoLCt82AKdwAAAAAAuCeooVHz9O/KfzxNAa88Yxp4ALjbYRp2AAAAAOgom81WNGPGjDQi0k2bNi3K9T0tRG/60/jmv4m3bNlyYsqUKZuJqEgt06qVK1f+c9asWcuDgoIeZOYhQghnoP7GG2+8kZWV1Th79uyBRqNRn5qaenbXrl07iOgUM3vPmTNniNls9r906VLZunXrju3cufNDIjp8m7vCI5vN9qTBYBig3iCwn5lLiaiEme8zm80mpcyxY8e+eumll/a143TVL730UtLWrVv/6O/v76/T6R4hopPq6H3nAOXCwsLiHj16hHs41jFz5sz/iYyM7D5s2LCBOp3uYSL6NzOXqzME9BBC6CVJamTmj4QQJe4nCAgIMKvr03tUXl5+fcaMGRuOHDlyoL39k5ycnDZq1Khf6PV6XadOneYQ0XRmJofDkUxELyld+Oyzz77+wAMP9BwwYECkXq9Xrm0HM0tNP2JCJ4Qgq9X6v0Tk/PnLysra97vf/W5TUlLS876+vr5EtIqZVwohHERk1Ov1zqnbk5KStq9fv35Te9t6q2pra1/29/f3IaKlzLyYmZW/sbyZ+X6DwUB2u92xdu3a1LbOgwAdAAAAAADuWZ7WVSc1WNdCdcLa6gBwB2mzZbiG5QjKAQAAAOAW1UiSdHD69OnOEeSeQnRPB6nh+XtEdJSIGtpT0cWLF3PT09Mzf/rTnz5pt9s/UEP0eiLKO3jw4P8cPHjwQSLSEzl/33VO975p06almzZtGqKuh67sO0FEpbfn0tvm7e19Li4ubv3ixYvHREVF9TUYDGFEFCaEoMbGRtvu3buzn3322bVEdFNg7cmePXvenzRpUo9169ZN6du3bx91t85qtTampaUdeOWVV7YXFBSsUc7vzuFw/Gv48OFLV69ePXP69OmPhISEBBNRiPJQyhcUFBSlpKT8a9WqVe0amW+z2ez19fX1+fn5xZ9//vm5JUuW7Kurq3u/tWn43aWlpX0WHR39j3nz5o338vLyIiJfpS0VFRVjtTJVVVWWwYMHv7Zhw4YZcXFx0SaTKUAIoXzOJEmSnJ2dfWrhwoWuAbR148aNK8+ePWtdvXr1xEGDBj2g0+l0ROSc6j0vL+/y8uXL97zzzjtJ7e33r6NXr17rV6xY8dOf/exnI4KDg4OIqD81/b/h7PM//OEPOz744IO/tXWeNqdoAAAAAAAA+K5AsA4A3yTXUeWEsBwAAAAAvjkmInokNTU1/plnnolqrWBaWtrx+Ph4LTyv70gl/fv3//H+/fs/CA0NDZZlebtOp5suhKj92q1vMpyIfqJubyWiHJf3Qolonrp9hIh2ejj+FSLyUkPZ9S77uxDR6M6dOw+MiYkJDwsL8y0qKqrftWvX5erq6kNEZFF+VXcp/wsiGqhuryQi9+sLIqKJw4YNGxQdHR1SU1Nj37ZtW15lZaVynmwi+m81b/2QiM54aOcQnU43asyYMRH9+vULtNvtcmZm5rVTp06dJaJD6qh2Vy8TkZ+H89jUmx+K1JsWvlRHw1MH+21QaGjopNjY2F7BwcE+p0+frty9e/dhWZbfcymjXM9ILy+vR8aOHdsnMjLSVFNTY0tPTy+6evXqcSLKIKIqt/Oaiejp+++//+Ho6OhQf39/w9GjRyuOHDlyUi1/yUNbWuv7tj6XR5T61G3XvtcT0VAiin7sscd+EBUVFaT0+fHjx69nZ2d/RUSfEtEVD225AQJ0AAAAAAD43vMUrBOmggeAFiAoBwAAAIC7gImIRqakpExxH4muSU1NPTF9+vT31DC1Q+G5yuvpp59etHXr1gWdOnXyY+Y8IUQiEaWrU3TfgJnvI6JHhBBtTpH9LTASURgR+arXftUtOO+oQHUEuZ2IionoputvQ4h6DpmIrnkIhL9NSt90JSIfIqrUZhDwQKihvEkN8K+qz63xVa/VQEQVRFT9DbS/vYLUh9Ln1z2E/i1CgA4AAAAAANAC9zXWCaPWAb5/BC3TNhGUAwAAAMBdxjkSPSUlJd49RL8N4bkmeMSIEQs2b978yz59+vSkpqC8TAhhUUfylqujvocz8whmtul0up5CiG9t6naA2w0BOgAAAAAAwC1wD9cxah3g3uS+RrliTXTMkjvaKAAAAACA9rspRN+8efPxadOmvX8bwvPmOnQ63eQFCxY8OWvWrOERERG9jUajwbWALMvyuXPn8jdv3nx43bp1z5eVld3JEdYAXwsCdAAAAAAAgNsM4TrAXcptNLnyjBHlAAAAAPAdEKhO5x6v1+ulqVOnvq+ueV53m+tR/qYd7u/v/4MnnngivHv37n4+Pj76y5cv1+3du/dqVVXVeTW0P32b6wX4ViFABwAAAAAA+Ba1NC08IWAH+NowmhwAAAAAvsdMRDSUiKxEdOI2jTxviV5dG9tP3a5T19Hu6LrgAHclBOgAAAAAAADfshcO/LNvS6NeEbADtMxTQK6NJCeMJgcAAAAA8FV+RSYi251uCMC9DAE6AAAAAADAPcRTwE4I2eE7orWAvLWbThCcAwAAAAAAwO2CAB0AAAAAAOA7pqWQnRC0wx3kKRwnrEUOAAAAAAAAdxkE6AAAAAAAAN9TWtBOrYxoJ4Tt0Ia2gnFCOA4AAAAAAAD3EAToAAAAAAAA0C6tBe7kFroTgvd7VkuBuAbBOAAAAAAAAHyXIUAHAAAAAACAb4xr6E4tBO/kIXwnBPC3TAvANS0F4YQwHAAAAAAAAOAmCNABAAAAAADgrucexGtaCuRdMdEULUTWtj0F9u4EU18WdO5Wn9tzXVpbWgu53bmG3q4QgAMAAAAAAAAAAAAAAAAAAAAAAAAAAADAbaG70w0AAAAAAAAAAAAAAAAAAAC4G/y/AAAA//+Oiz2BYJxN1AAAAABJRU5ErkJggg==;" parent="1" vertex="1">
          <mxGeometry x="10.5" y="240" width="260" height="260" as="geometry" />
        </mxCell>
        <mxCell id="LWCK1zUq5cx6b3XLf9eT-9" value="" style="shape=image;verticalLabelPosition=bottom;labelBackgroundColor=default;verticalAlign=top;aspect=fixed;imageAspect=0;image=data:image/webp,UklGRkQVAABXRUJQVlA4TDgVAAAv/8F/EO+ntm0bhv9f7tQ5QkBQIknxlYnMOo6Ctm2khD/s/XcEImIC3KdvmqlSqqSaEDSkSQx0zRswMvNTUAF621gDAFp12uwgCSnyra5zH1J3Une3udTd51vdO9/q3ilMv7m7+wahLnMfUBJ0BO6fQnLPOfe8l/f+RfSfFmxbcVtpc04VHuInCXdii+mK/qNC27aqvbmBT4WjmBPPjC5fXDSDivxj4xMZD5WVze9qudXMrSLN3F5V+Mbrd+9Z65ReRP8lsY3kSJIW2vPeX3Q1ZvQs6X8Z/Wf0n9F/RqnxXdRv4pL79z3/Qf6Jv4qKKpUKFxUV/Zj/0Su5m5dOHt6ukYsl8eIxtz/8xd+KnAq/zF1/TVuv23xuu2k7vqxSrOm/gtwbsxu4Q5IHrP2oXBlK/329eXwTMfj9jpz47qs/rFKGU833Dw7xSSA7WNrXcZM2Yf9fSkgqfX5Ga/NWymEr7fpXKpWoVPPRgtam7aiVNOapciUw1Xwwq6FJO2v5GjVq5AVIbNTq/LadBoybs2Jz7rsHKkTcUf7EoHhTjiInn1plX79i/xch43f8eGczI44qx5/iLxi34pljZjOVj3Tht0buIJ0xcNVbZSbv+HhUHK+1cg3J0+X2dyrNZfKvS2Q0Qm4ipQx/8KCxzPGJCVxGyWWkcxZ9XGMoc2hiAovdkADOXPB+2Ezm+0EMdksCaLXoOzOZt7JItZ0B/NaG/OBKUpethSZUva0xYUeafqQUIetOUtKVH5rI/D0pjnACNMd1CaD9zjIDmY8y8XsRt8qFCZre+bOBBiqrCe3Upv7nwgSeiYf4M4HO+J0YXk55MReTEq4J8N+5xoPeh14lbiwLEDf2G/bMFxeid6HTv+5MEHfFUW4FZ6L3IP03dwaAZ/5f3JmcVOwOXPIz2u4npa0OMevgpdjtP+8X5FNcUWr9KLNCV2E3/6I/UHm3lAYe4lXtvdjKyKxC12YAz6Igb+b1M5Bb3y2otatKZ73C3CbpXGwtdKnGbitNLmbVX92wZyCro76a+0ot/8+qshHIbZ8WLe/K0hX/cio8Hbnp97o6A5z9Meu/eCvyVGauqzNAwqowZ+Yu3JY3+KzObi71+41TdyMbNeS5OwM0f41T9yF/d4HbS/Fraxl1D7jTNLKEUStcqi45zKjbXKqavMX4j85wqUp8irFbykiXKs+njGOWdXGpyqphrIS6wKXqHcYXONzQnbJIMaZXE1wpwxRnutd+eEnZSnplSdBXI/Ie2hvshkH24l+OlJi5jpeyLJv50nTYXnhUgmYn88E9+j9b4WZ78Rcbgib1b/YeSbZSdXrKXrhTgmY1//GdZSPssxe/PQmawWF+yi61DTrW2AvToM0OKgPpG69NEPeRvXgRVKXW2QQT7cU/7I0Zf0iZIdzTHj4v/2Yv3Gd4O2cFhM8OuMte/PlqVpVaYwNcUGkvXKZVVXdwgRUOfsPz1nwe7ywqHA4H/XbDaaazqHAgVhU2dRQVDsQqtc1BVDgstuefEMDP+0QMDjE5X2t9zsPgEKtd69TC4BC7XV9bKmFwiN2u9aqCwWE95rjY36sJ4uOJk8FhY8zM11pvKRkczq+Ioa4fLjcyOLygYqhrvdbjKYnwBoeBStnbT4jj3f4+k8k70Q0OiQGlYmi+1npRx+Bwk1IqBuTz5l7ghYtmfMfC8zYGh+bFp7F9V82Jjzi/N4UlwpFDnfFUeIPDHnUau3eoT7SN7VHOwNPogwP6uNi0sQPJT+eYpXCjicEh7kNVh62/GmIs4TcZtvSuicHhemVf9AyaMmRUM5x8XipicPg1ApsSl430Sj8PPTj8moqpcFAR2PcDIb+Zb3rPiBgcIrEtmTHAEoY/wOs9DA7RsOUH8dNIpPzB0ARdw+AQBRuTEQPMZzj3SDw47KKF5gJ2JiMGzwn6kNQ7JAwOGuzzB3jmD5zMMCa9g8EhOvabpU4h5TlJ5lUHg0NUbE4GDDCbfnOLgcEhOnYnAwbvT+SCuG1gcLAjevnZfiDkNz809bMCBgd5SIkPGC1+Q2oROYDJFfiDg0wExwfcUxs3gIhT/hfwBwcN9lHRTBK7oU0VlQf0g4MO22hnQBS3AZ4gBytFPzhIR2R8wP4Qe9gI3ckv2jq2VzhoCeMqI44s78zh31LL45qYXuGgJ4aLzFjEbJhDZWtMr3DQE8I1hjzijh8/LUjku1he4YAgAvWScf0Iu6mjEKXF8AoHa2Hp+ID91CIZFLsrHDD0r1TFHSdyR0yscPg/rsIBQ/fK1SoiT8boCocbFIrej5cI1gW1xB7oMbrC4TccnZ8uEq3PiSdkUmJ0hQOOvg+XydatxGLpHvsqHK7FHJcKJF2fLRSuc4k3J0vkRbupcOA7Lj0fLRWvr4kz78TkCgcsHZ8slq8lxO5nsbjCAU2/B8stoCwaBbG4wgFNt/cVsIR+IlERxzs44IntthJ9DLOdtk8teAcHPGDCCBqdcAcHAmBCMq354VjcwYEAmAAfkVjQFjfYYIUDhcCUHqTABtjBgQSZ0JfETtjBgQSZ4Kug8Czr4EAjNGU/8B7W4PBJHPtxQRPuJQUpjTo4EEETxlP4gXRwoIImtKLwJ+ngQAVNgJ8pJQQ1OCxCVTiQYRNeoJydAR0cyLAJayh7uAxzcKATlJZ44gRzcKDDJpxPA/HlBsUAmxAXIrA8LrobRNgE+C7Gs1FxACfkUp4SF90NIrHZ9PHD/0pcdDeIwAnX4jlFyEDFA5zQA89vgCQWMAEntMFzDJCbFBNwQjy+7en3fDQv5gJOgBNo3uZjr+KCTngfzdN81LBBJzyFD0SLD8UGnbAFH4uiB+iE5Wjme4BOmI1mtAfohCvRtPcAnTAUTZMGflxtJ5mDTuiJDkcbPEAnZKK7nTgI6ISz0d0OHQR0Qgt0MOIOAjqhMToIQQcBnZCKpZuDgE7wYiceSXEQ0Anx2A5a4CCgEzxIHncS0Ak+JDc7CeiEFCT9nQR0whnICxFIdRLQCc2Q1yIDTgI64Twcmx0FdEIWjqsdBYHY08Gj2lbWp/r7x9fPHJp+XqNUgNRG56UPm7X+ibxqi0InDETGnWBt/s2Z1x25snoNeszPLbQgdMKVKO63APtC+O5Oa3sQO7wnZK/Lw4+UtksodMJc3CUIyGclNmKmwp0defYo/a4/ccXWG26VSQBasN15RbJ4VtVNfB7U8+GYRMaT5WM/RuR7AMAykdAJmzC8DNJZWW+7epbolsxsAPdu+V+q1ebr0q22w6muNRiCzEzprEL9J/mWkWbuHd7R5qEuKxA64QPM0NwthUDM67LHrjC1a6OOa/L1s/KgE05ipuQFIVDykYp4sYrbvQbX4+rOimj5yKw46IyrRHCLbFbqTnqdzua3M7t36d9E5qNlpQEntMDcPlMKeOtUvMlrfPSgVSWnrZMw4IQuqAlnJLNKxGW9sGz6MlnACdcimCGZldY5mreKAk5YiQg6sLFg9lrpcO6RBJzwOCbiGLlYamVT/CFJwAlf6BkoCCsrO6gkAWdcieC485VptRxy2/63DxWVKhUqOvjWvtsGt+A91y+KaJQ/78RSEIRJ+UZvPYTqC7NlVBJbVY8s2IQx+tmmWknCmOIGPlpCGAz7kf5xLME4C4NNWKHlERCEqaPdYA55vS0LZvvo0ZhLg014WnK0EWaOt2fmrywL5nG7jxiMuzjYhJ8kx5xv5IgPO8F2gWxD8fQoUfJgs4XSMc4aqKJUAVNU7iVE1CwQNGG09pN9vEVYh/+bUaLMF9sGiaAJ6/XXW24NvvUCQeaLzfOVQNCEd7TXnWgNKrMAKDJfbOnl8kDTW6ZhOliD2wFoMl9sS+QRlwKDTz3ptQbHk4Aq48XmPSoOMmGptrOpNRgNQJbxYhsnDjLhDU2syfHW4B0ABhkvtjekQaZP88gwsAS17YFFpoutY60wwIShunnGrMHLADwyXWyvC6MPIzhyFs6yCH7grDkO/X/J6EuaJyU1v2T0kufrNSQKZnOFUyUMMOFIVLaANfgQgE1VTwzUfA3yDnqiis0An8gCzAuj9/huIhCuV9mHbYeQier71jIT+1dqN4IJsuASbo3KHLAGf3kQ62TD1haRWNE8XI/3b1FwCZ9JX3cOngXP8x5XKuhHw/gR5RjihNkmUXDZJtrXs+p2YBHa4gY9OZ01m0deKFUHUWAJc8WvPA7LVOa+X1R9mbb6DTFMVb4k2jeCGw4c9FmFNfg5L4PZ5h7FL57SeklgeXZNlPu6glXogfvtwJDlaWN4QN8a2S8JKuHOqJ2BrUJhgpb+Sil0lr9/gf59m1AoCCohEKUZkMcy5ICWR5RS9CxbC+N9iOn0BUEh4ZN5WTpYhrn6QWNOKY2MWhUnaVkoCChhWyRTQCwMU5mNrNss3INmOpeN0G+XHL6CskFRlAtMsQ7VDbRsVlplso6Wri/2TfqYqqul8PU5JmGSFdadjeFapvQdzKpasAYNU0kfKjufDrvwUcRhyQIL8bj+rVOr5VHevcrRN2hpqt8wOuxmRRTWVWAl1tHXmqkv6vhsKigtLXgoE8Ng/Vbrh63dSAdd2B+5vF6WYiZ5bKhTHj1J2yPOjYW3ehHbFNRyk/7K6uig26yiHm8mWIsh5F6GTyPeWu9Gba6K0PNa9ugXU5lOFHZ9r/mChmAtMrS8RR/udIeitYtapuUN/XxKdMj1/VHH7+eAxThLyyH97yXiCnqGM7SM1XJAf1lFdEhFVveVdQOr0VTL31rOp7YdeUDLZfr/ywr6rzV0wE08UX/dWS1HspZSLY20HKCeWGhJPj+YSqd5oytTWTsNLEdtnJYwOc7VkPaspP5TqZawfj79WjLcxgfqXVWIDRKkxkHewDzYwtVKqeUAYD83GnPfaGX+BrYJhyJXntr2nvKQdi5E8lP+4n8KtTC5btmhrcnZ+t8r5MkOMzV/mMLp5BcK8L8QtZ6Tai1YlAxy93DEgphvpdUrw3LyYglk0YEWFqqVYBnIv1f20M87e9+OOi+dh37eWd/7bAQdaBv+cwtYlpnk69Eo8SC0JRzx6CbENiWFyJcSN4cOs3D3VLAu6+n1zv0w257xQCAUCtyPaho5hB4pyV10mG0xACzME/rKz1otj5mNl71W33E6l05MNsSDlckD8g9WteSkZRV9rwroxGQDWJpwMrlzcDDLaLvTh/TtTsN0HK+BodvZCFHtzhFjD/RSdByvgSGSXU8hvthMDE5V5NWymAGJ1kMuovWjttiMag9iQg0GBNoPRfqaxb6S+p3qpx5OLGZAngWhEOubm6frd24yGwDEIwyIsyLW6pkpZ9yJGYj5JziQZkfkIU4e/2x+3JkS9LgzAQ6EWRKqHaIFrIBxp0qQgZJ0VKxU9RFgTTygx3NUxrhzRz16NvMyzxnYsuNODpIw7mQJatzJf1gpSHCoBq6Lmd7jNz/ubPYezP+JF8XKQvNWxWec407nDE7SfEQdkss57vSnvKQbtytUL95x559fOuaSFj5fy0vHLn2+lPX7aX/FS4pp2+JVpo8SQUqbUB7eZCYVt65/jNZFbQcum1Unpbhv4MRmX6h3mWxY73GzCJBisjHUWBYb1uWKm8OJWLHYGSd8DDaspGPsqPno9z+DpaHuoNu0lip+qvqg//6RrY3KLKpNK72CD4b96Bkk2hvqOy/NpuX9XjHCIpKdHGoDycZ1l+KER7HX9hl3xh4RcWcwCW1nR2lv/KYOOcbF0cEy4k7hEtJOCu5i80w8ycEvi5IAKGKETSg7K9iLzTcrQCVvRhIA0MQHnxB2Whgotr77igmfWPbW+5tFFhuM0tp5YaLYvCM2BWoRVVb5Dw33AgCLuOCUMzMY/8TeZMDNe14/8O8ppU79W/D67psG1I+HkktMsCqqHR3m2xiyigdeGROwto5YYBaqnI87lVu/0x7qLuuwSrHALlAJHnfyKsUDt06eKL5gyfY8tSnJNJ5VJX2Qa2kgb9zZ4gusEN0GA+3NkvEN4o2ySnHhYNTf485fkmQO39JKRH+EVYoNmpws6i7MuBE/TzR23QknMG+UVYoPJ6Men3fGOx1N0KleA3PtiouuUoxQ5WRRd+Eq9D4eZfi6U8r6RaymIieORp0+75xPJ3j5SLoCsWqGod71FtORFbrMou7CBoddtNPP9F3jrsi4krTZVYoXR6Oen3dW/np/Ao3EXhsC+DfKfsWM45Uyl4qeWpiNvPKplOxFTxdLuu40xytlNoUDORvnDM84v3EaQFqT8zNGzNmYEwhLu+48ZyPG550Yc6UvBwFwKbOwKfvUr9JPHf3nP2x4ui6iYL2M/jMCSP6vOxr9Z+wQpO6Arq47Ca07oGTC7g4okri7A3ok8O6AFgm9O6BEYu8O6JDguwMaJPzugAKJvzugPwC6A9oDoTugPBi6A7oDojugOSi6A5p7B0R3QHUfhaE7oLrrThi6A7q77gihO6C7684YugO6A6E7oDsQugPKg6A7oD0AugPaA6E7oDwYugOqA6I7oDoougOKA6M7oDg4ugNqg6Q7oDRQugNKA6Y7oLHrTmC6AyoDpjugMXC6AwoDpzugL8x0B/yFETXdAR8xYqY74BcbEFHTHXChEKKmO+DbE0TUdAecFkLUdAdcLISo6Q74w15C3HQHvFcIUdMd8JOVhLjpDni5AOKmO+ArS+B+HvyGm+6AvxwugLjpDviwAOKmO+AXGwCR0x1wofAhpzvg2xM+5HQHrNPCh5vugHWxAMLfHXDo4EAIf3fAoYMDIfzdAQcODojwdwccODggwt8dcNjgwAh/d8BhgwMj/N0BBw0OkPB3Bxxy0oAS/u6A0CcNVHQHbPOkQa66AzZ50iBZ3QFbPGmQre6ADZ40SFd3wPZOGuSrO2BzJw0S1h2wtZMGGesO2NjgkLLugG0NDjnrDtjU4JC07oAt3WIoa90BGxoc0tYdsJ3BIW/dAZsZHJLSHdAIT8qcyFx3wPYGh9m/z9nfdvF3B5w9OPDC3x1w5uAADFl3QCNcKsDwdwecNTgQw98dcNbgQIyJ7oD1YUHGRHfALzYwY6I74EJhRkR3wLcn0IjoDjgt0HjoDvikUKOhO+APe7HR0B3wXsHGQnfAT1ZyY6E74KXCDX93wDmdNEhld8C/7qRBXh936lxOGiSzO+A8ThpkszvgHE4apLM74KCTBknuDjjspEGOuwMOPGmQ4u6AQ28xlOHugINvMZTQ7oD833jy1x1QwHn2nHUHFEbGugOKI1/dAQWSku6AIgn5eSeO/jP6iOtPo/+M/jP6zxg1AA==;" parent="1" vertex="1">
          <mxGeometry x="60" y="674.5" width="161" height="161" as="geometry" />
        </mxCell>
        <mxCell id="LWCK1zUq5cx6b3XLf9eT-50" value="" style="edgeStyle=orthogonalEdgeStyle;rounded=0;orthogonalLoop=1;jettySize=auto;html=1;" parent="1" source="LWCK1zUq5cx6b3XLf9eT-11" target="LWCK1zUq5cx6b3XLf9eT-40" edge="1">
          <mxGeometry relative="1" as="geometry" />
        </mxCell>
        <mxCell id="LWCK1zUq5cx6b3XLf9eT-88" value="" style="edgeStyle=orthogonalEdgeStyle;rounded=0;orthogonalLoop=1;jettySize=auto;html=1;" parent="1" source="LWCK1zUq5cx6b3XLf9eT-11" target="LWCK1zUq5cx6b3XLf9eT-40" edge="1">
          <mxGeometry relative="1" as="geometry" />
        </mxCell>
        <mxCell id="LWCK1zUq5cx6b3XLf9eT-11" value="" style="rounded=1;whiteSpace=wrap;html=1;fillColor=none;strokeColor=light-dark(#000000,#000000);strokeWidth=9;" parent="1" vertex="1">
          <mxGeometry x="590" y="250" width="1490" height="1190" as="geometry" />
        </mxCell>
        <mxCell id="LWCK1zUq5cx6b3XLf9eT-12" value="&lt;font style=&quot;color: light-dark(rgb(0, 0, 0), rgb(0, 0, 0)); font-size: 30px;&quot;&gt;Block Fetcher&lt;/font&gt;" style="rounded=1;whiteSpace=wrap;html=1;fillColor=none;strokeColor=light-dark(#000000,#000000);strokeWidth=5;" parent="1" vertex="1">
          <mxGeometry x="660" y="325" width="260" height="90" as="geometry" />
        </mxCell>
        <mxCell id="LWCK1zUq5cx6b3XLf9eT-26" value="" style="edgeStyle=orthogonalEdgeStyle;rounded=0;orthogonalLoop=1;jettySize=auto;html=1;" parent="1" source="LWCK1zUq5cx6b3XLf9eT-13" target="LWCK1zUq5cx6b3XLf9eT-14" edge="1">
          <mxGeometry relative="1" as="geometry" />
        </mxCell>
        <mxCell id="LWCK1zUq5cx6b3XLf9eT-27" value="" style="edgeStyle=orthogonalEdgeStyle;rounded=0;orthogonalLoop=1;jettySize=auto;html=1;" parent="1" source="LWCK1zUq5cx6b3XLf9eT-14" target="LWCK1zUq5cx6b3XLf9eT-12" edge="1">
          <mxGeometry relative="1" as="geometry" />
        </mxCell>
        <mxCell id="LWCK1zUq5cx6b3XLf9eT-14" value="" style="shape=image;verticalLabelPosition=bottom;labelBackgroundColor=default;verticalAlign=top;aspect=fixed;imageAspect=0;editableCssRules=.*;image=data:image/svg+xml,PHN2ZyB4bWxucz0iaHR0cDovL3d3dy53My5vcmcvMjAwMC9zdmciIHByZXNlcnZlQXNwZWN0UmF0aW89InhNaW5ZTWluIG1lZXQiIHZpZXdCb3g9IjAgMC41ODQwMjI1MjE5NzI2NTYyIDI1NiAyMTguNTg2OTE0MDYyNSIgaGVpZ2h0PSI2ODMuMDg0MTA2NDQ1MzEyNSIgd2lkdGg9IjgwMCI+PHBhdGggZmlsbD0iIzkxMjYyNiIgZD0iTTI0NS45NyAxNjguOTQzYy0xMy42NjIgNy4xMjEtODQuNDM0IDM2LjIyLTk5LjUwMSA0NC4wNzUtMTUuMDY3IDcuODU2LTIzLjQzNyA3Ljc4LTM1LjM0IDIuMDktMTEuOTAyLTUuNjktODcuMjE2LTM2LjExMi0xMDAuNzgzLTQyLjU5N0MzLjU2NiAxNjkuMjcxIDAgMTY2LjUzNSAwIDE2My45NTF2LTI1Ljg3NnM5OC4wNS0yMS4zNDUgMTEzLjg3OS0yNy4wMjRjMTUuODI4LTUuNjc5IDIxLjMyLTUuODg0IDM0Ljc5LS45NSAxMy40NzIgNC45MzYgOTQuMDE4IDE5LjQ2OCAxMDcuMzMxIDI0LjM0NGwtLjAwNiAyNS41MWMuMDAyIDIuNTU4LTMuMDcgNS4zNjQtMTAuMDI0IDguOTg4Ii8+PHBhdGggZmlsbD0iI0M2MzAyQiIgZD0iTTI0NS45NjUgMTQzLjIyYy0xMy42NjEgNy4xMTgtODQuNDMxIDM2LjIxOC05OS40OTggNDQuMDcyLTE1LjA2NiA3Ljg1Ny0yMy40MzYgNy43OC0zNS4zMzggMi4wOS0xMS45MDMtNS42ODYtODcuMjE0LTM2LjExMy0xMDAuNzgtNDIuNTk0LTEzLjU2Ni02LjQ4NS0xMy44NS0xMC45NDgtLjUyNC0xNi4xNjYgMTMuMzI2LTUuMjIgODguMjI0LTM0LjYwNSAxMDQuMDU1LTQwLjI4NCAxNS44MjgtNS42NzcgMjEuMzE5LTUuODg0IDM0Ljc4OS0uOTQ4IDEzLjQ3MSA0LjkzNCA4My44MTkgMzIuOTM1IDk3LjEzIDM3LjgxIDEzLjMxNiA0Ljg4MSAxMy44MjcgOC45LjE2NiAxNi4wMiIvPjxwYXRoIGZpbGw9IiM5MTI2MjYiIGQ9Ik0yNDUuOTcgMTI3LjA3NGMtMTMuNjYyIDcuMTIyLTg0LjQzNCAzNi4yMi05OS41MDEgNDQuMDc4LTE1LjA2NyA3Ljg1My0yMy40MzcgNy43NzctMzUuMzQgMi4wODctMTEuOTAzLTUuNjg3LTg3LjIxNi0zNi4xMTItMTAwLjc4My00Mi41OTdDMy41NjYgMTI3LjQwMiAwIDEyNC42NyAwIDEyMi4wODVWOTYuMjA2czk4LjA1LTIxLjM0NCAxMTMuODc5LTI3LjAyM2MxNS44MjgtNS42NzkgMjEuMzItNS44ODUgMzQuNzktLjk1QzE2Mi4xNDIgNzMuMTY4IDI0Mi42ODggODcuNjk3IDI1NiA5Mi41NzRsLS4wMDYgMjUuNTEzYy4wMDIgMi41NTctMy4wNyA1LjM2My0xMC4wMjQgOC45ODciLz48cGF0aCBmaWxsPSIjQzYzMDJCIiBkPSJNMjQ1Ljk2NSAxMDEuMzUxYy0xMy42NjEgNy4xMi04NC40MzEgMzYuMjE4LTk5LjQ5OCA0NC4wNzUtMTUuMDY2IDcuODU0LTIzLjQzNiA3Ljc3Ny0zNS4zMzggMi4wODctMTEuOTAzLTUuNjg2LTg3LjIxNC0zNi4xMTItMTAwLjc4LTQyLjU5NC0xMy41NjYtNi40ODMtMTMuODUtMTAuOTQ3LS41MjQtMTYuMTY3QzIzLjE1MSA4My41MzUgOTguMDUgNTQuMTQ4IDExMy44OCA0OC40N2MxNS44MjgtNS42NzggMjEuMzE5LTUuODg0IDM0Ljc4OS0uOTQ5IDEzLjQ3MSA0LjkzNCA4My44MTkgMzIuOTMzIDk3LjEzIDM3LjgxIDEzLjMxNiA0Ljg4IDEzLjgyNyA4LjkuMTY2IDE2LjAyIi8+PHBhdGggZmlsbD0iIzkxMjYyNiIgZD0iTTI0NS45NyA4My42NTNjLTEzLjY2MiA3LjEyLTg0LjQzNCAzNi4yMi05OS41MDEgNDQuMDc4LTE1LjA2NyA3Ljg1NC0yMy40MzcgNy43NzctMzUuMzQgMi4wODctMTEuOTAzLTUuNjg3LTg3LjIxNi0zNi4xMTMtMTAwLjc4My00Mi41OTVDMy41NjYgODMuOTggMCA4MS4yNDcgMCA3OC42NjV2LTI1Ljg4czk4LjA1LTIxLjM0MyAxMTMuODc5LTI3LjAyMWMxNS44MjgtNS42OCAyMS4zMi01Ljg4NCAzNC43OS0uOTVDMTYyLjE0MiAyOS43NDkgMjQyLjY4OCA0NC4yNzggMjU2IDQ5LjE1NWwtLjAwNiAyNS41MTJjLjAwMiAyLjU1NS0zLjA3IDUuMzYxLTEwLjAyNCA4Ljk4NiIvPjxwYXRoIGZpbGw9IiNDNjMwMkIiIGQ9Ik0yNDUuOTY1IDU3LjkzYy0xMy42NjEgNy4xMi04NC40MzEgMzYuMjItOTkuNDk4IDQ0LjA3NC0xNS4wNjYgNy44NTQtMjMuNDM2IDcuNzc3LTM1LjMzOCAyLjA5Qzk5LjIyNyA5OC40MDQgMjMuOTE1IDY3Ljk4IDEwLjM1IDYxLjQ5Ny0zLjIxNyA1NS4wMTUtMy41IDUwLjU1IDkuODI1IDQ1LjMzMSAyMy4xNTEgNDAuMTEzIDk4LjA1IDEwLjczIDExMy44OCA1LjA1YzE1LjgyOC01LjY3OSAyMS4zMTktNS44ODMgMzQuNzg5LS45NDggMTMuNDcxIDQuOTM1IDgzLjgxOSAzMi45MzQgOTcuMTMgMzcuODExIDEzLjMxNiA0Ljg3NiAxMy44MjcgOC44OTcuMTY2IDE2LjAxNyIvPjxwYXRoIGZpbGw9IiNGRkYiIGQ9Ik0xNTkuMjgzIDMyLjc1N2wtMjIuMDEgMi4yODUtNC45MjcgMTEuODU2LTcuOTU4LTEzLjIzLTI1LjQxNS0yLjI4NCAxOC45NjQtNi44MzktNS42OS0xMC40OTggMTcuNzU1IDYuOTQ0IDE2LjczOC01LjQ4LTQuNTI0IDEwLjg1NSAxNy4wNjcgNi4zOTFNMTMxLjAzMiA5MC4yNzVMODkuOTU1IDczLjIzOGw1OC44Ni05LjAzNS0xNy43ODMgMjYuMDcyTTc0LjA4MiAzOS4zNDdjMTcuMzc1IDAgMzEuNDYgNS40NiAzMS40NiAxMi4xOTQgMCA2LjczNi0xNC4wODUgMTIuMTk1LTMxLjQ2IDEyLjE5NXMtMzEuNDYtNS40Ni0zMS40Ni0xMi4xOTVjMC02LjczNCAxNC4wODUtMTIuMTk0IDMxLjQ2LTEyLjE5NCIvPjxwYXRoIGZpbGw9IiM2MjFCMUMiIGQ9Ik0xODUuMjk1IDM1Ljk5OGwzNC44MzYgMTMuNzY2LTM0LjgwNiAxMy43NTMtLjAzLTI3LjUyIi8+PHBhdGggZmlsbD0iIzlBMjkyOCIgZD0iTTE0Ni43NTUgNTEuMjQzbDM4LjU0LTE1LjI0NS4wMyAyNy41MTktMy43NzkgMS40NzgtMzQuNzkxLTEzLjc1MiIvPjwvc3ZnPg==;" parent="1" vertex="1">
          <mxGeometry x="723.82" y="493" width="132.36" height="113" as="geometry" />
        </mxCell>
        <mxCell id="LWCK1zUq5cx6b3XLf9eT-24" value="" style="endArrow=classic;html=1;rounded=0;exitX=0.5;exitY=1;exitDx=0;exitDy=0;strokeWidth=3;strokeColor=light-dark(#000000,#000000);entryX=0.5;entryY=0;entryDx=0;entryDy=0;" parent="1" source="LWCK1zUq5cx6b3XLf9eT-12" target="LWCK1zUq5cx6b3XLf9eT-14" edge="1">
          <mxGeometry width="50" height="50" relative="1" as="geometry">
            <mxPoint x="1030" y="630" as="sourcePoint" />
            <mxPoint x="580" y="537" as="targetPoint" />
            <Array as="points" />
          </mxGeometry>
        </mxCell>
        <mxCell id="LWCK1zUq5cx6b3XLf9eT-25" value="" style="endArrow=classic;html=1;rounded=0;entryX=0.5;entryY=0;entryDx=0;entryDy=0;strokeWidth=3;strokeColor=light-dark(#000000,#000000);" parent="1" source="LWCK1zUq5cx6b3XLf9eT-14" target="LWCK1zUq5cx6b3XLf9eT-13" edge="1">
          <mxGeometry width="50" height="50" relative="1" as="geometry">
            <mxPoint x="1000" y="440" as="sourcePoint" />
            <mxPoint x="1089" y="440" as="targetPoint" />
            <Array as="points" />
          </mxGeometry>
        </mxCell>
        <mxCell id="LWCK1zUq5cx6b3XLf9eT-29" value="" style="endArrow=classic;html=1;rounded=0;exitX=0;exitY=0.5;exitDx=0;exitDy=0;entryX=1;entryY=0.5;entryDx=0;entryDy=0;strokeWidth=3;strokeColor=light-dark(#000000,#000000);" parent="1" source="LWCK1zUq5cx6b3XLf9eT-12" target="LWCK1zUq5cx6b3XLf9eT-4" edge="1">
          <mxGeometry width="50" height="50" relative="1" as="geometry">
            <mxPoint x="520" y="580" as="sourcePoint" />
            <mxPoint x="609" y="580" as="targetPoint" />
            <Array as="points" />
          </mxGeometry>
        </mxCell>
        <mxCell id="LWCK1zUq5cx6b3XLf9eT-35" value="&lt;font style=&quot;font-size: 30px; color: light-dark(rgb(0, 0, 0), rgb(0, 0, 0));&quot;&gt;PSQL&lt;/font&gt;" style="shape=cylinder3;whiteSpace=wrap;html=1;boundedLbl=1;backgroundOutline=1;size=15;fillColor=light-dark(#FFFFFF,#FFFFFF);strokeColor=light-dark(#000000,#000000);strokeWidth=5;" parent="1" vertex="1">
          <mxGeometry x="730" y="1020" width="120" height="150" as="geometry" />
        </mxCell>
        <mxCell id="LWCK1zUq5cx6b3XLf9eT-40" value="Backend" style="text;html=1;align=center;verticalAlign=middle;whiteSpace=wrap;rounded=0;fontColor=light-dark(#000000,#000000);fontSize=50;" parent="1" vertex="1">
          <mxGeometry x="1305" y="1480" width="60" height="30" as="geometry" />
        </mxCell>
        <mxCell id="LWCK1zUq5cx6b3XLf9eT-43" value="&lt;font style=&quot;color: light-dark(rgb(0, 0, 0), rgb(0, 0, 0)); font-size: 30px;&quot;&gt;Payments&lt;br&gt;(WASM&lt;/font&gt;&lt;span style=&quot;color: light-dark(rgb(0, 0, 0), rgb(0, 0, 0)); font-size: 30px; background-color: transparent;&quot;&gt;)&lt;/span&gt;" style="rounded=1;whiteSpace=wrap;html=1;fillColor=none;strokeColor=light-dark(#000000,#000000);strokeWidth=5;" parent="1" vertex="1">
          <mxGeometry x="1015" y="325" width="260" height="90" as="geometry" />
        </mxCell>
        <mxCell id="LWCK1zUq5cx6b3XLf9eT-91" value="" style="edgeStyle=orthogonalEdgeStyle;rounded=0;orthogonalLoop=1;jettySize=auto;html=1;" parent="1" source="LWCK1zUq5cx6b3XLf9eT-51" target="LWCK1zUq5cx6b3XLf9eT-43" edge="1">
          <mxGeometry relative="1" as="geometry" />
        </mxCell>
        <mxCell id="LWCK1zUq5cx6b3XLf9eT-45" value="&lt;font style=&quot;color: light-dark(rgb(0, 0, 0), rgb(0, 0, 0)); font-size: 30px;&quot;&gt;Monitor&lt;/font&gt;" style="rounded=1;whiteSpace=wrap;html=1;fillColor=none;strokeColor=light-dark(#000000,#000000);strokeWidth=5;" parent="1" vertex="1">
          <mxGeometry x="1380" y="1050" width="260" height="90" as="geometry" />
        </mxCell>
        <mxCell id="LWCK1zUq5cx6b3XLf9eT-47" value="&lt;font style=&quot;color: light-dark(rgb(0, 0, 0), rgb(0, 0, 0)); font-size: 30px;&quot;&gt;React.js / Next.js&lt;br&gt;Frontend&lt;/font&gt;" style="rounded=1;whiteSpace=wrap;html=1;fillColor=none;strokeColor=light-dark(#000000,#000000);strokeWidth=5;" parent="1" vertex="1">
          <mxGeometry x="2150" y="870" width="260" height="90" as="geometry" />
        </mxCell>
        <mxCell id="LWCK1zUq5cx6b3XLf9eT-49" value="" style="shape=image;verticalLabelPosition=bottom;labelBackgroundColor=default;verticalAlign=top;aspect=fixed;imageAspect=0;image=data:image/png,iVBORw0KGgoAAAANSUhEUgAAAgAAAAIACAYAAAD0eNT6AAAACXBIWXMAAAsTAAALEwEAmpwYAAAAtGVYSWZJSSoACAAAAAYAEgEDAAEAAAABAAAAGgEFAAEAAABWAAAAGwEFAAEAAABeAAAAKAEDAAEAAAACAAAAEwIDAAEAAAABAAAAaYcEAAEAAABmAAAAAAAAAEgAAAABAAAASAAAAAEAAAAGAACQBwAEAAAAMDIxMAGRBwAEAAAAAQIDAACgBwAEAAAAMDEwMAGgAwABAAAA//8AAAKgBAABAAAAAAIAAAOgBAABAAAAAAIAAAAAAACRX/HaAAAgAElEQVR4nO3dC5gkdX3u8fdX3XPZXXQXXIWF2a6ZnlnANaJmvZ14wRDReKIRPcgJmmhiQuIlmiieGNRzkphEIkk4USNgPI8n0RPvETl4IeLlEI1GT4wGZWWXmZ7p3oEFFthd2N3ZuXT98vQuRF2XONXT3f/q+X8/zwMPPE/Vv97umq56u6q6SgIAAAAAAAAAAAAAAAAAAAAAAAAAAAAAAAAAAAAAAAAAAAAAAAAAAAAAAAAAAAAAAAAAAAAAAAAAAAAAAAAAAAAAAAAAAAAAAAAAAAAAAAAAAAAAAAAAAAAAAAAAAAAAAAAAAAAAAAAAAAAAAAAAAAAAAAAAAAAAAAAAAAAAAAAAAAAAAAAAAAAAAAAAAAAAAAAAAAAAAAAAAAAAAAAAAAAAAAAAAAAAAAAAAAAAAAAAAAAAAAAAAAAAAAAAAAAAAAAAAAAAAAAAAAAAAAAAAAAAAAAAAAAAAAAAAAAAAAAAAAAAAABQCBY6QEzOPPXUhy2VShvcbEPoLABQJOa+r9xs7rv5ttvuDp0lFhSALqpWq+vVbD5HrvMknWNmDw+dCQCKzN33mOwLSvRJT5LrarXa/tCZVisKQBdUKpUTB8zeKNlrJa0JnQcA+pG7L5jpqiXp9+r1+r7QeVYbCkCHjaXpyxPZn0o6KXQWAFgNXLpbpotrMzN/EzrLalIKHWAVKY2n6aUmu4xv/QDQOSatNem8kzasP/Ws/fuvq0tZ6EyrAUcAOqNUraR/Z2bPDx0EAFY119VTjZnzRQlYMY4AdEA1TS8zs5eHzgEAq57pkSdtWD+8d//+z4eO0u8oACtUTdMLTfbnoXMAQDzsqSc9dMP39t6776bQSfoZpwBWYGRkZM1gqbTTZCOhswBATFy6bW5hfsvu3bsPhc7Sr5LQAfrZYFK+mJ0/APSeSaeuGRxs/dQabaIAtGnbtm0DZnpd6BwAEC97w9lSOXSKfkUBaNM9e+45m9/6A0A4Jj1sNk2fFjpHv6IAtMks4yd/ABAe2+I2UQDaZC5aJwAE5m5PD52hX1EA2mW2JXQEAIieOdviNlEA2jAxMTEkaW3oHAAQO5OdsHXr1sHQOfoRBaANWZYNh84AADjq8OHDPH+lDRQAAAAiRAEAACBCFAAAACJEAQAAIEIUAAAAIsQ9lPuEu39dpg+b2feUZXflmdeS5ISm+7i5Pc9MP9+R4ud+h0zvl9k/mvsd7r64/EA26NIp5vZ0N/1S63aeK44jX5J0tcw+XZKmsyw7mGt+s0eY26NcerGZHrfSPEfGdH3LpA+6+U3mfmeeeZMkWdeUxuT+cyZ7YSce3e3S3eb6gJv/g0m3y31hufOa2YCbnSz3p8j1UrX+G6tNJtc1mfmnSmZTnmUHcs2dJBvd/ZHmulBmT+xaSnQMjwNuQ7VaXW/NbF8vluXy1ofwolq9/uFOjDdeqWxzSz5i0vgKMr13+NC612/fsz3fBuI40jTdUJb9paSXtJ9H2y1rXjC1a1cnng1uY2n6K4nbu2Vq7+eersNu/qpavf7XR+OtzPjmzY/ypPRRk7auYJi/XZL/Zr1eX/Hf7daHbz3h8NqDl5vsopWOhWJw+WQiXTBZr3+rE+NV0/TFkv2VSevUA15KNtRqtf29WNZqQgEocAFw9wX35JnTu6a/3Mlx0zQ9peT6hpltbiPVO6fq9d/q9N/heGX0fTL9cv44vnNR/uRGo7G3k4Gqafock13bxjfvpuTPnarXr+tknpGRkZOGktI/tXUHStdfTzVmXt6JMvKDqmn6TpO9ppNjIgD3RlZKnjg9PX1HJ4edGB09O8v8+tbRI3UZBaA9XANQaPZnnd75t9Tr9dtl+o3cM7rfsmHjxjd0Ok9r5EOL86926dY2Zv2VTu/8W2r1+mdduip3GvmVnd75t8zOzt4jee6C5PLZ+WzpVZ3e+becuHHjxa2/iU6Pi96yxC7q9M6/ZXJm5gYzXd7pcdE5FIDiaiaD5b/o1uD37+ByHjL3d3zzm99c/rn+HHbv3n3I5O/OlUb66lSj8VV1SVP+Z/nn0Z93J43Ueq2t15xnHpOumJ2dnetGnqN/C/6OboyNXvHvTM7MfK5ro5dKrQLQ7Nb4WBkKQEG59K+Tk5N7urkMk38+z/TNJMk1fV5ZM9/4efPnVa/XZ/J8w22dRz0yTxflfc1539O8uv03ge5yt66uv1qtdqe7buzmMtA+CkBBmev2bi/D3W7LN713/DDhDyp5aXee6b11JXuXubTsTEeurO8yt3zrLBlKupqpXC7nWmconK7/zVqOzxB6iwJQVKb13V+ETsw1vVlXM2WWbcgzvUm5pm+HWa73qOvrTO651pnPe1ffoyzLt85QOF1ff55zO4PeoQAU1+M2bdrU3UcOmz8lz+SJ+0+pq4cAmk/NM7lL/6l7YY7+RNFdZ+bI88jW1frdzGRSrnWmctbdddbMt85QOF39DLW2YWZ6TDeXgfZRAIpr7dqBoV/s1uDVkepPSJZv5+D26939sm2/lmsO17NPr1TGuhWo7PZreX7CZLLyUFJu/dyuK1qv1V3PyjOPuS7q6s99Xd38m0CXmelpE5XKSu4v8R9aMzj40ta2rFvjY2UoAIXmf1itViudHnXr1q2DKmXvyfsbdzM9YyxNu7KDm0jT35a0LV8eG1ySXdWJu+Qda2xs7HTJ35J/Tn/L0Xk7rtR6ra3XnHO+bdU07fR9G46YqFR+1czO7sbY6JmSm73nyDahw0ZHR1NJf9jpcdE5FIAia92edqn5uU7uUCYmJh46f/DQJ0xq69Cwua6sjo6+TB00Xqm8OpMuayuP2bOqafrBTp4uGRsbOytp+t+rnWsezNa35q2OVB/dqTyt19Z6ja3X2uYQf9p6j9VB1TT95Ux2RSfHRCj21MMHD368tW3o1Iijo6NnlDL/nMk2dmpMdB53Aiz4rYDvN+euqzyzDx1uHr6p9Zv5PDO32v3c3Nxo0vTWcwAulumUlUfy6yVdUVoY+srO3TtzPZugZWxs7ORSU093y14j2dNWnMZ9V+vGSYk3P73+EY9o5L1fwVknn7zu4NDQY9ySF8v9oja+aR+bZ0Fm7zXPPrhufv5fb7zjjlzPJti2bdvA/jvvrGQqPVfmF7d318YfyfQPiZJ3NUv6cjs3fjl90+kbm4PzrXP+r5Ls3JXmQeHslvzPfan0f0885cSZvJ+hVlEdHh7+iaTpF0p6Rdu30m4DdwJsDwWgPwoAAOBBUADawykAAAAiRAEAACBCFAAAACJEAQAAIEIUAAAAIkQBAAAgQhQAAAAiRAEAACBCFAAAACJEAQAAIEIUAAAAIkQBAAAgQhQAAAAiRAEAACBCFAAAACJEAQAAIEIUAAAAIkQBAAAgQhQAAAAiRAEAACBC5dAB8OO5fEnSByVdo2bpllKydDB0ptUgc1/jSZJKeo7JXi5p7UrGc/d5md6fZMm1mdt0KVk61Lm08Wpm5bVmWdUTf55cv2RmQysZz6WDkr9P0nWWZfXEbK5zaeO1VCqdoGZzi5k9X9KFJmP/UnAWOkA/qlar662Z7evFslw+qWbpBbXZ2nd7sbxYTZw2MZKVlj5mpie3N4J/J3E/75ZGo9bpbPi+8ZHxCZWWPiHZo9uZ311fG/Dm+Tt27bqt8+nwgLGxsbMs80+YNN6L5Xkp2VCr1fb3YlmrCacAisx1u5XL57Dz777JWydnB9YMPculm/LO69J0aWHoHHb+3Tc1OzVpAwM/I9dM/rn9O8Nza5/Fzr/7pqenb1QpOUfud4bOggdHASgwN79kampqV+gcsdixY8d9ntkr885nmX575+6dd3UnFY41OTm5R+avyz2j+yu279l+oCuh8CNqtVojM10SOgceHAWgoNz9vmRg4EOhc8Rmetf0l/McBXDptqldM9d2NxWONVWvX+Py2WXP4H7jVKPx1a6Gwo8oDQz8bWtbFjoHjo8CUFzfmpycnA8dIkbm+vqyJ3Z942gPQI+5XN9c9sR2ZD2hx1rbMDN9O3QOHB8FoKBMdnfoDNEyX/bhfJPu6W4YdOIzwnoKyI3TYwVFASguvlWG4pYtf1Jf9rTorFzvfY51io5jW1ZQFAAAACJEAQAAIEIUAAAAIkQBAAAgQtyreRXZunXroPZoMHSOIjm49uBSvV4/rAKZmJgYGtw/OBA6R5EsrF9YLNrPXtM0HV53aB3byB/0cC1s3759IXQMdAZ/3KvI4QOHfs/W6k2hcxRJSfq4pBepQHxh6S/m1y69InSOQlnQVZJy34Wxm0rSB+bXHjo/dI4i8QN6m6Q3h86BzuAUAAAAEaIAAAAQIQoAAAARogAAABAhCgAAABGiAAAAECEKAAAAEaIAAAAQIQoAAAARogAAABAhCgAAABGiAAAAECEKAAAAEaIAAAAQIQoAAAARogAAABAhCgAAABGiAAAAECEKAAAAEaIAAAAQIQoAAAARogAAABAhCgAAABGiAAAAECEKAAAAEaIAAAAQIQoAAAARogAAABAhCgAAABGiAAAAECEKAAAAEaIAAAAQIQoAAAARKocOgA4qJ5e59J7QMYqkPFc+pIJZVPamcql8aegcRbK0tHSfCqa8MPTKpTVLF4fOUTD7QwdA51AAVpFardb6cPIBLbhGo7FXUusfFNjO3TvvCp0B6CZOAQAAECEKAAAAEaIAAAAQIQoAAAARogAUl4UOEC3zHO+9sZ6CyfHe51qn6DDe+4KiABSUy08KnSFWLtu43GnNxXoKxfWw5U/KegrGfNmfJ/QWBaCgTPaYrVu3DobOESNzf/xyp3XzJ/ANJwiTfFuOyXNMi07Ztm3bgNweHToHjo8CUFSmDYcPHnxh6BixGRsbe6LMHrPc6U02MjE6em53U+FY42n6bDPbvNzpTXrceKVCCeixe/bsuaC1LQudA8dHASgy12VjY2Mnh44Ri5GRkTWW+ZV55/PM31mtVtd3JxWOlabpBrnekXM2k9mVaZoOdykWjpGm6SlmydtD58CDowAUWOsbTpJl12+pVKqhs6x2p286feNQqXytST+Ze2azM7SUXXfG5s2ndiUc/t2WkZHTSq7rZHZ6/rntCWXp2jNPPXXZ1w6gPRObN4+XpetNOi10Fjw4zl22ofVtz5rZvh4uck7y97r7NUlzcOdCaeFgD5e9aq1xX7NkNiqz50j2akknrmQ8d7/PTFdlWXJt2Rdr80lSuOcQ9KOhLFurcnm86f48Sa8w2QkrHPIeyd8t6bPlLKvPmc11KGrUBpuD67LSwhkye765XSRTz462eCnZcP+t0JEDBaA/CgAA4EFQANrDKQAAACJEAQAAIEIUAAAAIkQBAAAgQhQAAAAiRAEAACBCFAAAACJEAQAAIEIUAAAAIkQBAAAgQhQAAAAiVA4dAMvn8rtMtkNyHl7SGUMuq3b8iWWu22U+KelwR8eN17BcW2TW0Udju3zWpGlJ850cN162xqUzTeJpi32CAtAH3PVtM7+kVq9fL6kZOs8qY+Np+mTJ/kjSOSsZyF1fSxJdMlmf+bKkrHMR0TpaOZ6mT3e3S8305BWO9QWTv2WqXv+nDmXD95Wqafosc10qs8eEDoP/GE8DLPjTAF3+0WRg4KWTk5N8S+mupJqmbzfZG9qZ2eXv3Vyvv+oGaanz0fCAs6XyrnT0KpN+tb0R/LKpev13j6wydE2apsMl6QMmO78Xy+NpgO2hABS4ALj0L8lA+afY+feMVSvp1Wb2/DwzuetLtcbMuRyd6ZlStZJ+wczOzjWX6xNTjZnWDomdf69KgNvXzPTYbi+LAtAeLgIsMHd7Izv/nvKS/PV5D98n5hez8++ppunIe55rnpKy1tEddv49Uq/XDyeJ3hg6Bx4cBaCoXLdPN6a/GDpGbG5pNGouLfvcsLu+N1mvf6u7qXCsqUbjm3Lfsfw5/Gs7G43WBX/oocmZmc/L/Y7QOXB8FICiMm3nQrIwzP07OSb+blfD4EG5afnryY31FEbmsta2DAVEASgod18MnSFWblr2e29urKdA8rz3bnyewuG9LyoKQEGZVA2dIVbmNr7caZ31FJAvez2ZjPUUii3/84TeogAUldmW8c2bHxU6RmzSNN0g6aeXO72ZnrhlZKSzNxLCjzU+Pr5ZZo/PMcs5rV/vdDESjqM6Un20SRSAgqIAFJhbqXVzGvRQye0tMg3nmCVplsp/0MVIOJ7F5ltzbr/WWLP5pi4mwvGUmmzDCowCUGBmOq9aGeVnND0yURl7kZlel3e+1k1pxiujF3UnFY5VHR39DZl+Of+c9oaJylhPbkwDaTxNLzHZz4fOgQfHjYAKfifAI1z/OyvZJdPT0/ycpgvOOOOMhyzNzb9Jpt9ZQSl2yd+16P77jUZjb4cjQtLIyMhJg6XSH5jsN1cwTOauPxmeW3vp9j3bD3QwHu6XpukpZdefyOxlvVomNwJqDwWgHwpAix95sMwXXfqepD09XfYqZVLrfP/pLj/XzB7SoWEPufv1Ztrhbvd0aMyomflJRx8yY8+UtLYTY7r7vWZ2vbt2SmLH0RkPN2mry88xs6FeLpgC0B4KQL8UAADAcVEA2sM1AAAARIgCAABAhCgAAABEiAIAAECEKAAAAESIAgAAQIQoAAAARIgCAABAhCgAAABEiAIAAECEKAAAAESoHDoAlselmsk/5mbfSzI7FDrPKjGUycdN/kKZndWREV03y/zjcttpstYDnLBCLh926QyTny+zMzozqP+ryz6RyGqS5jsyZuSyxNea+1aXvciksdB58OPxMKCCPwzI3RcT0xtPq9ffdYO01ItlRsiqafoLcr1nBU8FnJPba6ca0+9rbQs7nA9HJeOV0V+T9A6Zhtt+CmBivz41M/PRo70anbZt27aBfXfd9ZrWY5fNbKAXy+RhQO2hABS7AGQyvXBqZuaaHiwretXN1cdbkt2Q95Gz7r5gpmdP1ev/r3vp8IBqpXKOZNfl3bm4dNA8e/pUo/Ev3UuHB1TT9AUm+3gvTjVTANrDNQAF5vIr2Pn3Tm1X7Z9d/ua885npUnb+vVNrNL5oprfnnc9cl7Dz751avX5166ha6Bx4cBSA4spKzeafhA4Rm+F1666QtHe507v7vA0MXN7dVDiWl0p/1nrvc8xyz9AJa9kZ9dpA6VJOtRQXBaCo3L97y+zsraFjxGb79u0Lcn1p+XPYVycnJ+/tZib8qPsP9/7Tcqd3+RePrFv01NTU1C7JbwqdA8dHASgsmw2dIGKNZU9pznoKxZa/nsz5PAXjtvzPE3qKAlBc/DQpFMt1aJn1FM58l9YpOov3vqAoAAAARIgCAABAhCgAAABEiAIAAECEKAAAAESIAgAAQIQoAAAARIgCAABAhCgAAABEiAIAAECEKAAAAESIAgAAQIQoAAAARIgCAABAhCgAAABEiAIAAECEKAAAAESIAgAAQIQoAAAARIgCUFAuZ92Es+z33txYT4HkfO9ZT4GwLSsuVkxBmelhoTNEy23jsieVs54CcfNlrye5sZ4CMVv+5wm9RQEoKJcem6bpcOgcMXLpycue2OwJrX93NRCOJzEdee+Xx/yJXU2D45qYmBhy97NC58DxUQAKymQnlDO7IHSO2FQrlaeY6ZHLnd6kU6uVyn/ubioca2Lz2M9J2rT8OewnJtJ0+cUOHZEtLl5oZg8JnQPHRwEoME/0tjRNTwmdIxabNm1aKyV/mXc+k/3PNE03dCcVjtV6r7MkuzzvfJns3SMjI2u6kwrHqlQqm0z2ttA58OAoAAVm0mll13Xj4+ObQ2eJYaeyZmDwajM9NvfMZlvKsk9Vq9VHdCUc/t3Y2NjJJbfPmGwi77wm/eRgUrq6Wq2u7046PKBarVYGZNflO0qDXuPcZRtaGxBrZvt6tTx3v1eyy7NEH56ZmdnRq+XGoFWufKH5Qkv0xpVurFx+l9z+tKTs47c0GrXOpcSWSqXaVPIimf6baWUXyLp0m1xvt4HS1VNTU7s6lxJpmp5Zln7BXa8zs4f2arleSjbUarX9vVreakEB6IMC8IPcfcHMDoZY9qrjWiNTVy60dPd5MzvUjbFj4+5rzWyoS8PPSTrcpbGj4u7rzGwwyLIpAG0ptzcbQrn/AxbkQ7bqdLH+3r/D6tZOKypmXf2e0romgOsCir+e0AVcAwAAQIQoAAAARIgCAABAhCgAAABEiAIAAECEKAAAAESIAgAAQIQoAAAARIgCAABAhCgAAABEiAIAAECEKAAAAESIAgAAQIQoAAAARIgCAABAhCgAAABEiAIAAECEKAAAAESIAgAAQITKoQP0oyRJDmdL2e+GzgEAOLpNDp0BAAAAAAAAAAAAAAAAAAAAAAAAAAAAAAAAAAAAAAAAAAAAAADAQgfoR2edfPK6g8PDnwydAwAgrTt8+Lwb77jjYOgc/YanAbbhwLp1ZWtmzwydAwBwdJscOkM/SkIHAAAAvUcBAAAgQhQAAAAiRAEAACBCFAAAACJEAQAAIEIUAAAAIkQBAAAgQhQAAAAiRAEAACBCFAAAACJEAWjDwsLCQugMAICj2Ca3hwLQhtnZ2Tl3XwydAwBi5+7zrW1y6Bz9iALQJpOmQ2cAAFgtdIJ+RQFok5u+HjoDAMTO5N8InaFfUQDa5O7XhM4AANEzfTJ0hH5FAWjTmrkT/l6uw6FzAEDE5tYdPnx96BD9igLQpu17th+Q/G9C5wCAWLn0vhvvuONg6Bz9igKwAl4u/Q93vy90DgCIjcsPNOV/FDpHPyuFDtDP9u7de/DE9SeWzfTTobMAQExM+oPpev2zoXP0MwsdYBVIxtP0GsmeGzoIAMTAXdfVGjOtbW4zdJZ+ximAlctsYOAlLm0PHQQAVjuXbkoGy/+Vnf/KUQA6YHJy8t7BxYWnu+tLobMAwOrlX1EpOae1zQ2dZDWgAHTIzbfddvfwCWt/Vu7vOVpSAQAd4u66YsPGjefUarU7Q4dZLbgGoAvGRsaeYIm/nYsDAWBlXPqqPPudWqPxj6GzrDYUgC4aT9NnyO1lkn5WplNC5wGAPrFbrs9aovdPzszcEDrMakUB6JEtlUo1MzvdPNno8rWh86B9Lr3STI8NnQPf565vm3Rl6BxoX6bsYGJ2d8l9x85Gg4et9QAFAMipWhm92kznhc6B73PXJ2uNmReEzgH0Ey4CBAAgQhQAAAAiRAEAcjJpLnQG/DAz8UAYICcKAJCTm98dOgOOxToB8qIAADmZJztCZ8APc+nm0BmAfkMBAHLKMn09dAb8MHNnnQA58TNAIL9kvJLultkjQgfBka//t081Zk478lNyAMvGEQAgv8xl/yd0CNzP/APs/IH8KABAG8rK/tLdF0LniF1rHTTN3h06B9CPKABAG47cqtTUevIjAjLZFTMzM/XQOYB+RAEA2jQwPPxmubPzCcU1MzS39r+HjgH0KwoA0KYdO3bcZ6bW/ecPhc4Sobksswu279l+IHQQoF9RAIAVmKzXv+WeXeDu86GzxKL1Xrv8/OnZ6f8fOgvQzygAwArVGo1P3/90QG4R3H2HWu91rV7/TOggQL/jPgBAh4xtHnuaWfYpM3to6CyrkcsPyP28WqPxhdBZgNWAAgB00JbR0Sc1M7/ezB4SOstq4u73eik5d3p6+huhswCrBacAgA66ZWbm62Z6PtcEdPa3/u7J+ez8gc6iAAAdNlWvf8lMvyCpGTrLKpAlSn5xetf09aGDAKtNKXQAYDXau3//zSeu33DYTOeGztLXXL8z1Zj5X6FjAKsR1wAA3WPj6ejHJP2X0EH6kbtfU2vUW/dZ8NBZgNWIUwBA93h5eOhX5DyrPjf3W1QuvYydP9A9HAEAumxLmj626fqGmQ2EztI3F/2VkidMT0/fGDoLsJpxDQDQZffs33/7ietPHDbT00Jn6Qdm+uPazMxHQucAVjtOAQA9kAyW38qpgGVwv2VJujR0DCAGFACgByYnJ+ct0Ss4p/0fcpe/sl6vHw4dBIgBBQDokcmZmRvc/aOhcxSW6yPc5hfoHQoA0EOJ/K2tm9uEzlFAmWfJH4cOAcSEAgD00GSjsd3lnwido3BcH63N1r4bOgYQEwoA0GOWZb/PUYAf+fb/ttAhgNhQAIAem9q16yZ3vzZ0jgK5ujZb+07oEEBsKABAAGa6KnSGonDPrgydAYgRdwIEwkjGK2lNZqki5tJUrT6zhZ9HAr3HEQAgjEymDytyJv8QO38gDAoAEEjWTP5OkTOJX0QAgXAKAAjHqmnaMNmIYuTemGrUoz4FAoTEEQAgnNah7y8pWvb50AmAmFEAgLCiLQAmi/a1A0VAAQACysy+qlj50tdCRwBixjUAQFhJNU33m+wERcTd76016hv4BQAQDkcAgLAyuUV3Fzwz3cjOHwiLAgCEZj6p2LjF95qBgqEAAIGZVFdszON7zUDBUACA0Nwaioy57wqdAYgdBQAIzGR7FZnM4nvNQNFQAIDQEr9XkXFPonvNQNFQAIDQPL4CULLsQOgMQOwoAEBgWVZaUmTcfTF0BiB2FAAgMLOlTJExs+heM1A0FAAgsCTCneFShK8ZKBoKABDYoll0d8RLlpJm6AxA7CgAQGDJUhLdt+Ekie+0B1A0FAAgMLPF6HaGi5wCAIKjAACBWYSnAACERwEAAmuWSmVFptSM7zUDRUMBAAJLms0BRSYpxfeagaKhAACBmVl0O8NmkkT3moGioQAAgTWz+HaGFuFRD6BoKABAYGbx7QxjPOoBFA0X4gCBJYOD/+wLC49XRGxw8JbQGQAAAAAAAAAAAAAAAAAAAAAAAAAAAAAAAAAAAAAAAAAAAAAAAIBOso6OBgRytlSeTdMnuNtTZTrDpDNdOtWkDe5+Ak+fQx7uvmhmB1zaZ/JbXbbDXDeb+VdOq9f/+QZpKXRGYKUoAOhbExMTQ9ni4s/J7Zck/xkze0joTFj93P0+k10v8w8MrVv3me3bty+EzgS0gwKAvnP6ptM3Ngfnf0uyV0k6KfFuh34AAAQTSURBVHQexMulu01+xcDi4jtuvu22u0PnAfKgAKBvnHXyyesODK15s0yvNWld6DzAA1x+wKS/OLSwcOnu3bsPhc4DLAcFAH1hYvPY89yyd8ksDZ0FeFCuGVf2m7VG49OhowA/DgUAhT/P74uLl0n2Gv5e0T/8r4bWrXsN1wegyNigorDGxsZOTrLsU5I9PnQWIDf3b3i59LxarXZn6CjA8VAAUEhpmo6WXZ+T2ZbQWYB2uVSzZunZU7NTk6GzAMeiAKCQO/+S7CsmnRY6C7BSLt2amZ4yMzNTD50F+EHJD/0fUICf+JVd17Hzx2rR+ltO3D/fOqUVOgvwgygAKNTd/JqDC5+U2RmhswCdZLKJJMs+1vobD50FeEDp3/8LCKycppdKdmHoHEB3WLp//Yby3v37vhg6CdDCNQAohInR0bPd9SX+JrHKZVlmz5jeNf3l0EEATgEguNZhUc/8nez8EYHEEr9y27ZtPJwKwXEKAMGV0/S3ZfbS0DmAXjDpEXMH5u7ee+++r4fOgrjxjQtBpWk6XJbVJG0KnQXoGdft89lSdXZ2di50FMSLUwAIqux2ETt/RMd0ylCSvDx0DMSNAoDQWo/0BaLjSl4dOgPiRgFAMFtGR58k05mhcwAhmOmR45XKttA5EC8KAILJ3F8cOgMQkit5SegMiBcFAMG427mhMwAhmfkzQ2dAvPgVAIKoVCqbBiy5lb9BRM6zxDZNT0/fEToI4sMRAARRNnsyO39Aliz5k0KHQJwoAAiFB/4ArUMAxmcBYVAAEIS5nR46A1AIFAAEQgFAEM7Nf4AjTDoldAbEiQKAIMz0kNAZgGLwh4ZOgDhRABCEu9aFzgAUgbtRhhEEBQBBmPl9oTMABbEvdADEiQKAUL4VOgBQBCZ9O3QGxIkCgDDc33/0WkAgam525LMA9BwFAEFMNRrflPy9oXMAQbneM1mvczQMQVAAEIwNDLxW0t+FzgGE4PKPDZ2w9rdC50C8uBUrQrOJythLMvnrzfS40GGAbnPpX9yzy6cbjQ9yGgwhUQBQGJVK5cRyVj7NkqWh0FmATvOsPL+ULN3aaDT2hs4CAAAAAAAAAAAAAAAAAAAAAAAAAAAAAAAAAAAAAAAAAAAAAAAAAAAAAAAAAAAAAAAAAAAAAAAAAAAAAAAAAAAAAAAAAAAAAAAAAAAAAAAAAAAAAAAAAAAAAAAAAAAAAAAAAAAAAAAAAAAAAAAAAAAAAAAAAAAAAAAAAAAAAAAAAAAAAAAAAAAAAAAAAAAAAAAAAAAAAAAAAAAAAAAAAAAAAAAAAAAAAAAAAAAAAAAAAAAAAAAAAAAAAAAAAAAAAAAAAAAAAAAAAAAAAAAAAAAAAAAAAAAAAAAAAAAAAAAAAAAAAAAAAFBx/BvyAuLI0OkEigAAAABJRU5ErkJggg==;" parent="1" vertex="1">
          <mxGeometry x="2174" y="643" width="212" height="212" as="geometry" />
        </mxCell>
        <mxCell id="LWCK1zUq5cx6b3XLf9eT-84" value="" style="edgeStyle=orthogonalEdgeStyle;rounded=0;orthogonalLoop=1;jettySize=auto;html=1;" parent="1" source="LWCK1zUq5cx6b3XLf9eT-99" target="LWCK1zUq5cx6b3XLf9eT-13" edge="1">
          <mxGeometry relative="1" as="geometry" />
        </mxCell>
        <mxCell id="LWCK1zUq5cx6b3XLf9eT-52" value="" style="endArrow=classic;html=1;rounded=0;entryX=0.5;entryY=0;entryDx=0;entryDy=0;strokeWidth=3;strokeColor=light-dark(#000000,#000000);entryPerimeter=0;exitX=0.5;exitY=1;exitDx=0;exitDy=0;" parent="1" source="LWCK1zUq5cx6b3XLf9eT-107" target="LWCK1zUq5cx6b3XLf9eT-35" edge="1">
          <mxGeometry width="50" height="50" relative="1" as="geometry">
            <mxPoint x="1010" y="480" as="sourcePoint" />
            <mxPoint x="1098" y="480" as="targetPoint" />
            <Array as="points" />
          </mxGeometry>
        </mxCell>
        <mxCell id="LWCK1zUq5cx6b3XLf9eT-54" value="" style="endArrow=classic;html=1;rounded=0;entryX=0;entryY=0.5;entryDx=0;entryDy=0;strokeWidth=3;strokeColor=light-dark(#000000,#000000);exitX=1;exitY=0.5;exitDx=0;exitDy=0;exitPerimeter=0;" parent="1" source="LWCK1zUq5cx6b3XLf9eT-35" target="LWCK1zUq5cx6b3XLf9eT-45" edge="1">
          <mxGeometry width="50" height="50" relative="1" as="geometry">
            <mxPoint x="1450" y="610" as="sourcePoint" />
            <mxPoint x="880" y="757" as="targetPoint" />
            <Array as="points" />
          </mxGeometry>
        </mxCell>
        <mxCell id="LWCK1zUq5cx6b3XLf9eT-55" value="" style="endArrow=classic;html=1;rounded=0;strokeWidth=3;strokeColor=light-dark(#000000,#000000);entryX=0.5;entryY=1;entryDx=0;entryDy=0;exitX=1;exitY=0.5;exitDx=0;exitDy=0;exitPerimeter=0;" parent="1" source="LWCK1zUq5cx6b3XLf9eT-35" target="LWCK1zUq5cx6b3XLf9eT-43" edge="1">
          <mxGeometry width="50" height="50" relative="1" as="geometry">
            <mxPoint x="650" y="570" as="sourcePoint" />
            <mxPoint x="1060" y="770" as="targetPoint" />
            <Array as="points" />
          </mxGeometry>
        </mxCell>
        <mxCell id="LWCK1zUq5cx6b3XLf9eT-61" value="" style="curved=1;endArrow=classic;html=1;rounded=0;" parent="1" edge="1">
          <mxGeometry width="50" height="50" relative="1" as="geometry">
            <mxPoint x="1270" y="690" as="sourcePoint" />
            <mxPoint x="1320" y="640" as="targetPoint" />
            <Array as="points">
              <mxPoint x="1320" y="690" />
              <mxPoint x="1270" y="640" />
            </Array>
          </mxGeometry>
        </mxCell>
        <mxCell id="LWCK1zUq5cx6b3XLf9eT-64" value="" style="endArrow=classic;html=1;rounded=0;entryX=0;entryY=0.5;entryDx=0;entryDy=0;exitX=1;exitY=0.5;exitDx=0;exitDy=0;strokeColor=light-dark(#000000,#000000);strokeWidth=3;" parent="1" source="LWCK1zUq5cx6b3XLf9eT-51" target="LWCK1zUq5cx6b3XLf9eT-93" edge="1">
          <mxGeometry width="50" height="50" relative="1" as="geometry">
            <mxPoint x="1270" y="690" as="sourcePoint" />
            <mxPoint x="1320" y="640" as="targetPoint" />
          </mxGeometry>
        </mxCell>
        <mxCell id="LWCK1zUq5cx6b3XLf9eT-65" value="" style="endArrow=classic;html=1;rounded=0;entryX=0;entryY=0.5;entryDx=0;entryDy=0;exitX=1;exitY=0.5;exitDx=0;exitDy=0;strokeColor=light-dark(#000000,#000000);strokeWidth=3;" parent="1" source="LWCK1zUq5cx6b3XLf9eT-45" target="LWCK1zUq5cx6b3XLf9eT-93" edge="1">
          <mxGeometry width="50" height="50" relative="1" as="geometry">
            <mxPoint x="1364" y="759.5" as="sourcePoint" />
            <mxPoint x="1854" y="923.5" as="targetPoint" />
          </mxGeometry>
        </mxCell>
        <mxCell id="LWCK1zUq5cx6b3XLf9eT-75" value="" style="shape=flexArrow;endArrow=classic;startArrow=classic;html=1;rounded=0;exitX=1;exitY=0.5;exitDx=0;exitDy=0;fontColor=light-dark(#000000,#000000);strokeColor=light-dark(#000000,#000000);strokeWidth=3;" parent="1" edge="1">
          <mxGeometry width="100" height="100" relative="1" as="geometry">
            <mxPoint x="260" y="755" as="sourcePoint" />
            <mxPoint x="570" y="755" as="targetPoint" />
            <Array as="points" />
          </mxGeometry>
        </mxCell>
        <mxCell id="LWCK1zUq5cx6b3XLf9eT-13" value="&lt;font style=&quot;color: light-dark(rgb(0, 0, 0), rgb(0, 0, 0)); font-size: 30px;&quot;&gt;Kat Pool&lt;br&gt;(WASM)&lt;/font&gt;" style="rounded=1;whiteSpace=wrap;html=1;fillColor=none;strokeColor=light-dark(#000000,#000000);strokeWidth=5;" parent="1" vertex="1">
          <mxGeometry x="660" y="710" width="260" height="90" as="geometry" />
        </mxCell>
        <mxCell id="LWCK1zUq5cx6b3XLf9eT-76" value="" style="endArrow=classic;html=1;rounded=0;strokeWidth=3;strokeColor=light-dark(#000000,#000000);exitX=1;exitY=0.5;exitDx=0;exitDy=0;entryX=0;entryY=0.5;entryDx=0;entryDy=0;" parent="1" source="LWCK1zUq5cx6b3XLf9eT-13" target="LWCK1zUq5cx6b3XLf9eT-99" edge="1">
          <mxGeometry width="50" height="50" relative="1" as="geometry">
            <mxPoint x="920" y="840" as="sourcePoint" />
            <mxPoint x="1000" y="760" as="targetPoint" />
            <Array as="points" />
          </mxGeometry>
        </mxCell>
        <mxCell id="LWCK1zUq5cx6b3XLf9eT-79" value="&lt;font style=&quot;font-size: 30px;&quot;&gt;stratum protocol&lt;/font&gt;" style="text;html=1;align=center;verticalAlign=middle;whiteSpace=wrap;rounded=0;fontColor=light-dark(#000000,#000000);fontSize=50;" parent="1" vertex="1">
          <mxGeometry x="309.5" y="700" width="231" height="30" as="geometry" />
        </mxCell>
        <mxCell id="LWCK1zUq5cx6b3XLf9eT-89" value="" style="endArrow=classic;html=1;rounded=0;entryX=0.5;entryY=0;entryDx=0;entryDy=0;strokeWidth=3;strokeColor=light-dark(#000000,#000000);exitX=0.5;exitY=1;exitDx=0;exitDy=0;" parent="1" source="LWCK1zUq5cx6b3XLf9eT-51" target="LWCK1zUq5cx6b3XLf9eT-45" edge="1">
          <mxGeometry width="50" height="50" relative="1" as="geometry">
            <mxPoint x="1220" y="920" as="sourcePoint" />
            <mxPoint x="1470" y="840" as="targetPoint" />
            <Array as="points" />
          </mxGeometry>
        </mxCell>
        <mxCell id="LWCK1zUq5cx6b3XLf9eT-92" value="" style="edgeStyle=elbowEdgeStyle;elbow=vertical;endArrow=classic;html=1;curved=0;rounded=0;endSize=8;startSize=8;entryX=1;entryY=0.5;entryDx=0;entryDy=0;exitX=0.5;exitY=0;exitDx=0;exitDy=0;strokeWidth=3;strokeColor=light-dark(#000000,#000000);" parent="1" source="LWCK1zUq5cx6b3XLf9eT-43" target="LWCK1zUq5cx6b3XLf9eT-4" edge="1">
          <mxGeometry width="50" height="50" relative="1" as="geometry">
            <mxPoint x="1270" y="830" as="sourcePoint" />
            <mxPoint x="1320" y="780" as="targetPoint" />
            <Array as="points">
              <mxPoint x="770" y="200" />
            </Array>
          </mxGeometry>
        </mxCell>
        <mxCell id="LWCK1zUq5cx6b3XLf9eT-93" value="NGINX" style="rounded=1;whiteSpace=wrap;html=1;fillColor=none;strokeColor=light-dark(#000000,#000000);strokeWidth=5;fontSize=30;fontColor=light-dark(#000000,#000000);" parent="1" vertex="1">
          <mxGeometry x="1770" y="870" width="260" height="90" as="geometry" />
        </mxCell>
        <mxCell id="LWCK1zUq5cx6b3XLf9eT-94" style="edgeStyle=orthogonalEdgeStyle;rounded=0;orthogonalLoop=1;jettySize=auto;html=1;exitX=0.5;exitY=1;exitDx=0;exitDy=0;" parent="1" source="LWCK1zUq5cx6b3XLf9eT-93" target="LWCK1zUq5cx6b3XLf9eT-93" edge="1">
          <mxGeometry relative="1" as="geometry" />
        </mxCell>
        <mxCell id="LWCK1zUq5cx6b3XLf9eT-95" value="" style="endArrow=classic;html=1;rounded=0;entryX=0;entryY=0.5;entryDx=0;entryDy=0;exitX=1;exitY=0.5;exitDx=0;exitDy=0;strokeColor=light-dark(#000000,#000000);strokeWidth=3;" parent="1" source="LWCK1zUq5cx6b3XLf9eT-93" target="LWCK1zUq5cx6b3XLf9eT-47" edge="1">
          <mxGeometry width="50" height="50" relative="1" as="geometry">
            <mxPoint x="1820" y="860" as="sourcePoint" />
            <mxPoint x="1920" y="1030" as="targetPoint" />
          </mxGeometry>
        </mxCell>
        <mxCell id="LWCK1zUq5cx6b3XLf9eT-51" value="Victoria Metrics" style="rounded=1;whiteSpace=wrap;html=1;fillColor=none;strokeColor=light-dark(#000000,#000000);strokeWidth=5;fontSize=30;fontColor=light-dark(#000000,#000000);" parent="1" vertex="1">
          <mxGeometry x="1380" y="710" width="260" height="90" as="geometry" />
        </mxCell>
        <mxCell id="LWCK1zUq5cx6b3XLf9eT-97" style="edgeStyle=orthogonalEdgeStyle;rounded=0;orthogonalLoop=1;jettySize=auto;html=1;exitX=0.5;exitY=1;exitDx=0;exitDy=0;" parent="1" source="LWCK1zUq5cx6b3XLf9eT-40" target="LWCK1zUq5cx6b3XLf9eT-40" edge="1">
          <mxGeometry relative="1" as="geometry" />
        </mxCell>
        <mxCell id="LWCK1zUq5cx6b3XLf9eT-98" style="edgeStyle=orthogonalEdgeStyle;rounded=0;orthogonalLoop=1;jettySize=auto;html=1;exitX=0.5;exitY=1;exitDx=0;exitDy=0;" parent="1" source="LWCK1zUq5cx6b3XLf9eT-40" target="LWCK1zUq5cx6b3XLf9eT-40" edge="1">
          <mxGeometry relative="1" as="geometry" />
        </mxCell>
        <mxCell id="LWCK1zUq5cx6b3XLf9eT-101" value="" style="edgeStyle=orthogonalEdgeStyle;rounded=0;orthogonalLoop=1;jettySize=auto;html=1;" parent="1" source="LWCK1zUq5cx6b3XLf9eT-51" target="LWCK1zUq5cx6b3XLf9eT-99" edge="1">
          <mxGeometry relative="1" as="geometry">
            <mxPoint x="1380" y="758" as="sourcePoint" />
            <mxPoint x="920" y="755" as="targetPoint" />
          </mxGeometry>
        </mxCell>
        <mxCell id="LWCK1zUq5cx6b3XLf9eT-99" value="VMAgent" style="rounded=1;whiteSpace=wrap;html=1;fillColor=none;strokeColor=light-dark(#000000,#000000);strokeWidth=5;fontSize=30;fontColor=light-dark(#000000,#000000);" parent="1" vertex="1">
          <mxGeometry x="1015" y="710" width="260" height="90" as="geometry" />
        </mxCell>
        <mxCell id="LWCK1zUq5cx6b3XLf9eT-102" value="" style="endArrow=classic;html=1;rounded=0;strokeWidth=3;strokeColor=light-dark(#000000,#000000);exitX=1;exitY=0.5;exitDx=0;exitDy=0;entryX=0;entryY=0.5;entryDx=0;entryDy=0;" parent="1" source="LWCK1zUq5cx6b3XLf9eT-99" target="LWCK1zUq5cx6b3XLf9eT-51" edge="1">
          <mxGeometry width="50" height="50" relative="1" as="geometry">
            <mxPoint x="1320" y="820" as="sourcePoint" />
            <mxPoint x="1440" y="820" as="targetPoint" />
            <Array as="points" />
          </mxGeometry>
        </mxCell>
        <mxCell id="LWCK1zUq5cx6b3XLf9eT-107" value="&lt;font&gt;&lt;span style=&quot;font-size: 30px;&quot;&gt;tcp:1111–8888&lt;/span&gt;&lt;/font&gt;" style="rounded=1;whiteSpace=wrap;html=1;fillColor=none;strokeColor=light-dark(#000000,#000000);strokeWidth=5;fontColor=light-dark(#000000,#000000);" parent="1" vertex="1">
          <mxGeometry x="660" y="800" width="260" height="60" as="geometry" />
        </mxCell>
        <mxCell id="LWCK1zUq5cx6b3XLf9eT-108" value="&lt;font&gt;&lt;span style=&quot;font-size: 30px;&quot;&gt;tcp:8080&lt;/span&gt;&lt;/font&gt;" style="rounded=1;whiteSpace=wrap;html=1;fillColor=none;strokeColor=light-dark(#000000,#000000);strokeWidth=5;fontColor=light-dark(#000000,#000000);" parent="1" vertex="1">
          <mxGeometry x="1770" y="960" width="260" height="60" as="geometry" />
        </mxCell>
        <mxCell id="LWCK1zUq5cx6b3XLf9eT-110" value="" style="shape=image;verticalLabelPosition=bottom;labelBackgroundColor=default;verticalAlign=top;aspect=fixed;imageAspect=0;image=data:image/webp,UklGRkQVAABXRUJQVlA4TDgVAAAv/8F/EO+ntm0bhv9f7tQ5QkBQIknxlYnMOo6Ctm2khD/s/XcEImIC3KdvmqlSqqSaEDSkSQx0zRswMvNTUAF621gDAFp12uwgCSnyra5zH1J3Une3udTd51vdO9/q3ilMv7m7+wahLnMfUBJ0BO6fQnLPOfe8l/f+RfSfFmxbcVtpc04VHuInCXdii+mK/qNC27aqvbmBT4WjmBPPjC5fXDSDivxj4xMZD5WVze9qudXMrSLN3F5V+Mbrd+9Z65ReRP8lsY3kSJIW2vPeX3Q1ZvQs6X8Z/Wf0n9F/RqnxXdRv4pL79z3/Qf6Jv4qKKpUKFxUV/Zj/0Su5m5dOHt6ukYsl8eIxtz/8xd+KnAq/zF1/TVuv23xuu2k7vqxSrOm/gtwbsxu4Q5IHrP2oXBlK/329eXwTMfj9jpz47qs/rFKGU833Dw7xSSA7WNrXcZM2Yf9fSkgqfX5Ga/NWymEr7fpXKpWoVPPRgtam7aiVNOapciUw1Xwwq6FJO2v5GjVq5AVIbNTq/LadBoybs2Jz7rsHKkTcUf7EoHhTjiInn1plX79i/xch43f8eGczI44qx5/iLxi34pljZjOVj3Tht0buIJ0xcNVbZSbv+HhUHK+1cg3J0+X2dyrNZfKvS2Q0Qm4ipQx/8KCxzPGJCVxGyWWkcxZ9XGMoc2hiAovdkADOXPB+2Ezm+0EMdksCaLXoOzOZt7JItZ0B/NaG/OBKUpethSZUva0xYUeafqQUIetOUtKVH5rI/D0pjnACNMd1CaD9zjIDmY8y8XsRt8qFCZre+bOBBiqrCe3Upv7nwgSeiYf4M4HO+J0YXk55MReTEq4J8N+5xoPeh14lbiwLEDf2G/bMFxeid6HTv+5MEHfFUW4FZ6L3IP03dwaAZ/5f3JmcVOwOXPIz2u4npa0OMevgpdjtP+8X5FNcUWr9KLNCV2E3/6I/UHm3lAYe4lXtvdjKyKxC12YAz6Igb+b1M5Bb3y2otatKZ73C3CbpXGwtdKnGbitNLmbVX92wZyCro76a+0ot/8+qshHIbZ8WLe/K0hX/cio8Hbnp97o6A5z9Meu/eCvyVGauqzNAwqowZ+Yu3JY3+KzObi71+41TdyMbNeS5OwM0f41T9yF/d4HbS/Fraxl1D7jTNLKEUStcqi45zKjbXKqavMX4j85wqUp8irFbykiXKs+njGOWdXGpyqphrIS6wKXqHcYXONzQnbJIMaZXE1wpwxRnutd+eEnZSnplSdBXI/Ie2hvshkH24l+OlJi5jpeyLJv50nTYXnhUgmYn88E9+j9b4WZ78Rcbgib1b/YeSbZSdXrKXrhTgmY1//GdZSPssxe/PQmawWF+yi61DTrW2AvToM0OKgPpG69NEPeRvXgRVKXW2QQT7cU/7I0Zf0iZIdzTHj4v/2Yv3Gd4O2cFhM8OuMte/PlqVpVaYwNcUGkvXKZVVXdwgRUOfsPz1nwe7ywqHA4H/XbDaaazqHAgVhU2dRQVDsQqtc1BVDgstuefEMDP+0QMDjE5X2t9zsPgEKtd69TC4BC7XV9bKmFwiN2u9aqCwWE95rjY36sJ4uOJk8FhY8zM11pvKRkczq+Ioa4fLjcyOLygYqhrvdbjKYnwBoeBStnbT4jj3f4+k8k70Q0OiQGlYmi+1npRx+Bwk1IqBuTz5l7ghYtmfMfC8zYGh+bFp7F9V82Jjzi/N4UlwpFDnfFUeIPDHnUau3eoT7SN7VHOwNPogwP6uNi0sQPJT+eYpXCjicEh7kNVh62/GmIs4TcZtvSuicHhemVf9AyaMmRUM5x8XipicPg1ApsSl430Sj8PPTj8moqpcFAR2PcDIb+Zb3rPiBgcIrEtmTHAEoY/wOs9DA7RsOUH8dNIpPzB0ARdw+AQBRuTEQPMZzj3SDw47KKF5gJ2JiMGzwn6kNQ7JAwOGuzzB3jmD5zMMCa9g8EhOvabpU4h5TlJ5lUHg0NUbE4GDDCbfnOLgcEhOnYnAwbvT+SCuG1gcLAjevnZfiDkNz809bMCBgd5SIkPGC1+Q2oROYDJFfiDg0wExwfcUxs3gIhT/hfwBwcN9lHRTBK7oU0VlQf0g4MO22hnQBS3AZ4gBytFPzhIR2R8wP4Qe9gI3ckv2jq2VzhoCeMqI44s78zh31LL45qYXuGgJ4aLzFjEbJhDZWtMr3DQE8I1hjzijh8/LUjku1he4YAgAvWScf0Iu6mjEKXF8AoHa2Hp+ID91CIZFLsrHDD0r1TFHSdyR0yscPg/rsIBQ/fK1SoiT8boCocbFIrej5cI1gW1xB7oMbrC4TccnZ8uEq3PiSdkUmJ0hQOOvg+XydatxGLpHvsqHK7FHJcKJF2fLRSuc4k3J0vkRbupcOA7Lj0fLRWvr4kz78TkCgcsHZ8slq8lxO5nsbjCAU2/B8stoCwaBbG4wgFNt/cVsIR+IlERxzs44IntthJ9DLOdtk8teAcHPGDCCBqdcAcHAmBCMq354VjcwYEAmAAfkVjQFjfYYIUDhcCUHqTABtjBgQSZ0JfETtjBgQSZ4Kug8Czr4EAjNGU/8B7W4PBJHPtxQRPuJQUpjTo4EEETxlP4gXRwoIImtKLwJ+ngQAVNgJ8pJQQ1OCxCVTiQYRNeoJydAR0cyLAJayh7uAxzcKATlJZ44gRzcKDDJpxPA/HlBsUAmxAXIrA8LrobRNgE+C7Gs1FxACfkUp4SF90NIrHZ9PHD/0pcdDeIwAnX4jlFyEDFA5zQA89vgCQWMAEntMFzDJCbFBNwQjy+7en3fDQv5gJOgBNo3uZjr+KCTngfzdN81LBBJzyFD0SLD8UGnbAFH4uiB+iE5Wjme4BOmI1mtAfohCvRtPcAnTAUTZMGflxtJ5mDTuiJDkcbPEAnZKK7nTgI6ISz0d0OHQR0Qgt0MOIOAjqhMToIQQcBnZCKpZuDgE7wYiceSXEQ0Anx2A5a4CCgEzxIHncS0Ak+JDc7CeiEFCT9nQR0whnICxFIdRLQCc2Q1yIDTgI64Twcmx0FdEIWjqsdBYHY08Gj2lbWp/r7x9fPHJp+XqNUgNRG56UPm7X+ibxqi0InDETGnWBt/s2Z1x25snoNeszPLbQgdMKVKO63APtC+O5Oa3sQO7wnZK/Lw4+UtksodMJc3CUIyGclNmKmwp0defYo/a4/ccXWG26VSQBasN15RbJ4VtVNfB7U8+GYRMaT5WM/RuR7AMAykdAJmzC8DNJZWW+7epbolsxsAPdu+V+q1ebr0q22w6muNRiCzEzprEL9J/mWkWbuHd7R5qEuKxA64QPM0NwthUDM67LHrjC1a6OOa/L1s/KgE05ipuQFIVDykYp4sYrbvQbX4+rOimj5yKw46IyrRHCLbFbqTnqdzua3M7t36d9E5qNlpQEntMDcPlMKeOtUvMlrfPSgVSWnrZMw4IQuqAlnJLNKxGW9sGz6MlnACdcimCGZldY5mreKAk5YiQg6sLFg9lrpcO6RBJzwOCbiGLlYamVT/CFJwAlf6BkoCCsrO6gkAWdcieC485VptRxy2/63DxWVKhUqOvjWvtsGt+A91y+KaJQ/78RSEIRJ+UZvPYTqC7NlVBJbVY8s2IQx+tmmWknCmOIGPlpCGAz7kf5xLME4C4NNWKHlERCEqaPdYA55vS0LZvvo0ZhLg014WnK0EWaOt2fmrywL5nG7jxiMuzjYhJ8kx5xv5IgPO8F2gWxD8fQoUfJgs4XSMc4aqKJUAVNU7iVE1CwQNGG09pN9vEVYh/+bUaLMF9sGiaAJ6/XXW24NvvUCQeaLzfOVQNCEd7TXnWgNKrMAKDJfbOnl8kDTW6ZhOliD2wFoMl9sS+QRlwKDTz3ptQbHk4Aq48XmPSoOMmGptrOpNRgNQJbxYhsnDjLhDU2syfHW4B0ABhkvtjekQaZP88gwsAS17YFFpoutY60wwIShunnGrMHLADwyXWyvC6MPIzhyFs6yCH7grDkO/X/J6EuaJyU1v2T0kufrNSQKZnOFUyUMMOFIVLaANfgQgE1VTwzUfA3yDnqiis0An8gCzAuj9/huIhCuV9mHbYeQier71jIT+1dqN4IJsuASbo3KHLAGf3kQ62TD1haRWNE8XI/3b1FwCZ9JX3cOngXP8x5XKuhHw/gR5RjihNkmUXDZJtrXs+p2YBHa4gY9OZ01m0deKFUHUWAJc8WvPA7LVOa+X1R9mbb6DTFMVb4k2jeCGw4c9FmFNfg5L4PZ5h7FL57SeklgeXZNlPu6glXogfvtwJDlaWN4QN8a2S8JKuHOqJ2BrUJhgpb+Sil0lr9/gf59m1AoCCohEKUZkMcy5ICWR5RS9CxbC+N9iOn0BUEh4ZN5WTpYhrn6QWNOKY2MWhUnaVkoCChhWyRTQCwMU5mNrNss3INmOpeN0G+XHL6CskFRlAtMsQ7VDbRsVlplso6Wri/2TfqYqqul8PU5JmGSFdadjeFapvQdzKpasAYNU0kfKjufDrvwUcRhyQIL8bj+rVOr5VHevcrRN2hpqt8wOuxmRRTWVWAl1tHXmqkv6vhsKigtLXgoE8Ng/Vbrh63dSAdd2B+5vF6WYiZ5bKhTHj1J2yPOjYW3ehHbFNRyk/7K6uig26yiHm8mWIsh5F6GTyPeWu9Gba6K0PNa9ugXU5lOFHZ9r/mChmAtMrS8RR/udIeitYtapuUN/XxKdMj1/VHH7+eAxThLyyH97yXiCnqGM7SM1XJAf1lFdEhFVveVdQOr0VTL31rOp7YdeUDLZfr/ywr6rzV0wE08UX/dWS1HspZSLY20HKCeWGhJPj+YSqd5oytTWTsNLEdtnJYwOc7VkPaspP5TqZawfj79WjLcxgfqXVWIDRKkxkHewDzYwtVKqeUAYD83GnPfaGX+BrYJhyJXntr2nvKQdi5E8lP+4n8KtTC5btmhrcnZ+t8r5MkOMzV/mMLp5BcK8L8QtZ6Tai1YlAxy93DEgphvpdUrw3LyYglk0YEWFqqVYBnIv1f20M87e9+OOi+dh37eWd/7bAQdaBv+cwtYlpnk69Eo8SC0JRzx6CbENiWFyJcSN4cOs3D3VLAu6+n1zv0w257xQCAUCtyPaho5hB4pyV10mG0xACzME/rKz1otj5mNl71W33E6l05MNsSDlckD8g9WteSkZRV9rwroxGQDWJpwMrlzcDDLaLvTh/TtTsN0HK+BodvZCFHtzhFjD/RSdByvgSGSXU8hvthMDE5V5NWymAGJ1kMuovWjttiMag9iQg0GBNoPRfqaxb6S+p3qpx5OLGZAngWhEOubm6frd24yGwDEIwyIsyLW6pkpZ9yJGYj5JziQZkfkIU4e/2x+3JkS9LgzAQ6EWRKqHaIFrIBxp0qQgZJ0VKxU9RFgTTygx3NUxrhzRz16NvMyzxnYsuNODpIw7mQJatzJf1gpSHCoBq6Lmd7jNz/ubPYezP+JF8XKQvNWxWec407nDE7SfEQdkss57vSnvKQbtytUL95x559fOuaSFj5fy0vHLn2+lPX7aX/FS4pp2+JVpo8SQUqbUB7eZCYVt65/jNZFbQcum1Unpbhv4MRmX6h3mWxY73GzCJBisjHUWBYb1uWKm8OJWLHYGSd8DDaspGPsqPno9z+DpaHuoNu0lip+qvqg//6RrY3KLKpNK72CD4b96Bkk2hvqOy/NpuX9XjHCIpKdHGoDycZ1l+KER7HX9hl3xh4RcWcwCW1nR2lv/KYOOcbF0cEy4k7hEtJOCu5i80w8ycEvi5IAKGKETSg7K9iLzTcrQCVvRhIA0MQHnxB2Whgotr77igmfWPbW+5tFFhuM0tp5YaLYvCM2BWoRVVb5Dw33AgCLuOCUMzMY/8TeZMDNe14/8O8ppU79W/D67psG1I+HkktMsCqqHR3m2xiyigdeGROwto5YYBaqnI87lVu/0x7qLuuwSrHALlAJHnfyKsUDt06eKL5gyfY8tSnJNJ5VJX2Qa2kgb9zZ4gusEN0GA+3NkvEN4o2ySnHhYNTf485fkmQO39JKRH+EVYoNmpws6i7MuBE/TzR23QknMG+UVYoPJ6Men3fGOx1N0KleA3PtiouuUoxQ5WRRd+Eq9D4eZfi6U8r6RaymIieORp0+75xPJ3j5SLoCsWqGod71FtORFbrMou7CBoddtNPP9F3jrsi4krTZVYoXR6Oen3dW/np/Ao3EXhsC+DfKfsWM45Uyl4qeWpiNvPKplOxFTxdLuu40xytlNoUDORvnDM84v3EaQFqT8zNGzNmYEwhLu+48ZyPG550Yc6UvBwFwKbOwKfvUr9JPHf3nP2x4ui6iYL2M/jMCSP6vOxr9Z+wQpO6Arq47Ca07oGTC7g4okri7A3ok8O6AFgm9O6BEYu8O6JDguwMaJPzugAKJvzugPwC6A9oDoTugPBi6A7oDojugOSi6A5p7B0R3QHUfhaE7oLrrThi6A7q77gihO6C7684YugO6A6E7oDsQugPKg6A7oD0AugPaA6E7oDwYugOqA6I7oDoougOKA6M7oDg4ugNqg6Q7oDRQugNKA6Y7oLHrTmC6AyoDpjugMXC6AwoDpzugL8x0B/yFETXdAR8xYqY74BcbEFHTHXChEKKmO+DbE0TUdAecFkLUdAdcLISo6Q74w15C3HQHvFcIUdMd8JOVhLjpDni5AOKmO+ArS+B+HvyGm+6AvxwugLjpDviwAOKmO+AXGwCR0x1wofAhpzvg2xM+5HQHrNPCh5vugHWxAMLfHXDo4EAIf3fAoYMDIfzdAQcODojwdwccODggwt8dcNjgwAh/d8BhgwMj/N0BBw0OkPB3Bxxy0oAS/u6A0CcNVHQHbPOkQa66AzZ50iBZ3QFbPGmQre6ADZ40SFd3wPZOGuSrO2BzJw0S1h2wtZMGGesO2NjgkLLugG0NDjnrDtjU4JC07oAt3WIoa90BGxoc0tYdsJ3BIW/dAZsZHJLSHdAIT8qcyFx3wPYGh9m/z9nfdvF3B5w9OPDC3x1w5uAADFl3QCNcKsDwdwecNTgQw98dcNbgQIyJ7oD1YUHGRHfALzYwY6I74EJhRkR3wLcn0IjoDjgt0HjoDvikUKOhO+APe7HR0B3wXsHGQnfAT1ZyY6E74KXCDX93wDmdNEhld8C/7qRBXh936lxOGiSzO+A8ThpkszvgHE4apLM74KCTBknuDjjspEGOuwMOPGmQ4u6AQ28xlOHugINvMZTQ7oD833jy1x1QwHn2nHUHFEbGugOKI1/dAQWSku6AIgn5eSeO/jP6iOtPo/+M/jP6zxg1AA==;" parent="1" vertex="1">
          <mxGeometry x="60" y="855" width="161" height="161" as="geometry" />
        </mxCell>
        <mxCell id="LWCK1zUq5cx6b3XLf9eT-111" value="" style="shape=image;verticalLabelPosition=bottom;labelBackgroundColor=default;verticalAlign=top;aspect=fixed;imageAspect=0;image=data:image/webp,UklGRkQVAABXRUJQVlA4TDgVAAAv/8F/EO+ntm0bhv9f7tQ5QkBQIknxlYnMOo6Ctm2khD/s/XcEImIC3KdvmqlSqqSaEDSkSQx0zRswMvNTUAF621gDAFp12uwgCSnyra5zH1J3Une3udTd51vdO9/q3ilMv7m7+wahLnMfUBJ0BO6fQnLPOfe8l/f+RfSfFmxbcVtpc04VHuInCXdii+mK/qNC27aqvbmBT4WjmBPPjC5fXDSDivxj4xMZD5WVze9qudXMrSLN3F5V+Mbrd+9Z65ReRP8lsY3kSJIW2vPeX3Q1ZvQs6X8Z/Wf0n9F/RqnxXdRv4pL79z3/Qf6Jv4qKKpUKFxUV/Zj/0Su5m5dOHt6ukYsl8eIxtz/8xd+KnAq/zF1/TVuv23xuu2k7vqxSrOm/gtwbsxu4Q5IHrP2oXBlK/329eXwTMfj9jpz47qs/rFKGU833Dw7xSSA7WNrXcZM2Yf9fSkgqfX5Ga/NWymEr7fpXKpWoVPPRgtam7aiVNOapciUw1Xwwq6FJO2v5GjVq5AVIbNTq/LadBoybs2Jz7rsHKkTcUf7EoHhTjiInn1plX79i/xch43f8eGczI44qx5/iLxi34pljZjOVj3Tht0buIJ0xcNVbZSbv+HhUHK+1cg3J0+X2dyrNZfKvS2Q0Qm4ipQx/8KCxzPGJCVxGyWWkcxZ9XGMoc2hiAovdkADOXPB+2Ezm+0EMdksCaLXoOzOZt7JItZ0B/NaG/OBKUpethSZUva0xYUeafqQUIetOUtKVH5rI/D0pjnACNMd1CaD9zjIDmY8y8XsRt8qFCZre+bOBBiqrCe3Upv7nwgSeiYf4M4HO+J0YXk55MReTEq4J8N+5xoPeh14lbiwLEDf2G/bMFxeid6HTv+5MEHfFUW4FZ6L3IP03dwaAZ/5f3JmcVOwOXPIz2u4npa0OMevgpdjtP+8X5FNcUWr9KLNCV2E3/6I/UHm3lAYe4lXtvdjKyKxC12YAz6Igb+b1M5Bb3y2otatKZ73C3CbpXGwtdKnGbitNLmbVX92wZyCro76a+0ot/8+qshHIbZ8WLe/K0hX/cio8Hbnp97o6A5z9Meu/eCvyVGauqzNAwqowZ+Yu3JY3+KzObi71+41TdyMbNeS5OwM0f41T9yF/d4HbS/Fraxl1D7jTNLKEUStcqi45zKjbXKqavMX4j85wqUp8irFbykiXKs+njGOWdXGpyqphrIS6wKXqHcYXONzQnbJIMaZXE1wpwxRnutd+eEnZSnplSdBXI/Ie2hvshkH24l+OlJi5jpeyLJv50nTYXnhUgmYn88E9+j9b4WZ78Rcbgib1b/YeSbZSdXrKXrhTgmY1//GdZSPssxe/PQmawWF+yi61DTrW2AvToM0OKgPpG69NEPeRvXgRVKXW2QQT7cU/7I0Zf0iZIdzTHj4v/2Yv3Gd4O2cFhM8OuMte/PlqVpVaYwNcUGkvXKZVVXdwgRUOfsPz1nwe7ywqHA4H/XbDaaazqHAgVhU2dRQVDsQqtc1BVDgstuefEMDP+0QMDjE5X2t9zsPgEKtd69TC4BC7XV9bKmFwiN2u9aqCwWE95rjY36sJ4uOJk8FhY8zM11pvKRkczq+Ioa4fLjcyOLygYqhrvdbjKYnwBoeBStnbT4jj3f4+k8k70Q0OiQGlYmi+1npRx+Bwk1IqBuTz5l7ghYtmfMfC8zYGh+bFp7F9V82Jjzi/N4UlwpFDnfFUeIPDHnUau3eoT7SN7VHOwNPogwP6uNi0sQPJT+eYpXCjicEh7kNVh62/GmIs4TcZtvSuicHhemVf9AyaMmRUM5x8XipicPg1ApsSl430Sj8PPTj8moqpcFAR2PcDIb+Zb3rPiBgcIrEtmTHAEoY/wOs9DA7RsOUH8dNIpPzB0ARdw+AQBRuTEQPMZzj3SDw47KKF5gJ2JiMGzwn6kNQ7JAwOGuzzB3jmD5zMMCa9g8EhOvabpU4h5TlJ5lUHg0NUbE4GDDCbfnOLgcEhOnYnAwbvT+SCuG1gcLAjevnZfiDkNz809bMCBgd5SIkPGC1+Q2oROYDJFfiDg0wExwfcUxs3gIhT/hfwBwcN9lHRTBK7oU0VlQf0g4MO22hnQBS3AZ4gBytFPzhIR2R8wP4Qe9gI3ckv2jq2VzhoCeMqI44s78zh31LL45qYXuGgJ4aLzFjEbJhDZWtMr3DQE8I1hjzijh8/LUjku1he4YAgAvWScf0Iu6mjEKXF8AoHa2Hp+ID91CIZFLsrHDD0r1TFHSdyR0yscPg/rsIBQ/fK1SoiT8boCocbFIrej5cI1gW1xB7oMbrC4TccnZ8uEq3PiSdkUmJ0hQOOvg+XydatxGLpHvsqHK7FHJcKJF2fLRSuc4k3J0vkRbupcOA7Lj0fLRWvr4kz78TkCgcsHZ8slq8lxO5nsbjCAU2/B8stoCwaBbG4wgFNt/cVsIR+IlERxzs44IntthJ9DLOdtk8teAcHPGDCCBqdcAcHAmBCMq354VjcwYEAmAAfkVjQFjfYYIUDhcCUHqTABtjBgQSZ0JfETtjBgQSZ4Kug8Czr4EAjNGU/8B7W4PBJHPtxQRPuJQUpjTo4EEETxlP4gXRwoIImtKLwJ+ngQAVNgJ8pJQQ1OCxCVTiQYRNeoJydAR0cyLAJayh7uAxzcKATlJZ44gRzcKDDJpxPA/HlBsUAmxAXIrA8LrobRNgE+C7Gs1FxACfkUp4SF90NIrHZ9PHD/0pcdDeIwAnX4jlFyEDFA5zQA89vgCQWMAEntMFzDJCbFBNwQjy+7en3fDQv5gJOgBNo3uZjr+KCTngfzdN81LBBJzyFD0SLD8UGnbAFH4uiB+iE5Wjme4BOmI1mtAfohCvRtPcAnTAUTZMGflxtJ5mDTuiJDkcbPEAnZKK7nTgI6ISz0d0OHQR0Qgt0MOIOAjqhMToIQQcBnZCKpZuDgE7wYiceSXEQ0Anx2A5a4CCgEzxIHncS0Ak+JDc7CeiEFCT9nQR0whnICxFIdRLQCc2Q1yIDTgI64Twcmx0FdEIWjqsdBYHY08Gj2lbWp/r7x9fPHJp+XqNUgNRG56UPm7X+ibxqi0InDETGnWBt/s2Z1x25snoNeszPLbQgdMKVKO63APtC+O5Oa3sQO7wnZK/Lw4+UtksodMJc3CUIyGclNmKmwp0defYo/a4/ccXWG26VSQBasN15RbJ4VtVNfB7U8+GYRMaT5WM/RuR7AMAykdAJmzC8DNJZWW+7epbolsxsAPdu+V+q1ebr0q22w6muNRiCzEzprEL9J/mWkWbuHd7R5qEuKxA64QPM0NwthUDM67LHrjC1a6OOa/L1s/KgE05ipuQFIVDykYp4sYrbvQbX4+rOimj5yKw46IyrRHCLbFbqTnqdzua3M7t36d9E5qNlpQEntMDcPlMKeOtUvMlrfPSgVSWnrZMw4IQuqAlnJLNKxGW9sGz6MlnACdcimCGZldY5mreKAk5YiQg6sLFg9lrpcO6RBJzwOCbiGLlYamVT/CFJwAlf6BkoCCsrO6gkAWdcieC485VptRxy2/63DxWVKhUqOvjWvtsGt+A91y+KaJQ/78RSEIRJ+UZvPYTqC7NlVBJbVY8s2IQx+tmmWknCmOIGPlpCGAz7kf5xLME4C4NNWKHlERCEqaPdYA55vS0LZvvo0ZhLg014WnK0EWaOt2fmrywL5nG7jxiMuzjYhJ8kx5xv5IgPO8F2gWxD8fQoUfJgs4XSMc4aqKJUAVNU7iVE1CwQNGG09pN9vEVYh/+bUaLMF9sGiaAJ6/XXW24NvvUCQeaLzfOVQNCEd7TXnWgNKrMAKDJfbOnl8kDTW6ZhOliD2wFoMl9sS+QRlwKDTz3ptQbHk4Aq48XmPSoOMmGptrOpNRgNQJbxYhsnDjLhDU2syfHW4B0ABhkvtjekQaZP88gwsAS17YFFpoutY60wwIShunnGrMHLADwyXWyvC6MPIzhyFs6yCH7grDkO/X/J6EuaJyU1v2T0kufrNSQKZnOFUyUMMOFIVLaANfgQgE1VTwzUfA3yDnqiis0An8gCzAuj9/huIhCuV9mHbYeQier71jIT+1dqN4IJsuASbo3KHLAGf3kQ62TD1haRWNE8XI/3b1FwCZ9JX3cOngXP8x5XKuhHw/gR5RjihNkmUXDZJtrXs+p2YBHa4gY9OZ01m0deKFUHUWAJc8WvPA7LVOa+X1R9mbb6DTFMVb4k2jeCGw4c9FmFNfg5L4PZ5h7FL57SeklgeXZNlPu6glXogfvtwJDlaWN4QN8a2S8JKuHOqJ2BrUJhgpb+Sil0lr9/gf59m1AoCCohEKUZkMcy5ICWR5RS9CxbC+N9iOn0BUEh4ZN5WTpYhrn6QWNOKY2MWhUnaVkoCChhWyRTQCwMU5mNrNss3INmOpeN0G+XHL6CskFRlAtMsQ7VDbRsVlplso6Wri/2TfqYqqul8PU5JmGSFdadjeFapvQdzKpasAYNU0kfKjufDrvwUcRhyQIL8bj+rVOr5VHevcrRN2hpqt8wOuxmRRTWVWAl1tHXmqkv6vhsKigtLXgoE8Ng/Vbrh63dSAdd2B+5vF6WYiZ5bKhTHj1J2yPOjYW3ehHbFNRyk/7K6uig26yiHm8mWIsh5F6GTyPeWu9Gba6K0PNa9ugXU5lOFHZ9r/mChmAtMrS8RR/udIeitYtapuUN/XxKdMj1/VHH7+eAxThLyyH97yXiCnqGM7SM1XJAf1lFdEhFVveVdQOr0VTL31rOp7YdeUDLZfr/ywr6rzV0wE08UX/dWS1HspZSLY20HKCeWGhJPj+YSqd5oytTWTsNLEdtnJYwOc7VkPaspP5TqZawfj79WjLcxgfqXVWIDRKkxkHewDzYwtVKqeUAYD83GnPfaGX+BrYJhyJXntr2nvKQdi5E8lP+4n8KtTC5btmhrcnZ+t8r5MkOMzV/mMLp5BcK8L8QtZ6Tai1YlAxy93DEgphvpdUrw3LyYglk0YEWFqqVYBnIv1f20M87e9+OOi+dh37eWd/7bAQdaBv+cwtYlpnk69Eo8SC0JRzx6CbENiWFyJcSN4cOs3D3VLAu6+n1zv0w257xQCAUCtyPaho5hB4pyV10mG0xACzME/rKz1otj5mNl71W33E6l05MNsSDlckD8g9WteSkZRV9rwroxGQDWJpwMrlzcDDLaLvTh/TtTsN0HK+BodvZCFHtzhFjD/RSdByvgSGSXU8hvthMDE5V5NWymAGJ1kMuovWjttiMag9iQg0GBNoPRfqaxb6S+p3qpx5OLGZAngWhEOubm6frd24yGwDEIwyIsyLW6pkpZ9yJGYj5JziQZkfkIU4e/2x+3JkS9LgzAQ6EWRKqHaIFrIBxp0qQgZJ0VKxU9RFgTTygx3NUxrhzRz16NvMyzxnYsuNODpIw7mQJatzJf1gpSHCoBq6Lmd7jNz/ubPYezP+JF8XKQvNWxWec407nDE7SfEQdkss57vSnvKQbtytUL95x559fOuaSFj5fy0vHLn2+lPX7aX/FS4pp2+JVpo8SQUqbUB7eZCYVt65/jNZFbQcum1Unpbhv4MRmX6h3mWxY73GzCJBisjHUWBYb1uWKm8OJWLHYGSd8DDaspGPsqPno9z+DpaHuoNu0lip+qvqg//6RrY3KLKpNK72CD4b96Bkk2hvqOy/NpuX9XjHCIpKdHGoDycZ1l+KER7HX9hl3xh4RcWcwCW1nR2lv/KYOOcbF0cEy4k7hEtJOCu5i80w8ycEvi5IAKGKETSg7K9iLzTcrQCVvRhIA0MQHnxB2Whgotr77igmfWPbW+5tFFhuM0tp5YaLYvCM2BWoRVVb5Dw33AgCLuOCUMzMY/8TeZMDNe14/8O8ppU79W/D67psG1I+HkktMsCqqHR3m2xiyigdeGROwto5YYBaqnI87lVu/0x7qLuuwSrHALlAJHnfyKsUDt06eKL5gyfY8tSnJNJ5VJX2Qa2kgb9zZ4gusEN0GA+3NkvEN4o2ySnHhYNTf485fkmQO39JKRH+EVYoNmpws6i7MuBE/TzR23QknMG+UVYoPJ6Men3fGOx1N0KleA3PtiouuUoxQ5WRRd+Eq9D4eZfi6U8r6RaymIieORp0+75xPJ3j5SLoCsWqGod71FtORFbrMou7CBoddtNPP9F3jrsi4krTZVYoXR6Oen3dW/np/Ao3EXhsC+DfKfsWM45Uyl4qeWpiNvPKplOxFTxdLuu40xytlNoUDORvnDM84v3EaQFqT8zNGzNmYEwhLu+48ZyPG550Yc6UvBwFwKbOwKfvUr9JPHf3nP2x4ui6iYL2M/jMCSP6vOxr9Z+wQpO6Arq47Ca07oGTC7g4okri7A3ok8O6AFgm9O6BEYu8O6JDguwMaJPzugAKJvzugPwC6A9oDoTugPBi6A7oDojugOSi6A5p7B0R3QHUfhaE7oLrrThi6A7q77gihO6C7684YugO6A6E7oDsQugPKg6A7oD0AugPaA6E7oDwYugOqA6I7oDoougOKA6M7oDg4ugNqg6Q7oDRQugNKA6Y7oLHrTmC6AyoDpjugMXC6AwoDpzugL8x0B/yFETXdAR8xYqY74BcbEFHTHXChEKKmO+DbE0TUdAecFkLUdAdcLISo6Q74w15C3HQHvFcIUdMd8JOVhLjpDni5AOKmO+ArS+B+HvyGm+6AvxwugLjpDviwAOKmO+AXGwCR0x1wofAhpzvg2xM+5HQHrNPCh5vugHWxAMLfHXDo4EAIf3fAoYMDIfzdAQcODojwdwccODggwt8dcNjgwAh/d8BhgwMj/N0BBw0OkPB3Bxxy0oAS/u6A0CcNVHQHbPOkQa66AzZ50iBZ3QFbPGmQre6ADZ40SFd3wPZOGuSrO2BzJw0S1h2wtZMGGesO2NjgkLLugG0NDjnrDtjU4JC07oAt3WIoa90BGxoc0tYdsJ3BIW/dAZsZHJLSHdAIT8qcyFx3wPYGh9m/z9nfdvF3B5w9OPDC3x1w5uAADFl3QCNcKsDwdwecNTgQw98dcNbgQIyJ7oD1YUHGRHfALzYwY6I74EJhRkR3wLcn0IjoDjgt0HjoDvikUKOhO+APe7HR0B3wXsHGQnfAT1ZyY6E74KXCDX93wDmdNEhld8C/7qRBXh936lxOGiSzO+A8ThpkszvgHE4apLM74KCTBknuDjjspEGOuwMOPGmQ4u6AQ28xlOHugINvMZTQ7oD833jy1x1QwHn2nHUHFEbGugOKI1/dAQWSku6AIgn5eSeO/jP6iOtPo/+M/jP6zxg1AA==;" parent="1" vertex="1">
          <mxGeometry x="60" y="1030" width="161" height="161" as="geometry" />
        </mxCell>
        <mxCell id="zULvW_X-Gff7D0ABrv8q-1" value="KASPA NODE" style="text;html=1;align=center;verticalAlign=middle;whiteSpace=wrap;rounded=0;fontColor=light-dark(#000000,#000000);fontSize=50;" vertex="1" parent="1">
          <mxGeometry x="-29.5" y="530" width="340" height="30" as="geometry" />
        </mxCell>
        <mxCell id="zULvW_X-Gff7D0ABrv8q-3" value="Backup Sevice" style="rounded=1;whiteSpace=wrap;html=1;fillColor=none;strokeColor=light-dark(#000000,#000000);strokeWidth=5;fontSize=30;fontColor=light-dark(#000000,#000000);" vertex="1" parent="1">
          <mxGeometry x="660" y="1250" width="260" height="90" as="geometry" />
        </mxCell>
        <mxCell id="zULvW_X-Gff7D0ABrv8q-6" value="" style="shape=image;verticalLabelPosition=bottom;labelBackgroundColor=default;verticalAlign=top;aspect=fixed;imageAspect=0;image=data:image/png,iVBORw0KGgoAAAANSUhEUgAABAAAAAOTCAYAAAAhSHHgAAAABGdBTUEAALGPC/xhBQAAACBjSFJNAAB6JgAAgIQAAPoAAACA6AAAdTAAAOpgAAA6mAAAF3CculE8AAAABmJLR0QA/wD/AP+gvaeTAAAAB3RJTUUH6QUeEx0X52a7xAAAgABJREFUeNrs3XeAXWWduPHnvfdOySSTZCa9EkIahCqggohEkkmCFAUSd9VF2V11f65KQARFhJEOIgnYwF63TAiKuJCZRGFXCTWA0pIgJbQESE9ImZl7398fWEASMrlnyi3P569dhJk7zzlz7nm/c+45AUmS/qJxTDX0HkkqPYwUI4lxKDAKGAoMA2qBSgK9iVQBNUA10Mt4UpfbAWwF2glsJhKBDUAb8DIhvEjMrYawGsIqIi+RSz9H44Mvmk6SBBBMIEll6IZDK1jVOopMmEzkUIj7EZlMYCKQNpBUYoODyJMEHoXwGCE+So6n6L/tET77px3mkSQHAJKkUtJ4yHBS2aMJ8SjgaGBfIGMYqay9Sgj3kot3EllCTN9F40MbzCJJDgAkScXkkv1HEcNUAkcTeTewj1Ek7UYOeAy4E8JisltbaPzTJrNIkgMASVKhueigyYTc8RBOgHikx3hJCWUh3A3xFtLczHkPLzOJJDkAkCT1hKZZaZYvmwK8HzgBGG0USV3oUQi/gtxP+fIjj5tDkhwASJK62sUHTgT+kRA/SmSMQST1gKUQfkq24uc0Ll1jDklyACBJ6iyNB/cnnf0g8FHgCINIKhDbgV9A/BHZRxbTSM4kkuQAQJKUj4sOOIAUc4h8CKg2iKQCthz4GtnNP6Xxme3mkCQHAJKkjrjkoKOI8VyI7/NYLanIvAzh26Rbv855y9aaQ5IcAEiS/l7jmGpSfT8C8UwC+xlEUpHbAvH7BL7G+Y88Zw5JcgAgSbrh0Apeaj2dwAXACINIKjGtxHA9udSFND60wRyS5ABAkspPIykyB5wCXEZknEEklbh1wFVkN1/rPQIkqWekTSBJ3SwSqDjwBMLg/wY+A9QbRVIZ6AVMJVX1UaYMeZX3vPwgdxDNIkndxysAJKk7NR13ANnWq/jTS+8Cag0iqRz1S+c2r37bY3dWp+M5YRoPW0SSukfKBJLUHQv/Wb2YP6ORVPZ+KtIz6Nf7AaNIKttD4riVD1Sn4gwiD8QWro3N9LaKJHU9rwCQpK62oOFoYrgBmPTXfxZjK8tXv0iMYwwkqZxMqm599vGDlg8Bql73j58i8m9hOossJEkOACSp+Nx07ABi5hoi/7TT4+3Gbffy4vq3G0pSOXn2kGX3jqps29mxLwI/IcdZYQbrLCVJnc+PAEhSV1gwfQq5zENETmNXw9Z+vd5ORfp+Y0kqF7PqNz6wi8U/fz5WfpTAo3ER060lSZ3PKwAkqTPdfkyGNdXnE+L5dORJK9vbnuLpV0YBFcaTVMoyIbZvOuzRZ3qlYkceexqBr7OBz4fZtFpPkjqHVwBIUmf5xYwxrK36X0K8kI4+ZrW6Yiw1VUuMJ6nUzd1r1Z0dXPzDa3+k+iz9+X1sYbz1JKlzeAWAJHWG+dNPI/AN8nm0Xy63geWrchDqDSmpFA2qyK5/6dDHQoj0z+NsdTORT4UGfmZJSUrGKwAkKYnbj8mwYPoVBH6c1+IfIJXqT13tI8aUVKpuHr/y4bwW/wCRWuCncRE3xPv9uJQkJeEVAJKUr6bp9aRoAo7thK+WZfmqJ8nFCYaVVEre1nvbn5bu/6cxQKYTvtz/0c6p4Thesawk7TmvAJCkvBb/xx1AKtzXSYt/gDTD+m81rKRS8z8TntnUSYt/gKNJc1dsZn/LSpIDAEnqegumv49U9vcQx3bq1+3b62AqM3cbWFKp+NSQtXcPrWx/W6d+0cA+BO6KLXzAwpLkAECSus6NDWcSuQXo2yVff/SA4cB2Q0sqdtWpuGPu6FUjuujL9wFujIv4jKUlyQGAJHW++dPPhXANXXn/lIr0aPpUeRWApKL3vbHP31WZiqO69Dw2cl1s4QprS1LHeBNASdqdSODG6dcQmNMt3y8bX+WJVVuIDDG+pGI0rKLtlRcOWVYdQp5PR9nzM9pvcSefCY3krC9Ju+YVAJL0Vl57zN8Pum3xD5AOvRnU9wnjSypWCyc9s6LbFv8AkU9xBD/1MYGS5ABAkvLTNKsXaytvBj7W7d97QJ93kQ6PuhEkFZspfbcsO7Bm+5Hd/o0DH2I9N8XbqXYrSJIDAEnquBsOrSBsmg/huB56BYGR9RGIbgxJxSJAXDD+uTZ66mOmkeNp4+Z4K1VuDUlyACBJu9c0K83AAT8h8L4efR01VftTlVniBpFULL44/OUldZn2A3r4ZTSQ4T/i7WTcIpLkAECSdi0SSG+6nhj+oSBez6gB44HNbhhJha42nXv1opEvjyuQl3MybXwvNnquK0kOACRpVxZMv5rIvxbM66lID6ZfzVI3jKRC9/Nxz9+XDrGQnl7yUY7kWreMJDkAkKSdLf4vBc4quNc1rN87CWGlG0hSoRpfveO5E/pvfGcBvrRPxxYucgtJkgMASfqbGxs+SuS8gnxtIVQzpO8qN5KkQtU86ekXoGDvvv/luIiPu5UkyQGAJMGCae+CcENBv8a63u+kIvWAG0tSoXl/3aaH9q5qe2dBv8jIN2ML73FrSXIAIEllvfg/bi9i6iYogkdGjRzQF2h3o0kqFGli9j/2ebamCF5qBXBjXMxYt5okBwCSVI6ajulDzP4KGFwUr7e6Yhw1VT4WUFLBuGL06jt7peOEInm5A8lxU7ydPm45SQ4AJKmcNDamSFX9DDiwqF73yLoDgHVuQEk9rT6d3XDW0DX7F9nLPoh2furjASU5AJCkcnLA3ecBJxXd606n6qirecQNKKmnLZj47B9Sgfqie+GR93ME57oFJZWjYAJJ5XfWOuNwYryT1z4TWnwi7Sx/8Rki49yYknrCQTXbn3rogCdGFe1xFNpJcXSYyl1uTUnlxCsAJJWXpmP6EOPPi/ikFQIZhtdtcmNK6im3TXxmXVEfRyFDjp/FW+nr1pTkAECSSlW6+npgfNH/HH17vY1M+j43qKTu9s+D1t87rLLtsBL4UcaS5utuUUkOACSpFM2ffhoxfrhkfp7RA4YAO9ywkrpLZYit3xrzwuCS+YECp8VmPuyWleQAQJJKyYKpYwl8o6R+pqrMaHpX+/lVSd3mG2NeWFKVimNK6ocKfDM2s7dbV5IDAEkqFTH1daC25H6ukf0PI4SX3MCSutrQyrY1/zpo/dtK8EfrR+B6t7AkBwCSVApunPGPEI4rzaN4qg8D+qxwI0vqav8zceXjIZTsTfMa4iJmu5UllTofAyiptP1sZl+qco8TGF66P2TMsWz1cmLc1w0uqSsc2ffVZXfu+9R4IF26h1JWU8m+YQob3OKSSpVXAEgqbdW5y0p78Q8QUoyuaweiG1xSV7hlwrM7SnrxDxAYShsXu7UlOQCQpGJ047TDgH8ri5+1pvoAKjN3u9Eldbazhq5ZUp9uP6hMftxPxUW8060uyQGAJBWTpllpSN1Aqf/F6vVGDxgNvOrGl9RZeqVz264cvXpMmZ0bfzM2ldF7hyQHAJJU/Ee3jZ8A3lZWP3NFegT9qu9z40vqLD/e+/l7MyEOL6sfOvI2+vNxt76kUuRNACWVnl8c059c1RNEBpbdzx7jNpavXkeMI9wRJCWxV2XbqmcOWdYX6F2GP/46cowPM1jnniCplHgFgKTS0151YVku/gFC6MXgvivdCSQl1bzfM0+X6eIfoJ4057sXSCq5U0UTSCopNzZMgvBHoKKsO6xY/QeyuYPcISTlo6HfloebJz29f5mfK7aT4+Awg0fdIySVCq8AkFRiwjVlv/gHGFlfBeTcHyTlcXKYu3H8yjT+oShDYJ57hCQHAJJUiBZMfx8w0xBATeUkqiuWGELSnmoc+dKdtencfpYAAlNjC8cZQlLpHNYkqRTccGgFAwY+DEw0xp+1Zdfwp9WVEPoaQ1JH9E3ltqw//NFXUzDEGn/1J9rZPxzHDlNIKnZeASCpNAwc+FkX/3+nIj2QfjUPGkJSR/33hGeXuvh/k3Fk+HczSCoFXgEgqfjd1DCYXFgO9DfG34mxleWrXyTGMcaQ9FYmVbc++/hBy4cAVdZ4k01UMDFMYbUpJBUzrwCQVPxy4RIX/7sQQiVD+71sCEm707LvU6td/O9SX9r5ihkkOQCQpJ7UNO1g4J8N8Rb617ydivT9hpC0K6cM2PjgqMq2t1viLUT+NTZzqCEkOQCQpJ6SDvOAtCF2Y2R9PdBmCEl/LxNi+0/HPldriQ6cNweujdGP0EpyACBJ3e/G6bOJ4T2G6IDqirHUVPlYQElvMnevVXf2SsVxluiQd7GIU80gqVg5wZRUnJpm9SK16TFgjDE6KJfbwPJVOQj1xpAEMCCTXf/KoY/FAB4XOu45djApnMBWU0gqNl4BIKk4hU1nu/jf0yN+qj91tY8YQtJf3DJh5cMu/vfYKCo5ywySivIU2gSSik7T8SNItS0Hehtjj2VZvupJcnGCKaTydkjN9icfOOCJvYCMNfbYVgL7hmk8awpJxcQrACQVn3T7lS7+86/HsLpXzSDp1klPb3Dxn7caIpeaQZIDAEnqSk0zjiDGDxkigb7Vh5BJ32MIqXz9vyHr7h5a0e4j7ZL5cFzEUWaQ5ABAkrpCY2OKdJyHH19KbvTA4cB2Q0jlpzLE1nl7vTjUEokF4NrY6Pm0JAcAktT5Drj7NCJvN0QnqEqPorb6bkNI5ef7Y59fUhniGEt0gsjbOIJ/MoSkYuFf0SQVh6Zj+hCqlhMYboxOko2v8sSqLUSGGEMqD8Mq2l554ZBl1SFQa41O8xLtTAjHsckUkgqdVwBIKpKjVfWXXPx3snTozaC+TxhCKh8LJz2zwsV/pxtChi+YQVIx8AoASYVvwdSxxPSjQLUxOl1kxarHyMbJppBK27trtz7+f/s9ORH/ANQVWoH9QwMOVSUVNN8AJBXBEjX9NRf/XSYwsj4C0RRSKf+iE2+esLLdc78uUwlcaQZJDgAkKYmbGt4LvN8QXaiman+qMksMIZWuLwx/eUldpv0AS3SpD8QWGswgqZD5EQBJhatpVprUpgeAA43RxdrbV/PEy7VAb2NIpaUmldu68bDHNmRC9D4qXe8xKjgoTKHdFJIKkVcASCrgI9Smf3Px300ymaH0q77PEFLp+Y99nr/XxX+32Y9WPmEGSYXKKwAkFaafv6+O6vYVRAYao5vEuJ3lq14hMsoYUmnYu6r1xacOXt4fqLFGt1lHiglhKmtNIanQeAWApMJUmf2Ki/9uFkI1g/u9YAipdCya9PSzLv67XT05LjCDJAcAktQRN03dlxD/zRA9cdra+51UpB4whFT83l+36aF9qlvfaYke8anYzP5mkOQAQJJ2J5u+BqgwRA8ZOaAveAMrqZilidmf7fOsf/nvORkC88wgyQGAJL2VBTNOJDDDED2oumIcNVU+FlAqYleMXn1n73ScYIkedWxs5gQzSCok3gRQUuFomlVJatPDgCetPS2bW8+K1RGoN4ZUXOrT2Q2vHPpYLhX8/e1xkSfJMjkcxw5jSCoEXgEgqYCOSJvPcPFfINKpOup7P2wIqfgsmPjsH1z8F4jAPlTwGUNIKpzDkiQVgpsaBpMLK4B+xigQkXZWvPgMOcYZQyoOB9Zsf+oPBzwxCu+jUkhn25vJMjHMYJUxJPU0rwCQVBhyXObiv+BOWjMMq9tkCKl43DbpmXUu/gtMpJYUFxlCkgMASQK4ceYhEE43RAHq2+ttZNL3GUIqfB8buP6+4RVth1miIP1zXMzhZpDkAECSyM3zeFTARtcPBm9gJRWyyhBbrx/7wkBLFPA5d455MfrxW0kOACSVs/kN/wAcbYgCVlWxF72r7jaEVLi+sfequ6pC3NsSBe1IWphtBkk9ySmkpJ7TNKsXqU2PA3sZo8DlcltY8dJWYhxsDKmwDK1sW/PiwcsqQ6CvNQre80Qmhem8agpJPcErACT1nLD5XBf/xfJukerDgD7LDSEVnl9PWPm4i/+iMZIUZ5tBUo+dfptAUo9YMHMkMbcM6G2MYhFzLFu9nBj3tYVUGI7s++qyO/d9ajyQtkbR2EaafcOxrDSFpO7mFQCSekj2qy7+i01IMbquHYi2kArDLROe3eHiv+j0IsvlZpDkAEBSeWiacQQxfNAQRaim+gCqMt4QUCoAc4auvas+3X6QJYrSP8SFvNsMkhwASCptjY0pUvFa/AhS8Ro1YC9gqyGkntMrndv21dGrRlmiaAVSXBsbPReX5ABAUik74O7TgcMNUcQq0sOprb7XEFLP+fHYF+7JhDjSEkXtEI7gY2aQ1J38C5yk7nPzibW07VgODDNGkYtxG8tXryPGEcaQutdelW2rnjlkWV+8j0opeJnAhDCNjaaQ1B28AkBS92ndcb6L/xIRQi8G9fUO1lIPWDjpmadd/JeMwUS+aAZJ3XYKZwJJ3eIXM/chm3sUqDJGyYisWPUw2XigKaTuMa3flkdaJj092XO4ktJKigPCVFaYQlJX8woASd2jPXeNi/+SExg5oBLImULqlpO23ILxK1Mu/ktOJVmuMoMkBwCSSsP8GccSONEQJaimchLVFUsMIXW9xpEv3Vmbzu1niRIUOCkuYrohJHX94UaSulLTrDSpjQ9COMAYJaotu4Y/ra6E0NcYUtfom8ptWX/4o6+mYIg1Stbj1HNQOIw2U0jqKl4BIKlrpTd+ysV/iatID6RfzYOGkLrOf094dqmL/5K3L+v5pBkkdSWvAJDUdX7+vjqq2p8ABhijxMXYyvLVLxLjGGNInWtSdeuzjx+0fAjeR6UcrKeCCWEKa0whqSt4BYCkrlPVfrGL/zIRQiXD+r1kCKnzNU96arWL/7JRRxsXmkGSAwBJxaVp5n7gpYxlpV/NO8iklxpC6jynDNj44Oiqtrdboqz8v7gIPzonyQGApGI6usS5QMYQZWZUfR14AyupM2RCbP/p2Of6WKLspInMM4MkBwCSisONDe+H2GCIMlRdMZaaqrsMISV3zejVd/ZKxfGWKEvvjYs4yQySOps3AZTUuZpmVZLa9AjgSWu5yuU2sHxVDkK9MaT8DMhk179y6GMxgL9H5esp2tkvHMcOU0jqLF4BIKmTjyobz3LxX+77QKo/9bWPGELK368mrHzYxX/ZG0uGOWaQ1Jm8AkBS57n52CG0ZVYAfY1R9rIsX/UkuTjBFNKeOaRm+5MPHPDEXngfFQU2k2VimMEqY0jqDF4BIKnztGcud/GvP0szrO5VM0h77tZJT29w8S8AIrWkucQQkhwASCosC6a/jchHDaG/6lt9CBXpewwhddwnB6+7Z2hF+6GW0OuGAB+LC/FRkJIcAEgqmJOT8OdHFnlM0RuNGjgc2G4IafcqQ2y9bsyLQyyhN52vB+bF6Ed3JTkAkFQIbmz4EPBuQ+hNqtKj6FN9tyGk3fve2BeWVIY4xhJ6k8ARLOYfDSEp+eFEkpJomtWL1KZlwGhjaKey8VWeWLWFiH/ZlHZhWEXbKy8csqw6BGqtoV14gcjEMB3vryIpb14BICnhUWTTF1z86y2lQ28G1j5hCGnXFu77zHIX/9qNEcDnzSApCa8AkJS/XzaMoj0sA2qMod2IrFj1GNk42RTSG727duvj/7ffkxPxDzPavW1k2S/M5BlTSMqHbzSS8tcernbxrw4KjKyPQDSF9PpfDOLNE1a2eU6mDupFhivMIMkBgKTuNb/hSGCWIdRhNVX7U5VZYgjpb74w/OUldZn2Ay2hDot8MDZztCEkOQCQ1D0aG1OE1LX4MSLtqdH1+4A3sJIAalK5rReNfHlvS2iPBebFJtKGkOQAQFLX2/+uf4F4mCG0xzKZofSrvs8QEvzHPs/fmwlxuCWUh0Poz+lmkLSn/OudpD1z84m1tO1YAQw1hvIS43ZWrFpDjpHGULkaU9X64tMHL++P91FR/l4mMCFMY6MpJHWUVwBI2jOtOy508a9EQqhmSN/nDKFytmjS08+6+FdCg8lxvhkk7dFpmAkkddgvZu5DNvcoUGUMJbbipYfIZg82hMrNzH6b/3jrpGcO8DxMnaCVFAeEqawwhaSO8AoASR2Xzc1z8a9OM7q+D9BuCJWTNDE7f/zKahf/6iSV5LjaDJIcAEjqXAumTwWON4Q6TXXFOKor7zKEysllo1+6s3c6TrCEOtEJcTEzzCCpI5w+S9q924/JsLbqQWB/Y6hTZXPreWI1ROqMoVJXl2nfuObQx9tTMMAa6mSPU89B4TDaTCHprXgFgKTdW1f1aRf/6hLpVB39ev/RECoHC8Y995CLf3WRfVnL/zODpN3xCgBJb61pej0pVuBJq7pKpJ0VLz5DjnHGUKk6sGb7U3844IlRQIU11EXWU8GEMIU1ppC0K14BIGl3R4lLXPyrSwUyDKvbZAiVstsmPbPOxb+6WB3tfMUMkhwASMrPjdMnAx83hLpc315vI5O+zxAqRR8buP6+4RVth1lCXS7yybiYAw0hyQGApHxOJOYCGUOoW4yuHwzsMIRKSUWIbdePfWGgJdRN0kTmmUGSAwBJe2b+jJMJTDOEuk1VxV7UVN1tCJWSb+y9aklViHtbQt0mMiW28AFDSNoZbwIo6c2aZlWS2vQIMN4Y6la57GZWvLyNGAcbQ8VuaGXbmhcPXlYRAv2soW72FBVMDlPYbgpJr+cVAJLeLGw628W/euZdKV1LfZ/lhlAp+NWElY+7+FcPGUsrZ5pB0ptO800g6Q1uPnYIbZkVQF9jqGfEHMtWLyfGfW2hYnVEn63Ll0x+chyQtoZ6yBZgYmjgRVNI+guvAJD0Ru2Zq1z8q2eFFCPq2oFoCxWrX01Yud3Fv3pYH+AyM0hyACBp55oaDiXyEUOox9VWH0BVxhsCqijNGbr2roEV7QdZQgXgtLiQt5tBkgMASW8UCaTDPI8LKhijBuwFbDWEikmvdG7bV0evGmUJFYhAimtj9GO/khwASHq9m6Z/hMhRhlDBqEgPp7b6XkOomPx47Av3ZEIcaQkVkHeyiA+bQRJ4E0BJALecUMOO1seB0cZQQYlxG8tWr4c43BgqdKOr2lavPHhZLdDbGiowL1DBpDCFLaaQyptXAEiCHa3nufhXQQqhF0P6Pm0IFYOFE555ysW/CtQI2jnXDJK8AkAqd79sGEV7WAbUGEMFKrJi1cNk44GmUKGa1m/LIy2Tnp7suZUK2Hay7Btm8owppPLlFQBSuWtLXePiXwUuMHJAJZAzhQr0ZCq3YMLK4OJfBa6aNFeZQXIAIKlcNc04ihBPMYQKXk3lJKorlhhCheiCES8tqU3lJltCRWBWXMQxZpAcAEgqN42NKdJxHv7FSsVi1ICJEDcZQoWkbyq35csjXx5vCRWNyLzYRNoQkgMASeVk8t0fJ3KoIVQ0MqlB9Kt50BAqJP81/tmlKRhiCRWRg+jHv5hBKk/+5U8qRz+b2Zfq3HJgqDFUVGJsZfnqF4lxjDHU0yZVtz77+EHLhwBV1lCReYUKJoQpbDCFVF68AkAqR9Wx0cW/ilIIlQzr95IhVAiaJz212sW/itQg2viyGSQHAJJKXdP0cRD/3RAqWv1q3kEmvdQQ6kmnDNj44OiqtrdbQkXsM/E2JppBcgAgqbR/668DKg2hojaqvg5oM4R6QpqY/enY5/pYQkWugjTXmEFyACCpVN3UMA2YaQgVveqKsdRU3WUI9YSvjVl9Z69U9M7/KgXHxWbPC6Ry4k0ApXJxw6EVDBj4MHi5n0pELreB5atyEOqNoe5Sn85uWHPYY7kA7ncqFX9iA5PDbFpNIZU+rwCQysWAQZ9x8a/SegdL9aeu9hFDqDv9auLKP7r4V4kZRz+8N5BUJrwCQCoHTTMHkcqtAPobQyUmy7JVTxG9HFtd75Ca7U8+cMATewEZa6jEbKKCiWEKq00hlTavAJDK4jc9XuLiXyUqzfC6LWZQd7h10tMbXPyrRPWljUYzSA4AJBW7m6YfBPFfDKHSPW2tPoSK9D2GUFf65OB19wytaD/UEiphH4/NuI9LDgAkFbUc84C0IVTSRg0cDmw3hLpCZYit1415cYglVPLrgsC8GP2IsOQAQFJxmj9jFnCMIVTyqtKj6FN9tyHUFb439oUllSGOsYTKwFG0cIoZpNLlhE8qVT88ppraqscBT1pVHrLxVZ5YtYWIf6lVpxlW0fbKC4csqw6BWmuoTDzHDiaFE9hqCqn0eAWAVKr6Vp/t4l9lJR16M7D2CUOoMy3c95nlLv5VZkZRzZlmkEqTVwBIpajp+BGk2pYBfYyh8hJzrFj9ONk42RZK6l29X132+/2fmoB/MFH52Upg3zCNZ00hlRbf0KSS/M1uvcLFv8pTSDGiPgLRFkq0J0G8ZdKzrZ4rqUzVELnEDJIDAEmFbsHMd0L4sCFUtnpX7U9VZokhlMS5w9csqcu0H2gJlbGPxEUcZQbJAYCkQhUJkLsWP96jcje6fh/gVUMoHzWp3NaLR67e2xIqc4HIvNjoekFyACCpMC1oOI3I2w2hspfJDKVf9X2GUD5+Pv75ezMhDreExKG8i4+YQSod/pVQKhVNx/QhVC0n4EmrBBDjdlasWkOOkcZQR42pan3x6YOX9wdqrCEB8BLtTAjHsckUUvHzCgCpVITK81z8S6//nQjVDOn7nCG0JxZNevpZF//SGwwhw7lmkErk9MgEUglYMHUsMf0oUG0M6e+seOkhstmDDaHdmdlv8x9vnfTMAZ4fSW/SSo7JYQZ/MoVU3LwCQCoFudTVLv6lXRhZVwNkDaHdnBDlmiY8W+HiX9qpSgJXmEFyACCppy2YPoUQPmAIaRdqKidQU+FjAfWWLh25+s4+qdy+lpB2IXBKbGaaIaRi/1WWVLyaZqVJbXoA8FnV0lvJ5tbyxOoMkX7G0N/rl85tXnfoo9tSgcHWkN7So1RwcJhCuymk4uQVAFIxC5s/6eJf6oB0agB1vR8yhHbmpokrH3DxL3XIZNr5uBmkIl4+mEAqUj9/Xx3V7SuIDDSG1AGRdla8+Aw5xhlDf3Fgzfan/nDAE6OACmtIHbKOFBPCVNaaQio+XgEgFauq9gtd/Et7IJBhaJ3PsdYb3DbpmXUu/qU9Uk+W880gOQCQ1F1umrov8ClDSHuoX6+3UZG+zxAC+OjADfcNr2g7zBLSHgp8OjazvyEkBwCSukM2fQ3+xUrKz6j6wcAOQ5S3ihDbbhj7vFdRSfnJAHPNIDkAkNTVbmw4gcAMQ0h5qqrYi5qquw1R3r6x96olVSHubQkpT4GpcRHvM4RUbL+6kopH06xKUpseBiYYQ0ogl93Mipe3EaN3fi9DQyvb1rx48LKKEHwspJTQn2hn/3CcV1VJxcIrAKRiEjZ+1sW/1Bnvfula6vssN0R5+tWElY+7+Jc6xTgyfNoMUhEtJ0wgFYmbGgaTCyvAk1apc8Qcy1cvJxf3tUX5OKLP1uVLJj85DkhbQ+qU1cRmMkwIU1htDKnweQWAVDRrlXCpi3+pU89aUwyvaweiLcrHryas3O7iX+rM8xNqaeUiQ0gOACR1lhtnHkLkdENInay2+gAqM94QsEycMWztXQMr2g+yhNTJAv8SW/CRmpIDAEmdIzcP/2IldY3RA/YCthqitPVK57ZdPWrVKEtIXbammBejHy+WHABISmZBwweBow0hdZGK9HBqq+81RGn74d4v3JMJcaQlpC7zLhYzywxSYXNKJxWyplm9SG16DBhjDKkLxbiNZavXQxxujNIzuqpt9cqDl9UCva0hdann2MGkcIJXVUmFyisApEKW3niOi3+pG4TQiyF9nzZEaVo44ZmnXPxL3WIUVZxtBqmAT3lMIBWopuNHkGpb7kmr1G0iK1Y9TDYeaIrSMa3flkdaJj092XMeqdtsIzApTONZU0iFxysApIL97Wy7ysW/1K0CIwdUAjlTlMxJTm7BhJXBxb/UrXoBl5lBcgAgqaOaZhwB/KMhpG5WUzmJ6oolhigNXx7x0pLaVG6yJaRuFvlQXMi7DSE5AJC0O42NKdJxHv7FSuoZowZMBDYborj1TeW2XDDy5fGWkHpEIM282OhaQ3IAIOmt7b/kY0Tebgiph2RSg+hfs9QQxe0/xz27NAVDLCH1kMjbOJLTDCEVFv/CKBWSm0+spW3HcmCYMaSePHGNraxY9SI5n8JRjCb02vHc8gNXDAaqrCH1qJdoZ0I4jk2mkAqDVwBIhaR9x5dc/EsFIIRKhvR/yRDFqWXS0y+6+JcKwhDSfNEMkgMASX9vwdSxROYYQioQ/WveQSbtRwGKzMn1Gx/cq7LtHZaQCkTgrNiC9+OQHABIeoOYvgb/YiUVltF1/YE2QxSHNDH7s32e62MJqaBUErjKDJIDAEl/cVPDe4GTDCEVmKrKfaipussQxeFrY1bf2SsV/UujVGgi748tNBhC6nneBFDqaU2z0qQ2PgjhAGNIBSiX28DyVTkI9cYoXPXp7IY1hz2WC+B2kgrTY1RwUJhCuymknuMVAFKP/xZu+n8u/qVC/h1N9aeu9hFDFLZfTVz5Rxf/UkHbjzY+aQapZ3kFgNSTfv6+OqrbVxAZaAypoGVZtuopopeXF6JDarY/+cABT4wGKqwhFbT1pBgfprLWFFLP8AoAqSdVtV/k4l8qCmmG120xQ2H6n4nPbHDxLxWFOrJcaAbJAYBUfm6aui94KZxUNPpWH0ImfY8hCssnBq+7Z1hl26GWkIpE4P/FRfjRR8kBgFRmcum5+BcrqbiMHjgc2GGIwlAZYuvXx7w4xBJSUckQmWsGyQGAVD7mTz8JmG4IqchUpUfRu+puQxSG7+zzwpLKEMdYQio6x8YWTjSD1P28CaDU3ZpmVZLa9DAwwRhSEcrltrDipVeJ0b8896BhFW2vvHDIsuoQqLWGVIQiT5JlcjjOq6qk7uQVAFJ3S2+a4+JfKuZ3zlQfBvZ5whA967aJzyx38S8VscA+pPmsIaTu/tWT1H1uahhMLqwA+hlDKmYxx4rVj5ONk23R/d7V+9Vlv9//qQn4hwyp2Fcim8kyMcxglTGk7uEbp9SdcuFyF/9SSZy1phhRH4Foi+5eLxBvmfRsq+cwUgmI1JLiYkNIDgCk0nPjzEOAjxlCKhG9q/anOnOXIbrX54etWVKXaT/QElLJOD0u5nAzSA4ApNIRCZC71t85qcSMqh8LvGqI7tErndt26ajVe1tCKrH1SJZrY/SjyZIDAKlULJjxD8C7DSGVmExmKP2q7zNE9/j52OfvyYQ43BJSiQkcQQsfNITUHb9ukrpW06xepDY9DuxlDKkExbiNFavWkmOkMbrOmKrWF58+eHl/oMYaUkl6nsikMN2rqqSu5BUAUlcLm8918S+V8u946MXgvs8Zomst2vfplS7+pZI2Evi8GaQuPm0xgdSFFswcScwtA3obQypxK1b/gWzuIEN0vhn9tzx828Sn9/e8RSp520izbziWlaaQuoZXAEhdKeaudvEvlYnR9dVA1hCdfqKSmz9+ZcbFv1QWepHlCjNIDgCk4jO/4UhgtiGkMlFdOZGaiiWG6FyXjlx9Z59Ubl9LSGXjH2IzR5tBcgAgFY/GxhQhzMO/WEnlZeSA/QhsNETn6JfObT5n+CsTLSGVmcC82Og6RXIAIBWLyXf9M3C4IaQyk04NoK73Q4boHDdNXPlAKjDYElLZOYQjON0MUufzr5NSZ7v5xFradiwHhhlDKkttLFv1PDHubYr87dtrx8rHDlwxDKi0hlSWXiYwIUzzqiqpM3kFgNTpp/6tF7j4l8paBcP6rTFDMov2ffplF/9SWRsMfMkMkgMAqXD9YuY+ED9jCKnM9as5nHT6fkPkZ3b9xgdGVLT5MSqp3EXOiIuZYAjJAYBUmLJxLlBlCEnsVT8IaDXEnqkIse0n456rs4QkoJIcXzWD5ABAKjzzZxwL8QRDSAKgqmIvelfdZYg9c91eq5ZUBe+fIOmvToyLmWEGqXN4E0CpM9x+TIa1VQ8C+xtD0l/lsptZ8fI2YvRO9h0wJNO+dtXbHs+EQD9rSHqdx6nnoHAYbaaQkvEKAKkzrK3+lIt/SW9+l03XUt97uSE65leTnnnMxb+kndiX9fybGaTkvAJASqppej0pVgADjCHpzWKO5auXk4v72mLXjuizdfmSyU+OA9LWkLQT66lgQpiCT1mREvAKACmpEC928S/pLQ4SKYbXtQPRFrv2qwkrt7v4l/QW6mij0QySAwCp5zTN3I8QPmEISW+ptvoAKjP3GGLnPjN07V0DK9oPsoSk3fi3uJgDzSA5AJB66DcozgUyhpC0W6MHjAa2GuKNqlNx+zWjV42yhKQOSJNjrhkkBwBS91sw4wMQGwwhqUMq0sOprb7XEG/0w7HP350JcaQlJHXQe2Mz7zeDlB9vAijlo2lWJalNjwDjjSGpw2LcyrLVGyAONwaMrmpbvfLgZbVAb2tI2gNPUcHkMIXtppD2jFcASPlIb/6ci39JeyyEGgbVPm2I19w26ZknXfxLysNY2pljBimPUxETSHvo5mOH0JZZAfQ1hqQ8RJavephcLOsbWU3rt+WRlklPT/ZcRFKetpBjQpjBKlNIHecVANKeaqu40sW/pAQCowZUArkyPvnILZiwMrj4l5RAH1JcagbJAYDUdRZMfxvEfzKEpERqKidRXbGkXH/8L494aUltKjfZHUFSQh+NC3m7GSQHAFLniwTgWn9vJHWKUQMmApvL7cfum8ptuWDky95DRVLnrGUC82L0aiLJAYDU2RbM+DCRowwhqVNkUoPoX7O03H7s/xz37NIUDHEHkNQpAkfQwocMIXX0V0bS7t1yQg07Wh8HRhtDUqeJsZUVq14kx5hy+HEn9Nrx3PIDVwwGqtz4kjrRC0Qmhum8agrprXkFgNQR23d80cW/pE4XQiVD+r1ULj9u86SnX3TxL6kLjCBwjhkkBwBScr9sGEUIZxlCUpfo3/sdZNIl/1GAk+s3Pjimsu0dbnBJXeTz8bbyuJpKcgAgdaVs+BpQYwhJXWZ0XX+gvVR/vDQx+7N9nuvjhpbUhXqR5kozSA4ApPwtmPYuIqcaQlKXqqrch15VJftYwKvHrL6zVyp6539JXW12bOE9ZpAcAEh7rrExBalr8WaZkrrD6LoDgXWl9mPVp7MbPjt4zf5uYEndZF5sIm0GyQGAtGcOWPKvRA41hKTueUdO9aeu5pFS+7F+OWHlH1OBejewpG5yMHX8sxmknfMvm9LO/GxmX6pzy4GhxpDUjbIsW/UUsTQulz+kZvuTDxzwxGigwk0rqRu9TAUTwxQ2mEJ6I68AkHamOnehi39JPSDN8LotpfLD/M/EZza4+JfUAwbTxvlmkBwASLvXNH0c8O+GkNQj+lYfQiZ9T7H/GJ8YvO6eYZVtfoxKUk/5bLyNiWaQHABIu/mtiNcCVYaQ1GNGDxwO7CjWl18ZYuvXx7w4xA0pqQdVkOFqM0gOAKRdWzB9KoTjDCGpR1WlR9G76u5iffnX7/3CXZUhjnFDSupRkeNjMzMNIf2NNwGU/uL2YzKsrXoImGwMST0ul9vCipdeJcai+kv6sIq2V144ZFlVCPR1I0oqAMuo58BwGG2mkLwCQPqbtZWfcfEvqXDeoVN9qO/zRLG97FsnPrPcxb+kAjKJ9d7bSfoLrwCQAJqm15PiCfBZ1ZIKScyxYvXjZGNRDCff1fvVZb/f/6kJ+AcGSYVlAxWMD1NYYwqVO9+gpdd+Ey518S+p8IQUI+ojEAv+lUL81aRnWz23kFSA+tPKRWaQfJOW4Mbpk4F/NYSkgtS7an+qM3cV+sv8/LA1S+oz7Qe6wSQVpMAn4kIOMoQcAEjlLjIXyBhCUsEaVT8WeLVQX16vdG7bpaNW7+2GklTA0qSZawY5AJDK2YKGUwlMM4SkgpbJDKVf9X2F+vJ+Pvb5ezIhDndDSSpokSlxEScbQuXMmwCqfN06s4qtuUeAccaQVPgnrnEbK1atJcfIQnpZY6paX3z64OX9gRo3kqQi8DQV7BemsN0UKkdeAaDytTV7tot/SUUjhF4M7Ptcob2slklPr3TxL6mI7E0bZ5lBZXs6YQKVpabjhpLKLgefVS2pyKxY/QeyuYK4kdWM/lsevm3i0/t7PiGpyGwBJoYGXjSFyo1XAKhM9/zsVS7+JRWl0fXVQLYATiByTeNXZlz8SypCfYhcbgY5AJDKQVPDocCHDSGpKFVXTqS6YklPv4xLRq6+szaV29cNIqkoBf4pNvMOQ8gBgFTKIoFU+Kb7vqSiNrJ+XwIbe+rb90vnNp87/JWJbghJRT0CCMyL0auY5ABAKl03Tv8ncNorqchVpAfSr9dDPXYoHb/ygVRgsBtCUpF7J4v4iBlUTpx4qXw0HdOHULWcgM+qllQK2li26nli3Ls7v+m+vXasfOzAFUOBKjeBpKIXWU2WieE4NhlD5cArAFQ+0lVfdPEvqYRUMKzfmu7+pov2ffplF/+SSkZgKGnOMYQcAEilpKlhb6LPfJVUYvrVHE46fX93fbvZ9RsfGFHRdrjhJZXYEODsuJBxhpADAKlk9vTwVaDaEJJKzl4D6oG2rv42mRDbfzzuOR+fKqkUVZHysYByACCVhgXTpwCnGEJSaZ62ZsZSU9XljwW8bq9Vd1aH6F/IJJWqU2Mz08ygUudNAFXammalSW1aChxkDEklKxs3suLFdggDuuLLD8hk179y6GMEqDO2pBL2KBUcHKbQbgqVKq8AUInv4Rs/4eJfUslLh37U1z7aVV/+fyY+/YiLf0llYDJt/IsZVMq8AkCl6xfH9CdX9QSRgcaQVPpijuWrl5OL+3bmV31H760r7t7/yX2AtI0llYF15BgfZrDOFCpFXgGg0tVedaGLf0nlI6QYWdcGxM78qr+euHKri39JZaSeNOebQQ4ApGJyY8MkAv9uCEllpXf1gVRm7umsL/eZoWvvGljRfrBhJZWVyGfiQiYbQg4ApKIRrgEq7CCp7IweMBrYmvTLVKfi9mtGrxplUEllKENgnhnkAEAqBgumvw+YaQhJZakiPZza6nuTfpkfjn3+7kyIIw0qqSwFpsYWjjOESm/XlkrJDYdWMGDgw8BEY0gqWzFuZdnqDRCH5/Ofj65qW73y4GW1QG9jSipjf6Kd/cNx7DCFSoVXAKi0DBz4WRf/kspeCDUMqn063//8tknPPOniX5IYR8Z7SqnEThFMoJJxU8NgcmE50N8YkkRk+aqHycUD9+Q/mtpvyyOLJj092XMESQJgExVMDFNYbQqVAq8AUOnIhUtc/EvSXwVGDawAch3/D4g3TVgZXPxL0l/1pZ2vmEEOAKRC0jTtYOCfDSFJr1NTsS/VFUs6+q9/ecRLd9amcj76SpJeL/KvsZlDDSEHAFKhSId5QNoQkvR3Rg2YCGze3b9Wm869esGIV8YbTJJ2smYKXBujV0fJAYDU826cPpsY3mMISdqJTGoQ/aqX7u5f+89xz96XDnGIwSRpp97FIk41g4qdUywVt6ZZvUhtegwYYwxJ2oUYW1mx6kVyOz9WTui147nlB64YBFQbS5J26Tl2MCmcwFZTqFh5BYCKW9h0tot/SdrdsTJUMqTfS7v6n5snPf2ii39J2q1RVHKWGVTUpwQmUNFqOn4Eqbbl+KxqSeqYJ15aSnv2DTeyOrl+44MLxj97iHEkqUO2Etg3TONZU6gYeQWAile6/UoX/5K0B0bX9Qfa/3oYJWZ/ts9zfQwjSR1WQ+RSM8gBgNSdmmYcQYwfMoQk7YGqyn2o+dtjAa8avfrOXqnonf8lac98OC7iKDPIAYDUHRobU6TjPPwIiyTtuZEDDgDW1aezG+YMXbO/QSRpjwXg2tjoWkoOAKSud8DdpxF5uyEkKQ/pVB0Dej/8iwkr/5gK1BtEkvIQeRtH8E+GULHxL6gqLjefWEvbjuXAMGNIUr4nrvHhXN8WQuAAY0hS3lZRwYQwhS2mULHwCgAVl7bW81z8S1JCIfX5EDjTEJKUyDDaOM8MKqpTABOoaCyYOpaYfhSfVS1J+Yv8ilnNJwHEFn4FnGAUScpbK7B/aOAJU6gYeAWAiuikNf01F/+SlPBENZ3+/F//vzRnAjvMIkl5qwSuNIMcAEid6aaG9wLvN4QkJRCZx8m3rvjL/xuO5UkC1xlGkhL5QGyhwQxyACB1hqZZaXJhriEkKZGXidnL3vRPt3IxsMo8kpTI3Hg7GTPIAYCUeC/d9G/AgYaQpARCOI/Zize+6R+fxGbgAgNJUiL70conzCAHAFISP39fHYFGQ0hSIg/y8Dt/uMv/dQk/AO43kyQlELg4LmaAIeQAQMpXZfYrRAYaQpKSnJTGOTQ25nb5PzeSI3IGEI0lSXmrJ8eXzaCCPiUwgQrWTVP3JZf+A1BhDEnKe/H/X5zS8o8d+VfjIv6LyAeNJkl5aydySJjOI6ZQIfIKABWubPoaF/+SlETcBpkvdPhfb+NsYKvdJClvGQLzzCAHANKeWDDjRAIzDCFJSdb/qas45daVHf3Xw3E8D1xtOElK5NjYzAlmkAMAqSOaZlUS41cNIUmJPM+23J4fS/twBbDSfJKUyNx4K1VmkAMAabd75eYzgAmGkKQkwjmc1vLqHv9XR7KNwHn2k6Qkh2D2oYLPGEKFt2tKheSmhsHkwgqgnzEkKe9397s4ufldhPzu6h8jgcX8L5F3G1OS8j4WbybLxDCDVcZQofAKABWWHJe5+JekhEfSLHPyXfwDhEAkyxwgZ05JylOklhQXGUIOAKSduXHmIRBON4QkJRD4MbOb7038ZWbwAPATg0pSIv8cWzjMDHIAIL1Jbp77pCQlshn4UucdljmPwGazSlKC9Vbgmhj96LUcAEh/M7/hH4CjDSFJCUQu5ZTmTvus6Z8/t3qZYSUp0bH53SxmliHkAEACaJrVixCuMIQkJVquP0Xv1LxO/7LruQZ4wr6SlGgIcHW8hRpDyAGAFDafC+xlCElKIvc5jrttR6cfomfTCpxrX0lKZBRVfM4M6vGllwnUoxbMHEnMLQN6G0OS8hTDb5m18Ngu/RYtNAMNxpakvG0jMClM41lTqKd4BYB6WParLv4lKdmBlJia0w1nDGcC7eaWpLz1InKpGeQAQOWpacYRxPBBQ0hSItcz+9aHu/qbhKk8RuA75pakRD4cF3GUGeQAQOWlsTFFKl6LH0ORpASrctbTWtnYbd8vy5eBtYaXpARH7si82Og6TA4AVE4OuPt04HBDSFIS8UI+dMuabjtrncE6IhfZXZISOZQj+bAZ5ABA5eHmE2uJ8WJDSFIij7Nm7fXd/l0r+RbwiPklKZHL4+30MYMcAKj0te44HxhmCElK9A5+Fp9c2tbd3zZMoR2Y4waQpERG0O4jVtX9/Py1utcvZu5DNvcoUGUMScr77fsWTl14Yk++griIW4gc77aQpLxtJ8u+YSbPmELdxSsA1L3ac9e4+JekRFpJpc4ugDOIOcAON4ck5a2aNFeaQQ4AVJrmzziWwImGkKQk4rWcfOuKnn4V4VieJPJ1t4ckJTI7tvAeM8gBgEpL06w0ITfXEJKUyMvkcpcWzKvZzkVEVrtZJCmRebGJtBnkAEClI73xUxAOMIQkJRD5ErMXbyyUlxNOYjMpLnDDSFIiB9OPj5lBDgBUGn7+vjpiuNAQkpTIg8S+Pyy4V3Un3wfud/NIUgKBy+Ii+hlCDgBU/KraLwYGGEKSkpwcxjnMnp8tuJfVSI7IGUB0I0lS3gYTOc8M6vL3bROoSzXN3I9U7g9AxhiSlLf/5tTmfyjkFxhb+G9gtptKkvLWSooDwlRWmEJdxSsA1MV7WJzr4l+SEi2tt5EOXyj8l8nZwFa3lyTlrZIsV5lBDgBUnG5seD/EBkNIUhLhq3xg4TMF/yqn8xzwNbeXJCU5mHJSbMHzZzkAUJFpmlUJwQmmJCUSX2BrLJ5jaR8uB551u0lSInPj7V5BKwcAKqo9a+NZwHhDSFICIZzDaS2vFs3LPZJt3sRKkhLbj3Y+bgZ1yXu1CdTpbj52CG2ZFUBfY0hS3u/Qd3Fy87sIxXV3/RgJLOL/gKPciJKUt3WkmBCmstYU6kxeAaDO15653MW/JCWSI8ucYlv8A4RAJMcZQM7NKEl5qyfHl82gTn+fNoE61YLpbyNyHw6XJCmJH3Fq8+nF/APEFn4EfNRNKUl5ayfHwWEGj5pCncVFmjrxbI9AZJ77lSQlsoWK3JdK4AzjXGCTm1OS8pYhMM8McgCgwnRjw4eAdxtCkpKIl3LSoheL/acIU3mJyBVuT0lKcjBlamxmpiHkAECFpWlWL0K4zBCSlOhM7yk2t84rmR9nI18DnnC7SlKiIcA18X4qDCEHACqgPWnTF4DRhpCkRCd5Z3P6HdtL5seZTSuBL7hhJSmRSazn382gzjnVkJL6ZcMo2sMyoMYYkpSnGH7LrIXHluSP1kIz0OBGlqS8baCC8WEKa0yhJLwCQMm1h6td/EtSIlkCZ5bw2caZQLubWZLy1p9WLjKDHACoZ81vOBKYZQhJSiDGGzh14R9L9ccLU3mMyHfd0JKU5GDKJ+JiDjSEHACoZzQ2pgipa/GjJJKU5IRuPW1VF5b8zxk5H1jrBpekvKXJMdcMcgCgnrH/Xf8C8TBDSFKShXFo5EO3lPxnOsMM1gEXu8ElKZH3xmbebwY5AFD3uvnEWvBzSJKU0OOsfeXbZfPTVvBN4BE3uyQlEPhavJUqQ8gBgLpP644LgaGGkKRE78Jn8cmlbWVzzjqF9j/fEFCSlL+xZDjDDMrrvdgE2mO/mLkP2dyj4ORRkhL4Nac2n1COP3hs4dfA+9wFJCnvVdxmskwMM1hlDO0JrwDQnsvm5rn4l6REWsmFs8v2p88xB9jhbiBJeYrUkvK+KnIAoK62YPpU4HhDSFIS4TpmL1xetj/9DP4EfMP9QJISOT0u5nAzyAGAusbtx2SIPnpEkhJ6mVz7JWVfYRtfIbLa3UGSEqzlcsyL0Y91ywGAusK6qk8D+xtCkhI5n9mLN5Z7hHASm4EL3R0kKZEjWcwsM8gBgDpX0/R6IucbQpISeYhc3x+Y4c/u4nvA/YaQpAQiV8dbqDGEHACoM/eUS4ABhpCkBHKpOcyenzXEa0IjOWAOEK0hSXkbRRWfM4M69N5rAu3WjdMnAw8BGWNIUt6aOLX5g2Z4s9hCE3gJqyQlsI3ApDCNZ02ht+IVAOrAmRlzXfxLUqID6TbS4Vw77PJ95nPAVkNIUt56EbnUDHIAoGTmzziZwDRDSFICIVzNBxY+Y4hd5JnOcwSusYQkJfLhuIijzCAHAMpP06xKQrzCEJKURHyBV+OVdtiN7VwOXroqSQkEIvNio2s8OQBQXoeQTWcD4w0hSUnW/5zLaS2vGmI3bzknsBX4kiUkKZFDOZIPm0G7fL81gXbq5mOH0JZZAfQ1hiTlvfq/m1NajiR4l/sO1YoEFvF/4CWskpTAC1QwKUxhiyn097wCQDvXnrnKxb8kJVvPkgtnuPjvuBCIROYAOWtIUt5G0I43ntXO32tNoDdpajiUVLgXB0SSlMSPOLX5dDPsudjCj4CPWkKS8radLPuGmTxjCr2eCzz93VkXgXSY574hSYlsoSLn59nzPzs5F9hkCEnKWzVpvAGtHABoN26a/hGin72UpERCuIyTFr1oiDzzTeUl8MRVkhKaHVt4jxnkAEA7d8sJNUQuMYQkJVq+PsWm7XPtkNAGrgaeMIQkJTIvNpE2gxwA6M12tJ4HjDaEJCVZ/3M2p9+x3RAJM86mlcAXLCFJiRxMPz5mBv3tNEUC+GXDKNrDMqDGGJKUt9s5tfm9Zug8sYUWYJolJClvLxOYEKax0RTyCgC9pi11jYt/SUokC2GOGTpZjjOBdkNIUt4GEznPDHIAoNc0zTiKEE8xhCQl8h1OXfhHM3SuMINHge9ZQpISmRMXM8EMcgBQ7hobU6TjPPw4iCQlWKWyntbKCwzRRXJ8CVhrCEnKWyVZrjKDHACUu8l3f5zIoYaQpAQiX+FDt6wxRNcIM1hH8Ck1kpTsYMpJsYUGQzgAULn62cy+hNhoCElKZBlr13zLDF0swzeARw0hSYnMjbeTMYMDAJWj6tgIDDWEJCUQ41l8cmmbIbpWmEI7KeZYQpIS2Y92Pm6GMn4/NUGZapo+jhSPApXGkKR8F//8D7OajzdENyZv4X+A4ywhSXlbR4oJYar3VilHXgFQvlv+Ohf/kpRIGzF8zgzdLMcZwA5DSFLe6snxZTM4AFC5uKlhGjDTEJKUQOQ6Zi9cbojuFWbwJ+CblpCkRP49LmSyGRwAqNTdcGgFufB1Q0hSIq+Q2eFd6XtKO18hstoQkpS3DIF5ZnAAoFI3YNBngImGkKQEQjyfD9yxwRA9lP84NhFotIQkJTmYMjU2e1WwAwCVrqaZgyD6eR9JSuYhsv2+b4YetoTvAksNIUmJhgDXxPupMIQDAJXk1o6XAP0NIUkJ5FJzmD0/a4gePmdtJAecAURrSFLeJrGefzdDGb1/mqBM3DT9IHIsBdLGkKS83zXnc0rzbEMUjtjCfOBUS0hS3jZQwfgwhTWmKH1eAVAucsxz8S9JiWwnFc4xQ6FNADgL2GoIScpbf1q5yAwOAFQq5s+YBRxjCElKstCMV/OBhc8YorCE6TxHZK4lJCnJwZRPxMUcaAgHACp2PzymmhCvMoQkJVr9v0BsvdIOBaqVy4BnDSFJeUuTc5jqAEDFr2/12cAYQ0hSorfLLzD7ji12KEzhBLYC51tCkhJ5b2zm/WYo8fdME5SwpuNHkGpbBvQxhiTlK97NKS1HErzbfEFvpUhgEb8D3mUNScrbU7SzXziOHaYoTV4BUNJbt/UKF/+SlGxdCcxx8V/4QiASOQPIWUOS8jaWDGeYoYTfL01QohbMfCcxt8RtLEmJ3iZ/zKkLP2aH4hGb+TGB0ywhSXmvEDeTZWKYwSpjlB6vACjJsx8C5K518S9JiWyhInueGYpMmnOATYaQpLzXErWkuNgQDgBULBY0nEbk7YaQpEQnQJdz0qIXDVFcwlReIuDTbyQpmdPjYg43gwMAFbqmY/oQw2WGkKREnmbLjmvMUKTauBr4kyEkKcE6Mce8GL2i2AGACluoPI/AcENIUgIxnM3pd2w3RJG+FR7HDgJfsIQkJXIki5llhhJ7jzRBCVkwdSwx/ShQbQxJytvtnNr8XjMUv9hCCzDNEpKUt+fYwaRwAltNURq8AqCU5FJXu/iXpESypDjTDKXyvsiZQLshJClvo6jic2ZwAKBCs2D6FEL4gCEkKZHvcnLzH8xQGsIMHgW+bwlJSuSLcRGjzeAAQIWiaVaayDxDSFIiG8ilLjBDiclxHrDOEJKUt15ELjWDAwAVirD5k8CBhpCkJMdSvsLs214xRIlt1hmsI3KJJSQpkQ/HRRxlBgcA6mk/f18dqfgVQ0hSIstYs+abZihRlXwdeNQQkpS3QGRebHT96ABAPauq/UIiAw0hSQnEeBafXNpmiBI9a51CO9GbO0pSQodyJB82Q5G/J5qgiN00dV9y6T8AFcaQpHwX//wPs5qPN0QZbOoW/gc4zhKSlLcXqGBSmMIWUxQnrwAoZtn0NS7+JSmRNmLw8UblIscZQKshJClvI2jnXDM4AFB3u7HhBAIzDCFJiXyd2QuXm6E8hBn8iYD3epCkJCJnx9sYYwgHAOouTbMqIVxtCElK5BXSOy42Q5lpo5HIakNIUt6qSXOlGRwAqLuEjZ8FJhhCkpIcS+P5fOCODYYos81+HJsINFpCkhKZHVt4jxkcAKir3dQwmBDON4QkJfIHsv2+b4YytYTvAksNIUmJzItNpM3gAEBdKYZLgX6GkKREx9I5zJ6fNUR5Co3kCMwBojUkKW8H04+PmaHI3gNNUERunHkI5O4DJ22SlGDxfyOzFs4yhGIzNxI4xRKSlLeXCUwI09hoiuLgFQBFJTfPxb8kJbKdmDvHDPrzWdBZwFZDSFLeBhM5zwwOANTZFjR8EDjaEJKUyNeY3fK0GQQQpvEsMM8SkpTInLjYG5Q7AFDnaZrVixiuMIQkJRFfILfDY6neaAeXAs8ZQpLyVkmWq8zgAECdJb3xHGCMISQpgRC+yOw7thhCb9gtTmArAZ+uI0mJDqacFFtoMIQDACXVdPwIYvi8ISQp0YnJUh4+4ueG0E5N5afAPYaQpETmxtvJmMEBgBJtobargN6GkKS8RbJhDo2NOVNoZ0Ig+lhASUpsP9r5uBkK/D3PBAWsacYRpOKdbidJSvRO9xNOaf6oIbQ7sYWfAP9kCUnK2zpSTAhTWWuKwuQVAIWqsTFFOs5z8S9JiWwlHf18tzomzRcB7xMhSfmrJ+t9VRwAaM/tv+RjRN5uCElKIl7G+1u8w7s6JBzLC0SutIQkJTmY8um4kMmGcACgjrr5xFoIlxhCkhJ5lqqquWbQHqnkauBpQ0hS3jIE5pnBAYA6qn3Hl4BhhpCkRM7ihFu2mkF7IkxhO5FzLCFJSQ6mTI3NzDREIW4aFZYFU8cS048BVcaQpLzf3X7Pyc1HE7yru/ITW7gdOMYSkpS3ZdRzYDiMNlMUDq8AKLgzjvQ1Lv4lKZEc2TjHxb8S7kVzgKwhJClvk1jPv5vBAYB25aaG9wInGUKSEgjxu8xuWWoIJdqNZvAHAt+3hCQlELkw3s5AQzgA0N9rmpUm580yJCmhTWQzjWZQp2jjfGCDISQpb/1p5SIzOADQm7bEpv8H4QBDSFISsZHZt662gzpDOI5XgIstIUlJDqZ8Ii7mQEM4ANBf/Px9dQQuNIQkJfIncv2+aQZ1qnq+TmC5ISQpb2ly+FheBwD6q6r2i4h+NkaSkglnMHt+qx3UqXvVa3ev/pwlJCmR98Zm3m+GAnhfM0EPu2nqvuTSfwAqjCFJeYosYlZzgyHUZbtYC7eCz7SWpASeop39wnHsMEXP8QqAnpZLz3XxL0mJtBM40wzq2gkAZ4HPspakBMaS4QwzOAAoX/OnnwRMN4QkJRG+zqnNj9pBXbqXTWcZEe8xIUmJDqacHxcyzBAOAMpP06xKAlcZQpISWUcuXmIGdYtKvgK8YghJylOklpRPV3EAUI7Sm+YAEwwhSUlOJMJ5zG5eZwh1hzCFDcAFlpCkRE6PizncDA4AysdNDYOJnGcISUrkUQZu/74Z1K028F3gD4aQpARr0BzzYvSG9A4AykUuXA70M4QkJXkHi2cy5Y52Q6g7hdlkyXnTSUlK6EgWM8sMPfA+ZoJuduPMQyB3Pw5fJCmJBZzafKoZ1FNiCwuAky0hSXl7jh1MCiew1RTdx0Vot54tECB3rd0lKZEd5PiCGdTD7+lnA9sNIUl5G0UlZ5nBAUDpWjDjH4B3G0KSErma2c1/MoN6UpjO08A1lpCkJAdTvhgXMdoQDgBKT9OsXhAvN4QkJRB5ie0pH6GqwlDB5cCLhpCkvNUQudQMDgBKT9h8LrCXISQpkXP4yG2bzKCCeGufwhaf6iNJiX04LuIoMzgAKB0LZo4kxLMNIUlJVlss5dEjfmYIFZQGfgLcYwhJSvAOH5kXG12bOgAoFTF3NdDbEJKU/5GUbJhDY2POFCqos9ZAJDAHiNaQpLwdypF8yAzd8L5lgi42v+FIQvi9rSUpkZ9yavNpZlChii38FPiIJSQpby9QwaQwhS2m6DpeAdCVGhtThDDPxb8kJbKVXPZ8M6igpfkCeNIqSQmMoJ1zzeAAoHhNvuufgcMNIUlJxMuYvfhZO6iQhWN5gciVlpCkJG/5nB1vY4whHAAUn5tPrCVwkSEkKZHnqKqaawYVhUquBp4xhCTlrZq0w1QHAMWorfUCYJghJCmBEM/ihFu2GkJFsbtOYTtwjiUkKZHZsZmjzdBF71Um6AK/mLkP2dyjQJUxJCnvt6g7OWXhuwneXV3FJbZwB/AeS0hS3h5kA4eH2WRN0bm8AqArZONcF/+SlEiOXO4MF/8qUnPAk1ZJSuAQ+vExMzgAKHzzZxwL8QRDSFIS4XvMbllqBxXl3tvAQ0R+YAlJSnIw5bK4iH6GcABQuG4/JkOI8wwhSYlsIpe60AwqcucDG8wgSXkbTOQ8MzgAKFxrqz8F7G8ISUoifIXZt662g4p6L57Oy8AllpCkRObEFsabwQFA4WmaXg/xAkNIUiJ/oiZ80wwqCfVcR2C5ISQpb5UErjKDA4DCE+LFwABDSFKSYylzOO62HYZQSezOh9FGjrMtIUkJRN4fW2gwRGedaim5ppn7kcr9AcgYQ5LytphTm6eZQSV37trCrcBMS0hS3h6jgoPCFNpNkYxXAHRKxTjXxb8kJdLOa49Ok0pwAsBZQJshJClv+9HOx83gAKDnLZjxAYhekiJJyRZI3+DU5kcNoVIUprMM+JYlJCnRucIlcbEfuXYA0JOaZlUS45WGkKRE1pFu927pKm2tfAVYYwhJyls9Wc43gwOAnpPe/DnwsRSSlNCXOPk3a82gUhaOZz0BnxYkSYkOpnw6LmSyIRwAdL+bjx1CjF8whCQl8igDdnzPDCoL6/kOkT8aQpLyliEwzwwOALpfW8WVQF9DSFKSd6F4JlPu8I6+KgthNlmiN7uUpGQHU6bGZp+skn8+7bkF099G5D4coEhSEjdxavMpZlC5iS3cBHzAEpKUt2XUc2A4zCes7CkXsHv8rk0ArrWdJCXSCjk/RqVyPfs6G9huCEnK2yTW8+9mcADQ9RbM+DCRowwhSQkErubURU8YQmW5+0/lKWCuJSQpgciF8XYGGsIBQNe55YQaiJcaQpISvWG/xLaUj1BVeavgMuBFQ0hS3vrTykVmcADQdbbv+CIw2hCSlECI5/KR2zYZQmX9azCFLcCXLCFJSQ6mfCIu5kBDOADofL9sGEUIZxlCkhK9US/lkSN/aggJmMaPgXsNIUl5S5PzI1UOALpCNnwNqDGEJOUtkg1zaGzMmUKCEIgEzgCiNSQpb++NzbzfDA4AOs+Cae8icqohJCnR+v/nzF74eztIrxsCTONuAv9hCUlKcjDla/FWqgzhACC5xsYUpK4FgjEkKW9byeX8vLO087Oxc4FXDSFJeRtLhjPM4AAguQOW/CuRQw0hSQmEcDmzFz9rCGknvx7H8gLgkzEkKdHBlPPjQoYZwgFA/n42sy8xfMUQkpTIc1RWXGMG6S304WrgGUNIUp4itaS42BAOAPJXnbsQGGoISUryhhw+xwm3bDWEtGvhSLYRONcSkpTI6XExh5vhLd5vTLALTdPHkeIR8GYSkpTgbeZOTln4boJ3OZc6IrZwB/AeS0hS3pYwjaOC5x475RUAuywTr3XxL0mJ5CA7x8W/tEfmAFkzSFLejmQxs8zgAKDjFkyfCuE4Q0hSEuF7nLrofjtIe/Bb08BDRH5gCUlKIHJ1vIUaQzgA2L3bj8kQmWcISUpkM7nUhWaQ8nI+sNEMkpS3UVRylhkcAOze2srPAJMNIUkJBL7C7FtXG0LK49dnOi8TuMQSkpToXOSLcRGjDeEAYNeaptdDON8QkpTIn+iV+oYZpATWcx2B5YaQpLzVELnUDA4A3qrGpUC9ISQpgcAcjrtthyGkBL9Gs2klx9mWkKREPhwXcZQZXn+aptfcOH0y8BCQMYYk5W0xpzZPM4PUOWIztxGYYQlJyttSlvD20EjOFF4B8Lp3WOa6+JekRNpJxTPNIHXqmdpZQJshJClvh3IkHzKDA4C/WdBwKgH/YiVJyXyTk1seMYPUecI0Hge+bQlJSuSKeDt9zOAAAG6dWUUMl7srSFIi60i1X2wGqQu00gisMYQk5W0E7ZxrBgcAsDV7NjDOXUGSkojnc/Jv1tpB6nzheNYTudASkpTkVIWz422McQBQzpqOGwrhHH8bJCmRxxjQ+l0zSF1oIzcQ+aMhJClv1aS50gFAWf/02auAvv4uSFICMXcmU+5oN4TUdcJssoA32ZSkZGbHZo4u6/eTsv3JmxoOJRXuxY9BSFKCxX/8BbNaTjaE1E2/cov4BZH3W0KS8vYgGzj8z4PVslOei99IIBW+6eJfkhJpJURvqCN1p8DngO2GkKS8HUI/PlauP3x5LoBvnP5PwDvc9yUpgRi/xqmLnjCE1I3r/6k8RWSeJSQpycGUy+Ii+jkAKAdNx/QBfOyfJCVa/PMSO9JXGELqAZVcCqwyhCTlbTCR8xwAlIN01RcJDHefl6Qk7x7hC3zktk2GkLpfmMIWAl+yhCQlMie2MN4BQClratibyFnu65KUyAM8/M6fmEHqQXfyY+BeQ0hS3ioJXOUAoKR/2vBVoNp9XZLyFsmFM2hszJlC6jmhkRwp5gDRGpKU91nN+2MLDQ4AStGC6VOAU9zLJSnJqiP8B7MX/t4QUgH8Ok7lLiL/aQlJSmRuvJ2MA4BS0jQrTWSu+7YkJRG3kW0/zw5SAclwDvCqISQpb/vRzscdAJTUT7nxE8BB7tuSlGT9Hy5n9uJnDSEVjnAsL0D5fYZVkjr3HIdL4mIGOAAoBb84pj8hXOReLUmJPEd15dfMIBWgPnwVeMYQkpS3erKc7wCgFLRXXUhkoPu0JCVyNifcstUMUuEJR7KNyBcsIUlJDqZ8Oi5kcun/mKXsxoZJEP4IVLhHS1LelnBK81EE7zYuFbLYwv8CR1tCkvI9kLI4TGdaKf+IJX4FQLjGxb8kJZKD3Bku/qViOO1hDpA1hCTlfRydGpuZ6QCgGC2Y/j4o7Y0nSd3g+5y66H4zSEVw3jqNB4EfWkKSEg0Bron3l+4fkUtzAHDDoRVEvFmVJCWzmVz6AjNIRSTyJWCjISQpb5NYx6ccABSTgQM/C0x035WkJAuJeBGzb11tCKl4hOm8TORSS0hSIhfG20vzRvKlNwC4qWEwsTwe4SBJXehJeqe/bgapCG3kWmCFISQpb3W0UpKPki+9AUAuXAL0d5+VpARinMNxt+0whFR8wmxaiZxtCUlKcjDlE3ExBzoAKGRN0w4G/tm9VZIS+Q2zWn5tBqmIz1uncwuRhZaQpLylyTHXAUBBb6IwD0i7r0pS3tpJxTlmkEriLO8soM0QkpS398ZFnOQAoBDdOH02MbzHfVSSkojf4uSWR+wgFb8wjceJXG8JSUpyasQ18VaqHAAUkqZZvYAr3TslKZF1pLIXmUEqIW1cCKwxhCTlbSwZznAAUEjCprOBMe6bkpRADF/m5N+sNYRUOsLxrAcaLSFJSQ6mnB8XMswBQCFoOn4EgXPdKyUpkccYuP07ZpBK0AauBx42hCTlKVJLiosdABSCdPuVQG/3SklK8saWO5Mpd7QbQio9YTZZInMsIUmJnB5bOMwBQE9qmnEEMX7IfVGSkiz+4y+YtajFEFIJDwGm81sCv7SEJCVaO18bI8EBQE9obEyRjvOguDeAJPWwVkL0Y1RSWUwB+BywwxCSlLcjWcwsBwA94YC7TyPydvdBSUq0IriGUxc9YQepDH7bp/IUMM8SkpRA5Op4CzUOALpT0zF9yMVL3fskKdEb2EtsD5cbQioj27gUWGUIScrbKCo5ywFAt77q6i8RGO6+J0mJfJGP3LbJDFL5CCexmcj5lpCkJAdTvhgXMdoBQHdYMHUsxDnudZKUyAM8esSPzSCVobv4EXCvISQpbzVELnEA0B1i+mtAtfucJOV/JCUyh8bGnCmk8hMayZFiDhCtIUl5+0hcxFEOALrSTQ3vBd7vviZJifwns5p/ZwapjIcAU7kL+C9LSFL+h1IiVxfbYwGLZwDQNCtNLsx1P5OkJOI2Qvo8O0iinXOAVw0hSXl7B4v4sAOALnmlm/4NONB9TJKSCFdwyq0r7SApHMfzBL5qCUlK5IrYTG8HAJ3p5++rI9DoviVJiTzP1vg1M0j6q95cBTgUlKT8jSBwrgOAzlSZ/QqRge5bkpRAiGdzWouX+0r622HhSLYR+YIlJCmRz8fbGOMAoDPcNHVfQvw39ylJSmQJJ7c0mUHSm4YA0/kv4P8sIUl5qybNlQ4AOkM2fQ1Q4T4lSXnLEcIcgo/8krSrKQBzAB8NKkn5mx2bOdoBQBILZpxIYIb7kiQlOrH/AacsvM8QknZ5mJjGg8APLSFJic655sXGwl5jF+6La5pVSYzemVaSktkMXGAGSbsVOQ/YaAhJytshHMHpDgDyemWbzwAmuA9JUhLhYk5pXmUHSbs9WkznZeAyS0hSkoMpl8VF9HMAsCduahgM8UvuPZKUyJPUhOvMIKnDNjAPWGEIScrb4D9fUeUAoMNyXAaFOzWRpOIQz+S423bYQVJHhdm0Ap+3hCQlMie2MN4BQEfcOPMQCKe7z0hSIr/h1JZbzCBpj4cADfwKaLaEJOWtksBVDgA6JDePYng8oSQVrnZy6TPNICn/KQBnAm2GkKQ8Rd4fW2hwAPBW5jf8AxT+sxMlqbDfcMK3mX3rw4aQlPf6fxqPAzdYQpISmRtvJ+MAYGeaZvUihCvcRyQpyVk760m3fcUQkhJr5QJgjSEkKW/70c7HHQDs9KR187nAXu4jkpRA5Muc/Ju1hpCU+NTseNYTcKAoScnOzS6JixngAOD1FswcSYhnu3dIUiKPMWCHl+xK6jzr+TbgR4okKX/1ZDnfAcAbZL8K9HbfkKQkwllMuaPdDpI67agymyyROZaQpCQHUz4dFzLZAQBA04wjiOGD7hWSlMgvOXWhj+2S1PnnrdP5LZGbLSFJecsQmOcAoLExRSpeCwT3CUnKWyvkzjGDpC6T5ixghyEkKU+BqbGZmeU9ADjg7tOBw90bJCnRG8pcTl30hCEkddlhZipPAddaQpISnbNdE++nojwHADefWEuMF7sXSFICkZfIZi83hKQut41LgFWGkKS8TWIdnyrPAUDrjvOBYe4DkpTIF5m9eKMZJHW1cBKbiYVzJ2tJKlIXxtsZWF4DgF/M3IfAGW57SUrkQR494sdmkNRt7uJHwH2GkKS81dHKRT31zXvm5nvzp99M4ES3vSTlLRJ5D7Oaf2cKSd168FnMEeS4E2/iLEn5ypLibWEqf+zub9z9VwDMn3Gsi39JSuy/XPxL6glhKncB/20JScpbmhxze+Ibd+8AoGlWmpCb6/aWpCTiNkL6i3aQ1GPa+TzwqiEkKW/vjYs4qbQHAOmNn4JwgNtakhIIXMkpt640hKQeOwwdx/NErraEJCUQuSbeSlVpDgB+/r46YrjQrSxJiTzPq550SyoAtVwJOIyUpPyNJdO9N8fvvgFAVfvFwAC3sSQlEOPnOa3Fy24l9bhwJNsAP44kSYkOppwfFzKstAYATTP3Az7p1pWkRG8Qd3FqizfeklQ4h6UG/pOANySVpHxFaklxcWkNAFJxLpBx60pS3nIQziAQTSGpwJzx2jFKkpSn02MLh5XGAODGhvdDbHCbSlIS8YecsvA+O0gqNGEaDxL4kSUkKdG6/NoYCcU9AGiaVQnhKrenJCWymRC+bAZJBSvHF4GNhpCkvB3JYmYV9wAgtfEsYLzbUpISCFzCKc2rDCGpYA9T03kZuNwSkpRA5Op4CzXFOQC4+dghELwzrCQl8yS9UteaQVLB28BcYIUhJClvo6jkrOIcALRnLgf6ug0lKYEQzuK423YYQlLBH65m00rgHEtIUpKDKV+MixhdXAOABdPfRuSjbj1JSiCG33LKwl8ZQlLRnLdO42ag2RKSlLcaIpcUzwAgEojMo7seMShJpSlLTM0xg6Sik+IsoM0QkpS3j8RFHFUcA4AbGz4EvNttJkmJfJvZtz5sBknFJkzlMeA7lpCk/A+lRK7uiscCdu4AoGlWL0K4zO0lSYkO+etprfyKISQVrVa+DKw1hCTl7R0s4sOFPQBIbfoCdN0NCySpLEQu4EO3rDGEpGIVjmc9AQeZkpTMFbGZ3oU5APhlwyjgbLeRJCXyOGvX3GAGSUVvPd8C/CiTJOVvBIFzC3MA0B6uBmrcRpKURDiTTy715lmSiv9oNpsscKYlJCmRz8fbGFNYA4D5DUcCs9w2kpTIzZy60MdnSSqdIUADvwF8nKkk5a+aNFcWzgCgsTFFSF0LnX+HQkkqI62k0ueYQVLJSXMWsMMQkpS32bGZowtjALD/Xf8C8TC3iSQlEJnHybeuMISkUhOO5UkC11lCkpIcTJkXG5Ov35N9gZtPrAUucmtIUiIvE7M+QlVS6drKxcAqQ0hS3g7hCE7v2QFA644LgaFuC0lKIn6R2Ys32kFSqQonsZnIly0hSUkOplwWF9GvZwYAv5i5D4FPuxUkKZEHeeTIH5lBUsm7ix8C9xlCkvI2mMh5Sb5A/jfuu3H6LcDxbgNJylsk8h5mNf/OFJLK4qC3kHeT4n/x5tGSlK8dpJkcjuXJfP7j/K4AWNBwtIt/SUooxP928S+prA57M/gdgSZLSFLeqshxab7/cZ4fAQhX2F2SkojbIPMFO0gqO22cDbxqCEnK9zSS2XEhb+ueAcCCGR8gcoTVJSnJgTt1FafcutIQkspNOI7niVxtCUnK/1BKiku6fgDQNCtNjBfbW5ISeZ5tua+aQVLZquVKwCGoJOVvZlzIlK4dAKQ2fhSYbGtJSiKcw2ktXv4qqXyPgkeyjZDsTtaSVPZSXBHjnt1UteP/8g+Pqaa2ajkw2tKSlO9ZL3dxcvO7CERjSCpnMRJYzP8Sebc1JCnfgyknhunc0vGZQUf1qf6oi39JSiQH4QwX/5IEIRCJnPXasVGSlN/BlAv25F/v2AAgEgjxDOtKUiI/4pSF95lBkv583trA/cCPLSFJeTsstvCezh0ALGg4HtjXtpKUt80EzjeDJL3pbPSLwEZDSFLezurcAUDgczaVpAQCl3BK8ypDSNLfHR6n8hJwuSUkKW8nxEUd+4P97gcATQ2HEsN7bCpJeZ/ePkWv1LV2kKRd2MBc4AlDSFJ+J5tEPts5A4BU8K//kpREjGdx3G07DCFJuzhznU0rkXMsIUl5+2i8nYHJBgALpg8DTrWlJOXtN8xqvtkMkrSbIcB0fgn8xhKSlJdetPGJZAOAGD4CVNhSkvKSJZc+0wyS1EEpPgu0G0KS8nJ6jIT8BwDk/smGkpS365l968NmkKSOCVN5jMB3LCFJeRnHIo7MbwCwYMbhEA6woSTlcxbLelorGw0hSXsoy5eBtYaQpDxEPprfACDGj1pPkvI++l7Ih25ZYwdJ2jNhBuuIXGQJScrnIMoH4y3U7NkAoGlWJYEPWk+S8vI4a9ZebwZJylMl3wIeMYQk7bG+VHHSng0AUptOIO7+EQKSpJ0JZ/LJpW12kKQ8j6JTaAfmWEKS8vLRPRsAwCk2k6Q8RH7FqQubDSFJCYcADfwGuMUSkrTHpsbFDOjYAOD2YzIEZthMkvZYK+n0580gSZ0kzZnADkNI0h4ePbM7X9O/eQCwrurdROpsJkl7Kl7LybeusIMkdY5wLE8S+bolJGkPpTihYwOAGE6wliTtsZfJ5S41gyR1su1cBKwyhCTtgciMeD8Vux8AEI+3liTtoRDOY/bijYaQpE4+vJ7EZuACS0jSHunHGo566wHAjQ2TgPG2kqQ98iDZ2h+ZQZK6yBJ+ANxvCEnaA+k3fwzg768AmGklSdojkcgZzJ6fNYUkdY3QSI4cZwHRGpLU4bPU9731ACDybitJ0h5pYlbz78wgSV08BJjB74D5lpCkDpsQFzJs5wOASCCEd9lIkjoqbiMdvmAHSequwy5nA1sNIUkdlOaInQ8AfnHceGCwhSSpoyeiqav4wMJnDCFJ3SNM5zngaktIUkfPV3nXzgcAufajrCNJHT6avsC23FftIEndrA9XAM8aQpI6ZBcDALz8X5I6LIRzOK3lVUNIUjcffo9kG5HzLCFJHfK2eAs1OxkA4BUAktShs0/u4uTm/zSEJPWQBv6DgDdglaTdq6CCQ984ALj5xFpgvG0kabdyEM4g+CgqSeopIRAJfO61Y7Ik6S2leccbBwBt2/cDgmUkaXdnnfyYUxbeZwhJ6uHD8VTuA35iCUnajch+bxwAxLCfVSRptzYDXzKDJBWIFF8ANhlCkt7Svm8cAAQHAJK0W5FLOaV5lSEkqTCEqbxE4HJLSNJb2i/G1674//NNAHMOACTprU8zn2LLjmvtIEkFZj3XAE8YQpJ2qS+3MeJ1AwCvAJCkt5b7HKffsd0OklRYwmxagXMtIUlvIf3axwBS/KShNzDaIpK0CzH8llNbfmkISSrQIUADvwBaLCFJuzpQvnYjwBTV6b3465UAkqS/kyVwphkkqeBPbs8GsoaQpJ0a+9oAIMRhtpCkXbqeUxf+0QySVODr/2k8TOAGS0jSTg3/8wAABwCStNOzSdbTWtloCEkqElm+DKw1hCS9ybA/DwDicFtI0k7E0MiHblljCEkqDmEG64CLLSFJuxoA5LwCQJJ24nHWvvJtM0hSkangm8AjhpCknQ0A/AiAJL1ZirP45NI2Q0hScQlTaAfmWEKS3qBXXES/FCEOtYUkvcGvObl5oRkkqUiHAA38hsCvLSFJr5NjWIoYai0hSX/VSir9OTNIUpFLMQfYYQhJ+rNI3xRQbQlJ+otwHSffusIOklTkR/NjeRL4hiUk6S8HRqpTEBwASNJrXibXfokZJKlEbOMrRFYbQpL+OgCIvSwhSUDkS8xevNEQklQi57onsZkUF1hCkoBArxTBjwBIEvAQse8PzSBJJeZOvg/cbwhJZS9HdYoYHQBIUi41h9nzs4aQpNISGsnx2mMBozUklfcBkV6Bn/zTnZAL1pBUrnpvm/zsyFfOWWAJSSpdC8fud+qo9LOjLCGpXO14vO43gU+s2AFUmkNSOQqp1LZxI/ZaG0IYaQ1JKl2ZXNvqhb9rGFyd256yhqRynQGkgO12kFSuhtYNvsfFvySVvvZUxdBvjDvjMUtIKmPbHABIKluZdGZ1be+awy0hSeXh5uEnjVtdPdT7vUgqV9sdAEgqWyMHD30K6G0JSSoPMYTqyyee95wlJJXxACA4AJBUdmqqqx+prKg8whKSVF6W1h++10P9D/YqAEllKG5LQdxmCEllJjd80LAA+AQUSSo/4fJJX96Qw3sBSiq7w9/2FLDVEJLKycB+dXelQphsCUkqTy/0Gj7g1mHv8yoASeUlsjUF4SVLSCoXqVTYUtevbpwlJKm8fWP8Z1u3ZPoYQlL5CKxOQVxlCUnlYtjAIUsDDLGEJJW3Lek+vX4y+qNeBSCpjAYAYVUKcAAgqSxUVlQ827u65p2WkCQB/NfofwzP1Yw2hKTyEHOrvAJAUtkYMWjoaqDKEpIkgFxIp76xz2e8CkBSmQwAwqoUBAcAkkpen169H6zIVLzdEpKk17tz4FHpe+vfYQhJpS/gAEBSWRzsskMHDvZOT5Kknbpu/JxceypjCEklLebCqhRtPGcKSaVsUP+Bd6ZCGG8JSdLOPFMzJnXz8A8YQlJJa0vxfIofjn8FWGMOSaUonU5tqKvtu78lJElv5bt7fzxurOhvCEml6qWRv7l3bQqAwOP2kFSKhg8a8keg3hKSpLeyJVMbfjDmnw0hqVQ9DvDaACA6AJBUeqoqq57sVdnrSEtIkjrilyNO4ane+xhCUil67G8DAIIDAEklZ+TgoRsA7+okSeqQbEhx7fgzDSGp9MToFQCSSle/2r73pFPpQy0hSdoTS+sO5XcDjzaEpJKSIvW6KwAqwmMmkVQqQgitg+sGDrGEJCkfXx/3WVpTlYaQVDJyufi6AcC39nkeeNkskkrBkPpBSwKMsYQkKR8v9hrB/FEfNISkUrF68B33rf7bAIAQifEuu0gqdulM+pW+vft46b8kKZEfj/4YaysHGkJSCQi//8v/lfrbPwt3GkZSsRs5cNhyoNYSkqQktmZq+M7YTxpCUvEv/0NuyZsHADHlAEBSUauuqlpWVVnpY/8kSZ3itmHH8Vjf/QwhqbgHADnufPMAoDouBbabR1JxHtmIIwYPa33DcU2SpARypLhu3JnEEIwhqVhtGzBg20NvHgB8ffwOYlhqH0nFqL5v/yXpkDrQEpKkzvRIv/1ZNLjBEJKKU+TeMP/R1jcPAF77X39vIUnFJoT0qwP71o+xhCSpK3x7n39ne7qXISQV4YkyS17//75xAJAOCy0kqdgMHzjoPgIjLCFJ6gqvVA3iZ6M/YghJxTgBuG3XA4Chz/8eWG8kScUik6l4sU+vmrdbQpLUlf5j9EdY3WuYISQVjQjrBmVr7tr1AKBxSjvQbCpJxWLk4KHPRqixhCSpK7WmKvnm2E8bQlLRSMGt4Y472nc9AACI4demklQMevfq9XBlpuIdlpAkdYfbB7+XB/sfYghJRSHCr3cyFPg7udbbgHZzSSpwuWEDh2YAn80kSeo2140/k2zwibOSCl5bRbatefcDgO9PXgdvvFOgJBWagf3q7kyFsK8lJEnd6Yk+4/n1sBMNIamgRfhd3R0Pbdj9AACA8EuTSSpUqVRqY12/uomWkCT1hO+O/QSbM7WGkFSwQtj5mn7nA4BU+DnQZjZJhWj4oCEPBRhsCUlST9hQUcePx5xuCEmFqi1b0fZfHR8AXD/uZaDFbpIKTWVl5cqaql5HWEKS1JNuHDGLZ2v2MoSkghOI/zPstgdf6fgA4LX/7Memk1RoRg4c9gpQaQlJUk9qT2WYO/4sQ0gqODlSu1zL73oAsL71ZmCt+SQVir59au/LZNKHWUKSVAjuq387dw040hCSCsnaTZXrbtvzAcD8ya1Ak/0kFYIQQtuQugEDLSFJKiTXjptDW8oL0yQViBj/Y/xtf9qx5wMAgFT8kQUlFYJBdQPuCiG1tyUkSYXk+ZpRLBhxiiEkFYQQ02/5Uf63HgBcP/Fe4B4zSupJ6XRmbf8+fQ+yhCSpEP1w739hXeUAQ0jqafcNuv2epfkPAABCnGtHST1pxMDBjwH9LCFJKkSvpnvzg73/xRCSelQM8crd/Tu7HwCsm3Aj8LQ5JfWE6qqq5dVV1d5hSZJU0H41/CSW1040hKSe8szgur1/mXwAMD9kCfEb9pTUE0YOHLodSFtCklTIcqSYN+4sYgjGkNQT5ob587PJBwAAbfG7wEabSupOdX373pVKp/3svySpKDzc/0DuGDTFEJK62wayW3/QkX+xYwOAH0zaDOF7dpXUXUIqtW1gvwGjLCFJKibfGPdZtqeqDSGpG0+cuWHwHY9u6bwBAECOecB260rqDkPrBt8bQhhpCUlSMXmpagj/NfpDhpDUXbaF0H5dR//ljg8Avjf+eQjftK+krpZJZ1bX9q45zBKSpGL009Gnsbp6qCEkdblA/PqgRQ++2PkDAICK9suBTWaW1JVGDh76FNDbEpKkYrQjXcV3xv6bISR1tY07SF21J//Bng0AvrnvWmL4mp0ldZWa6upHKisqj7CEJKmYLRrcwB/6ex9bSV0ohq+O/M29a7tuAABQ0XoN8JK1JXWB3PBBwwLgM5QkSUV+Xh64btyZ5PI43Zak3R9keCXsqLhuT/+zPT8ifWvyFuAyi0vqbPV965akQphsCUlSKVheO5GFw2YaQlLnS4WLB9155+auHwAAVIUbgKetLqnTjmGpsGVA/7rxlpAklZLrx36KV9Pe1kZSp3p6Y8W67+R1zp3Xt/v6+B1EPm93SZ1lWP2QpQGGWEKSVErWVdbz0zGnGUJSp4mBs8ff9qcd3TcAAPjuhAVEFplfUlKVmYrnetfUvNMSkqRS9N+j/pHne40yhKTOWP7fPmTxfTfl+18nvCtJOBNodyNISmLEkOEvAlWWkCSVorZQwTfHfdoQkpLKRtJzknyBZAOA745/FPiu20FSvvr06v1gRTr9DktIkkrZ7wYezb31vt1Jyl+IfGfIb+75Y88NAACybecDa90ckvb8KEZ26MDBfQwhSSoHXx93Bu2pjCEk5XPevL4tl7sg6ZdJPgD4/uR1RC52i0jaU4P6DbwzFYJ3/pcklYWne+/NzcM/YAhJey7yleF3LF3T8wMAgBEvfBN4xK0iqaPS6dSGur5997eEJKmcfG/Mx9lY0d8QkvZk9f/4oA25b3XGV+qcAUDjlHYiZ7phJHXU8EFD/gjUW0KSVE42V9TygzH/bAhJeyCcFZYubSucAQDAdycsJvBrN46k3amqrHqyV2WvIywhSSpHvxxxCk/13scQkjrilsG/uW9hZ32xVKe+tBjmADvcRpLeyohBQzcAFZaQJJWjbEhx7XgvnpW0m+U1tAbC2Z35NTt3APCd8U8S+LqbStKu9Ovd955MOn2oJSRJ5Wxp3aH8fuDRhpC068V64LpBv7l3ReEOAADachdBXO3mkvT3QgitgwcMHGIJSZLgunGfpS1VaQhJO/Nymtwlnf1FO38A8INJm4lc4PaS9PeG1A9aEmCMJSRJghd7jaBp1AcNIelNQgxfql+8dGPhDwAARkz4PoT73WyS/iKdSb/St3cfL/2XJOl1fjz6Y6ytHGgISa/34MABe/2wK75w1wwAGkOOGM4AottOEsDIgcOWA7WWkCTpb7ZmavjO2E8aQtLfROaE+fOzxTMAAPjuuCUQmtx6kqqrqpZVVVYeaQlJkt7stmHH8Vjf/QwhCeC/B//2vv/rqi+e6tKXnuNs4FW3oVTGAnHE4GGtXX68kSSpSOVIcd24M4khGEMqb9uy2fQXuvIbdO0J+ffGPw/xarejVL7qa/svSYfUgZaQJGnXHum3P4sGTzOEVMZiCFcNu+PuZ4p3AADQu+ZKiCvdnFL5CanUtoF96/a2hCRJu/ftfT7N9nQvQ0jl6fmY2v7Vrv4mXT8AmDtqG4Tz3J5S+Rk6YOA9pMJwS0iStHuvVA3i56M/bAipDIUYzxna8scu//h893wm9zvj/5PA79ysUvnIZCpe7Nurz9stIUlSx/3HqI+wutcwQ0jl5a6Bv73/v7rjG3XTTblCJIQzgJzbVioPIwcPXRmhxhKSJHXcjnQV3xr774aQykcuFeOcALGEBgDA9eMfBH7k9pVKX+9evR6uzFS80xKSJO253w4+lgf7H2IIqSyEHw387f33dtd3697HcqVSXwQ2upGlkpYbNnBoBvBZRpIk5em68WeSDT5BVypxm0Mme363Lsm79ce7ftzLwGVuZ6l0DexXd2cqhH0tIUlS/p7oM55fDzvREFIJi4RLBjUvXVW6AwCA9W3zIKxwc0ulJxVSm+v61U20hCRJyX137CfYnKk1hFSantpUue7abj9f7/Yfc/7kVgLnuL2l0jN88JAHAgy2hCRJyW2oqOPHY043hFSCciGeNf62P+0o/QEAwA3jbybQ7GaXSkdlZeXKmqpeR1hCkqTOc+OIWTxbs5chpBIS4bdDF99/c0987567s0iWM4E2N79UGkYOHvYyUGkJSZI6T3sqwzfGfdYQUunIxpCb01PfvOcGAN+b8DiR693+UvHrU9P7gUwqfbglJEnqfEsGHMndA7zITioJIXx76OKlD5ffAAAgU3UhsMa9QCrmY1hoGzZgUJ0lJEnqOvPGnUlbqDCEVNQnzqxvb89+pSdfQs8OAL6913qIje4JUvEaXDdwSQipvS0hSVLXeb5mFDeNONUQUjHLxQuG37G0R/8AnurxCOsnXA/hYfcGqfik05m1/frUHmwJSZK63g/G/gvrKgcYQipCER4btDHe0NOvo+cHAPNDllx2jruEVHxGDBz8GNDPEpIkdb1X0735wd7/YgipGIVwVli6tMdvgp8qiBjfm/RbCL90r5CKR3VV1fLqquojLSFJUvf51fCTWF470RBSMa39ib8csvje5kJ4LamCqZKOnwO2u3tIxWHkwKHbgbQlJEnqPjlSzBt3FjEEY0hFIEJrTKXPKZTXUzgDgG9PeAriPHcRqfDV9e17VyqdPsgSkiR1v4f7H8gdg6YYQioCITB38KJ7nnAAsDOZ9kuBF91NpEI+iIXtA/sNGGUJSZJ6zjfGfZbtqWpDSIXtpQy5ywvpBRXWAOBbk7cQ+ZL7iVS4hg4ccncIYaQlJEnqwVVF1RD+a9Q/GkIqZJEv1i9eutEBwFsZMf4nRO51b5EKTyadWV3bq+ZwS0iS1PN+NuY0VlcPNYRUmB4YdPR9Py60F1V4A4DGkCMV5gDRfUYqLCOGDHsS6G0JSZJ63vZUNd/Z+5OGkApPhDAnNJJzANARN4y/i8B/uN9IhaOmuvqRqkyFj/2TJKmALBoynT/28768UkGt/iP/Ofg39/6uEF9bqmCrhXgu8Kq7j1QQcsMHDQuAzxySJKmQFhohcO34M8kV8Gm9VGa2ZWk/r1BfXOEeKa6f+AJwpfuP1PPq+9YtSYUw2RKSJBWe5bUTWThspiGkAhDgiuG/fXClA4B8tFZ8FXjG3UjqwYNEKmwZ0L9uvCUkSSpc14/9FK+mvU2P1MOea6vJXV3Q5/YFne9He2+HcI77kdRzhtUPWRpgiCUkSSpc6yrr+emY0wwh9aTA2cNvWbrVAUAS3xk/H/hf9yap+1VmKp7rXVPzTktIklT4/nvUP/J8r1GGkHrGkkGL75tf6C+yOO4WEpkDZN2npO41YsjwF4EqS0iSVPjaQgXfHPdpQ0jdLxdS4YxQBI+yL44BwHcnPAR83/1K6j59evV+sCKdfoclJEkqHr8beDT31r/dEFI3ipHvD1p07/3F8FqL53khbeH8/9/enYfXWdb5H/98n+eck5ysTXKWbG3aNAu1yDICAx03fuN2Xeg1Oo5c/pzxN8oM6AhCw6ooWkYHZcTBUmhoU4VhcXA6A45VKqUpUVtL0oZqWytLWzZbWpamdCNNzzn3748Zr3EpJU1zkvM85/36E2hynvd9n5D72+R5JO1lewETwJStT6QqCAEAQPAsaJurrPmEACbGfsvpS0F5scEZANzR/pLMfYX9BeRfckpijWfGnf8BAAigp8tn6L8aP0QIYAKYdH2qb90uBgD54PYvkPQE2wzIH9/39tZUVp5MCQAAgqtnxkXaF60mBJBf2/bGhm4N0gsO1gBg8RlHJF3BPgPyp7EuvVGyWkoAABBc+6OV+s6MvyMEkEcmm9u+fOthBgB5HQJ0/Eiy5Ww3YPyVxEq2xUvj51ACAIDge6Dxw9pePpMQQF4O/1qZ7B34YdBetxfI2lm7VNII2w4YX03J+r2SopQAACD4suZpfnsXIYDxl8n6LpBvrmAOAL7dtlVyt7HvgPFTXV7VH/H9t1ACAIDwGKx5i1Yn3k4IYHzdVr9i/WYGABOpxJsnuV3sPeDEmdlIqi6RpgQAAOFzS9ulOuLFCAGMAyftGZEF9ul0wR0ALGjfJ9k8tiBw4tK1ibUmTacEAADhszPepKXN5xMCGA+mLzb3DrzCAGAyNLb3yDTILgTGzo/4L1WVVZ5OCQAAwuvOlk/qlViCEMAJnf31q1SmvCfI1xDsAcA8y8m5uZIc2xEYm+ZkwxMyVVECAIDwOhQp0+LWiwgBnICcXJf19WUYAEymxZ2r5fSfbEfg+JWWlDxeEo3NoQQAAOG3vOE8bal6EyGAsfnPdO/6h4N+EV4oliLqXS7pEHsSOA4m15SoHwnN1wEAAHBMOXm6pa1LzowYwHFw0oiy2c+F4VrC8Y3/wrbn5fQvbE1g9Gorp/zc9/1TKAEAQPHYXH2yHk69mxDAcTDZTam+x7YyACioVan4mqTn2J7AKN4unvdaoqpmBiUAACg+3TMv0bAfJwQwOrv9mN0YlosJzwBgceMhmX2B/Qm8sfq6RL88a6QEAADF56WSpO6d9teEAEbBmV1dt7x/HwOAQrSo7V5Jq9mmwOuLRKI7q+IVZ1ECAIDi9d2pf6Nd8QZCAMdiGky9deCeMF1SyG7+ZU45b66kHLsVOLrmVP2zTiqjBAAAxeuwX6KFrRcTAnh9TsrNtXnhOluG7+7fS9oGJd3NfgX+WHk8vikWiZ5NCQAAsCr159ow5XRCAEdhZvekVg6G7qfLw/n4r1zkGkn72LbA778zGurSEUk8+wcAAEiSbmnvUtZ4IjDwBw75yn4xjBcWznf7ktbdcu7r7FvgfyWm1K3xPG8WJQAAwG89VdGuH9V/gBDA73J2Q+3KwVA+YS684769mW9KeordC0ieeftrqqo7KQEAAP5Qz8xPaX+kkhCAJCc9lynP3hzac0FoV27p7BE5dw1bGJAaU6nHTEpRAgAA/KGhaI3uavkEIQBJMnd547LBQwwAgqin8wFJK9jFKGaxWOzZspIybvwHAABe19Lm8/VcWQshUOyn/9WplevvD/MVhv+OH2ZdkjJsZhSr5lTDi5JKKAEAAF5Pxovo1rZLCYFilrOczTXJMQAIskXtW2RuMfsZxaiirPyxiOefSQkAAPBGfl43R4/WnUMIFCUztzj5SP9g2K+zOJ75kclcJ+kVtjWK6ouYLNOQSFdRAgAAjNaCtkuV8SKEQLHZm4lmv1QMF1ocA4Bvz94j6R/Z1ygmqdrEGpPaKAEAAEbr2bLp+s/GjxACRcWcu75h+YaXGACESeOOhZJtYnujGPh+5JXqisrTKAEAAI7Xd1r/TntitYRAcXB6PPGqu61YLrd4BgDzzs3Icl3scBSDpmRqi6RqSgAAgON10C/Xt6f/PSFQLBOAy21w8AgDgDBa1NkraRmbHGFWGos9WRornUMJAAAwVsua/kJPVHYSAmE//P8otWr98mK6Yq/4Ftm6JB1msyOsGtONhyT5lAAAAGOVk6f57V1yZsRAWB2xnK4otosuvgHA4vZtkm5hvyOMaiqr10bMO40SAADgRG2sPlU/SZxLCISSc3Zr8pH1TzAAKAaZ3FckvcC2R5iY2XBiSu1USgAAgPGyoP1SDXulhEDITv96KZYbKcqnxBXnAOA7J+2X2XXsfIRJfSL9qJk1UwIAAIyX3SVp3Tf1/xICoWKevljT94u9DACKSUPbHZLWsf0RBhE/sqsyXnYmJQAAwHi7Z/r/067SekIgLH6RqJn+7WK9+OIdAMyznMwuk+R4DyDomtIN2ySVUwIAAIy3Ya9Ui2d8ihAIBfM015YuzTIAKEaL2tdK+h5vAwRZWWnp5pJIlMf+AQCAvHk4/V5trD6VEAg2p39PPrzuJ8WcwCv6TZCzqyQd5N2AQDK5xmSDSeIZPQAAIH/nJjPNb+9SjuMDgms4m/OvKfYIvIOXtP9GcjfxfkAQ1VbXrPHMZlMCAADk2xOVnXqo/n2EQCA56RsNfY8+wwAAUnnZjZJ7lhAI1pvXDtZVTWmnBAAAmCjdMy/WQZ/bDiFwdjj/8I1kYADw326e+pqcPkcIBElDKr3OZGlKAACAibInVqt7Wj5OCASKSdfUr9jIr30zAPgdPZ33SfopIRAEsUj0+fLSsrMpAQAAJtp90z6m38SnEgJBsTbRu+67ZGAAcJQaNldSjhAodE3p+p2SSikBAAAm2hGLauHMiwmBIHCec3ONR78zADiq29s3yLk7CIFCVhEv3xD1o39KCQAAMFl+mnyHBmrPIgQK3b8mVq0fIAMDgNfn+9dKepUQKEimbH0iVUEIAAAw2Ra0zVXWfEKgUL9xPmBe5gt0YABwbLe3vSjpnwiBQpSckljjmXHnfwAAMOmeLp+h/2r8ECFQoOd/90/JhzfsJAQDgDc2dGS+ZE8SAoXE9729NZWVJ1MCAAAUip4ZF2lftJoQKDTbD2bKv0UGBgCjs3T2iExXEgKFpLEuvVGyWkoAAIBCsT9aqe/M+DtCoKA42RUz+vqGKcEAYPQWtS+T3I8JgUJQEi3ZHi+Nn0MJAABQaB5o/EttL59JCBTI4V+r0r0D36cEA4Djl7PLJR0hBCZbU6p+SFKUEgAAoNBkzdf89rmEQEFsR8nrIgMDgLFZ0vFrSd2EwGSqLq/qj/j+WygBAAAK1WDNGVqdeBshMNluT/f2byQDA4Cx80vmSXqZEJgMZjaSqqlNUwIAABS6BW2X6ogXIwQm6RtnDWWyuXmEYABwYrpbhuTsy4TAZEjXJtaa502nBAAAKHQ74s1a2nw+ITBZE4AvN/YN8he3DADGwd62RZL4URJMKD/iv1TU44YLAAAX+0lEQVRVVnk6JQAAQFDc2fJJvRJLEAITzP06OZS9nQ4MAMbHUstK3lxCYCI1JxuekKmKEgAAICgORcq0uPUiQmCC2eU2OMjN2xkAjKPFbY/I9AAhMBFKS0oeL4nG5lACAAAEzfKG87Sl6k2EwIRwph+ketfx+HYGAHmpdaWkYUIgr0yuKVE/wvsTAAAEUU6ebmnrkjMjBvJ7+JdGPGdXUYIBQH50d2yX2c2EQD7VVFav9X3/FEoAAICg2lx9slam3kUI5Pkw676V7B14khIMAPLHH7lB0k5CIB/M815LVNe2UAIAAARd98xLNOzHCYF8edE3dwMZGADk18LZByR3LSGQD/V1iX4za6IEAAAI/OmsJKXvTv0YIZAndm3tysFX6cAAIP8Wd9wlqZ8QGE+RSHRnVbziLEoAAICwuHfax7Ur3kAIjLcNybcN3EEGBgATxJxy3sWScrTAeGlO1D/rpDJKAACAsDjsl6i79TOEwPhymmvzOIsxAJhIS9oG5eweQmA8lMfjm2Kx6NmUAAAAYdObepc2TDmdEBifs7+5f0utWvdTSjAAmITd518taR8hcIJyDXXpiCSelQMAAELplvYuZY2jB07Ya9lc9vNkYAAwOZa07pbcjYTAiUhMqVvjed4sSgAAgLB6qqJdP6r/ACFwQpzZPzeu2vAsJRgATJ6hzE2SniIExvQGNG9/TVV1JyUAAEDY9cz8lPZHKgmBsfqN84a/QQYGAJNr6ewROXcNITAWjanUYyalKAEAAMJuKFqju1o+QQiMicldVb9i40FKMACYfD2dD0haQQgcj1gs9mxZSRk3/gMAAEVjafP5eq6shRA4Xj9P9K7/HhkYABQOsy5JGUJgtJqTDS9KKqEEAAAoFhkvotvaPksIHI+cJ801yZGCAUDhWNS+RbJFhMBoVJSVPxbx/TMpAQAAis2auj/To3XnEAKj5O5I9K5bRwcGAIXHj10n6WVC4FhMlmlIpKsoAQAAitWCtkuV8SKEwBvZbxF3HRkYABSm7pYhyV1PCBxLqrZujUltlAAAAMXq2bLpur/prwiBY3LmvpJ8aPAFSjAAKFxDHd2SbSIEjsb3IkPVFVWnUAIAABS7O6ZfoL3RGkLg9WzbF917CxkYABS2pZZVLjuXEDiaplRqsyT+TwcAAIre/kilemZcSAgclTl1tS/fepgSDAAK35KTVkn2fULgd5XEYltLY6Xc8QYAAOB//LDxL7S1gt+MxB8d/nuTq9YtowQDgODw3RWShgmB32pKNx6QxN1uAAAA/kfWPP1Lx5VyZsTAb2WyXq6LDAwAgqW7Y7vMbiYEJKmmsnptxLzTKAEAAPD7Nlafqp8kziUEfmth/cpB7qnGACCA/JEbJO0kRHEzs+HElNqplAAAADi6Be2XatgrJUSRc9KeEdk/UoIBQDAtnH1ActcSorila9OPmlkzJQAAAI5ud0la35v2UULguubegVfIwAAguBZ33CWpnxDFKeJHdlWVx8+kBAAAwLHd3fK32lVaT4gi5aQtqWz5YkowAAg4c8p5F0vK0aL4NCXrt0lWTgkAAIBjG/ZK1TPjIkIU7QTA67K+vgwhGAAE35K2QTm7hxDFpaw0vrkkFptDCQAAgNFZkX6fNlafSoji80B6Vf8KMjAACA/nXy1pHyGKhMk1JutNEs+0AQAAGO23zGaa396lHMeU4llzaUSedw0lGACEy5LW3ZK7kRDFoba6Zo1nNpsSAAAAx+eJyk49VP8+QhQJk76Zerj/KUowAAifocxNktjcoX9T2cG6qintlAAAABib7pkX66DPbZSKwG4/5n2dDAwAwmnp7BE5x4+3hFxDKr3OZGlKAAAAjM2eWK3uafk4IcLO6XN1y/v5NWkGACHW0/mAJG5wEVKxSPT58tKysykBAABwYu6b9jH9Jj6VEOH1WPLt6+4iAwOA8DPrksQjLkKoKV2/U1IpJQAAAE7MEYtq4cyLCRFOTpa7zObxqHQGAMVgUfsWyRYRIlwq4uUbon70TykBAAAwPn6afIcGas8iRMiYdG9q5eBqSjAAKB5+7DpJLxMiNF/FsvV1Ke5UAwAAMM4WtM1V1nxChMdrvuW+QAYGAMWlu2VIctcTIhyS1Yk1nmcdlAAAABhfT5fP0A8aP0iIkDDpa7UrB5+jBAOA4jPU0S3ZJkIEm+97e2uqKk+mBAAAQH70tF6kfdFqQgTf80fKct8kAwOA4rTUsspl5xIi2BqT6Y2S1VICAAAgP/ZFqnTH9AsIEXTOrmhcNniIEAwAiteSk1ZJ9n1CBFNJtGR7PBY/hxIAAAD5dX/Th7W9fCYhAnv415rkqoH/IAQDAPjuCknDhAieplT9kKQoJQAAAPIra77mt88lRDDlzHmXmeRIwQAA3R3bZXYzIYKluryqP+L7b6EEAADAxBisOUOrE28jRMA4aUnykf5BSjAAwG/5IzdI2kmIYDCzkVRNbZoSAAAAE2tB26U64sUIERz7LKsvk4EBAH7XwtkHJHctIYIhXZtYa543nRIAAAATa0e8WUubzydEQJjs+lTful2UYACAP7S44y5J/YQobL7nv1xVVnk6JQAAACbHnS2f1CuxBCEK/vRvW/fG9txGCAYAOPo7xCnnXSwpR4vC1ZSqf1ymKkoAAABMjkORMvW0XkSIQpfNXda+fOthQjAAwOtZ0jYoZ/cQojCVxkoeL42VzKEEAADA5Hqw4Tz9unIWIQqUSStTj6x/kBIMAPBGnH+1pH2EKLivYq4pWT/C+wYAAGDy5eRpfvvlcmbEKDyZTE5zycAAAKOxpHW35G4kRGGpqaxe6/v+KZQAAAAoDJurT9bK1LsIUWCcswUNj6z7FSUYAGC0hjI3SXqKEIXBPO+1RHVtCyUAAAAKS/fMSzTsxwlRKId/aU9p1P8qJRgA4HgsnT0i564hRGGor0v0m1kTJQAAAArLiyUpfXfqxwhRMBMA+0L1Q2v3EIIBAI5XT+cDklYQYnJFItGdVfGKsygBAABQmO6d9nHtijcQYtIP/9qcypUtIQQDAIyVWZekDCEmT3Oi/lknlVECAACgMB32S9Td+hlCTPbRxdcl1tfH2YUBAMZsUfsWyRYRYnKUx+ObYrHo2ZQAAAAobL2pd+kXU04jxOT5XvLhdT8hAwMAnCg/dp2klwkx4XINdemIJJ4tAwAAEAC3tHcpaxxxJsFr2az/OTIwAMB46G4Zktz1hJhYieq6NZ7nzaIEAABAMDxZ0aEHG95PiAlmzt3Y0PfoM5RgAIDxMtTRLdkmQkzQG8OzAzXV1Z2UAAAACJbFrZ/WgUgFISbO89nIyE1kYACA8bTUsspl5xJiYjQm0oMmpSgBAAAQLEPRGv1ryycIMVGcXVG/YuNBQjAAwHhbctIqyb5PiPyKxWLPlpWWceM/AACAgPqPqefrubIWQuSdrU6uGvgPOjAAQL747gpJw4TIn+Zkw4uSSigBAAAQTEcsqtvaPkuI/Mq6nC4xyZGCAQDypbtju8xuJkR+VJSVPxbx/TMpAQAAEGxr6v5Mj9adQ4g8MafF6UcGfkkJBgDIN3/kBkk7CTHOX8RkmYZEuooSAAAA4bCg7VJlvAghxv8b56EjudyXCMEAABNh4ewDMvd5QoyvVG3dGpPaKAEAABAOz5ZN1/1Nf0WI8ZZzX2rsG3yZEAwAMFEWddwtqZ8Q48P3IkPVFVWnUAIAACBc7ph+gV6NTiHEOHHSluSrbhElGABgQplTzrtYUo4WJ64xldokqYYSAAAA4bI/Uqme1gsJMW4TAK/LBgePEIIBACbakrZBObuHECemJBbbGo+VzqEEAABAOC1r+KC2VvCbnid++Nf96VX9KwjBAACT9ib0r5a0jxBj15xs2CeJu8MAAACEVNY83dLWRYgTc1i57DVkYACAybSkdbec+zohxqamoupR3/f/hBIAAADh9ljNn6gveS4hxsrpG6m+x7YSggEAJtvezDclPUWI42Nmw4naRBMlAAAAisOtbZdq2CslxPHbkYsc5i8dGQCgICydPSLn+HGc45SuTT9q0lRKAAAAFIddpfX63rSPEuI4mXNX1a/YeJASDABQKHo6H5DEDTlGKeJHdlWVx8+kBAAAQHG5u+Vvtau0nhCjtzaxav19ZGAAgEJj1iUpQ4g31pSs3yZZOSUAAACKy7BXqp4ZFxFidHKedJlJjhQMAFBoFrVvkWwRIY6trDS+uSQW47F/AAAARWpF+n3aWH0qId7YdxK969aRgQEACpUfu07Sy4R4HSbXmKw3SUYMAACA4uTMNL+9SzmOQ8eyT1ldRwYGAChk3S1DkrueEEdXW1mzxjObTQkAAIDi9kRlp1bUv5cQr8PMzUv1rdtFCQYAKHRDHd2SbSLEH252O1g3ZUo7JQAAACBJC2deooM+t4X6I06PJ4bcrYRgAIAgWGpZ5bJzCfH7GpLpdSZLUwIAAACStCdWq3tb/oYQfzwBuNwGB4/QgQEAgmLJSatkeoAQ/y0WiT5fHi87mxIAAAD4Xf827a/1m/hUQvyvZalV65eTgQEAgre6V0oaJoTUlKrfKamUEgAAAPhdRyyq7rbPEEKSk0ZMdiUlGAAgiLo7tsvs5mLPUBEv3xCNRP+UDQEAAICj+UninRqoPavoO5jp5mTvwJPsCAYACCp/5AZJO4v3q5iy9XUp7uwCAACAY1rQNldZ84s5wW4/6t3ATmAAgCBbOPuAzH2+WC8/WZ1Y43nWwUYAAADAsTxdPkM/aPxg0V6/M7u6bnn/PnYCAwAE3aKOuyX1F9tl+763t6aq8mQ2AAAAAEajp/Ui7YtWF9+FmwZTbx24hx3AAADheEc7OfdZSdliuurGZHqjZLWsPwAAAEZjX6RKd0y/oNguO2tmn7Z5yrEDGAAgLHo610l2e7Fcbkm0ZHs8Fj+HhQcAAMDxuL/pw3q6vLV4Lti5hcmHB9az8gwAELpTsa6VtKMYLrUp1bBHUpRFBwAAwPHImq9vtXcVy+XuiuYyX2LVGQAgjBa075NzoX+uZ3V55UDE985gwQEAADAWgzVnaHXireG/UGeX1vT9Yi8rzgAAYdXTeZ+kH4X18sxsJFVTl2KhAQAAcCIWtF2mI14szJf4UGrVwFJWmgEAQs8uk/RaGK8sXZtYa543nTUGAADAidgRb9bS5vPDenmvOZe7mFVmAIBisLh9m8x9MWyX5fv+S1VllaezwAAAABgPd7Z8Uq/EEqG7LnPu2vSqwW2sMAMAFItFHTcrZL8K0JSsf0KmKhYXAAAA4+FQpEw9rReF7bIeSqxaP5/VZQCAomJOnneB5HaF4WpKYyWPl8ZK5rCuAAAAGE8PNpynX1fOCsfFOL2krD5hkmNlGQCg2Nze9qLM/6SC/gXA5JqS9SPsZwAAAIy3nDzNb79czizwx38zuyDVt24Xq8oAAMVqUduP5XRrkC+hpqJ6re/7p7CYAAAAyIfN1SerN/WuYF+EaX6yd+CHrCYDABS7I9GrJW0M5NcxzzuUmFLbwiICAAAgnxbOvETDfjyoL/+XBzPln2cVwQAA0p0zhuVl/0LSS0F76fU1iQEza2IRAQAAkE8vlqT03akfC+JLf8W53Idn9PUNs4pgAID/dvusZyT3l5JGgvKSI370hcryijNZPAAAAEyEe6d9XLtLG4L0ko+YvI/wyD8wAMAfW9y5WqZPB+XlNqfTz0gqZ+EAAAAwEQ77Jepu/YfAvF6T+2yyt/8RVg4MAHB0izrukHRLob/M8nh8UywSO5sFAwAAwERamX63fjHltCCc/r+V7F2/iBUDAwAc21D75XJ6sIBfYa6hLh2RZCwWAAAAJtot7V3KWkEfpR5OZsqvYqXAAABvbKllZf7HJG0oxJeXqKr5ued5s1goAAAATIYnKzr0YMP7C/PFmQYjlvuI9fVlWCkwAMDoLJ75quTeI2lLQW1Yzw7UTKnpYIEAAAAwqd8ut35aByIVhfaynnTOO6925eCrrBAYAOA4v6p1vizPvUfS9kJ5SY2J9KBJKRYHAAAAk2koWqN/bflEIb2kbeZlzk339u9mdcAAAGNze+cOyT9X0nOT/VJi0ehzZaVl3PgPAAAABWFp8/l6vmxaIbyUHTnf3p18eMNOVgUMAHBiFs98Ti77bkmTOk1sTtXvllTCggAAAKAQZLyobpv52cl9EU4v+fLeU79i4GlWBAwAMD56Zj0pZd8t6YXJ+PSVZeXrI370TBYCAAAAhWR14q3qr520H1J9IRdx/6eut38LKwEGABhfi2dtkpedI2nrRH5ak2XStekpLAAAAAAK0fy2y1zGi0z0p31a2ezb61es38wKgAEA8uP2Wc8oEn2bpF9O1KdM1dat8Ty1ER8AAACF6Lny6fZA44cn7POZ9CvPRd6W6ntsK/XBAAD5tXDGLo1E3ylna/L9qXwvMlRdUfVmogMAAKCQLWm9MPtqdEreP4+TBg7L3pFYtXYH1cEAABPjzhl7NXzovZL7cT4/TWMytVlSLcEBAABQyA765f7iGRe6PB//f5Qty53b3DvwCsXBAAAT6+5TD2qo4/1yujEfH74kFtsaLyk9h9AAAAAIgmWNH9TWivz85qqTFiezFR9sXDZ4iNIYKyMBxsWFT/21zPVIio/Xh5zZ1PKY7/t/QlwAAAAExZtf3fRa92MXxcfxQx6W0z+kVq27g7o4UfwEAMZHT/u9Mvtzye0ajw9XU1H1KId/AAAABM2m6jfH+5LnjteHeyFn3js5/IMBAArPova18nSGnAZO5MOY2eFkTW0DQQEAABBE3+y88sCIFzvRD7MhYrmz61f2P0pRMABAYbq9c4cq4u+U1D3WD5GuTT4q81qICQAAgCAaitZW3DPtbw+O8Y87SbcdzJbPqV05+Bw1MZ64BwDy58Kn3ivL3SlZ/Wj/SMSP7GptmlopWTkBAQAAEFS+y478+9oPx9KHdx/PH3vZnC5Irlq3jILIB34CAPnT0/6QctHTJFs+2j/SlKzfxuEfAAAAQZc1P3ZT5zXPj/a/N6de8zKncvgHAwAE15LW3Vrcdp6c5koaOdZ/WlYa31wSi80hGgAAAMJgbd05zb+YctobPbYv48yuT7x93XuSD2/YSTXkE78CgInz6adOl3M9cnrLUXaia2uevsUzbzahAAAAEBa1I3ue//6aD0z1lDvav17ncnZh+pGBX1IKE4GfAMDEub19gxraz5LpU5L2/94XxsqaNRz+AQAAEDZ7YrVT72/+q6f+4B8fkrPPJWunn8PhHxOJnwDA5Pj0E01ytkBOH/JkB2dOm37AZGnCAAAAIGx8l33lwZ+9r6I8e6BEZg9mckc+07hqw7OUAQMAFJcLn/hoU7Lhb8rLys4jBgAAAMLqHS//bPkNm666K9m7/j5qgAEAitYp33Dlh0dylzjnrpVURREAAACEyB45tyCXjfzL1nm2jxxgAABI6pjnEvIzV8qsS1KMIgAAAAiwA3LutpFs5OvPzLO95AADAOBog4Ab3Ely2a/J6YPUAAAAQMAclHO3en7kG49fa6+QAwwAgNEMAr46cpYz7ypz+kvxxAoAAAAUtl1OdptlvNufnGcvkwMMAIAx6PyKmyHLzJXs751URhEAAAAU0JFqo0y3HYp7d//mcnuNHmAAAIyDthtc0stlLpHsM5ISFAEAAMAkyUr6sZz71pPXRVeSAwwAgHwNAm5xJdqXfY8nfVzShyRFqAIAAID8c0/I6T4vErnz8c/bM/QAAwBgAnXOc43ycx9xpgskdwpFAAAAMM5elfQDOXfXk1+M9MrMkQQMAIBJdtJXj8zJms43Zx+Q1EoRAAAAjNGLkpaZ0w8OZ/0Vz8yzYZKAAQBQoDq+5lotk/uAM/d+Se+QFKUKAAAAjmG7yf3QOS1rzEb6+uZZhiRgAAAEbRgwzyUsmn2fc3q7ZHMkN0s8VhAAAKDoD/xyWi1PP8t6ft+2z9tWkoABABAyb/6aqzmcyZ5j5s7Jyd5q0hmSKigDAAAQWsMm2+LMrZW0Ws7/2ZNftB1kAQMAoNg4Z7P+SdOcZU7KOW+25E6SNEvSmyTVEggAACAwjkhum2SbJNvs5H7le/6mx9u0TedbljxgAADgdU2f56ZEfTX4yqSdWZNzljLLNTpZWlKdpJikMpmVyKlUcnGZYnIqpx4AAMAJnVQOymlEsn0yZeXcXkk5SXslvSrndsjzdrqc2+lcbkdJLvrCr76s3dylH3h9/x8ihq6bbdi9GwAAACV0RVh0ZGF0ZTpjcmVhdGUAMjAyNS0wNS0zMFQxOToyOToyMyswMDowMOcrI3kAAAAldEVYdGRhdGU6bW9kaWZ5ADIwMjUtMDUtMzBUMTk6Mjk6MjMrMDA6MDCWdpvFAAAAAElFTkSuQmCC;" vertex="1" parent="1">
          <mxGeometry x="1450.68" y="1242" width="118.63" height="106" as="geometry" />
        </mxCell>
        <mxCell id="zULvW_X-Gff7D0ABrv8q-7" value="" style="endArrow=classic;html=1;rounded=0;entryX=0;entryY=0.5;entryDx=0;entryDy=0;strokeWidth=3;strokeColor=light-dark(#000000,#000000);exitX=1;exitY=0.5;exitDx=0;exitDy=0;" edge="1" parent="1" source="zULvW_X-Gff7D0ABrv8q-3" target="zULvW_X-Gff7D0ABrv8q-6">
          <mxGeometry width="50" height="50" relative="1" as="geometry">
            <mxPoint x="1160" y="1160" as="sourcePoint" />
            <mxPoint x="1690" y="1160" as="targetPoint" />
            <Array as="points" />
          </mxGeometry>
        </mxCell>
        <mxCell id="zULvW_X-Gff7D0ABrv8q-8" value="" style="endArrow=classic;html=1;rounded=0;entryX=0.5;entryY=0;entryDx=0;entryDy=0;strokeWidth=3;strokeColor=light-dark(#000000,#000000);exitX=0.5;exitY=1;exitDx=0;exitDy=0;exitPerimeter=0;" edge="1" parent="1" source="LWCK1zUq5cx6b3XLf9eT-35" target="zULvW_X-Gff7D0ABrv8q-3">
          <mxGeometry width="50" height="50" relative="1" as="geometry">
            <mxPoint x="980" y="1200" as="sourcePoint" />
            <mxPoint x="1511" y="1200" as="targetPoint" />
            <Array as="points" />
          </mxGeometry>
        </mxCell>
      </root>
    </mxGraphModel>
  </diagram>
</mxfile>
